<?xml version="1.0" encoding="utf-8"?>
<!-- Generator: Adobe Illustrator 15.0.0, SVG Export Plug-In . SVG Version: 6.00 Build 0)  -->
<!DOCTYPE svg PUBLIC "-//W3C//DTD SVG 1.1//EN" "http://www.w3.org/Graphics/SVG/1.1/DTD/svg11.dtd">
<svg version="1.1" id="Layer_1" xmlns="http://www.w3.org/2000/svg" xmlns:xlink="http://www.w3.org/1999/xlink" x="0px" y="0px"
	 width="108.726px" height="50.048px" viewBox="0 0 108.726 50.048" enable-background="new 0 0 108.726 50.048"
	 xml:space="preserve">
<g>
	<g>
		<path fill="#FFCF01" d="M15.859,43.051l-0.207,0.744c-1.861-0.248-3.333-0.966-4.415-2.15c-1.084-1.187-1.624-2.586-1.624-4.199
			c0-0.648,0.106-1.338,0.32-2.068s0.673-1.848,1.376-3.352c0.675-1.419,1.082-2.35,1.22-2.791s0.207-0.855,0.207-1.241
			c0-0.909-0.324-1.692-0.972-2.347c-0.648-0.655-1.572-1.066-2.771-1.231l0.228-0.868c1.337-0.166,2.505-0.59,3.505-1.272
			s1.724-1.465,2.172-2.348c0.448-0.882,0.707-2.261,0.775-4.136c0.055-1.779,0.307-3.24,0.756-4.385
			c0.447-1.144,1.15-2.23,2.109-3.257c0.957-1.027,2.085-1.882,3.381-2.564c1.297-0.683,2.751-1.155,4.364-1.417l-0.207,0.787
			c-1.503,0.331-2.714,0.823-3.63,1.478c-0.917,0.654-1.609,1.45-2.078,2.387s-0.738,2.218-0.807,3.845
			c-0.068,1.695-0.186,2.866-0.352,3.514c-0.262,1.103-0.748,2.154-1.458,3.152c-0.71,1-1.651,1.893-2.823,2.678
			c-1.173,0.786-2.523,1.427-4.054,1.923c1.42,0.566,2.523,1.378,3.309,2.435c0.786,1.058,1.179,2.187,1.179,3.389
			c0,0.581-0.09,1.206-0.271,1.876s-0.59,1.652-1.229,2.945c-0.736,1.527-1.195,2.574-1.374,3.14c-0.18,0.565-0.27,1.083-0.27,1.551
			C12.218,41.195,13.432,42.457,15.859,43.051z"/>
	</g>
	<g>
		<path fill="#FFCF01" d="M83.742,43.051c1.587-0.346,2.893-0.926,3.92-1.738c1.027-0.814,1.733-1.794,2.119-2.938
			c0.235-0.677,0.399-1.946,0.497-3.809c0.11-2.014,0.452-3.591,1.024-4.729s1.543-2.259,2.91-3.363
			c1.367-1.104,2.954-1.952,4.765-2.545c-1.521-0.592-2.659-1.387-3.412-2.387c-0.754-0.998-1.13-2.109-1.13-3.335
			c0-0.592,0.11-1.256,0.333-1.993c0.223-0.737,0.743-1.919,1.562-3.546c0.833-1.695,1.249-3.005,1.249-3.929
			c0-1.917-1.207-3.178-3.619-3.786l0.207-0.786c1.97,0.332,3.471,1.065,4.499,2.203c1.026,1.137,1.54,2.499,1.54,4.084
			c0,0.717-0.107,1.458-0.323,2.223c-0.215,0.766-0.662,1.802-1.343,3.109c-0.957,1.932-1.438,3.297-1.438,4.098
			c0,0.966,0.316,1.776,0.947,2.432c0.63,0.655,1.556,1.065,2.776,1.231l-0.24,0.869c-1.366,0.179-2.582,0.641-3.645,1.386
			c-1.063,0.744-1.809,1.62-2.236,2.627c-0.235,0.565-0.407,1.766-0.519,3.598c-0.138,2.221-0.461,3.882-0.971,4.985
			c-0.828,1.779-2.145,3.288-3.951,4.53c-1.807,1.24-3.717,1.99-5.729,2.254L83.742,43.051z"/>
	</g>
	<g>
		<g>
			<path fill="#231F20" d="M27.493,8.852h1.669l3.326,8.646h-1.711l-0.676-1.781h-3.529l-0.702,1.781h-1.711L27.493,8.852z
				 M28.337,11.144l-1.16,2.968h2.313L28.337,11.144z"/>
			<path fill="#231F20" d="M35.099,10.938v0.705c0.291-0.29,0.604-0.508,0.94-0.652c0.338-0.145,0.698-0.218,1.082-0.218
				c0.835,0,1.544,0.315,2.128,0.947s0.876,1.44,0.876,2.428c0,0.952-0.302,1.749-0.906,2.389c-0.603,0.641-1.317,0.961-2.145,0.961
				c-0.368,0-0.711-0.065-1.029-0.196c-0.316-0.132-0.633-0.346-0.946-0.644v2.954h-1.593v-8.673H35.099z M36.787,12.255
				c-0.506,0-0.925,0.173-1.257,0.518c-0.334,0.345-0.501,0.796-0.501,1.352c0,0.568,0.167,1.028,0.501,1.379
				c0.332,0.35,0.751,0.525,1.257,0.525c0.49,0,0.902-0.178,1.237-0.534c0.335-0.357,0.503-0.812,0.503-1.364
				c0-0.549-0.166-0.998-0.494-1.349C37.704,12.431,37.289,12.255,36.787,12.255z"/>
			<path fill="#231F20" d="M42.622,10.938v0.705c0.29-0.29,0.604-0.508,0.94-0.652c0.338-0.145,0.698-0.218,1.082-0.218
				c0.835,0,1.544,0.315,2.128,0.947s0.877,1.44,0.877,2.428c0,0.952-0.303,1.749-0.906,2.389c-0.603,0.641-1.319,0.961-2.146,0.961
				c-0.368,0-0.711-0.065-1.028-0.196c-0.318-0.132-0.634-0.346-0.947-0.644v2.954h-1.593v-8.673H42.622z M44.309,12.255
				c-0.505,0-0.925,0.173-1.258,0.518s-0.499,0.796-0.499,1.352c0,0.568,0.166,1.028,0.499,1.379
				c0.333,0.35,0.753,0.525,1.258,0.525c0.49,0,0.902-0.178,1.237-0.534c0.336-0.357,0.502-0.812,0.502-1.364
				c0-0.549-0.164-0.998-0.493-1.349S44.81,12.255,44.309,12.255z"/>
			<path fill="#231F20" d="M48.696,8.852H50.3v8.646h-1.604V8.852z"/>
			<g>
				<path fill="#231F20" d="M52.526,8.852c0.281,0,0.522,0.102,0.724,0.305c0.201,0.205,0.302,0.451,0.302,0.741
					c0,0.287-0.1,0.53-0.299,0.732c-0.2,0.202-0.438,0.302-0.715,0.302c-0.285,0-0.529-0.103-0.729-0.308
					c-0.201-0.206-0.303-0.456-0.303-0.75c0-0.282,0.101-0.523,0.299-0.723C52.003,8.951,52.244,8.852,52.526,8.852z"/>
				<rect x="51.723" y="11.485" fill="#231F20" width="1.604" height="6.013"/>
			</g>
			<path fill="#231F20" d="M61.07,12.231l-1.337,0.735c-0.25-0.263-0.499-0.444-0.744-0.547c-0.245-0.102-0.532-0.153-0.861-0.153
				c-0.602,0-1.087,0.179-1.457,0.537c-0.372,0.358-0.557,0.817-0.557,1.376c0,0.544,0.179,0.988,0.536,1.333
				c0.356,0.344,0.826,0.516,1.406,0.516c0.718,0,1.277-0.244,1.677-0.734l1.266,0.866c-0.685,0.893-1.654,1.338-2.904,1.338
				c-1.124,0-2.005-0.333-2.642-0.999c-0.637-0.667-0.955-1.447-0.955-2.34c0-0.62,0.155-1.189,0.465-1.71s0.741-0.931,1.296-1.229
				s1.175-0.447,1.86-0.447c0.635,0,1.205,0.127,1.711,0.38C60.334,11.406,60.748,11.765,61.07,12.231z"/>
			<path fill="#231F20" d="M66.709,10.938h1.604v6.56h-1.604v-0.84c-0.313,0.298-0.629,0.512-0.943,0.644
				c-0.315,0.131-0.656,0.196-1.024,0.196c-0.826,0-1.54-0.32-2.144-0.961c-0.603-0.641-0.903-1.437-0.903-2.389
				c0-0.988,0.291-1.796,0.874-2.428c0.584-0.631,1.292-0.947,2.126-0.947c0.383,0,0.743,0.073,1.08,0.218s0.647,0.362,0.935,0.652
				V10.938z M65.022,12.255c-0.496,0-0.908,0.176-1.236,0.526s-0.492,0.8-0.492,1.349c0,0.553,0.166,1.007,0.501,1.364
				c0.333,0.356,0.744,0.534,1.233,0.534c0.503,0,0.921-0.175,1.253-0.525c0.332-0.351,0.498-0.811,0.498-1.379
				c0-0.556-0.166-1.007-0.498-1.352S65.529,12.255,65.022,12.255z"/>
			<path fill="#231F20" d="M70.207,8.852h1.605v2.251h0.951v1.381h-0.951v5.014h-1.605v-5.014h-0.823v-1.381h0.823V8.852z"/>
			<g>
				<path fill="#231F20" d="M74.694,8.852c0.281,0,0.523,0.102,0.725,0.305c0.2,0.205,0.301,0.451,0.301,0.741
					c0,0.287-0.1,0.53-0.298,0.732c-0.2,0.202-0.438,0.302-0.716,0.302c-0.285,0-0.528-0.103-0.729-0.308
					c-0.201-0.206-0.303-0.456-0.303-0.75c0-0.282,0.1-0.523,0.3-0.723C74.172,8.951,74.413,8.852,74.694,8.852z"/>
				<rect x="73.892" y="11.485" fill="#231F20" width="1.604" height="6.013"/>
			</g>
			<path fill="#231F20" d="M79.742,10.773c0.604,0,1.171,0.151,1.702,0.453c0.531,0.302,0.946,0.711,1.243,1.229
				c0.298,0.518,0.446,1.075,0.446,1.675c0,0.604-0.15,1.168-0.449,1.693c-0.3,0.525-0.708,0.936-1.226,1.231
				c-0.518,0.296-1.088,0.443-1.711,0.443c-0.917,0-1.699-0.326-2.348-0.979s-0.974-1.445-0.974-2.378
				c0-0.999,0.367-1.832,1.101-2.498C78.168,11.063,78.908,10.773,79.742,10.773z M79.769,12.284c-0.498,0-0.914,0.174-1.246,0.521
				s-0.497,0.791-0.497,1.332c0,0.556,0.163,1.007,0.491,1.352c0.327,0.345,0.743,0.518,1.246,0.518c0.502,0,0.92-0.174,1.254-0.523
				c0.334-0.35,0.5-0.797,0.5-1.346c0-0.549-0.164-0.995-0.492-1.337C80.698,12.456,80.278,12.284,79.769,12.284z"/>
			<path fill="#231F20" d="M84.036,11.103h1.605v0.655c0.364-0.307,0.692-0.521,0.988-0.64c0.296-0.12,0.599-0.18,0.907-0.18
				c0.634,0,1.173,0.222,1.614,0.664c0.372,0.376,0.557,0.933,0.557,1.669v4.227h-1.587v-2.801c0-0.763-0.034-1.271-0.103-1.521
				c-0.069-0.25-0.187-0.441-0.357-0.572c-0.17-0.131-0.38-0.197-0.631-0.197c-0.323,0-0.603,0.109-0.835,0.326
				c-0.232,0.218-0.394,0.518-0.484,0.902c-0.046,0.2-0.069,0.632-0.069,1.297v2.566h-1.605V11.103z"/>
		</g>
		<g>
			<path fill="#231F20" d="M25.184,20.649h1.95c1.256,0,2.19,0.156,2.8,0.467c0.611,0.312,1.114,0.818,1.51,1.52
				c0.396,0.701,0.594,1.52,0.594,2.457c0,0.667-0.111,1.278-0.332,1.836s-0.527,1.021-0.917,1.391
				c-0.389,0.368-0.811,0.623-1.265,0.764c-0.454,0.142-1.241,0.212-2.36,0.212h-1.979V20.649z M26.817,22.236v5.455h0.765
				c0.753,0,1.299-0.086,1.638-0.26c0.339-0.172,0.617-0.463,0.831-0.871c0.216-0.407,0.323-0.908,0.323-1.506
				c0-0.917-0.256-1.629-0.77-2.135c-0.462-0.455-1.205-0.683-2.228-0.683H26.817z"/>
			<path fill="#231F20" d="M39.526,26.398h-5.155c0.074,0.454,0.272,0.816,0.597,1.084c0.323,0.268,0.735,0.402,1.238,0.402
				c0.6,0,1.113-0.209,1.545-0.629l1.353,0.635c-0.337,0.479-0.742,0.832-1.212,1.062s-1.028,0.344-1.675,0.344
				c-1.003,0-1.82-0.316-2.451-0.949s-0.946-1.426-0.946-2.378c0-0.976,0.314-1.786,0.944-2.431
				c0.628-0.645,1.417-0.967,2.365-0.967c1.007,0,1.826,0.322,2.457,0.967c0.631,0.645,0.945,1.496,0.945,2.554L39.526,26.398z
				 M37.92,25.134c-0.105-0.356-0.314-0.646-0.627-0.87c-0.312-0.224-0.674-0.335-1.085-0.335c-0.449,0-0.841,0.125-1.179,0.375
				c-0.212,0.157-0.407,0.433-0.588,0.829H37.92z"/>
			<path fill="#231F20" d="M39.793,22.9h1.634l1.616,3.774l1.611-3.774h1.627l-2.722,6.396h-1.04L39.793,22.9z"/>
			<path fill="#231F20" d="M53.268,26.398h-5.156c0.075,0.454,0.274,0.816,0.598,1.084s0.735,0.402,1.237,0.402
				c0.6,0,1.114-0.209,1.545-0.629l1.353,0.635c-0.336,0.479-0.74,0.832-1.211,1.062c-0.47,0.229-1.029,0.344-1.676,0.344
				c-1.002,0-1.82-0.316-2.45-0.949c-0.631-0.633-0.946-1.426-0.946-2.378c0-0.976,0.314-1.786,0.943-2.431
				c0.629-0.645,1.418-0.967,2.365-0.967c1.008,0,1.826,0.322,2.458,0.967c0.631,0.645,0.946,1.496,0.946,2.554L53.268,26.398z
				 M51.663,25.134c-0.105-0.356-0.314-0.646-0.627-0.87c-0.312-0.224-0.674-0.335-1.087-0.335c-0.446,0-0.839,0.125-1.177,0.375
				c-0.212,0.157-0.408,0.433-0.589,0.829H51.663z"/>
			<path fill="#231F20" d="M54.281,20.661h1.604v8.635h-1.604V20.661z"/>
			<path fill="#231F20" d="M60.139,22.571c0.604,0,1.171,0.151,1.702,0.452c0.531,0.302,0.946,0.712,1.243,1.229
				c0.299,0.518,0.446,1.076,0.446,1.675c0,0.604-0.148,1.168-0.449,1.693c-0.299,0.524-0.709,0.936-1.226,1.23
				c-0.518,0.297-1.088,0.444-1.711,0.444c-0.917,0-1.699-0.326-2.348-0.979c-0.649-0.652-0.974-1.445-0.974-2.378
				c0-0.999,0.367-1.832,1.1-2.498C58.566,22.861,59.305,22.571,60.139,22.571z M60.167,24.082c-0.499,0-0.914,0.174-1.246,0.521
				s-0.497,0.79-0.497,1.331c0,0.557,0.163,1.008,0.492,1.353c0.327,0.345,0.741,0.517,1.245,0.517c0.502,0,0.92-0.174,1.254-0.523
				c0.334-0.349,0.5-0.797,0.5-1.346s-0.164-0.994-0.491-1.337C61.095,24.253,60.676,24.082,60.167,24.082z"/>
			<path fill="#231F20" d="M65.942,22.735v0.706c0.29-0.29,0.604-0.508,0.94-0.652s0.697-0.218,1.082-0.218
				c0.834,0,1.543,0.315,2.128,0.946c0.584,0.631,0.875,1.44,0.875,2.428c0,0.952-0.301,1.749-0.904,2.389
				c-0.604,0.642-1.319,0.962-2.146,0.962c-0.368,0-0.71-0.065-1.027-0.197c-0.318-0.131-0.634-0.346-0.947-0.644v2.932h-1.593
				v-8.651H65.942z M67.629,24.053c-0.506,0-0.926,0.172-1.258,0.518c-0.333,0.344-0.501,0.795-0.501,1.352
				c0,0.568,0.168,1.027,0.501,1.378c0.332,0.351,0.752,0.526,1.258,0.526c0.49,0,0.902-0.179,1.237-0.535
				c0.334-0.356,0.502-0.811,0.502-1.363c0-0.549-0.164-0.999-0.493-1.349C68.545,24.229,68.13,24.053,67.629,24.053z"/>
			<path fill="#231F20" d="M78.409,26.398h-5.156c0.075,0.454,0.274,0.816,0.597,1.084c0.324,0.268,0.735,0.402,1.237,0.402
				c0.6,0,1.116-0.209,1.546-0.629l1.352,0.635c-0.337,0.479-0.739,0.832-1.21,1.062c-0.47,0.229-1.029,0.344-1.676,0.344
				c-1.002,0-1.819-0.316-2.451-0.949c-0.63-0.633-0.945-1.426-0.945-2.378c0-0.976,0.314-1.786,0.943-2.431
				c0.629-0.645,1.417-0.967,2.365-0.967c1.008,0,1.826,0.322,2.457,0.967c0.632,0.645,0.947,1.496,0.947,2.554L78.409,26.398z
				 M76.803,25.134c-0.105-0.356-0.314-0.646-0.627-0.87c-0.312-0.224-0.674-0.335-1.086-0.335c-0.448,0-0.841,0.125-1.178,0.375
				c-0.213,0.157-0.409,0.433-0.589,0.829H76.803z"/>
			<path fill="#231F20" d="M79.234,22.9h1.376v0.805c0.148-0.318,0.347-0.559,0.593-0.723c0.248-0.165,0.518-0.247,0.812-0.247
				c0.208,0,0.426,0.056,0.652,0.165l-0.5,1.382c-0.188-0.095-0.342-0.142-0.464-0.142c-0.246,0-0.455,0.152-0.626,0.459
				c-0.17,0.306-0.256,0.905-0.256,1.799l0.007,0.311v2.587h-1.594V22.9z"/>
			<path fill="#231F20" d="M87.265,23.629l-0.993,0.994c-0.403-0.4-0.771-0.6-1.1-0.6c-0.179,0-0.32,0.038-0.423,0.114
				c-0.103,0.077-0.152,0.172-0.152,0.285c0,0.086,0.032,0.166,0.097,0.238c0.065,0.072,0.225,0.171,0.479,0.297l0.588,0.294
				c0.62,0.306,1.044,0.617,1.275,0.935s0.348,0.69,0.348,1.116c0,0.568-0.208,1.043-0.626,1.423c-0.417,0.38-0.977,0.57-1.679,0.57
				c-0.933,0-1.677-0.364-2.234-1.093l0.988-1.076c0.188,0.219,0.409,0.396,0.662,0.531c0.252,0.136,0.477,0.203,0.672,0.203
				c0.212,0,0.382-0.051,0.512-0.152c0.129-0.102,0.194-0.22,0.194-0.353c0-0.247-0.232-0.488-0.7-0.724l-0.541-0.271
				c-1.034-0.521-1.552-1.173-1.552-1.957c0-0.506,0.195-0.938,0.586-1.297c0.39-0.358,0.888-0.538,1.495-0.538
				c0.416,0,0.807,0.091,1.173,0.273S87.01,23.289,87.265,23.629z"/>
		</g>
		<g>
			<path fill="#231F20" d="M27.461,32.528h1.669l3.326,8.646h-1.71l-0.677-1.781h-3.528l-0.704,1.781h-1.71L27.461,32.528z
				 M28.307,34.82l-1.161,2.969h2.313L28.307,34.82z"/>
			<path fill="#231F20" d="M33.464,32.518h1.605v8.657h-1.605V32.518z"/>
			<path fill="#231F20" d="M36.374,32.518h1.605v8.657h-1.605V32.518z"/>
			<path fill="#231F20" d="M40.111,32.528c0.281,0,0.522,0.102,0.724,0.306c0.2,0.203,0.301,0.45,0.301,0.74
				c0,0.286-0.1,0.529-0.298,0.732c-0.2,0.201-0.438,0.302-0.716,0.302c-0.285,0-0.528-0.103-0.729-0.308
				c-0.201-0.206-0.303-0.455-0.303-0.75c0-0.282,0.1-0.523,0.3-0.724C39.588,32.628,39.829,32.528,40.111,32.528z M39.308,35.162
				h1.604v6.013h-1.604V35.162z"/>
			<path fill="#231F20" d="M46.902,34.615h1.605v6.395h-1.605v-0.676c-0.313,0.299-0.627,0.513-0.942,0.645
				c-0.314,0.131-0.657,0.196-1.025,0.196c-0.826,0-1.54-0.32-2.143-0.96c-0.603-0.642-0.904-1.438-0.904-2.391
				c0-0.986,0.292-1.797,0.876-2.427c0.582-0.632,1.29-0.946,2.124-0.946c0.384,0,0.744,0.072,1.08,0.217
				c0.337,0.146,0.648,0.362,0.935,0.652V34.615z M45.214,35.932c-0.495,0-0.908,0.176-1.236,0.526
				c-0.327,0.351-0.491,0.801-0.491,1.349c0,0.553,0.167,1.008,0.501,1.364s0.744,0.535,1.232,0.535
				c0.505,0,0.922-0.177,1.254-0.526c0.332-0.351,0.498-0.811,0.498-1.379c0-0.557-0.166-1.007-0.498-1.352
				S45.723,35.932,45.214,35.932z"/>
			<path fill="#231F20" d="M49.708,34.779h1.604v0.655c0.365-0.307,0.694-0.521,0.99-0.64c0.295-0.12,0.598-0.18,0.906-0.18
				c0.634,0,1.172,0.221,1.613,0.664c0.372,0.376,0.559,0.932,0.559,1.669v4.227h-1.587v-2.801c0-0.764-0.034-1.27-0.104-1.521
				c-0.068-0.251-0.187-0.441-0.357-0.572c-0.17-0.131-0.38-0.197-0.63-0.197c-0.325,0-0.603,0.109-0.836,0.326
				c-0.232,0.217-0.394,0.518-0.483,0.901c-0.048,0.2-0.071,0.632-0.071,1.298v2.565h-1.604V34.779z"/>
			<path fill="#231F20" d="M62.82,35.908l-1.336,0.734c-0.251-0.262-0.5-0.443-0.745-0.546s-0.531-0.153-0.861-0.153
				c-0.601,0-1.087,0.18-1.457,0.537c-0.371,0.357-0.557,0.816-0.557,1.377c0,0.543,0.179,0.987,0.536,1.332
				c0.357,0.344,0.826,0.517,1.406,0.517c0.719,0,1.277-0.245,1.678-0.735l1.266,0.867c-0.687,0.892-1.654,1.337-2.904,1.337
				c-1.125,0-2.005-0.333-2.643-0.999c-0.636-0.666-0.955-1.446-0.955-2.34c0-0.619,0.155-1.189,0.465-1.71
				c0.309-0.521,0.742-0.931,1.296-1.229c0.555-0.298,1.175-0.446,1.861-0.446c0.635,0,1.204,0.125,1.71,0.379
				C62.085,35.082,62.499,35.441,62.82,35.908z"/>
			<path fill="#231F20" d="M69.985,38.277h-5.156c0.074,0.455,0.273,0.815,0.597,1.085c0.324,0.268,0.736,0.402,1.238,0.402
				c0.6,0,1.114-0.21,1.545-0.629l1.353,0.635c-0.338,0.478-0.74,0.832-1.211,1.061c-0.47,0.229-1.029,0.344-1.676,0.344
				c-1.003,0-1.82-0.316-2.45-0.949c-0.632-0.632-0.946-1.425-0.946-2.378c0-0.975,0.313-1.785,0.942-2.43
				c0.629-0.646,1.418-0.967,2.367-0.967c1.007,0,1.825,0.321,2.456,0.967c0.632,0.645,0.947,1.496,0.947,2.554L69.985,38.277z
				 M68.38,37.178c-0.106-0.356-0.315-0.646-0.628-0.87s-0.674-0.335-1.087-0.335c-0.447,0-0.839,0.125-1.177,0.376
				c-0.212,0.157-0.408,0.433-0.589,0.829H68.38z"/>
		</g>
	</g>
</g>
</svg>
