<?xml version="1.0" encoding="utf-8"?>
<!-- Generator: Adobe Illustrator 15.0.0, SVG Export Plug-In . SVG Version: 6.00 Build 0)  -->
<!DOCTYPE svg PUBLIC "-//W3C//DTD SVG 1.1//EN" "http://www.w3.org/Graphics/SVG/1.1/DTD/svg11.dtd">
<svg version="1.1" id="Layer_1" xmlns="http://www.w3.org/2000/svg" xmlns:xlink="http://www.w3.org/1999/xlink" x="0px" y="0px"
	 width="182.093px" height="103.598px" viewBox="0 0 182.093 103.598" enable-background="new 0 0 182.093 103.598"
	 xml:space="preserve">
<g>
	<g>
		<path fill="#D8D5C3" d="M82.433,37.294c-11.226,0-20.327,9.084-20.327,20.289s9.102,20.289,20.327,20.289
			c11.223,0,20.324-9.084,20.324-20.289S93.655,37.294,82.433,37.294z"/>
		<path fill="#8A8A8A" d="M61.965,65.298c4.121,11.457,16.769,17.408,28.243,13.296c11.48-4.116,17.441-16.739,13.32-28.197
			C99.407,38.94,86.76,32.986,75.279,37.099C63.802,41.216,57.844,53.839,61.965,65.298z M74.618,41.302l3.498,9.726
			c-3.049,2.061-4.436,5.989-3.134,9.604c0.253,0.702,0.59,1.347,1,1.933l-6.725,7.875c-1.668-1.781-3.011-3.922-3.888-6.361
			C62.156,55.146,66.274,45.374,74.618,41.302z M86.616,56.46c0.77,2.135-0.344,4.484-2.481,5.254
			c-2.137,0.762-4.489-0.346-5.258-2.478c-0.77-2.136,0.339-4.487,2.478-5.254C83.495,53.216,85.853,54.325,86.616,56.46z
			 M100.123,51.619c0.859,2.387,1.194,4.836,1.062,7.222l-10.229-1.771c-0.062-0.671-0.21-1.341-0.446-2.003
			c-1.274-3.539-4.72-5.666-8.296-5.436l-3.511-9.764C87.664,37.849,96.936,42.763,100.123,51.619z M72.57,73.228l6.734-7.896
			c1.895,0.863,4.118,1.024,6.225,0.266c2.161-0.773,3.796-2.35,4.693-4.273l10.218,1.775c-1.616,5.423-5.71,10.033-11.454,12.095
			C83.293,77.234,77.257,76.312,72.57,73.228z"/>
	</g>
	<g>
		<g>
			<path fill="#B5B5B5" d="M134.098,63.019v-1.947c0-0.805-0.65-1.457-1.46-1.457c-0.809,0-1.462,0.652-1.462,1.457v1.947
				c0,0.805,0.653,1.46,1.462,1.46C133.447,64.479,134.098,63.824,134.098,63.019z"/>
			<path fill="#B5B5B5" d="M132.638,58.685c-0.809,0-1.462-0.652-1.462-1.459v-3.848c0-0.807,0.653-1.459,1.462-1.459
				c0.81,0,1.46,0.652,1.46,1.459v3.848C134.098,58.033,133.447,58.685,132.638,58.685z M132.638,50.99
				c-0.809,0-1.462-0.653-1.462-1.46v-3.847c0-0.805,0.653-1.459,1.462-1.459c0.81,0,1.46,0.654,1.46,1.459v3.847
				C134.098,50.336,133.447,50.99,132.638,50.99z"/>
			<path fill="#B5B5B5" d="M134.098,41.835V39.89c0-0.805-0.65-1.459-1.46-1.459c-0.809,0-1.462,0.654-1.462,1.459v1.945
				c0,0.805,0.653,1.46,1.462,1.46C133.447,43.295,134.098,42.64,134.098,41.835z"/>
			<g>
				<polygon fill="#B5B5B5" points="125.394,42.017 132.676,29.417 139.963,42.017 				"/>
			</g>
		</g>
		<path fill="#B5B5B5" d="M132.733,74.676c3.088,0,5.587-2.493,5.587-5.571c0-3.076-2.499-5.571-5.587-5.571
			c-3.086,0-5.586,2.495-5.586,5.571C127.147,72.183,129.647,74.676,132.733,74.676z M132.733,72.792
			c-2.041,0-3.699-1.65-3.699-3.688s1.658-3.687,3.699-3.687c2.043,0,3.701,1.649,3.701,3.687S134.776,72.792,132.733,72.792z"/>
	</g>
	<g>
		<g>
			<path fill="#B5B5B5" d="M13.339,89.472h1.949c0.805,0,1.46-0.654,1.46-1.46s-0.655-1.458-1.46-1.458h-1.949
				c-0.808,0-1.463,0.652-1.463,1.458S12.531,89.472,13.339,89.472z"/>
			<path fill="#B5B5B5" d="M17.73,88.012c0-0.806,0.654-1.458,1.463-1.458h3.905c0.806,0,1.458,0.652,1.458,1.458
				s-0.652,1.46-1.458,1.46h-3.905C18.385,89.472,17.73,88.818,17.73,88.012z M25.544,88.012c0-0.806,0.655-1.458,1.46-1.458h3.904
				c0.81,0,1.463,0.652,1.463,1.458s-0.653,1.46-1.463,1.46h-3.904C26.199,89.472,25.544,88.818,25.544,88.012z M33.355,88.012
				c0-0.806,0.653-1.458,1.461-1.458h3.905c0.806,0,1.46,0.652,1.46,1.458s-0.654,1.46-1.46,1.46h-3.905
				C34.009,89.472,33.355,88.818,33.355,88.012z M41.169,88.012c0-0.806,0.653-1.458,1.459-1.458h3.905
				c0.808,0,1.463,0.652,1.463,1.458s-0.655,1.46-1.463,1.46h-3.905C41.822,89.472,41.169,88.818,41.169,88.012z M48.979,88.012
				c0-0.806,0.654-1.458,1.46-1.458h3.908c0.809,0,1.459,0.652,1.459,1.458s-0.65,1.46-1.459,1.46h-3.908
				C49.633,89.472,48.979,88.818,48.979,88.012z M56.792,88.012c0-0.806,0.65-1.458,1.464-1.458h3.9c0.81,0,1.463,0.652,1.463,1.458
				s-0.653,1.46-1.463,1.46h-3.9C57.442,89.472,56.792,88.818,56.792,88.012z M64.604,88.012c0-0.806,0.653-1.458,1.461-1.458h3.906
				c0.805,0,1.459,0.652,1.459,1.458s-0.654,1.46-1.459,1.46h-3.906C65.257,89.472,64.604,88.818,64.604,88.012z M72.416,88.012
				c0-0.806,0.654-1.458,1.46-1.458h3.908c0.806,0,1.46,0.652,1.46,1.458s-0.654,1.46-1.46,1.46h-3.908
				C73.07,89.472,72.416,88.818,72.416,88.012z M80.227,88.012c0-0.806,0.655-1.458,1.46-1.458h3.908
				c0.806,0,1.462,0.652,1.462,1.458s-0.656,1.46-1.462,1.46h-3.908C80.882,89.472,80.227,88.818,80.227,88.012z M88.041,88.012
				c0-0.806,0.654-1.458,1.46-1.458h3.903c0.81,0,1.463,0.652,1.463,1.458s-0.653,1.46-1.463,1.46h-3.903
				C88.695,89.472,88.041,88.818,88.041,88.012z M95.852,88.012c0-0.806,0.653-1.458,1.462-1.458h1.642
				c0.006,0,0.817-0.004,2.048-0.189c0.799-0.119,1.545,0.429,1.661,1.228c0.123,0.797-0.428,1.54-1.227,1.657
				c-1.465,0.221-2.442,0.223-2.482,0.223h-1.642C96.505,89.472,95.852,88.818,95.852,88.012z M103.637,87.359
				c-0.261-0.762,0.147-1.594,0.909-1.854c1.177-0.404,2.274-0.909,3.257-1.507c0.688-0.418,1.589-0.199,2.008,0.491
				c0.417,0.688,0.198,1.587-0.494,2.005c-1.161,0.705-2.448,1.303-3.822,1.772c-0.158,0.055-0.316,0.078-0.473,0.078
				C104.415,88.344,103.846,87.964,103.637,87.359z M110.595,83.875c-0.586-0.56-0.604-1.481-0.045-2.062
				c0.802-0.84,1.484-1.789,2.028-2.824c0.373-0.714,1.258-0.988,1.97-0.613c0.716,0.372,0.993,1.256,0.616,1.972
				c-0.672,1.274-1.511,2.447-2.504,3.483c-0.288,0.297-0.671,0.452-1.055,0.452C111.238,84.283,110.879,84.147,110.595,83.875z
				 M114.88,77.445c-0.784-0.188-1.268-0.973-1.083-1.758c0.264-1.106,0.422-2.308,0.474-3.572c0.035-0.809,0.702-1.429,1.517-1.402
				c0.809,0.031,1.437,0.712,1.404,1.517c-0.058,1.452-0.246,2.845-0.551,4.134c-0.161,0.671-0.761,1.123-1.422,1.123
				C115.11,77.486,114.994,77.472,114.88,77.445z M114.288,68.269v-3.9c0-0.809,0.653-1.458,1.463-1.458
				c0.805,0,1.458,0.649,1.458,1.458v3.9c0,0.807-0.653,1.462-1.458,1.462C114.941,69.731,114.288,69.076,114.288,68.269z"/>
			<path fill="#B5B5B5" d="M115.751,61.92c0.805,0,1.458-0.655,1.458-1.462v-1.943c0-0.806-0.653-1.459-1.458-1.459
				c-0.81,0-1.463,0.653-1.463,1.459v1.943C114.288,61.265,114.941,61.92,115.751,61.92z"/>
			<g>
				<polygon fill="#B5B5B5" points="108.506,60.646 115.787,48.042 123.074,60.646 				"/>
			</g>
		</g>
		<path fill="#B5B5B5" d="M3,87.955c0,3.083,2.498,5.581,5.578,5.581c3.079,0,5.576-2.498,5.576-5.581
			c0-3.081-2.497-5.581-5.576-5.581C5.498,82.374,3,84.874,3,87.955z M4.885,87.955c0-2.038,1.654-3.693,3.693-3.693
			c2.038,0,3.692,1.655,3.692,3.693c0,2.041-1.654,3.695-3.692,3.695C6.539,91.65,4.885,89.996,4.885,87.955z"/>
	</g>
	<path fill="#B59E77" d="M149.394,6.71c-1.679,0.364-3.244,1.024-4.642,1.922l-2.464-2.457l-4.261,4.246l2.466,2.46
		c-0.901,1.396-1.562,2.956-1.925,4.63h-3.48v6.012h3.48c0.362,1.674,1.023,3.234,1.925,4.629l-2.466,2.458l4.261,4.25l2.464-2.458
		c1.397,0.899,2.963,1.559,4.642,1.922v3.474h6.021v-3.474c1.679-0.363,3.244-1.022,4.642-1.922l2.463,2.458l4.262-4.25
		l-2.463-2.458c0.901-1.395,1.561-2.955,1.925-4.629h3.478v-6.012h-3.478c-0.364-1.674-1.023-3.234-1.925-4.63l2.463-2.46
		l-4.262-4.246l-2.463,2.457c-1.397-0.897-2.963-1.558-4.642-1.922V3.24h-6.021V6.71z M152.404,10.369
		c0.156,0,0.314,0.006,0.468,0.01c0.053,0.004,0.098,0.008,0.146,0.01c0.112,0.006,0.222,0.018,0.339,0.027
		c0.045,0.002,0.093,0.006,0.141,0.012c0.149,0.017,0.302,0.034,0.448,0.059c0.017,0.002,0.034,0.008,0.055,0.008
		c0.131,0.021,0.261,0.046,0.395,0.07c0.051,0.011,0.103,0.021,0.153,0.031c0.104,0.024,0.199,0.047,0.299,0.07
		c0.051,0.013,0.103,0.025,0.153,0.039c0.138,0.036,0.274,0.071,0.412,0.113c0,0.003,0.003,0.003,0.003,0.003
		c0.603,0.185,1.183,0.428,1.73,0.717c0.099,0.055,0.197,0.11,0.297,0.163c0.023,0.018,0.048,0.027,0.068,0.041
		c0.096,0.059,0.191,0.114,0.288,0.172c0.011,0.01,0.023,0.018,0.038,0.023c0.305,0.196,0.593,0.399,0.874,0.62
		c0.018,0.015,0.03,0.023,0.044,0.036c0.085,0.07,0.171,0.138,0.258,0.215c0.019,0.016,0.036,0.031,0.058,0.047
		c0.362,0.312,0.702,0.654,1.014,1.012c0.018,0.021,0.033,0.038,0.051,0.056c0.069,0.088,0.141,0.173,0.213,0.259
		c0.01,0.015,0.021,0.027,0.03,0.042c0.224,0.28,0.432,0.573,0.628,0.874c0.003,0.016,0.013,0.025,0.021,0.036
		c0.058,0.096,0.117,0.192,0.174,0.288c0.015,0.023,0.024,0.044,0.039,0.068c0.058,0.096,0.111,0.197,0.164,0.299
		c0.291,0.545,0.534,1.123,0.719,1.723v0.004c0.042,0.139,0.082,0.276,0.117,0.414c0.013,0.047,0.026,0.1,0.036,0.151
		c0.029,0.097,0.048,0.198,0.072,0.297c0.011,0.052,0.021,0.101,0.032,0.155c0.026,0.131,0.051,0.264,0.071,0.396
		c0,0.018,0.007,0.033,0.007,0.053c0.023,0.146,0.044,0.297,0.058,0.443c0.008,0.048,0.011,0.096,0.014,0.144
		c0.012,0.112,0.021,0.224,0.027,0.339c0.003,0.048,0.003,0.09,0.008,0.139c0.007,0.156,0.01,0.314,0.01,0.472
		c0,0.158-0.003,0.313-0.01,0.468c-0.005,0.047-0.005,0.094-0.008,0.141c-0.006,0.115-0.016,0.227-0.027,0.339
		c-0.003,0.043-0.006,0.094-0.014,0.142c-0.014,0.154-0.034,0.299-0.058,0.449c0,0.018-0.007,0.031-0.007,0.047
		c-0.021,0.134-0.045,0.268-0.071,0.398c-0.012,0.051-0.021,0.104-0.032,0.155c-0.024,0.099-0.043,0.198-0.072,0.3
		c-0.01,0.049-0.023,0.102-0.036,0.15c-0.035,0.141-0.075,0.275-0.117,0.416l0,0c-0.185,0.604-0.428,1.177-0.719,1.723
		c-0.056,0.103-0.11,0.203-0.164,0.303c-0.015,0.021-0.024,0.044-0.039,0.061c-0.054,0.1-0.116,0.196-0.174,0.293
		c-0.008,0.01-0.015,0.021-0.021,0.029c-0.191,0.309-0.404,0.598-0.628,0.88c-0.01,0.017-0.021,0.027-0.03,0.044
		c-0.072,0.088-0.144,0.17-0.213,0.258c-0.018,0.018-0.033,0.034-0.051,0.053c-0.312,0.361-0.651,0.701-1.014,1.014
		c-0.021,0.016-0.039,0.033-0.058,0.049c-0.087,0.074-0.173,0.144-0.258,0.211c-0.014,0.013-0.026,0.025-0.044,0.037
		c-0.281,0.222-0.572,0.428-0.874,0.621c-0.015,0.006-0.027,0.014-0.038,0.023c-0.097,0.058-0.192,0.113-0.291,0.175
		c-0.021,0.009-0.042,0.023-0.061,0.033c-0.104,0.06-0.203,0.113-0.302,0.168c-0.548,0.289-1.128,0.532-1.73,0.717l-0.003,0.002
		c-0.138,0.038-0.274,0.078-0.412,0.114c-0.051,0.014-0.103,0.027-0.153,0.041c-0.1,0.021-0.195,0.046-0.299,0.064
		c-0.051,0.015-0.103,0.024-0.153,0.035c-0.134,0.027-0.264,0.052-0.395,0.069c-0.021,0.003-0.038,0.009-0.055,0.009
		c-0.146,0.024-0.299,0.042-0.448,0.059c-0.048,0.003-0.096,0.008-0.141,0.014c-0.117,0.01-0.227,0.02-0.339,0.025
		c-0.048,0.002-0.093,0.006-0.146,0.008c-0.153,0.009-0.312,0.012-0.468,0.012c-0.158,0-0.312-0.003-0.47-0.012
		c-0.048-0.002-0.093-0.006-0.141-0.008c-0.113-0.006-0.227-0.016-0.339-0.025c-0.048-0.006-0.096-0.011-0.141-0.014
		c-0.154-0.017-0.302-0.034-0.451-0.059c-0.018-0.002-0.032-0.006-0.049-0.009c-0.134-0.018-0.268-0.042-0.4-0.069
		c-0.048-0.011-0.101-0.021-0.155-0.035c-0.099-0.019-0.198-0.043-0.297-0.064c-0.053-0.014-0.101-0.027-0.155-0.037
		c-0.75-0.199-1.469-0.484-2.144-0.84c-0.101-0.052-0.196-0.105-0.295-0.16c-0.024-0.015-0.048-0.029-0.072-0.041
		c-0.096-0.059-0.188-0.114-0.284-0.172c-0.013-0.01-0.027-0.018-0.041-0.028c-0.301-0.188-0.593-0.395-0.874-0.615
		c-0.013-0.013-0.03-0.025-0.043-0.038c-0.087-0.067-0.173-0.137-0.254-0.207c-0.021-0.02-0.042-0.037-0.062-0.053
		c-0.359-0.313-0.698-0.652-1.01-1.009c-0.018-0.023-0.035-0.04-0.053-0.062c-0.071-0.084-0.144-0.166-0.216-0.254
		c-0.006-0.017-0.021-0.029-0.033-0.047c-0.219-0.279-0.428-0.568-0.616-0.871c-0.012-0.012-0.018-0.025-0.024-0.036
		c-0.062-0.096-0.116-0.192-0.174-0.289c-0.015-0.02-0.029-0.043-0.042-0.067c-0.056-0.101-0.11-0.199-0.164-0.295
		c-0.288-0.55-0.532-1.123-0.716-1.727l0,0c-0.045-0.141-0.083-0.277-0.12-0.416c-0.014-0.049-0.028-0.102-0.038-0.15
		c-0.027-0.102-0.048-0.201-0.068-0.303c-0.015-0.051-0.021-0.102-0.034-0.15c-0.028-0.133-0.053-0.269-0.071-0.406
		c0-0.01-0.008-0.027-0.008-0.041c-0.024-0.15-0.04-0.295-0.058-0.449c-0.004-0.048-0.007-0.094-0.015-0.142
		c-0.01-0.112-0.016-0.224-0.024-0.339c-0.003-0.047-0.006-0.094-0.006-0.141c-0.007-0.154-0.015-0.31-0.015-0.468
		c0-0.157,0.008-0.315,0.015-0.472c0-0.043,0.003-0.091,0.006-0.136c0.009-0.118,0.015-0.229,0.024-0.343
		c0.008-0.047,0.011-0.095,0.015-0.14c0.018-0.149,0.033-0.3,0.058-0.452c0-0.012,0.008-0.027,0.008-0.039
		c0.019-0.138,0.043-0.271,0.071-0.404c0.013-0.055,0.02-0.102,0.034-0.152c0.021-0.102,0.041-0.203,0.068-0.303
		c0.01-0.05,0.024-0.102,0.038-0.148c0.037-0.138,0.075-0.275,0.115-0.414l0.005-0.004c0.184-0.6,0.428-1.178,0.716-1.723
		c0.054-0.102,0.108-0.203,0.164-0.299c0.013-0.024,0.027-0.045,0.042-0.068c0.054-0.096,0.111-0.192,0.174-0.285
		c0.007-0.014,0.013-0.027,0.024-0.039c0.188-0.301,0.397-0.594,0.616-0.871c0.013-0.018,0.027-0.03,0.033-0.045
		c0.072-0.086,0.145-0.171,0.216-0.256c0.018-0.021,0.035-0.038,0.053-0.059c0.312-0.357,0.65-0.699,1.013-1.012
		c0.018-0.016,0.038-0.031,0.056-0.047c0.085-0.077,0.171-0.145,0.258-0.215c0.013-0.013,0.03-0.021,0.043-0.036
		c0.281-0.221,0.576-0.429,0.877-0.62c0.011-0.006,0.025-0.014,0.035-0.021c0.099-0.061,0.194-0.116,0.29-0.175
		c0.021-0.014,0.045-0.023,0.066-0.035c0.099-0.059,0.197-0.114,0.302-0.169c0.671-0.354,1.39-0.634,2.14-0.833
		c0.055-0.014,0.103-0.026,0.155-0.039c0.099-0.023,0.198-0.046,0.297-0.07c0.055-0.011,0.107-0.021,0.155-0.031
		c0.133-0.024,0.267-0.049,0.4-0.07c0.017,0,0.031-0.006,0.049-0.008c0.149-0.024,0.297-0.042,0.451-0.059
		c0.045-0.006,0.093-0.01,0.141-0.012c0.112-0.01,0.226-0.021,0.339-0.027c0.048-0.002,0.093-0.006,0.141-0.01
		C152.093,10.375,152.246,10.369,152.404,10.369z"/>
</g>
</svg>
