<?xml version="1.0" encoding="utf-8"?>
<!-- Generator: Adobe Illustrator 15.0.0, SVG Export Plug-In . SVG Version: 6.00 Build 0)  -->
<!DOCTYPE svg PUBLIC "-//W3C//DTD SVG 1.1//EN" "http://www.w3.org/Graphics/SVG/1.1/DTD/svg11.dtd">
<svg version="1.1" id="Layer_1" xmlns="http://www.w3.org/2000/svg" xmlns:xlink="http://www.w3.org/1999/xlink" x="0px" y="0px"
	 width="121.088px" height="46.258px" viewBox="0 0 121.088 46.258" enable-background="new 0 0 121.088 46.258"
	 xml:space="preserve">
<g>
	<g>
		<path fill="#B5B5B5" d="M27.592,23.027h2.834c1.174,0,2.126,0.952,2.126,2.126c0,1.175-0.952,2.126-2.126,2.126h-2.834
			c-1.174,0-2.126-0.951-2.126-2.126C25.466,23.979,26.418,23.027,27.592,23.027z"/>
		<path fill="#B5B5B5" d="M35.916,23.027h5.489c1.174,0,2.126,0.952,2.126,2.126c0,1.175-0.952,2.126-2.126,2.126h-5.489
			c-1.174,0-2.126-0.951-2.126-2.126C33.79,23.979,34.742,23.027,35.916,23.027z M46.894,23.027h5.489
			c1.174,0,2.126,0.952,2.126,2.126c0,1.175-0.952,2.126-2.126,2.126h-5.489c-1.174,0-2.126-0.951-2.126-2.126
			C44.768,23.979,45.72,23.027,46.894,23.027z M57.872,23.027h5.489c1.175,0,2.126,0.952,2.126,2.126
			c0,1.175-0.951,2.126-2.126,2.126h-5.489c-1.174,0-2.126-0.951-2.126-2.126C55.746,23.979,56.697,23.027,57.872,23.027z
			 M68.85,23.027h5.488c1.174,0,2.126,0.952,2.126,2.126c0,1.175-0.952,2.126-2.126,2.126H68.85c-1.175,0-2.127-0.951-2.127-2.126
			C66.723,23.979,67.675,23.027,68.85,23.027z M79.828,23.027h5.489c1.174,0,2.125,0.952,2.125,2.126
			c0,1.175-0.951,2.126-2.125,2.126h-5.489c-1.175,0-2.126-0.951-2.126-2.126C77.702,23.979,78.653,23.027,79.828,23.027z"/>
		<path fill="#B5B5B5" d="M90.805,23.027h2.834c1.175,0,2.127,0.952,2.127,2.126c0,1.175-0.952,2.126-2.127,2.126h-2.834
			c-1.174,0-2.126-0.951-2.126-2.126C88.679,23.979,89.631,23.027,90.805,23.027z"/>
		<g>
			<polygon fill="#B5B5B5" points="90.538,35.693 108.897,25.095 90.538,14.494 			"/>
		</g>
	</g>
	<path fill="#B5B5B5" d="M20.527,32.964c4.482,0,8.116-3.641,8.116-8.131c0-4.49-3.634-8.13-8.116-8.13
		c-4.48,0-8.115,3.64-8.115,8.13C12.412,29.324,16.046,32.964,20.527,32.964z M20.527,19.452c2.968,0,5.373,2.41,5.373,5.381
		c0,2.972-2.405,5.381-5.373,5.381c-2.966,0-5.372-2.409-5.372-5.381C15.155,21.862,17.561,19.452,20.527,19.452z"/>
</g>
</svg>
