<?xml version="1.0" encoding="utf-8"?>
<!-- Generator: Adobe Illustrator 15.0.0, SVG Export Plug-In . SVG Version: 6.00 Build 0)  -->
<!DOCTYPE svg PUBLIC "-//W3C//DTD SVG 1.1//EN" "http://www.w3.org/Graphics/SVG/1.1/DTD/svg11.dtd">
<svg version="1.1" id="Layer_1" xmlns="http://www.w3.org/2000/svg" xmlns:xlink="http://www.w3.org/1999/xlink" x="0px" y="0px"
	 width="121.088px" height="46.258px" viewBox="0 0 121.088 46.258" enable-background="new 0 0 121.088 46.258"
	 xml:space="preserve">
<g>
	<g>
		<path fill="#B5B5B5" d="M93.381,27.163h-2.835c-1.174,0-2.125-0.952-2.125-2.126c0-1.174,0.951-2.126,2.125-2.126h2.835
			c1.174,0,2.126,0.952,2.126,2.126C95.507,26.21,94.555,27.163,93.381,27.163z"/>
		<path fill="#B5B5B5" d="M85.058,27.163h-5.489c-1.175,0-2.126-0.952-2.126-2.126c0-1.174,0.951-2.126,2.126-2.126h5.489
			c1.174,0,2.125,0.952,2.125,2.126C87.183,26.21,86.232,27.163,85.058,27.163z M74.08,27.163h-5.488
			c-1.175,0-2.127-0.952-2.127-2.126c0-1.174,0.952-2.126,2.127-2.126h5.488c1.174,0,2.126,0.952,2.126,2.126
			C76.206,26.21,75.253,27.163,74.08,27.163z M63.102,27.163h-5.489c-1.174,0-2.126-0.952-2.126-2.126
			c0-1.174,0.952-2.126,2.126-2.126h5.489c1.175,0,2.126,0.952,2.126,2.126C65.228,26.21,64.277,27.163,63.102,27.163z
			 M52.125,27.163h-5.489c-1.175,0-2.126-0.952-2.126-2.126c0-1.174,0.951-2.126,2.126-2.126h5.489c1.174,0,2.125,0.952,2.125,2.126
			C54.25,26.21,53.298,27.163,52.125,27.163z M41.146,27.163h-5.488c-1.175,0-2.127-0.952-2.127-2.126
			c0-1.174,0.952-2.126,2.127-2.126h5.488c1.174,0,2.126,0.952,2.126,2.126C43.272,26.21,42.32,27.163,41.146,27.163z"/>
		<path fill="#B5B5B5" d="M30.168,27.163h-2.835c-1.174,0-2.125-0.952-2.125-2.126c0-1.174,0.951-2.126,2.125-2.126h2.835
			c1.175,0,2.126,0.952,2.126,2.126C32.294,26.21,31.343,27.163,30.168,27.163z"/>
		<g>
			<polygon fill="#B5B5B5" points="30.435,14.496 12.078,25.095 30.435,35.696 			"/>
		</g>
	</g>
	<path fill="#B5B5B5" d="M100.447,17.226c-4.482,0-8.116,3.641-8.116,8.131c0,4.491,3.634,8.129,8.116,8.129
		c4.48,0,8.115-3.639,8.115-8.129C108.562,20.866,104.927,17.226,100.447,17.226z M100.447,30.738c-2.968,0-5.373-2.41-5.373-5.381
		c0-2.972,2.405-5.382,5.373-5.382c2.966,0,5.372,2.41,5.372,5.382C105.819,28.328,103.413,30.738,100.447,30.738z"/>
</g>
</svg>
