<?xml version="1.0" encoding="utf-8"?>
<!-- Generator: Adobe Illustrator 15.0.0, SVG Export Plug-In . SVG Version: 6.00 Build 0)  -->
<!DOCTYPE svg PUBLIC "-//W3C//DTD SVG 1.1//EN" "http://www.w3.org/Graphics/SVG/1.1/DTD/svg11.dtd">
<svg version="1.1" xmlns="http://www.w3.org/2000/svg" xmlns:xlink="http://www.w3.org/1999/xlink" x="0px" y="0px" width="286px"
	 height="579.999px" viewBox="0 0 286 579.999" enable-background="new 0 0 286 579.999" xml:space="preserve">
<g id="Layer_6">
</g>
<g id="Layer_2">
	<g>
		<path fill="#494A4A" d="M129.043,269.046c-1.769,0-3.218,1.447-3.218,3.216v137.481c0,1.768,0.649,4.511,1.442,6.092l11.136,9.622
			c1.648,0.644,3.219,1.174,3.494,1.174c0.276,0,1.846-0.534,3.49-1.182l10.986-9.614c0.791-1.584,1.445-4.324,1.445-6.092V272.262
			c0-1.769-1.447-3.216-3.219-3.216H129.043z"/>
		<path fill="#494A4A" d="M157.674,274.959c-5.416,0.747-10.94,1.154-16.559,1.154c-5.151,0-10.216-0.357-15.197-0.979
			c-0.056,0.232-0.093,0.477-0.093,0.728v7.088c5.011,0.636,10.106,1.002,15.29,1.002c5.67,0,11.24-0.423,16.704-1.182v-6.908
			C157.818,275.551,157.758,275.25,157.674,274.959z"/>
		<g>
			<defs>
				<path id="SVGID_1_" d="M117.74,512.926c-2.701-2.698-2.387-7.156-2.387-10.082V355.201c0-2.927,2.397-5.328,5.324-5.328h42.289
					c2.928,0,5.322,2.401,5.322,5.328v147.643c0,2.926,0.416,7.271-2.393,10.079c0,0-8.038,9.583-22.405,9.583
					C124.374,522.506,117.74,512.926,117.74,512.926z"/>
			</defs>
			<linearGradient id="SVGID_2_" gradientUnits="userSpaceOnUse" x1="115.3418" y1="436.1895" x2="168.3096" y2="436.1895">
				<stop  offset="0" style="stop-color:#FDDAC5"/>
				<stop  offset="0.0607" style="stop-color:#DBBAA4"/>
				<stop  offset="0.1241" style="stop-color:#BF9F89"/>
				<stop  offset="0.1797" style="stop-color:#AE8F78"/>
				<stop  offset="0.2209" style="stop-color:#A88972"/>
				<stop  offset="0.3028" style="stop-color:#AD8E75"/>
				<stop  offset="0.4018" style="stop-color:#BC9D7F"/>
				<stop  offset="0.5091" style="stop-color:#D4B590"/>
				<stop  offset="0.5588" style="stop-color:#E2C399"/>
				<stop  offset="0.8135" style="stop-color:#D4AB86"/>
				<stop  offset="0.8841" style="stop-color:#D9B494"/>
				<stop  offset="1" style="stop-color:#E3C8B3"/>
			</linearGradient>
			<use xlink:href="#SVGID_1_"  overflow="visible" fill="url(#SVGID_2_)"/>
			<clipPath id="SVGID_3_">
				<use xlink:href="#SVGID_1_"  overflow="visible"/>
			</clipPath>
			<g opacity="0.5" clip-path="url(#SVGID_3_)">
				<path fill="#E4C69B" d="M139.94,474.153c0.005,0.183,0.014,0.357,0.03,0.537c0.666,17.318,0.454,37.417,0.442,54.629
					c0.811,0.069,1.638,0.106,2.479,0.115c0.169-12.023,0.115-24.05-1.763-36.072c-0.773-5.012,4.634-12.57,1.803-17.609
					c-0.023-0.183-0.053-0.361-0.077-0.54c-0.547-3.739-0.658-7.52-0.179-11.329c-0.016-0.172-0.028-0.351-0.031-0.526
					c-0.169-4.017,1.082-8.078,1.676-12.011c0.014-0.188,0.03-0.374,0.051-0.553c0.246-2.572,0.627-5.141,1.182-7.694
					c0.141-0.64,0.295-1.276,0.463-1.912c5.152-6.22,4.382-12.667-0.748-18.786c-0.178-0.621-0.336-1.25-0.478-1.879
					c-0.171-0.751-0.327-1.51-0.467-2.26c-1.916-4.158-1.013-8.269-0.464-12.343c0.094-0.678,0.167-1.356,0.055-2.004
					c-1.239-1.17-0.47-2.604-0.47-3.677c-0.192-0.671-0.29-1.342-0.314-2.013c-0.038-0.671-0.005-46.417-0.005-47.072
					c0.024-0.47,0.065-0.938,0.119-1.403h-2.288c-0.023,0.34-0.065,0.671-0.075,1.01c0.022,0.648-0.022,46.391-0.072,47.062
					c-0.202,2.013-0.13,4.047,0.669,6.132c0.189,0.667,0.139,1.36,0.06,2.057c-0.457,4.181-1.21,8.372,1.069,12.404
					c0.12,0.763,0.245,1.524,0.383,2.287c0.11,0.636,0.23,1.272,0.359,1.905c0.141,0.621,0.412,1.143,0.716,1.676
					c4.016,5.312,5.557,11.044,0.165,15.897c-0.218,0.52-0.354,1.084-0.479,1.662c-0.626,2.884-1.084,5.776-1.422,8.673
					c-0.022,0.179-0.044,0.366-0.066,0.549c-1.276,4.065-2.04,8.128-1.873,12.319c0.003,0.172,0.013,0.348,0.022,0.526
					C139.972,467.344,139.765,470.755,139.94,474.153z"/>
				<path fill="#E4C69B" d="M115.498,439.168c0.047,0.987,0.251,1.962,0.504,2.926c0.126,0.481,0.272,0.961,0.408,1.441
					c0.508,3.166,0.93,6.291,1.277,9.408c0.026,0.19,0.048,0.369,0.07,0.557c1.312,3.821,2.074,7.396,1.74,11.096
					c-0.014,0.18-0.032,0.352-0.053,0.53c0.638,4.054,1.241,8.15,0.203,12.228c-0.042,0.18-0.09,0.358-0.138,0.537
					c0.753,11.284-5.155,25.086,0.463,36.312c0.701,0.832,1.277,1.754,1.74,2.736c0.062-0.217,0.108-0.438,0.108-0.662
					c0.775-2.866-0.771-6.09-0.771-8.952c0.771-9.31,0.771-21.519,1.164-30.805c0.033-0.184,0.058-0.366,0.086-0.545
					c0.596-3.799,0.666-7.602-0.101-11.488c0.021-0.172,0.047-0.354,0.066-0.53c0.458-3.898,0.209-7.771-1.755-11.497
					c-0.027-0.19-0.05-0.369-0.077-0.561c-0.398-3.479-0.936-6.978-1.627-10.501c-0.139-0.706-0.28-1.411-0.431-2.116
					c-1.957-4.313-2.731-8.969-0.578-13.244c0.129-0.633,0.196-1.278,0.249-1.934c0.271-3.269,0.578-6.535,0.889-9.805
					c0.072-0.75,0.142-1.496,0.191-2.278c0.378-2.831,0.378-6.051,0.872-8.959c0.038-0.723,0.096-1.467,0.072-2.252
					c-0.189-1.383-0.142-47.823-0.003-49.184c0.067-0.621,0.153-1.246,0.24-4.017l-2.445,1.742
					c-0.224,3.951-0.517,49.114-0.368,50.85c-0.022,0.723-0.05,1.446-0.077,2.171c-0.029,0.721-0.061,1.44-0.089,2.165
					c-0.037,0.793-0.073,1.577-0.111,2.358c-0.035,0.781-0.08,1.569-0.121,2.366c-0.043,0.801-0.086,1.589-0.133,2.382
					c-0.261,4.42-0.586,8.849-0.975,13.3c-0.058,0.636-0.111,1.269-0.202,1.896c-0.914,3.473-0.914,6.695-0.544,10.152
					C115.305,437.72,115.394,438.444,115.498,439.168z"/>
				<path fill="#E4C69B" d="M134.927,406.652c-0.68,4.324-1.967,8.618-0.316,12.909c0.022,0.809,0.041,1.608,0.063,2.408
					c0.018,0.667,0.05,1.083,0.082,1.563c0.191,6.425,2.509,12.506,0.542,18.927c-0.009,0.495-0.021,0.99-0.031,1.489
					c-0.043,1.982-0.082,3.964-0.116,5.949c0,0.183-0.004,0.373-0.008,0.563c-0.119,4.06-0.164,8.019-0.182,12.043
					c-0.002,0.175-0.002,0.35-0.007,0.524c-0.427,3.686-0.617,7.52-0.588,11.368c0.001,0.189,0.004,0.377,0.007,0.556
					c0.756,16.774-0.116,36.414-0.216,53.193c0.887,0.267,1.786,0.495,2.706,0.685c-0.06-17.082-0.102-37.062-0.794-53.962
					c-0.016-0.179-0.03-0.358-0.046-0.537c-0.321-3.704-0.448-7.392,0.331-11.241c0-0.184,0.005-0.362,0.014-0.549
					c0.134-3.853,0.772-7.773,1.678-11.626c0.018-0.19,0.035-0.382,0.057-0.572c0.214-2.282,0.446-4.571,0.714-6.858
					c0.056-0.461,0.104-0.915,0.166-1.373c5.234-6.785,2.916-13.946-1.609-20.687c-0.141-0.809-0.274-1.616-0.402-2.428
					c-1.783-3.65-1.516-7.354-1.028-11.024c0.095-0.731,0.199-1.463,0.304-2.198c-0.438-2.523-1.047-4.935-0.79-7.323
					c0.049-0.481,0.137-46.037,0.265-46.514c0.16-0.735,0.302-1.459,0.442-2.188h-2.035c-0.066,0.408-0.138,0.816-0.201,1.228
					c0.016,0.7-0.045,46.478-0.094,47.176c-0.207,2.092-0.014,4.195,1.157,6.326C135.125,405.211,135.044,405.932,134.927,406.652z"
					/>
				<path fill="#E4C69B" d="M129.454,422.874c-3.001,6.363-0.681,13.165,1.635,19.715c0.018,0.599,0.04,1.193,0.062,1.796
					c0.062,1.795,0.127,3.589,0.194,5.388c0.005,0.183,0.009,0.37,0.019,0.553c0.768,4.138,0.788,8.269,0.698,12.396
					c-0.005,0.186-0.01,0.366-0.013,0.545c0.321,3.749,0.229,7.613,0.068,11.442c-0.007,0.184-0.007,0.366-0.021,0.557
					c0.539,15.197-0.234,33.134-0.234,47.812c0,1.433,0.021,2.865,0.033,4.302c0.713,0.274,1.442,0.519,2.179,0.743
					c-0.273-16.743-0.344-36.392,0.066-53.014c0.004-0.188,0.004-0.369,0.006-0.552c0.029-3.789,0.024-7.542,0.015-11.295
					c0.003-0.18,0.003-0.355,0.003-0.541c0.023-4.123,0.042-8.235,0.083-12.347c0.002-0.183,0.008-0.37,0.008-0.553
					c0.017-2.301,0.036-4.604,0.058-6.901c0.004-0.461,0.009-0.918,0.015-1.322c-0.152-5.918-0.152-12.003-0.216-18.16
					c-0.01-0.429-0.017-0.798-0.031-1.365c-0.014-0.599-0.027-1.192-0.044-1.787c-0.018-0.793-0.062-1.59-0.203-2.401
					c-1.646-3.928-0.361-7.693,0.34-11.446c0.117-0.622,0.207-1.25,0.196-1.883c-1.216-1.939-1.513-3.909-1.397-5.896
					c0.021-0.658,0.087-46.405,0.087-47.076c0.031-0.613,0.08-1.223,0.129-1.833h-3.224c-0.176,0.846-0.325,1.692-0.422,2.542
					c-0.189,0.629-0.24,46.311-0.197,46.9c0.14,1.77,1.119,3.4,1.57,5.107c-0.022,0.616-0.125,1.227-0.252,1.837
					c-0.771,3.65-2.096,7.343-1.248,11.092c0.079,0.789,0.09,1.563,0.083,2.325c-0.003,0.575-0.003,1.147,0,1.722
					C129.506,421.853,129.496,422.397,129.454,422.874z"/>
				<path fill="#E4C69B" d="M126.612,475.548c0.018-0.179,0.032-0.354,0.044-0.533c0.316-3.677-0.044-7.355-0.904-11.199
					c0.003-0.172,0.003-0.344,0-0.52c-0.004-3.925-0.763-7.762-1.988-11.915c-0.023-0.187-0.042-0.37-0.064-0.556
					c-0.287-2.76-0.616-5.529-0.978-8.304c-0.074-0.557-0.15-1.109-0.226-1.666c-2.222-5.175-4.537-10.543-0.832-15.395
					c0.24-0.561,0.519-1.071,0.581-1.703c0.111-1.925,0.242-3.853,0.381-5.776c0.056-0.771,0.118-1.536,0.177-2.307
					c-0.159-3.521,0.671-7.019,1.076-10.467c0.063-0.576,0.119-1.144,0.147-1.724c-0.828-2.156-0.693-49.339-0.271-51.42
					c0.127-0.697,0.287-1.391,0.371-2.11c0.008-0.072,0.02-0.135,0.026-0.908H121.7c-0.053,1.228-0.122,1.746-0.189,2.256
					c-0.299,2.028-0.433,49.154,0.053,51.211c0.043,0.633,0.035,1.288-0.008,1.943c-0.201,3.285-1.25,6.795-1.094,9.936
					c-0.071,0.784-0.146,1.57-0.213,2.358c-0.233,2.622-0.451,5.24-0.633,7.85c-0.044,0.651-0.306,1.219-0.527,1.826
					c-1.129,4.603-1.129,9.255,0.969,13.935c0.112,0.586,0.222,1.174,0.33,1.761c0.534,2.938,0.968,5.861,1.311,8.787
					c0.02,0.184,0.04,0.366,0.061,0.552c1.088,3.857,2.499,7.893,2.376,11.929c-0.007,0.171-0.014,0.35-0.022,0.524
					c0.014,3.789,0.609,7.561,0.229,11.322c-0.016,0.179-0.039,0.357-0.058,0.533c1.4,12.187-5.551,26.903-0.92,39.433
					c0.501,0.926-0.613,1.853-1.254,2.683c0.529,1.387,0.84,2.862,0.927,4.355c1.001,0.785,2.016,1.535,3.063,2.203
					c-0.143-2.844-0.289-5.687-0.417-8.524C125.683,503.384,129.543,487.955,126.612,475.548z"/>
				<path fill="#E4C69B" d="M149.937,441.687c-1.124,3.532-1.753,7.092-2.067,10.654c-0.018,0.184-0.032,0.366-0.049,0.553
					c-2.168,3.826-1.768,7.872-0.833,11.866l0.122,0.522c0.133,3.59-0.578,7.297-0.084,10.913c0.023,0.175,0.045,0.347,0.076,0.519
					c-0.758,16.652-0.13,36.04,0.156,52.526c1.037-0.088,2.104-0.194,3.176-0.332c-0.192-15.979-0.572-34.825,0.693-50.837
					c-0.039-0.184-0.072-0.366-0.099-0.55c-0.617-3.44-0.532-6.572,0.106-9.976c0-0.172,0-0.351-0.002-0.526
					c-0.008-0.188-0.008-0.37-0.015-0.553c-0.721-3.933-0.721-7.51,0.108-11.569c0.014-0.182,0.021-0.369,0.042-0.552
					c0.394-6.402,1.442-12.751,3.942-19.019c0.203-0.579,0.377-1.162,0.516-1.738c0.074-1.844,0.846-3.276-0.8-5.175
					c-0.21-0.526-0.413-1.06-0.595-1.586c-0.936-2.64-1.621-5.288-2.111-7.933c-0.143-0.793-0.289-1.585-0.422-2.371
					c-1.051-4.157-0.445-8.421-0.4-12.57c0.009-0.698-0.002-1.383-0.139-2.016c-0.908-1.849-0.708-48.834-0.26-50.762
					c0.112-0.477,0.244-0.949,0.369-1.426h-4.135c-0.013,0.495-0.026,1.003-0.068,1.517c-0.202,2.16-0.179,49.433,0.555,51.634
					c0.143,0.564,0.143,1.166,0.139,1.769c-0.015,4.219-0.032,8.447,1.193,12.598c0.207,0.724,0.365,1.464,0.52,2.219
					c0.418,1.988,0.905,3.975,1.512,5.963c0.148,0.488,0.373,0.964,0.605,1.444c3.336,4.135,1.795,8.434-1.018,12.679
					C150.408,440.272,150.158,440.982,149.937,441.687z"/>
				<path fill="#E4C69B" d="M153.343,402.895c-0.015,4.774-0.447,9.477,0.833,14.19c0.116,0.777,0.242,1.555,0.377,2.336
					c0.41,2.344,0.947,4.691,1.628,7.05c0.354,0.72,0.743,1.444,1.177,2.168c0.17,0.492,0.309,0.983,0.412,1.479
					c0.309,1.481,0.328,3.003,0.08,4.526c-0.102,0.609-0.24,1.216-0.418,1.833c-2.566,6.371-3.576,12.793-3.913,19.251
					c-0.008,0.188-0.015,0.37-0.018,0.557c-0.017,3.025-0.017,5.529-0.083,8.323c0.005,0.186,0.016,0.373,0.016,0.559
					c0.023,1.238,0.061,2.485,0.1,3.728c0.002,0.172,0.008,0.351,0.016,0.529c-0.064,2.42-0.064,4.928,0.221,7.466
					c0.006,0.179,0.014,0.357,0.014,0.533c0.014,0.515,0.02,1.025,0.023,1.536c0,0.171,0,0.342,0.008,0.514
					c-0.176,15.254-0.459,33.351-0.697,48.559c1.185-0.75,2.328-1.505,3.42-2.267c-0.006-0.404-0.01-0.805-0.01-1.204v-2.009
					c0.045-3.414,0.045-7.351,0-10.765v-1.754c0.045-7.719,0.045-18.858,0.267-26.821l0.007-0.554
					c0.088-15.623-3.912-31.411,3.373-46.677c0.204-0.571,0.389-1.15,0.533-1.726c0.61-2.404,0.624-4.809-0.731-7.172
					c-0.265-0.473-0.595-0.94-0.981-1.413c-0.676-1.38-1.194-2.771-1.587-4.166c-0.19-0.701-0.356-1.401-0.489-2.104
					c-0.029-0.78-0.043-1.573-0.06-2.357c-0.019-0.786-0.032-1.57-0.048-2.363c-0.238-4.059-0.238-7.999-0.119-11.805
					c-0.047-0.831-0.058-1.628-0.065-2.413c-0.003-0.662-0.013-1.321-0.042-1.943c-0.004-1.192-0.006-47.521-0.004-48.769h-3.516
					c-0.037,0.29-0.081,0.576-0.113,0.865c-0.176,1.738-0.193,48.552,0.297,50.266C153.343,401.525,153.343,402.212,153.343,402.895
					z"/>
				<path fill="#E4C69B" d="M163.411,349.935c-0.036,1.638-0.108,48.174-0.222,49.839v20.829c0,0.586,0.002,1.169,0.025,1.756
					c0.104,0.651,0.204,1.304,0.291,1.955c1.561,7.072,0.016,13.874-0.316,20.985v74.967c0.966-0.983,1.867-2.016,2.718-3.125
					c0.567-1.52,1.112-3.049,1.527-4.622c0.136-0.506,0.309-0.994,0.501-1.468v-67.04c0.22-6.177,0.22-11.908,0-18.051v-24.769
					c0.067-2.089,0.105-45.232,0.134-47.378c0,0-0.429-1.574-1.412-2.446C165.673,350.494,164.16,349.847,163.411,349.935z"/>
			</g>
		</g>
		<path fill="#494A4A" d="M141.115,23.137c-70.639,0-127.906,57.267-127.906,127.908c0,70.64,57.267,127.908,127.906,127.908
			c70.642,0,127.906-57.269,127.906-127.908C269.021,80.404,211.757,23.137,141.115,23.137z M141.115,259.338
			c-59.809,0-108.294-48.485-108.294-108.293c0-59.81,48.485-108.296,108.294-108.296c59.81,0,108.296,48.486,108.296,108.296
			C249.411,210.853,200.925,259.338,141.115,259.338z"/>
		<rect x="122.867" y="344.543" fill="#494A4A" width="37.928" height="5.349"/>
		<defs>
			<filter id="Adobe_OpacityMaskFilter" filterUnits="userSpaceOnUse" x="115.362" y="349.927" width="52.767" height="5.304">
				<feColorMatrix  type="matrix" values="1 0 0 0 0  0 1 0 0 0  0 0 1 0 0  0 0 0 1 0"/>
			</filter>
		</defs>
		<mask maskUnits="userSpaceOnUse" x="115.362" y="349.927" width="52.767" height="5.304" id="SVGID_4_">
			<g filter="url(#Adobe_OpacityMaskFilter)">
				<linearGradient id="SVGID_5_" gradientUnits="userSpaceOnUse" x1="141.7808" y1="349.8936" x2="141.7808" y2="355.6366">
					<stop  offset="0" style="stop-color:#FFFFFF"/>
					<stop  offset="1" style="stop-color:#000000"/>
				</linearGradient>
				<rect x="114.609" y="348.528" fill="url(#SVGID_5_)" width="54.344" height="8.604"/>
			</g>
		</mask>
		<path opacity="0.4" mask="url(#SVGID_4_)" fill="#FFFFFF" d="M162.822,349.927H120.67c-2.919,0-5.309,2.385-5.309,5.304h52.767
			C168.129,352.312,165.741,349.927,162.822,349.927z"/>
		<g>
			<defs>
				<path id="SVGID_6_" d="M117.74,512.926c-2.701-2.698-2.387-7.156-2.387-10.082V355.201c0-2.927,2.397-5.328,5.324-5.328h42.289
					c2.928,0,5.322,2.401,5.322,5.328v147.643c0,2.926,0.416,7.271-2.393,10.079c0,0-8.038,9.583-22.405,9.583
					C124.374,522.506,117.74,512.926,117.74,512.926z"/>
			</defs>
			<clipPath id="SVGID_7_">
				<use xlink:href="#SVGID_6_"  overflow="visible"/>
			</clipPath>
			<defs>
				<filter id="Adobe_OpacityMaskFilter_1_" filterUnits="userSpaceOnUse" x="108.458" y="428.613" width="64.805" height="94.826">
					<feColorMatrix  type="matrix" values="1 0 0 0 0  0 1 0 0 0  0 0 1 0 0  0 0 0 1 0"/>
				</filter>
			</defs>
			<mask maskUnits="userSpaceOnUse" x="108.458" y="428.613" width="64.805" height="94.826" id="SVGID_8_">
				<g filter="url(#Adobe_OpacityMaskFilter_1_)">
					
						<radialGradient id="SVGID_9_" cx="235.4102" cy="555.7178" r="46.7596" gradientTransform="matrix(0 -1.2241 0.982 0 -404.2447 811.9766)" gradientUnits="userSpaceOnUse">
						<stop  offset="0" style="stop-color:#FFFFFF"/>
						<stop  offset="1" style="stop-color:#000000"/>
					</radialGradient>
					<path clip-path="url(#SVGID_7_)" fill="url(#SVGID_9_)" d="M141.702,523.79c-21.003,0-38.032-21.225-38.032-47.415
						c0-26.188,17.029-47.416,38.032-47.416c21.01,0,38.027,21.229,38.027,47.416C179.729,502.565,162.712,523.79,141.702,523.79z"
						/>
				</g>
			</mask>
			<path opacity="0.8" clip-path="url(#SVGID_7_)" mask="url(#SVGID_8_)" fill="#754C24" d="M141.246,523.439
				c-21.005,0-37.134-13.162-31.737-47.411c4.01-25.459,10.731-47.415,31.737-47.415c21.002,0,29.925,24.996,31.75,51.038
				C175.332,513.036,162.248,523.439,141.246,523.439z"/>
		</g>
		<path fill="#F78D2E" d="M93.328,105.627v57.983h0.196c0.351-0.056,1.292-0.342,2.368-1.846l0.125-0.169
			c1.843-2.763,4.913-4.411,8.233-4.411c5.46,0,9.903,4.443,9.903,9.903v4.927c0,5.458-4.442,9.899-9.903,9.899
			c-3.346,0-6.454-1.705-8.336-4.571c-0.743-1.011-1.549-1.667-2.249-1.836h-0.337v13.648h91.348v-83.528H93.328z"/>
		<path fill="#BA83BA" d="M235.245,105.627h-37.882l0.012-7.112c0.166-1.238,0.886-3.092,3.396-4.902
			c1.925-1.235,3.012-3.218,3.012-5.37c0-3.476-2.824-6.302-6.3-6.302h-4.927c-3.474,0-6.301,2.826-6.301,6.302
			c0,2.135,1.072,4.11,2.873,5.281l0.204,0.15c2.673,1.915,3.243,3.976,3.34,5.029l0.008,0.195v6.729h-3.684v88.085h1.516
			c0.353-0.055,1.291-0.341,2.368-1.844l0.125-0.168c1.845-2.765,4.912-4.412,8.232-4.412c5.461,0,9.904,4.442,9.904,9.902v4.927
			c0,5.458-4.443,9.899-9.904,9.899c-3.345,0-6.452-1.705-8.335-4.57c-0.743-1.011-1.551-1.667-2.248-1.837l-1.658-0.003v38.303
			c33.618-17.367,56.611-52.42,56.611-92.864C245.608,134.768,241.884,119.361,235.245,105.627z"/>
		<path fill="#65C8D0" d="M201.238,190.888c-2.135,0-4.107,1.074-5.279,2.874l-0.15,0.204c-1.915,2.673-3.978,3.243-5.029,3.34
			l-0.194,0.008h-5.909v-3.836H88.599v1.09c0.055,0.35,0.342,1.291,1.845,2.366l0.169,0.127c2.764,1.843,4.412,4.913,4.412,8.232
			c0,5.461-4.443,9.903-9.903,9.903h-4.927c-5.458,0-9.9-4.442-9.9-9.903c0-3.344,1.707-6.455,4.571-8.337
			c1.011-0.744,1.668-1.549,1.836-2.249l0.003-1.229H45.631c16.272,36.557,52.887,62.058,95.483,62.058
			c15.553,0,30.298-3.423,43.561-9.517v-44.02l6.29,0.009c1.238,0.166,3.094,0.887,4.904,3.397c1.236,1.924,3.218,3.011,5.368,3.011
			c3.479,0,6.304-2.824,6.304-6.299v-4.927C207.542,193.716,204.717,190.888,201.238,190.888z"/>
		<g>
			<path fill="#FFB82E" d="M104.25,160.785c-2.135,0-4.11,1.073-5.28,2.873l-0.151,0.204c-1.915,2.674-3.976,3.243-5.029,3.342
				l-0.196,0.007h-4.588v-65.689c-0.413,0.267-0.915,0.713-1.45,1.462l-0.126,0.168c-1.843,2.764-4.912,4.412-8.233,4.412
				c-5.46,0-9.903-4.443-9.903-9.903v-4.927c0-5.458,4.443-9.899,9.903-9.899c3.347,0,6.455,1.705,8.337,4.569
				c0.48,0.653,0.985,1.139,1.472,1.461V60.489c-31.299,18.049-52.381,51.829-52.381,90.556c0,13.453,2.57,26.298,7.201,38.11
				h36.487l-0.009,5.866c-0.165,1.237-0.886,3.092-3.397,4.902c-1.923,1.234-3.01,3.218-3.01,5.369c0,3.476,2.825,6.302,6.299,6.302
				h4.927c3.474,0,6.302-2.826,6.302-6.302c0-2.134-1.072-4.109-2.873-5.278l-0.204-0.151c-2.674-1.916-3.243-3.977-3.341-5.03
				l-0.008-0.195v-5.482h4.008v-17.257l4.972,0.008c1.237,0.165,3.092,0.886,4.902,3.396c1.236,1.923,3.218,3.011,5.37,3.011
				c3.475,0,6.302-2.825,6.302-6.299v-4.927C110.552,163.613,107.725,160.785,104.25,160.785z"/>
			<path fill="#E90026" d="M202.812,96.58c-1.01,0.743-1.666,1.549-1.837,2.248l-0.005,2.478h32.061
				c-17.684-32.609-52.214-54.751-91.917-54.751c-17.226,0-33.462,4.193-47.787,11.577v34.719l-3.858-0.007
				c-1.238-0.165-3.093-0.886-4.903-3.396c-1.235-1.924-3.217-3.01-5.37-3.01c-3.476,0-6.302,2.823-6.302,6.298v4.927
				c0,3.474,2.826,6.302,6.302,6.302c2.135,0,4.11-1.073,5.28-2.874l0.152-0.204c1.915-2.673,3.977-3.243,5.029-3.341l0.195-0.007
				h3.475v3.767h95.751V98.97c-0.055-0.352-0.341-1.292-1.844-2.368l-0.17-0.125c-2.765-1.844-4.411-4.914-4.411-8.234
				c0-5.46,4.443-9.903,9.902-9.903h4.927c5.459,0,9.9,4.442,9.9,9.903C207.384,91.588,205.679,94.697,202.812,96.58z"/>
		</g>
		<g>
			<defs>
				<filter id="Adobe_OpacityMaskFilter_2_" filterUnits="userSpaceOnUse" x="62.66" y="518.33" width="158.552" height="41.211">
					<feColorMatrix  type="matrix" values="1 0 0 0 0  0 1 0 0 0  0 0 1 0 0  0 0 0 1 0"/>
				</filter>
			</defs>
			<mask maskUnits="userSpaceOnUse" x="62.66" y="518.33" width="158.552" height="41.211" id="SVGID_10_">
				<g filter="url(#Adobe_OpacityMaskFilter_2_)">
					
						<radialGradient id="SVGID_11_" cx="220.8623" cy="402.416" r="18.438" gradientTransform="matrix(0 -0.8148 3.1346 0 -1119.1965 721.6245)" gradientUnits="userSpaceOnUse">
						<stop  offset="0" style="stop-color:#FFFFFF"/>
						<stop  offset="1" style="stop-color:#000000"/>
					</radialGradient>
					<path fill="url(#SVGID_11_)" d="M141.635,562.273c-43.778,0-79.273-9.228-79.273-20.606c0-11.388,35.495-20.609,79.273-20.609
						c43.782,0,79.278,9.222,79.278,20.609C220.913,553.046,185.417,562.273,141.635,562.273z"/>
				</g>
			</mask>
			<path opacity="0.4" mask="url(#SVGID_10_)" d="M141.939,559.541c-43.787,0-79.279-9.222-79.279-20.611
				c0-11.378,35.492-20.6,79.279-20.6c43.783,0,79.273,9.222,79.273,20.6C221.212,550.319,185.722,559.541,141.939,559.541z"/>
			<defs>
				<filter id="Adobe_OpacityMaskFilter_3_" filterUnits="userSpaceOnUse" x="108.41" y="529.602" width="67.058" height="17.414">
					<feColorMatrix  type="matrix" values="1 0 0 0 0  0 1 0 0 0  0 0 1 0 0  0 0 0 1 0"/>
				</filter>
			</defs>
			<mask maskUnits="userSpaceOnUse" x="108.41" y="529.602" width="67.058" height="17.414" id="SVGID_12_">
				<g filter="url(#Adobe_OpacityMaskFilter_3_)">
					
						<radialGradient id="SVGID_13_" cx="223.5566" cy="402.3643" r="7.799" gradientTransform="matrix(0 -0.8148 3.1346 0 -1119.1965 721.6245)" gradientUnits="userSpaceOnUse">
						<stop  offset="0" style="stop-color:#FFFFFF"/>
						<stop  offset="1" style="stop-color:#000000"/>
					</radialGradient>
					<path fill="url(#SVGID_13_)" d="M141.805,548.188c-18.512,0-33.524-3.912-33.524-8.722c0-4.823,15.012-8.714,33.524-8.714
						c18.518,0,33.535,3.891,33.535,8.714C175.34,544.275,160.322,548.188,141.805,548.188z"/>
				</g>
			</mask>
			<path opacity="0.4" mask="url(#SVGID_12_)" d="M141.939,547.016c-18.522,0-33.529-3.891-33.529-8.707
				c0-4.813,15.007-8.707,33.529-8.707c18.514,0,33.529,3.894,33.529,8.707C175.468,543.125,160.453,547.016,141.939,547.016z"/>
		</g>
		<g>
			<path fill="#C61412" d="M78.074,131.42c1.445-1.587,2.328-3.692,2.328-6.004c0-4.948-4.01-8.956-8.957-8.956
				c-4.944,0-8.955,4.008-8.955,8.956c0,2.312,0.884,4.417,2.327,6.004l-0.012,0.005c0,0,2.494,3.191,2.641,6.313
				c-0.25,0.216-0.406,0.522-0.406,0.862c0,0.406,0.22,0.757,0.557,0.979c-0.337,0.22-0.557,0.575-0.557,0.977
				c0,0.403,0.22,0.76,0.557,0.979c-0.337,0.221-0.557,0.576-0.557,0.978c0,0.671,0.61,1.22,1.363,1.22h6.09
				c0.75,0,1.358-0.548,1.358-1.22c0-0.402-0.221-0.757-0.554-0.978c0.333-0.219,0.554-0.577,0.554-0.979
				c0-0.401-0.221-0.757-0.554-0.977c0.333-0.222,0.554-0.573,0.554-0.979c0-0.34-0.155-0.646-0.404-0.864
				c0.147-3.121,2.639-6.312,2.639-6.312L78.074,131.42z M71.747,137.383h-0.604v-4.34c0-0.165,0.137-0.304,0.303-0.304
				c0.106,0,0.175,0.051,0.212,0.092c0.043,0.039,0.089,0.107,0.089,0.212V137.383z M77.047,130.551l-0.032,0.039
				c-0.114,0.146-2.607,3.383-2.901,6.794h-1.01v-4.34c0-0.049-0.01-0.101-0.017-0.155l2.169-6.73
				c0.053-0.183-0.059-0.366-0.239-0.413c-0.18-0.052-0.364,0.06-0.412,0.239l-1.56,4.846v-2.755c0-0.152-0.126-0.28-0.286-0.28
				c-0.158,0-0.285,0.128-0.285,0.28v3.677c-0.285-0.229-0.637-0.366-1.03-0.366c-0.391,0-0.746,0.138-1.027,0.366v-3.677
				c0-0.152-0.127-0.28-0.285-0.28s-0.287,0.128-0.287,0.28v2.755l-1.56-4.846c-0.049-0.179-0.232-0.291-0.411-0.239
				c-0.183,0.046-0.292,0.229-0.243,0.413l2.17,6.73c-0.006,0.055-0.016,0.106-0.016,0.155v4.34H68.78
				c-0.293-3.411-2.79-6.647-2.904-6.794l-0.021-0.042l-0.034-0.04c-1.273-1.403-1.973-3.21-1.973-5.091
				c0-4.19,3.408-7.598,7.596-7.598c4.192,0,7.599,3.407,7.599,7.598c0,1.881-0.699,3.688-1.976,5.091L77.047,130.551z"/>
			<path fill="#C61412" d="M71.099,146.276h0.698c1.217,0,2.204-0.988,2.204-2.203h-5.104
				C68.896,145.288,69.884,146.276,71.099,146.276z"/>
			<path fill="#C61412" d="M71.882,127.529h-0.875c-0.287,0-0.522,0.234-0.522,0.523c0,0.293,0.235,0.528,0.522,0.528h0.875
				c0.292,0,0.528-0.235,0.528-0.528C72.41,127.764,72.173,127.529,71.882,127.529z"/>
			<path fill="#C61412" d="M74.131,125.771h-5.366c-0.126,0-0.233,0.102-0.233,0.228c0,0.125,0.106,0.226,0.233,0.226h5.366
				c0.127,0,0.229-0.101,0.229-0.226C74.36,125.873,74.258,125.771,74.131,125.771z"/>
		</g>
		<g>
			<path fill="#F9F9F9" d="M70.603,165.539c3.813,0,6.912-3.114,6.912-6.934c0-3.816-3.098-6.912-6.912-6.912
				c-3.844,0-6.942,3.096-6.942,6.912C63.661,162.425,66.759,165.539,70.603,165.539z"/>
			<path fill="#F9F9F9" d="M85.818,173.547c0-0.027,0-0.086-0.032-0.109c-0.78-5.302-8.272-6.536-11.726-6.817
				c-0.233-0.043-0.467-0.104-0.682-0.104h-4.688c0,0-13.598-0.977-13.598,7.846v9.55h6.315v-5.174h1.159v5.174h15.971v-5.174h1.015
				v5.174h6.34v-9.816c0-0.108-0.03-0.182-0.03-0.294C85.856,173.735,85.837,173.619,85.818,173.547z"/>
		</g>
		<g>
			<path fill="#F9F9F9" d="M222.323,132.586c1.496,0,2.715-1.22,2.715-2.721v-12.401c0-1.497-1.219-2.719-2.715-2.719h-20.759
				c-1.499,0-2.722,1.222-2.722,2.719v12.401c0,1.501,1.223,2.721,2.722,2.721h8.059v2.444h-8.059c-1.499,0-2.722,1.22-2.722,2.716
				v2.02c0,0.313,0.253,0.563,0.564,0.563h25.069c0.309,0,0.562-0.25,0.562-0.563v-2.02c0-1.497-1.219-2.716-2.715-2.716h-8.059
				v-2.444H222.323z M199.971,129.865v-12.401c0-0.876,0.716-1.59,1.594-1.59h20.759c0.872,0,1.587,0.713,1.587,1.59v12.401
				c0,0.88-0.715,1.594-1.587,1.594h-20.759C200.687,131.459,199.971,130.745,199.971,129.865z"/>
			<path fill="#F9F9F9" d="M222.784,129.865v-12.401c0-0.254-0.208-0.464-0.461-0.464h-20.759c-0.259,0-0.468,0.21-0.468,0.464
				v12.401c0,0.259,0.209,0.469,0.468,0.469h20.759C222.576,130.334,222.784,130.125,222.784,129.865z"/>
		</g>
		<path fill="#FDFDFD" d="M145.785,63.602c-0.105,0-0.204,0.017-0.311,0.021c-0.838-2.884-3.499-4.993-6.655-4.993
			c-3.048,0-5.632,1.975-6.56,4.709c-0.476-0.335-1.059-0.533-1.688-0.533c-1.609,0-2.919,1.296-2.936,2.902
			c-2.268,0.543-3.96,2.573-3.96,5.009c0,2.848,2.311,5.155,5.159,5.155c0.039,0,0.076-0.002,0.127-0.002
			c0.037,0,0.079,0.002,0.124,0.002h16.7c3.385,0,6.133-2.745,6.133-6.133C151.918,66.349,149.17,63.602,145.785,63.602z"/>
		<g>
			<g>
				<path fill="#00669F" d="M132.378,227.492c-0.687-1.648-2.321-2.765-4.135-2.765c-1.682,0-3.199,0.938-3.965,2.393
					c-0.194-0.053-0.396-0.081-0.604-0.081c-1.067,0-1.977,0.753-2.209,1.758c-1.345,0.505-2.248,1.792-2.248,3.263
					c0,1.927,1.566,3.496,3.492,3.496c0.021,0,0.046,0,0.066-0.005h0.006c0.02,0.005,0.048,0.005,0.07,0.005h9.243
					c2.226,0,4.037-1.812,4.037-4.036C136.133,229.385,134.474,227.636,132.378,227.492z"/>
				<path fill="#00669F" d="M130.575,237.615c0.104-0.092,0.124-0.231,0.054-0.298c-0.11-0.11-0.225-0.222-0.338-0.329
					c-0.07-0.068-0.192-0.054-0.273,0.02c-1.323,1.217-3.363,1.217-4.684,0c-0.084-0.073-0.204-0.088-0.274-0.02
					c-0.114,0.107-0.23,0.219-0.338,0.329c-0.069,0.066-0.051,0.206,0.052,0.298C126.414,239.121,128.937,239.121,130.575,237.615z"
					/>
				<path fill="#00669F" d="M123.905,238.244c-0.113,0.109-0.229,0.222-0.344,0.332c-0.07,0.063-0.017,0.234,0.124,0.362
					c2.256,2.07,5.724,2.07,7.976,0c0.142-0.128,0.196-0.299,0.124-0.362c-0.114-0.11-0.225-0.223-0.337-0.332
					c-0.07-0.067-0.223-0.024-0.343,0.088c-1.938,1.78-4.926,1.78-6.857,0C124.124,238.22,123.976,238.177,123.905,238.244z"/>
				<path fill="#00669F" d="M132.891,239.5c-0.072-0.068-0.26,0.019-0.427,0.171c-2.704,2.485-6.873,2.485-9.574,0
					c-0.174-0.152-0.361-0.239-0.432-0.171c-0.111,0.107-0.227,0.221-0.336,0.331c-0.071,0.066,0.02,0.272,0.207,0.448
					c3.02,2.771,7.673,2.771,10.69,0c0.19-0.176,0.28-0.382,0.21-0.448C133.115,239.721,133.003,239.607,132.891,239.5z"/>
			</g>
		</g>
		<g>
			<path fill="#FDFDFD" d="M105.339,91.321c-0.475-0.404-0.978-0.708-1.509-0.91c-0.263-0.099-0.532-0.174-0.807-0.226
				s-0.561-0.078-0.856-0.078c-1.128,0-2.046,0.361-2.753,1.083s-1.061,1.662-1.061,2.819c0,1.12,0.345,2.041,1.036,2.763
				s1.558,1.083,2.602,1.083c0.31,0,0.605-0.026,0.885-0.078c0.279-0.052,0.565-0.135,0.856-0.248
				c0.55-0.213,1.081-0.541,1.593-0.985v1.901c-0.451,0.325-0.942,0.568-1.473,0.729c-0.259,0.075-0.535,0.134-0.829,0.176
				c-0.294,0.042-0.593,0.064-0.899,0.064c-0.79,0-1.517-0.128-2.182-0.385s-1.253-0.635-1.763-1.136
				c-0.51-0.501-0.9-1.086-1.17-1.757c-0.271-0.67-0.405-1.384-0.405-2.141c0-0.748,0.135-1.458,0.405-2.131
				c0.27-0.672,0.66-1.26,1.17-1.764c0.51-0.503,1.099-0.885,1.766-1.146s1.384-0.392,2.15-0.392c0.31,0,0.606,0.021,0.888,0.063
				c0.282,0.042,0.564,0.11,0.846,0.205c0.555,0.169,1.088,0.435,1.601,0.797L105.339,91.321z"/>
			<path fill="#FDFDFD" d="M108.269,94.515v4.618h-1.572V88.811h2.341c0.691,0,1.224,0.043,1.601,0.13
				c0.376,0.087,0.698,0.236,0.966,0.448c0.319,0.249,0.566,0.571,0.74,0.966c0.08,0.188,0.143,0.394,0.19,0.617
				c0.047,0.224,0.07,0.45,0.07,0.681c0,0.827-0.197,1.474-0.592,1.939c-0.395,0.465-0.987,0.747-1.777,0.846l3.554,4.696
				l-1.899,0.002l-3.433-4.618L108.269,94.515z M108.375,93.21h0.303c0.889,0,1.479-0.104,1.77-0.311
				c0.291-0.207,0.437-0.573,0.437-1.1c0-0.56-0.158-0.958-0.473-1.195c-0.315-0.237-0.893-0.356-1.734-0.356h-0.303V93.21z"/>
			<path fill="#FDFDFD" d="M114.062,99.133V88.811h5.76v1.424h-4.083v2.588h4.083v1.473h-4.083v3.335h4.083v1.502H114.062z"/>
			<path fill="#FDFDFD" d="M127.846,99.131l-1.173-2.657h-4.086l-1.199,2.659l-1.765-0.001l4.999-10.733l4.992,10.733
				L127.846,99.131z M123.205,95.08h2.874l-1.057-2.355l-0.19-0.515l-0.197-0.656c-0.033,0.131-0.062,0.245-0.087,0.338
				c-0.026,0.094-0.058,0.193-0.095,0.296c-0.051,0.184-0.115,0.362-0.189,0.536L123.205,95.08z"/>
			<path fill="#FDFDFD" d="M133.199,90.235v8.898h-1.678v-8.898h-2.743v-1.424h7.149v1.424H133.199z"/>
			<path fill="#FDFDFD" d="M136.517,99.133V88.811h1.678v10.322H136.517z"/>
			<path fill="#FDFDFD" d="M143.162,99.534l-4.604-10.723l1.742,0l2.309,5.501c0.137,0.314,0.25,0.609,0.337,0.884
				c0.088,0.275,0.16,0.532,0.217,0.771c0.057-0.253,0.135-0.521,0.234-0.803c0.052-0.15,0.103-0.292,0.153-0.426
				s0.11-0.275,0.182-0.426l2.301-5.501h1.734L143.162,99.534z"/>
			<path fill="#FDFDFD" d="M148.116,99.133V88.811h1.678v10.322H148.116z"/>
			<path fill="#FDFDFD" d="M151.483,99.133V88.811h2.263c1.48,0,2.516,0.073,3.106,0.218c0.59,0.146,1.114,0.395,1.575,0.748
				c0.593,0.451,1.044,1.035,1.354,1.752c0.311,0.717,0.466,1.534,0.466,2.45c0,0.912-0.153,1.72-0.458,2.425
				c-0.306,0.705-0.76,1.292-1.361,1.763c-0.446,0.343-0.961,0.592-1.543,0.747c-0.287,0.071-0.654,0.125-1.101,0.162
				c-0.446,0.038-0.976,0.057-1.587,0.057h-0.451H151.483z M153.161,97.617h1.41c0.78,0,1.364-0.051,1.753-0.152
				c0.387-0.101,0.723-0.276,1.004-0.525c0.385-0.329,0.677-0.741,0.875-1.237c0.197-0.496,0.295-1.075,0.295-1.738
				c0-0.649-0.098-1.223-0.292-1.724c-0.195-0.5-0.487-0.917-0.878-1.251c-0.281-0.235-0.633-0.406-1.054-0.515
				c-0.421-0.108-1.054-0.162-1.9-0.162h-0.606h-0.606V97.617z"/>
			<path fill="#FDFDFD" d="M168.271,99.131l-1.173-2.657h-4.087l-1.199,2.659l-1.766-0.001l4.999-10.733l4.991,10.733
				L168.271,99.131z M163.631,95.08h2.873l-1.057-2.355l-0.189-0.515l-0.197-0.656c-0.032,0.131-0.062,0.245-0.088,0.338
				c-0.025,0.094-0.057,0.193-0.095,0.296c-0.052,0.184-0.114,0.362-0.189,0.536L163.631,95.08z"/>
			<path fill="#FDFDFD" d="M170.289,99.133V88.811h2.263c1.481,0,2.517,0.073,3.106,0.218c0.59,0.146,1.115,0.395,1.575,0.748
				c0.593,0.451,1.044,1.035,1.354,1.752c0.31,0.717,0.465,1.534,0.465,2.45c0,0.912-0.152,1.72-0.458,2.425
				s-0.76,1.292-1.361,1.763c-0.446,0.343-0.961,0.592-1.544,0.747c-0.286,0.071-0.653,0.125-1.1,0.162
				c-0.446,0.038-0.976,0.057-1.586,0.057h-0.452H170.289z M171.967,97.617h1.41c0.78,0,1.364-0.051,1.752-0.152
				s0.723-0.276,1.005-0.525c0.386-0.329,0.677-0.741,0.874-1.237c0.198-0.496,0.297-1.075,0.297-1.738
				c0-0.649-0.098-1.223-0.293-1.724c-0.195-0.5-0.487-0.917-0.878-1.251c-0.282-0.235-0.634-0.406-1.054-0.515
				c-0.421-0.108-1.055-0.162-1.9-0.162h-0.606h-0.606V97.617z"/>
		</g>
		<g>
			<path fill="#F9F9F9" d="M58.774,163.791H43.895v-2.419h14.879V163.791z"/>
			<path fill="#F9F9F9" d="M58.774,158.938H43.895v-3.263c0-2.134,0.105-3.626,0.315-4.477s0.569-1.607,1.077-2.271
				c0.65-0.854,1.492-1.504,2.525-1.951s2.21-0.671,3.532-0.671c1.314,0,2.48,0.22,3.496,0.66s1.863,1.095,2.541,1.962
				c0.495,0.644,0.854,1.386,1.078,2.226c0.102,0.413,0.18,0.941,0.233,1.585c0.055,0.645,0.082,1.406,0.082,2.287v0.65V158.938z
				 M56.589,156.519v-2.033c0-1.124-0.073-1.966-0.218-2.525c-0.146-0.559-0.398-1.041-0.757-1.448
				c-0.474-0.556-1.069-0.976-1.784-1.26c-0.715-0.285-1.55-0.427-2.505-0.427c-0.935,0-1.763,0.141-2.485,0.422
				c-0.721,0.281-1.323,0.702-1.804,1.265c-0.339,0.407-0.586,0.913-0.742,1.52s-0.234,1.52-0.234,2.739v0.874v0.874H56.589z"/>
			<path fill="#F9F9F9" d="M58.774,144.57H43.895v-8.304h2.053v5.885h3.73v-5.885h2.124v5.885h4.807v-5.885h2.165V144.57z"/>
			<path fill="#F9F9F9" d="M58.771,124.701l-3.829,1.691v5.891l3.833,1.729l-0.002,2.544l-15.471-7.205l15.471-7.195L58.771,124.701
				z M52.932,131.39l0-4.141l-3.395,1.522l-0.742,0.273l-0.945,0.284c0.19,0.047,0.353,0.089,0.488,0.126
				c0.136,0.038,0.278,0.083,0.427,0.137c0.265,0.075,0.522,0.166,0.773,0.274L52.932,131.39z"/>
		</g>
		<g>
			<path fill="#F9F9F9" d="M121.373,117.267l-0.091-0.663l-0.098-0.748c-0.047,0.254-0.108,0.499-0.183,0.733
				c-0.075,0.235-0.171,0.466-0.288,0.691l-2.702,5.504l-2.7-5.617c-0.118-0.24-0.216-0.463-0.296-0.67l-0.211-0.642
				c0,0.169-0.003,0.291-0.011,0.363s-0.022,0.18-0.046,0.32c-0.028,0.254-0.074,0.5-0.135,0.74l-1.109,5.083l-1.54,0.001
				l2.439-10.761l3.047,6.516l0.205,0.518l0.357,0.886c0.094-0.287,0.249-0.663,0.465-1.128l0.127-0.282l2.975-6.509l2.496,10.761
				l-1.556,0L121.373,117.267z"/>
			<path fill="#F9F9F9" d="M124.692,122.364v-10.322h5.76v1.424h-4.083v2.588h4.083v1.473h-4.083v3.335h4.083v1.502H124.692z"/>
			<path fill="#F9F9F9" d="M133.228,117.746v4.618h-1.572v-10.322h2.341c0.691,0,1.224,0.043,1.601,0.13
				c0.376,0.087,0.698,0.236,0.966,0.448c0.319,0.249,0.566,0.571,0.74,0.966c0.08,0.188,0.143,0.394,0.19,0.617
				c0.047,0.224,0.07,0.45,0.07,0.681c0,0.827-0.197,1.474-0.592,1.939c-0.395,0.465-0.987,0.747-1.777,0.846l3.554,4.696
				l-1.899,0.002l-3.433-4.618L133.228,117.746z M133.333,116.442h0.303c0.889,0,1.479-0.104,1.77-0.311
				c0.291-0.207,0.437-0.573,0.437-1.1c0-0.56-0.158-0.958-0.473-1.195c-0.315-0.237-0.893-0.356-1.734-0.356h-0.303V116.442z"/>
			<path fill="#F9F9F9" d="M147.305,114.552c-0.475-0.404-0.978-0.708-1.509-0.91c-0.263-0.099-0.532-0.174-0.808-0.226
				c-0.274-0.052-0.561-0.078-0.855-0.078c-1.129,0-2.046,0.361-2.754,1.083s-1.061,1.662-1.061,2.819
				c0,1.12,0.345,2.041,1.036,2.763s1.558,1.083,2.602,1.083c0.31,0,0.604-0.026,0.885-0.078c0.279-0.052,0.565-0.135,0.856-0.248
				c0.55-0.213,1.081-0.541,1.594-0.985v1.901c-0.451,0.325-0.943,0.568-1.474,0.729c-0.259,0.075-0.535,0.134-0.829,0.176
				c-0.293,0.042-0.593,0.064-0.898,0.064c-0.79,0-1.517-0.128-2.182-0.385s-1.253-0.635-1.763-1.136
				c-0.51-0.501-0.9-1.086-1.17-1.757c-0.271-0.67-0.405-1.384-0.405-2.141c0-0.748,0.135-1.458,0.405-2.131
				c0.27-0.672,0.66-1.26,1.17-1.764c0.51-0.503,1.099-0.885,1.766-1.146s1.384-0.392,2.15-0.392c0.31,0,0.606,0.021,0.888,0.063
				c0.283,0.042,0.564,0.11,0.847,0.205c0.555,0.169,1.089,0.435,1.601,0.797L147.305,114.552z"/>
			<path fill="#F9F9F9" d="M155.484,122.363l-1.174-2.657h-4.086l-1.199,2.659l-1.766-0.001l4.999-10.733l4.991,10.733
				L155.484,122.363z M150.844,118.311h2.873l-1.057-2.355l-0.189-0.515l-0.197-0.656c-0.033,0.131-0.062,0.245-0.088,0.338
				c-0.025,0.094-0.057,0.193-0.095,0.296c-0.052,0.184-0.114,0.362-0.189,0.536L150.844,118.311z"/>
			<path fill="#F9F9F9" d="M157.502,122.364v-10.322h2.263c1.48,0,2.517,0.073,3.106,0.218c0.59,0.146,1.115,0.395,1.574,0.748
				c0.594,0.451,1.045,1.035,1.355,1.752c0.309,0.717,0.465,1.534,0.465,2.45c0,0.912-0.152,1.72-0.459,2.425
				c-0.305,0.705-0.76,1.292-1.361,1.763c-0.445,0.343-0.961,0.592-1.543,0.747c-0.287,0.071-0.654,0.125-1.1,0.162
				c-0.447,0.038-0.977,0.057-1.587,0.057h-0.451H157.502z M159.18,120.849h1.41c0.779,0,1.363-0.051,1.752-0.152
				c0.387-0.101,0.723-0.276,1.004-0.525c0.387-0.329,0.678-0.741,0.875-1.237c0.197-0.496,0.297-1.075,0.297-1.738
				c0-0.649-0.098-1.223-0.293-1.724c-0.195-0.5-0.488-0.917-0.879-1.251c-0.281-0.235-0.633-0.406-1.053-0.515
				c-0.422-0.108-1.055-0.162-1.9-0.162h-0.607h-0.605V120.849z"/>
			<path fill="#F9F9F9" d="M178.051,117.228c0,0.743-0.137,1.438-0.409,2.085c-0.272,0.646-0.672,1.224-1.198,1.732
				c-0.526,0.508-1.127,0.902-1.802,1.182s-1.376,0.42-2.104,0.42c-0.743,0-1.451-0.138-2.126-0.413
				c-0.675-0.275-1.271-0.666-1.787-1.171c-0.518-0.506-0.914-1.088-1.191-1.746c-0.277-0.659-0.416-1.355-0.416-2.088
				c0-0.734,0.136-1.43,0.409-2.088c0.272-0.659,0.671-1.243,1.194-1.753c0.524-0.511,1.12-0.901,1.788-1.171
				c0.667-0.271,1.377-0.406,2.129-0.406c0.733,0,1.433,0.134,2.098,0.402s1.261,0.66,1.787,1.175
				c0.526,0.515,0.93,1.102,1.209,1.76C177.911,115.805,178.051,116.499,178.051,117.228z M176.302,117.228
				c0-0.532-0.094-1.03-0.282-1.496c-0.188-0.466-0.458-0.88-0.811-1.242s-0.758-0.642-1.216-0.84
				c-0.458-0.197-0.944-0.296-1.456-0.296c-0.513,0-0.995,0.095-1.449,0.286c-0.453,0.19-0.861,0.472-1.223,0.843
				c-0.344,0.353-0.616,0.769-0.818,1.249c-0.094,0.24-0.164,0.48-0.211,0.72c-0.048,0.24-0.071,0.499-0.071,0.776
				c0,0.527,0.095,1.021,0.282,1.482c0.094,0.24,0.207,0.461,0.339,0.663c0.131,0.203,0.291,0.398,0.479,0.586
				c0.348,0.362,0.752,0.641,1.212,0.836c0.461,0.195,0.947,0.292,1.46,0.292c0.508,0,0.988-0.096,1.441-0.289
				c0.454-0.193,0.855-0.471,1.206-0.833c0.35-0.362,0.624-0.78,0.821-1.253S176.302,117.746,176.302,117.228z"/>
			<path fill="#F9F9F9" d="M156.107,136.02l-1.174-2.657h-4.086l-1.199,2.659l-1.766-0.001l4.999-10.733l4.991,10.733
				L156.107,136.02z M151.467,131.968h2.873l-1.057-2.355l-0.189-0.515l-0.197-0.656c-0.033,0.131-0.062,0.245-0.088,0.338
				c-0.025,0.094-0.057,0.193-0.095,0.296c-0.052,0.184-0.114,0.362-0.189,0.536L151.467,131.968z"/>
			<path fill="#F9F9F9" d="M159.697,131.389v4.632h-1.572V125.7h2.537c0.742,0,1.293,0.04,1.65,0.12s0.67,0.216,0.938,0.409
				c0.324,0.24,0.578,0.563,0.762,0.97s0.275,0.854,0.275,1.343c0,0.484-0.092,0.933-0.275,1.347s-0.438,0.74-0.762,0.98
				c-0.258,0.183-0.568,0.316-0.93,0.398c-0.363,0.082-0.916,0.123-1.658,0.123h-0.331H159.697z M159.803,130.015h0.43
				c0.936,0,1.557-0.1,1.865-0.3c0.307-0.2,0.461-0.558,0.461-1.075c0-0.555-0.164-0.944-0.492-1.167
				c-0.33-0.223-0.941-0.335-1.834-0.335h-0.43V130.015z"/>
			<path fill="#F9F9F9" d="M166.66,131.389v4.632h-1.572V125.7h2.538c0.742,0,1.293,0.04,1.649,0.12
				c0.357,0.08,0.67,0.216,0.938,0.409c0.324,0.24,0.578,0.563,0.761,0.97c0.184,0.407,0.275,0.854,0.275,1.343
				c0,0.484-0.092,0.933-0.275,1.347c-0.183,0.414-0.437,0.74-0.761,0.98c-0.259,0.183-0.569,0.316-0.931,0.398
				c-0.362,0.082-0.915,0.123-1.657,0.123h-0.331H166.66z M166.766,130.015h0.431c0.935,0,1.557-0.1,1.864-0.3
				s0.462-0.558,0.462-1.075c0-0.555-0.164-0.944-0.493-1.167s-0.94-0.335-1.833-0.335h-0.431V130.015z"/>
			<path fill="#F9F9F9" d="M171.459,133.957l1.34-0.622c0.127,0.458,0.359,0.81,0.698,1.056s0.771,0.368,1.297,0.368
				c0.499,0,0.895-0.139,1.188-0.416c0.294-0.278,0.44-0.649,0.44-1.115c0-0.602-0.503-1.143-1.509-1.623l-0.324-0.155
				c-1.128-0.545-1.884-1.046-2.267-1.503c-0.383-0.456-0.575-1.007-0.575-1.651c0-0.837,0.286-1.518,0.857-2.043
				c0.57-0.524,1.319-0.787,2.245-0.787c0.757,0,1.392,0.146,1.904,0.437c0.512,0.292,0.869,0.715,1.071,1.269l-1.312,0.677
				c-0.202-0.32-0.428-0.556-0.677-0.709c-0.249-0.152-0.533-0.229-0.854-0.229c-0.456,0-0.815,0.118-1.078,0.353
				c-0.264,0.235-0.396,0.55-0.396,0.945c0,0.621,0.583,1.2,1.749,1.736l0.212,0.099c1.015,0.466,1.714,0.924,2.097,1.376
				c0.384,0.452,0.575,1.014,0.575,1.687c0,0.974-0.309,1.75-0.924,2.328c-0.616,0.579-1.448,0.868-2.496,0.868
				c-0.879,0-1.598-0.203-2.157-0.608S171.638,134.711,171.459,133.957z"/>
		</g>
		<g>
			<path fill="#FFFFFF" d="M174.033,159.852l-9.296-0.011l-1.557-9.085c-0.036-0.219-0.215-0.387-0.433-0.413
				c-0.048-0.006-0.096-0.004-0.143,0.003l-1.027,0.174c-0.134,0.025-0.247,0.098-0.326,0.204c-0.076,0.11-0.106,0.242-0.084,0.377
				l1.498,8.74l-4.71-0.006l1.106-8.823c0.016-0.134-0.02-0.265-0.101-0.37c-0.083-0.104-0.198-0.174-0.335-0.188l-1.029-0.13
				c-0.05-0.006-0.099-0.006-0.146,0.004c-0.217,0.034-0.387,0.212-0.416,0.429l-1.133,9.079l-8.348-0.008
				c-0.355-0.002-0.647,0.299-0.649,0.667l-0.003,1.795c0.003,0.368,0.292,0.667,0.65,0.667l0.981,0.002l2.567,11.744l19.616,0.019
				l2.694-11.74l0.619-0.002c0.36,0.002,0.649-0.298,0.653-0.667l0.002-1.791C174.685,160.151,174.394,159.852,174.033,159.852
				 M153.436,172.256c0,0.198-0.211,0.361-0.469,0.36h-0.742c-0.257,0-0.465-0.162-0.467-0.362l0.006-3.548h1.675L153.436,172.256z
				 M153.44,167.506l-1.677-0.003l0.004-2.343c0-0.2,0.208-0.364,0.465-0.362h0.743c0.255,0.002,0.467,0.164,0.467,0.362
				L153.44,167.506z M156.784,172.256c0,0.201-0.208,0.364-0.462,0.361h-0.746c-0.259,0-0.469-0.162-0.469-0.361l0.002-3.546h1.679
				L156.784,172.256z M156.788,167.51l-1.677-0.002l0.002-2.344c0.004-0.2,0.213-0.364,0.469-0.364l0.746,0.002
				c0.256,0,0.464,0.162,0.462,0.362L156.788,167.51z M160.134,172.26c0,0.2-0.21,0.363-0.466,0.36l-0.742,0.001
				c-0.26-0.001-0.467-0.161-0.467-0.361l0.004-3.546h1.674L160.134,172.26z M160.14,167.514l-1.677-0.004l0.004-2.346
				c0-0.198,0.206-0.36,0.465-0.36h0.743c0.257,0.002,0.465,0.164,0.467,0.364L160.14,167.514z M163.485,172.261
				c0,0.202-0.21,0.365-0.469,0.365h-0.743c-0.256-0.005-0.465-0.165-0.465-0.363l0.004-3.549l1.675,0.001L163.485,172.261z
				 M163.489,167.516l-1.677-0.002l0.004-2.346c0-0.2,0.209-0.36,0.465-0.36h0.743c0.257,0,0.467,0.164,0.469,0.362L163.489,167.516
				z M166.835,172.266c0,0.199-0.21,0.361-0.465,0.361l-0.743-0.001c-0.262,0-0.467-0.161-0.467-0.36l0.004-3.548l1.673,0.002
				L166.835,172.266z M166.839,167.517l-1.675-0.001l0.002-2.345c0-0.199,0.207-0.361,0.466-0.361l0.746,0.002
				c0.255-0.002,0.463,0.162,0.463,0.362L166.839,167.517z M170.185,172.271c0.002,0.199-0.21,0.358-0.467,0.358l-0.741,0.002
				c-0.259-0.002-0.465-0.164-0.467-0.362l0.004-3.548h1.676L170.185,172.271z M170.189,167.521l-1.674-0.004l0.002-2.343
				c-0.002-0.2,0.208-0.362,0.465-0.36h0.743c0.255,0,0.467,0.162,0.467,0.363L170.189,167.521z"/>
		</g>
		<g>
			<path d="M221.662,151.768v-1.72c0.004-1.871-1.451-3.395-3.241-3.395l-0.68-0.002c-0.072-0.082-0.271-0.141-0.505-0.141
				l-3.21-0.004c-0.235,0-0.433,0.059-0.508,0.142l-9.161-0.009c-1.788-0.002-3.244,1.52-3.246,3.39l-0.028,30.826
				c0,1.872,1.452,3.396,3.24,3.397l14.063,0.014c1.79,0.001,3.247-1.521,3.248-3.392l0.024-24.768
				c0.058-0.045,0.098-0.15,0.098-0.271l0.003-1.811c0-0.122-0.043-0.229-0.1-0.275v-0.798c0.088-0.005,0.156-0.069,0.156-0.146
				v-0.894C221.816,151.838,221.748,151.773,221.662,151.768"/>
			<path fill="#FFFFFF" d="M212.904,150.022c-0.003,0.139-0.113,0.25-0.25,0.248l-2.564-0.003c-0.138,0-0.248-0.111-0.248-0.247
				c0-0.137,0.11-0.248,0.248-0.248l2.564,0.003C212.793,149.775,212.904,149.887,212.904,150.022"/>
			<rect x="202.233" y="153.027" fill="#FFFFFF" width="18.278" height="26.138"/>
		</g>
		<g>
			<path fill="#00669F" d="M99.733,212.33v8.897h-1.678v-8.897h-2.743v-1.425h7.149v1.425H99.733z"/>
			<path fill="#00669F" d="M103.022,221.228v-10.322h5.76v1.425H104.7v2.587h4.083v1.474H104.7v3.335h4.083v1.502H103.022z"/>
			<path fill="#00669F" d="M118.27,213.415c-0.475-0.403-0.978-0.707-1.509-0.909c-0.263-0.099-0.532-0.174-0.807-0.226
				s-0.561-0.077-0.856-0.077c-1.128,0-2.046,0.36-2.753,1.083s-1.061,1.662-1.061,2.819c0,1.119,0.345,2.041,1.036,2.763
				c0.691,0.723,1.558,1.083,2.602,1.083c0.31,0,0.605-0.025,0.885-0.078c0.279-0.052,0.565-0.134,0.856-0.248
				c0.55-0.212,1.081-0.541,1.593-0.985v1.901c-0.451,0.325-0.942,0.568-1.473,0.729c-0.259,0.075-0.535,0.134-0.829,0.177
				c-0.294,0.042-0.593,0.063-0.899,0.063c-0.79,0-1.517-0.129-2.182-0.385s-1.253-0.635-1.763-1.136
				c-0.51-0.501-0.9-1.087-1.17-1.757c-0.271-0.67-0.405-1.384-0.405-2.142c0-0.747,0.135-1.458,0.405-2.13
				c0.27-0.673,0.66-1.261,1.17-1.764c0.51-0.504,1.099-0.886,1.766-1.146c0.667-0.262,1.384-0.392,2.15-0.392
				c0.31,0,0.606,0.021,0.888,0.063c0.282,0.042,0.564,0.11,0.846,0.204c0.555,0.169,1.088,0.435,1.601,0.797L118.27,213.415z"/>
			<path fill="#00669F" d="M119.628,221.228v-10.732l6.554,6.314l0.545,0.568c0.179,0.193,0.372,0.421,0.578,0.684v-7.156h1.551
				v10.727l-6.69-6.427c-0.099-0.094-0.186-0.181-0.261-0.261c-0.033-0.032-0.12-0.129-0.261-0.289
				c-0.169-0.197-0.327-0.399-0.473-0.606v7.179H119.628z"/>
			<path fill="#00669F" d="M141.087,216.091c0,0.743-0.137,1.438-0.409,2.085s-0.672,1.225-1.199,1.732s-1.127,0.901-1.801,1.182
				c-0.674,0.279-1.376,0.42-2.104,0.42c-0.743,0-1.451-0.138-2.126-0.413c-0.674-0.275-1.27-0.665-1.787-1.171
				s-0.914-1.088-1.191-1.746s-0.416-1.354-0.416-2.089c0-0.733,0.136-1.43,0.409-2.088s0.671-1.243,1.195-1.753
				c0.524-0.511,1.12-0.901,1.787-1.172c0.667-0.27,1.377-0.405,2.129-0.405c0.733,0,1.432,0.134,2.098,0.402
				c0.665,0.268,1.261,0.659,1.787,1.175c0.526,0.515,0.93,1.102,1.209,1.76C140.947,214.669,141.087,215.362,141.087,216.091z
				 M139.339,216.091c0-0.531-0.094-1.03-0.282-1.496c-0.188-0.465-0.458-0.879-0.811-1.241s-0.758-0.643-1.216-0.84
				c-0.458-0.198-0.944-0.297-1.456-0.297s-0.996,0.096-1.449,0.286c-0.454,0.19-0.862,0.472-1.224,0.843
				c-0.343,0.354-0.616,0.77-0.818,1.249c-0.094,0.24-0.165,0.48-0.211,0.721c-0.047,0.239-0.07,0.498-0.07,0.775
				c0,0.527,0.094,1.021,0.282,1.482c0.094,0.24,0.207,0.461,0.338,0.663c0.132,0.202,0.292,0.397,0.479,0.586
				c0.348,0.362,0.752,0.641,1.213,0.836c0.46,0.195,0.947,0.293,1.459,0.293c0.508,0,0.988-0.096,1.442-0.289
				s0.855-0.471,1.206-0.833s0.624-0.779,0.821-1.252C139.24,217.104,139.339,216.608,139.339,216.091z"/>
			<path fill="#00669F" d="M142.29,221.228v-10.322h1.678v8.82h3.751v1.502H142.29z"/>
			<path fill="#00669F" d="M158.94,216.091c0,0.743-0.137,1.438-0.409,2.085s-0.672,1.225-1.199,1.732
				c-0.525,0.508-1.127,0.901-1.801,1.182c-0.674,0.279-1.376,0.42-2.104,0.42c-0.743,0-1.451-0.138-2.126-0.413
				c-0.674-0.275-1.27-0.665-1.787-1.171s-0.914-1.088-1.191-1.746s-0.416-1.354-0.416-2.089c0-0.733,0.137-1.43,0.408-2.088
				c0.273-0.658,0.672-1.243,1.195-1.753c0.524-0.511,1.12-0.901,1.787-1.172c0.668-0.27,1.378-0.405,2.13-0.405
				c0.733,0,1.433,0.134,2.098,0.402c0.665,0.268,1.261,0.659,1.787,1.175c0.526,0.515,0.93,1.102,1.209,1.76
				C158.801,214.669,158.94,215.362,158.94,216.091z M157.191,216.091c0-0.531-0.094-1.03-0.281-1.496
				c-0.188-0.465-0.459-0.879-0.812-1.241s-0.758-0.643-1.216-0.84c-0.459-0.198-0.943-0.297-1.456-0.297s-0.995,0.096-1.448,0.286
				c-0.455,0.19-0.862,0.472-1.225,0.843c-0.343,0.354-0.615,0.77-0.817,1.249c-0.094,0.24-0.165,0.48-0.212,0.721
				c-0.047,0.239-0.07,0.498-0.07,0.775c0,0.527,0.094,1.021,0.282,1.482c0.095,0.24,0.207,0.461,0.339,0.663
				c0.131,0.202,0.291,0.397,0.479,0.586c0.349,0.362,0.752,0.641,1.213,0.836s0.947,0.293,1.46,0.293
				c0.508,0,0.988-0.096,1.442-0.289c0.453-0.193,0.855-0.471,1.205-0.833s0.624-0.779,0.821-1.252
				C157.093,217.104,157.191,216.608,157.191,216.091z"/>
			<path fill="#00669F" d="M165.861,215.939h4.09l0.007,0.297l0.021,0.678c0,1.454-0.415,2.584-1.247,3.389
				s-2.005,1.207-3.519,1.207c-0.86,0-1.618-0.124-2.273-0.37c-0.656-0.247-1.229-0.62-1.721-1.118
				c-0.491-0.499-0.869-1.089-1.132-1.771c-0.263-0.682-0.395-1.401-0.395-2.159c0-0.785,0.133-1.505,0.398-2.158
				c0.265-0.654,0.653-1.231,1.163-1.732s1.107-0.881,1.795-1.14c0.686-0.258,1.407-0.388,2.164-0.388
				c0.809,0,1.533,0.148,2.175,0.444s1.217,0.75,1.724,1.36l-1.227,0.924c-0.343-0.399-0.734-0.699-1.174-0.898
				c-0.439-0.2-0.93-0.3-1.47-0.3c-1.109,0-2.021,0.358-2.732,1.076c-0.712,0.717-1.067,1.649-1.067,2.798
				c0,1.162,0.354,2.107,1.061,2.837s1.625,1.094,2.753,1.094c0.964,0,1.72-0.224,2.267-0.672c0.548-0.447,0.822-1.058,0.822-1.831
				v-0.148h-2.482V215.939z"/>
			<path fill="#00669F" d="M170.907,209.891l1.34-1.911h1.587l-2.06,1.911H170.907z M171.049,221.228v-10.322h1.678v10.322H171.049z
				"/>
			<path fill="#00669F" d="M181.236,221.226l-1.173-2.656h-4.087l-1.199,2.659l-1.765-0.001l4.998-10.732l4.991,10.732
				L181.236,221.226z M176.596,217.175l2.873-0.001l-1.057-2.355l-0.189-0.515l-0.197-0.655c-0.032,0.132-0.062,0.244-0.088,0.339
				c-0.025,0.094-0.057,0.192-0.095,0.296c-0.052,0.184-0.114,0.362-0.189,0.536L176.596,217.175z"/>
			<path fill="#00669F" d="M150.48,229.788l-0.091-0.663l-0.099-0.748c-0.047,0.254-0.107,0.499-0.183,0.733
				c-0.075,0.235-0.171,0.466-0.288,0.691l-2.701,5.504l-2.7-5.617c-0.118-0.239-0.216-0.463-0.296-0.67l-0.211-0.642
				c0,0.169-0.003,0.29-0.011,0.363s-0.022,0.18-0.046,0.32c-0.028,0.254-0.074,0.501-0.135,0.74l-1.109,5.083l-1.54,0.001
				l2.439-10.761l3.047,6.516l0.205,0.518l0.357,0.887c0.094-0.287,0.25-0.663,0.466-1.129l0.127-0.282l2.976-6.509l2.496,10.761
				h-1.557L150.48,229.788z"/>
			<path fill="#00669F" d="M164.384,229.748c0,0.743-0.137,1.438-0.409,2.085s-0.672,1.225-1.199,1.732
				c-0.525,0.508-1.127,0.901-1.801,1.182c-0.674,0.279-1.376,0.42-2.104,0.42c-0.743,0-1.451-0.138-2.126-0.413
				c-0.674-0.275-1.27-0.665-1.787-1.171s-0.914-1.088-1.191-1.746s-0.416-1.354-0.416-2.089c0-0.733,0.137-1.43,0.408-2.088
				c0.273-0.658,0.672-1.243,1.195-1.753c0.524-0.511,1.12-0.901,1.787-1.172c0.668-0.27,1.378-0.405,2.13-0.405
				c0.733,0,1.433,0.134,2.098,0.402c0.665,0.268,1.261,0.659,1.787,1.175c0.526,0.515,0.93,1.102,1.209,1.76
				C164.244,228.326,164.384,229.02,164.384,229.748z M162.635,229.748c0-0.531-0.094-1.03-0.281-1.496
				c-0.188-0.465-0.459-0.879-0.812-1.241s-0.758-0.643-1.216-0.84c-0.459-0.198-0.943-0.297-1.456-0.297s-0.995,0.096-1.448,0.286
				c-0.455,0.19-0.862,0.472-1.225,0.843c-0.343,0.354-0.615,0.77-0.817,1.249c-0.094,0.24-0.165,0.48-0.212,0.721
				c-0.047,0.239-0.07,0.498-0.07,0.775c0,0.527,0.094,1.021,0.282,1.482c0.095,0.24,0.207,0.461,0.339,0.663
				c0.131,0.202,0.291,0.397,0.479,0.586c0.349,0.362,0.752,0.641,1.213,0.836s0.947,0.293,1.46,0.293
				c0.508,0,0.988-0.096,1.442-0.289c0.453-0.193,0.855-0.471,1.205-0.833s0.624-0.779,0.821-1.252
				C162.536,230.761,162.635,230.266,162.635,229.748z M157.876,223.548l1.339-1.911h1.587l-2.059,1.911H157.876z"/>
			<path fill="#00669F" d="M168.865,235.286l-4.604-10.724h1.741l2.309,5.501c0.137,0.315,0.25,0.609,0.338,0.885
				c0.088,0.274,0.16,0.531,0.217,0.771c0.057-0.253,0.135-0.521,0.234-0.803c0.053-0.149,0.104-0.292,0.152-0.426
				c0.051-0.134,0.111-0.275,0.182-0.426l2.301-5.502h1.734L168.865,235.286z"/>
			<path fill="#00669F" d="M173.818,234.885v-10.322h1.678v10.322H173.818z"/>
			<path fill="#00669F" d="M177.186,234.885v-10.322h1.678v8.82h3.751v1.502H177.186z"/>
		</g>
	</g>
</g>
</svg>
