<?xml version="1.0" encoding="utf-8"?>
<!-- Generator: Adobe Illustrator 15.0.0, SVG Export Plug-In . SVG Version: 6.00 Build 0)  -->
<!DOCTYPE svg PUBLIC "-//W3C//DTD SVG 1.1//EN" "http://www.w3.org/Graphics/SVG/1.1/DTD/svg11.dtd">
<svg version="1.1" id="Layer_1" xmlns="http://www.w3.org/2000/svg" xmlns:xlink="http://www.w3.org/1999/xlink" x="0px" y="0px"
	 width="345.585px" height="360.085px" viewBox="0 0 345.585 360.085" enable-background="new 0 0 345.585 360.085"
	 xml:space="preserve">
<g>
	<path fill="none" stroke="#4AA7BB" stroke-width="1.0834" stroke-miterlimit="10" d="M290.941,170.453
		c-4.277,22.867-14.896,42.946-29.695,58.759"/>
	
		<circle fill="none" stroke="#4AA7BB" stroke-width="1.0834" stroke-miterlimit="10" stroke-dasharray="3.2502" cx="175.887" cy="150.373" r="104.006"/>
	<path fill="none" stroke="#4AA7BB" stroke-width="1.0834" stroke-miterlimit="10" d="M60.044,165.25
		c-2.682-23.109,1.516-45.433,10.971-64.918"/>
	<path fill="none" stroke="#4AA7BB" stroke-width="1.0834" stroke-miterlimit="10" d="M63.21,203.749
		c-5.314-11.625-8.926-24.268-10.479-37.651c-1.955-16.844-0.471-33.295,3.898-48.649"/>
	<g>
		<g>
			<path fill="none" stroke="#4AA7BB" stroke-width="1.0834" stroke-miterlimit="10" d="M107.911,45.258
				c28.659-19.106,62.333-24.832,93.651-18.653"/>
		</g>
		<path fill="none" stroke="#4AA7BB" stroke-width="1.0834" stroke-miterlimit="10" d="M79.176,60.312
			c11.174-12.32,24.868-22.729,40.786-30.374"/>
	</g>
	<path fill="none" stroke="#4AA7BB" stroke-width="1.0834" stroke-miterlimit="10" d="M297.227,150.372
		c0,39.402-18.779,74.417-47.877,96.584"/>
	<rect x="162.886" y="254.56" fill="#4AA7BB" width="69.336" height="26.001"/>
	<path fill="#4AA7BB" d="M168.344,302.231c-6.19,0-11.676-4.438-12.788-10.745l-18.34-104.006
		c-1.246-7.07,3.476-13.814,10.547-15.061c7.068-1.247,13.813,3.475,15.061,10.546l18.338,104.005
		c1.248,7.071-3.474,13.814-10.545,15.062C169.853,302.167,169.093,302.231,168.344,302.231z"/>
	<polygon fill="#4AA7BB" points="170.652,302.229 101.314,302.229 78.39,172.223 147.728,172.223 	"/>
	<path fill="#1191B6" d="M99.007,302.231c-6.191,0-11.676-4.438-12.788-10.745L67.88,187.48c-1.247-7.07,3.475-13.814,10.545-15.061
		c7.069-1.247,13.814,3.475,15.061,10.546l18.339,104.005c1.247,7.071-3.474,13.814-10.545,15.062
		C100.516,302.167,99.755,302.231,99.007,302.231z"/>
	<rect x="162.886" y="306.563" fill="#4AA7BB" width="47.669" height="43.152"/>
	<circle fill="#1191B6" cx="232.223" cy="267.561" r="13.001"/>
	<circle fill="#1191B6" cx="223.556" cy="267.561" r="13"/>
	<rect x="223.556" y="254.56" fill="#1191B6" width="8.666" height="26.001"/>
	<rect x="210.555" y="267.561" fill="#1191B6" width="21.667" height="82.155"/>
	<path fill="#10728C" d="M210.555,280.561h-47.669v26.003h47.669c7.18,0,13.001-5.822,13.001-13.001
		C223.556,286.382,217.735,280.561,210.555,280.561z"/>
	<path fill="#1191B6" d="M162.886,306.563c7.18,0,13-5.822,13-13.001c0-7.181-5.82-13.002-13-13.002"/>
	<rect x="141.218" y="280.561" fill="#1191B6" width="21.668" height="26.003"/>
	
		<line fill="none" stroke="#1191B6" stroke-width="1.0834" stroke-miterlimit="10" x1="175.448" y1="254.56" x2="180.033" y2="280.561"/>
	<path fill="#E3C3A5" d="M177.82,117.217c-0.076-1.114-0.186-2.258-0.371-3.369c-0.613-3.67-2.082-6.984-6.152-7.721l-15.99-2.896
		l-0.156,0.857l-2.006,11.076c0.023-0.009,0.047-0.016,0.07-0.024c-0.094,0.286-0.17,0.579-0.225,0.883l-0.869,4.798
		c-0.379,2.087-2.035,3.617-4.018,3.938c-0.533,0.087-1.088,0.092-1.649-0.01c-2.649-0.479-4.409-3.017-3.929-5.667l0.869-4.797
		c-3.532-0.64-6.915,1.706-7.555,5.237l-0.578,3.199c-0.641,3.532,1.704,6.915,5.237,7.554l0,0l-2.896,15.991l25.585,4.634
		c3.535,0.64,6.913-1.703,7.554-5.238l1.786-9.861l4.53,0.82C177.058,136.622,178.152,122.014,177.82,117.217z"/>
	<path fill="#202024" d="M148.021,125.498c-0.533,0.087-1.088,0.091-1.648-0.011c-2.65-0.479-5.956,5.527-5.956,5.527l0,0
		l-2.896,15.991l25.584,4.633c3.536,0.641,6.915-1.702,7.556-5.237c0,0,6.397-9.779,1.785-9.86
		C151.941,140.106,150.001,125.176,148.021,125.498z"/>
	<polygon fill="#E3C3A5" points="154.861,160.403 156.792,149.742 137.603,146.268 135.382,159.048 	"/>
	<path fill="#202024" d="M152.99,116.023c0.055-0.304,0.131-0.597,0.225-0.883c-0.023,0.009-0.047,0.016-0.07,0.024L152.99,116.023z
		"/>
	<circle fill="#202024" cx="164.623" cy="124.737" r="2.438"/>
	<path fill="#202024" d="M151.105,102.47l-0.029-0.005l-0.055,0.083c-3.115-0.037-5.895,2.174-6.469,5.342l-1.158,6.396
		l-0.869,4.797l-1.682,10.215l4.798,0.868c0.562,0.102,1.116,0.098,1.649,0.011c1.982-0.322,3.639-1.852,4.017-3.939l1.683-10.214
		c0.639-3.536,4.018-5.878,7.554-5.238l11.727,2.124c3.535,0.64,11.95,1.086,13.691-8.531l-29.821-5.399
		C153.785,98.552,151.531,100.115,151.105,102.47z M155.306,103.231L155.306,103.231l0.062,0.011l0,0L155.306,103.231z"/>
	<path fill="#202024" d="M185.839,105.055c-0.002,0.012-0.004,0.022-0.006,0.031C185.835,105.076,185.837,105.066,185.839,105.055z"
		/>
	<path fill="#202024" d="M185.957,104.41c-0.001,0.005-0.002,0.011-0.004,0.017C185.955,104.421,185.956,104.415,185.957,104.41z"/>
	<path fill="#202024" d="M185.824,105.138C185.822,105.153,185.822,105.151,185.824,105.138L185.824,105.138z"/>
	<path fill="#202024" d="M185.833,105.086c-0.004,0.023-0.007,0.041-0.01,0.052C185.826,105.128,185.83,105.11,185.833,105.086z"/>
	<path fill="#202024" d="M185.953,104.427c-0.012,0.068-0.035,0.201-0.061,0.334C185.91,104.67,185.929,104.559,185.953,104.427z"/>
	<path fill="#202024" d="M185.961,104.378c0,0-0.002,0.013-0.005,0.032C185.958,104.399,185.959,104.39,185.961,104.378z"/>
	<path fill="#202024" d="M185.851,104.989c-0.004,0.025-0.008,0.046-0.012,0.065C185.843,105.037,185.846,105.015,185.851,104.989z"
		/>
	<path fill="#202024" d="M185.853,104.982c-0.001,0.002-0.001,0.006-0.002,0.007C185.852,104.988,185.852,104.984,185.853,104.982z"
		/>
	<path fill="#202024" d="M185.892,104.761c-0.003,0.021-0.008,0.041-0.011,0.061C185.884,104.802,185.889,104.781,185.892,104.761z"
		/>
	<path fill="#202024" d="M185.881,104.821c-0.011,0.058-0.021,0.112-0.028,0.161C185.861,104.938,185.87,104.885,185.881,104.821z"
		/>
	<path fill="#202024" d="M152.99,116.023c0.055-0.304,0.131-0.597,0.225-0.883c-0.023,0.009-0.047,0.016-0.07,0.024L152.99,116.023z
		"/>
	<path fill="#E3C3A5" d="M220.508,187.168c-3.102-1.256-7.077,1.225-9.241,5.608l-0.038-0.016l-0.406,1.004l-2.44,6.025
		l-0.406,1.004l0.037,0.016c-1.496,4.653-0.367,9.202,2.734,10.458c3.102,1.257,7.076-1.225,9.24-5.608l0.037,0.016l0.408-1.004
		l2.439-6.026l0.406-1.003l-0.037-0.016C224.738,192.972,223.609,188.424,220.508,187.168z"/>
	<path fill="#3E3E45" d="M175.568,254.394v-0.016h-43.301v26.002h43.301v-0.021c28.71-0.225,48.915-9.395,43.446,60.873h13.001
		C244.639,253.103,219.64,254.739,175.568,254.394z"/>
	<path fill="#202024" d="M207.678,341.231h-8.667h-13v8.667h13h8.667h8.667C216.345,345.111,212.466,341.231,207.678,341.231z"/>
	<path fill="#34343B" d="M145.201,254.39v-0.012h-0.023l0.023,0.016c0,0-9.403-0.82-12.843-0.016
		c-8.581,2.01-16.581,7.664-16.592,13.981c2.245,6.973,8.782,12.021,16.501,12.021h9.324c30.996,0,50.162-12.934,44.42,60.852h13
		C211.708,252.599,189.576,254.663,145.201,254.39z"/>
	<path fill="#202024" d="M158.134,159.048h-3.251h-19.501h-3.25c-14.373,0-26.002,6.839-26.002,26.002h8.668v69.336h0.035v8.668
		c0,1.854,0.293,3.639,0.832,5.313c0.014-8.85,22.821-13.966,29.434-13.966c3.229,0,23.868-0.016,23.868-0.016h6.5V185.05h8.668
		C184.135,165.887,172.505,159.048,158.134,159.048z"/>
	<rect x="219.014" y="341.231" fill="#202024" width="21.668" height="8.667"/>
	<path fill="#202024" d="M240.682,341.231c-4.786,0-8.667,3.88-8.667,8.667h17.334C249.35,345.111,245.469,341.231,240.682,341.231z
		"/>
	<polygon fill="#E3C3A5" points="135.482,156.283 152.275,181.792 154.984,156.283 	"/>
	<path fill="#202024" d="M195.82,225.921c-1.102,0-2.209-0.072-3.32-0.221c-12.424-1.662-25.699-15.923-25.699-43.359l17.335,2.709
		c0,13.39,4.185,22.602,10.663,23.469c3.976,0.533,9.112-2.238,10.797-8.422l16.725,4.558
		C218.882,217.27,207.833,225.921,195.82,225.921z"/>
	
		<line fill="none" stroke="#E3C3A5" stroke-width="4.3336" stroke-linecap="round" stroke-miterlimit="10" x1="186.179" y1="186.937" x2="197.013" y2="173.937"/>
	<path fill="#E3C3A5" d="M194.687,182.722c-2.689-1.992-7.158-0.586-10.351,3.117l-0.032-0.024l-0.646,0.871l-3.869,5.223
		l-0.645,0.87l0.032,0.024c-2.613,4.13-2.659,8.816,0.029,10.809c2.688,1.993,7.158,0.587,10.351-3.117l0.033,0.023l0.645-0.87
		l3.871-5.222l0.644-0.871l-0.032-0.024C197.331,189.399,197.375,184.713,194.687,182.722z"/>
	<path fill="#202024" d="M145.704,232.537c-3.962,0-7.867-0.667-11.647-2.009c-8.789-3.119-16.482-9.817-21.664-18.86
		c-4.897-8.549-7.107-18.298-6.221-27.454l17.253-1.038c-0.535,5.53,0.927,14.495,4.009,19.874
		c3.122,5.451,7.533,9.408,12.421,11.144c5.005,1.775,10.452,1.201,16.194-1.71c7.815-3.961,15.705-11.891,23.449-23.566
		l14.445,9.582c-9.422,14.205-19.535,24.111-30.058,29.446C157.859,231,151.716,232.537,145.704,232.537z"/>
	<path fill="#34343B" d="M229.017,159.152c-0.248,1.175-1.412,2.011-2.6,1.867c-1.188-0.145-1.951-1.214-1.702-2.39
		c0.247-1.176,1.411-2.012,2.599-1.867C228.503,156.907,229.265,157.977,229.017,159.152z"/>
	<polygon fill="#34343B" points="226.417,161.02 209.208,158.933 210.107,154.676 227.314,156.763 	"/>
	<path fill="#34343B" d="M220.935,197.46c-0.248,1.175-1.412,2.011-2.6,1.867c-1.189-0.145-1.951-1.213-1.703-2.389
		s1.412-2.013,2.6-1.867C220.421,195.215,221.182,196.284,220.935,197.46z"/>
	<polygon fill="#34343B" points="219.232,195.071 202.025,192.983 201.126,197.24 218.335,199.327 	"/>
	<polygon fill="#202024" points="216.632,196.938 199.424,194.852 207.507,156.544 224.715,158.63 	"/>
	<polygon fill="#4AA7BB" points="217.531,192.681 200.323,190.596 207.507,156.544 224.715,158.63 	"/>
	<polygon fill="#202024" points="226.866,158.892 224.715,158.63 216.632,196.938 218.785,197.199 	"/>
	<polygon fill="#34343B" points="229.017,159.152 226.866,158.892 218.785,197.199 220.935,197.46 	"/>
	<polygon fill="#202024" points="207.507,156.544 205.355,156.283 197.273,194.591 199.424,194.852 	"/>
	<path fill="#202024" d="M201.576,195.112c-0.248,1.175-1.412,2.012-2.6,1.868c-1.188-0.145-1.95-1.214-1.703-2.39
		c0.248-1.175,1.412-2.012,2.601-1.867C201.062,192.866,201.824,193.937,201.576,195.112z"/>
	<path fill="#202024" d="M209.658,156.805c-0.248,1.175-1.412,2.011-2.6,1.867c-1.188-0.144-1.951-1.214-1.703-2.389
		c0.248-1.176,1.412-2.013,2.601-1.868S209.906,155.629,209.658,156.805z"/>
	<path fill="#202024" d="M226.866,158.892c-0.248,1.175-1.411,2.011-2.6,1.867c-1.188-0.145-1.95-1.215-1.702-2.39
		c0.248-1.176,1.412-2.012,2.6-1.868C226.352,156.646,227.114,157.716,226.866,158.892z"/>
	<polygon fill="#202024" points="224.266,160.759 207.058,158.672 207.956,154.415 225.164,156.501 	"/>
	<path fill="#202024" d="M218.785,197.199c-0.248,1.175-1.412,2.011-2.601,1.866c-1.188-0.144-1.95-1.213-1.702-2.389
		c0.248-1.175,1.412-2.011,2.6-1.867C218.27,194.954,219.032,196.023,218.785,197.199z"/>
	<polygon fill="#202024" points="217.082,194.81 199.874,192.724 198.976,196.98 216.184,199.065 	"/>
	<path fill="#34343B" d="M209.867,195.026c-0.187,0.882-1.06,1.509-1.95,1.4c-0.892-0.108-1.463-0.91-1.276-1.792
		c0.186-0.881,1.059-1.508,1.949-1.4C209.48,193.343,210.052,194.146,209.867,195.026z"/>
	<path fill="none" stroke="#3E3E45" stroke-width="1.0834" stroke-miterlimit="10" d="M163.885,227.945
		c-6.026,3.055-12.169,4.592-18.182,4.592c-3.962,0-7.867-0.667-11.647-2.009c-4.963-1.761-9.576-4.664-13.584-8.485"/>
	<path fill="none" stroke="#3E3E45" stroke-width="1.0834" stroke-miterlimit="10" d="M123.424,185.885
		c-0.535,5.529,0.927,11.786,4.009,17.165c3.122,5.451,7.533,9.408,12.421,11.144c5.005,1.775,10.452,1.201,16.194-1.71
		c3.656-1.853,7.328-4.574,10.995-8.142"/>
	
		<line fill="none" stroke="#3E3E45" stroke-width="1.0834" stroke-miterlimit="10" x1="179.498" y1="188.917" x2="172.795" y2="198.042"/>
	<rect x="80.548" y="280.561" fill="#4AA7BB" width="60.67" height="69.155"/>
	<circle fill="#4AA7BB" cx="80.548" cy="267.561" r="13"/>
	<rect x="80.548" y="254.56" fill="#4AA7BB" width="60.67" height="26.001"/>
	<circle fill="#1191B6" cx="141.218" cy="267.561" r="13"/>
	<circle fill="#1191B6" cx="149.885" cy="267.561" r="13.001"/>
	<rect x="141.218" y="254.56" fill="#1191B6" width="8.666" height="26.001"/>
	<rect x="141.218" y="267.561" fill="#1191B6" width="21.668" height="82.155"/>
	
		<line fill="none" stroke="#1191B6" stroke-width="1.0834" stroke-miterlimit="10" x1="141.218" y1="281.103" x2="80.548" y2="281.103"/>
	<circle fill="#202024" cx="99.569" cy="84.471" r="27.963"/>
	<circle fill="#ED5937" cx="221.016" cy="29.638" r="13.958"/>
	<circle fill="#1191B6" cx="71.88" cy="142.854" r="4.854"/>
	<circle fill="#1191B6" cx="45.879" cy="131.569" r="1.907"/>
	<circle fill="#1191B6" cx="112.025" cy="24.347" r="1.907"/>
	<circle fill="#202024" cx="117.954" cy="14.658" r="5.929"/>
	<circle fill="#1191B6" cx="239.598" cy="232.537" r="6.109"/>
	<circle fill="#ED5937" cx="271.225" cy="237.044" r="1.775"/>
	<circle fill="#ED5937" cx="141.218" cy="15.68" r="1.775"/>
	<circle fill="#4C4C51" cx="200.2" cy="10.011" r="6.979"/>
	<circle fill="#202024" cx="156.792" cy="74.61" r="2.806"/>
	<circle fill="#1191B6" cx="290.252" cy="142.854" r="4.252"/>
	<circle fill="#202024" cx="302.507" cy="156.283" r="2.155"/>
	<g>
		<circle fill="#43434A" cx="261.004" cy="291.074" r="7.195"/>
		<circle fill="#43434A" cx="12.257" cy="137.962" r="5.249"/>
		<circle fill="#43434A" cx="61.475" cy="286.68" r="3.25"/>
		<circle fill="#1191B6" cx="69.748" cy="290.985" r="1.74"/>
		<circle fill="none" stroke="#4AA7BB" stroke-width="1.0834" stroke-miterlimit="10" cx="142.993" cy="66.787" r="7.824"/>
		<circle fill="none" stroke="#FFFFFF" stroke-width="1.0834" stroke-miterlimit="10" cx="308.004" cy="177.808" r="2.514"/>
	</g>
	<path fill="none" stroke="#3E3E45" stroke-width="1.0834" stroke-miterlimit="10" d="M188.048,206.823c0,0-2.242,3.335-6.686,7.661
		"/>
	<g>
		<g>
			<circle fill="#1191B6" cx="273.288" cy="198.042" r="28.169"/>
		</g>
		<g>
			<g>
				<rect x="258.121" y="183.958" fill="#ED5937" width="30.336" height="4.333"/>
			</g>
			<g>
				<polygon fill="#EDECEC" points="258.121,188.291 258.121,199.125 258.121,209.959 288.457,209.959 288.457,199.125 
					288.457,188.291 				"/>
			</g>
			<g>
				<g>
					<rect x="258.121" y="188.291" fill="#FFFFFF" width="30.336" height="10.834"/>
				</g>
				<g>
					<rect x="258.121" y="199.125" fill="#FFFFFF" width="30.336" height="10.834"/>
				</g>
			</g>
			<g>
				<g>
					<path fill="#202024" d="M262.455,190.188c-0.6,0-1.084-0.485-1.084-1.084v-1.624c0-0.599,0.484-1.084,1.084-1.084
						c0.598,0,1.082,0.485,1.082,1.084v1.624C263.537,189.702,263.053,190.188,262.455,190.188z"/>
				</g>
				<g>
					<path fill="#202024" d="M284.123,190.188c-0.6,0-1.084-0.485-1.084-1.084v-1.624c0-0.599,0.484-1.084,1.084-1.084
						c0.598,0,1.082,0.485,1.082,1.084v1.624C285.205,189.702,284.721,190.188,284.123,190.188z"/>
				</g>
			</g>
			<g>
				<rect x="258.121" y="209.959" fill="#C0C1C4" width="30.336" height="2.167"/>
			</g>
			<g>
				<g>
					<rect x="262.455" y="193.167" fill="#ED5937" width="2.166" height="2.166"/>
				</g>
				<g>
					<rect x="265.705" y="193.167" fill="#ED5937" width="2.166" height="2.166"/>
				</g>
				<g>
					<rect x="268.955" y="193.167" fill="#A9ABB2" width="2.166" height="2.166"/>
				</g>
				<g>
					<rect x="272.205" y="193.167" fill="#A9ABB2" width="2.166" height="2.166"/>
				</g>
				<g>
					<rect x="275.455" y="193.167" fill="#A9ABB2" width="2.166" height="2.166"/>
				</g>
				<g>
					<rect x="262.455" y="196.417" fill="#ED5937" width="2.166" height="2.167"/>
				</g>
				<g>
					<rect x="262.455" y="199.667" fill="#ED5937" width="2.166" height="2.167"/>
				</g>
				<g>
					<rect x="265.705" y="196.417" fill="#ED5937" width="2.166" height="2.167"/>
				</g>
				<g>
					<rect x="268.955" y="196.417" fill="#A9ABB2" width="2.166" height="2.167"/>
				</g>
				<g>
					<rect x="272.205" y="196.417" fill="#A9ABB2" width="2.166" height="2.167"/>
				</g>
				<g>
					<rect x="275.455" y="196.417" fill="#A9ABB2" width="2.166" height="2.167"/>
				</g>
				<g>
					<rect x="278.705" y="196.417" fill="#A9ABB2" width="2.166" height="2.167"/>
				</g>
				<g>
					<rect x="281.955" y="196.417" fill="#A9ABB2" width="2.168" height="2.167"/>
				</g>
				<g>
					<rect x="265.705" y="199.667" fill="#ED5937" width="2.166" height="2.167"/>
				</g>
				<g>
					<rect x="268.955" y="199.667" fill="#A9ABB2" width="2.166" height="2.167"/>
				</g>
				<g>
					<rect x="272.205" y="199.667" fill="#A9ABB2" width="2.166" height="2.167"/>
				</g>
				<g>
					<rect x="275.455" y="199.667" fill="#A9ABB2" width="2.166" height="2.167"/>
				</g>
				<g>
					<rect x="278.705" y="199.667" fill="#A9ABB2" width="2.166" height="2.167"/>
				</g>
				<g>
					<rect x="281.955" y="199.667" fill="#A9ABB2" width="2.168" height="2.167"/>
				</g>
				<g>
					<rect x="268.955" y="202.917" fill="#A9ABB2" width="2.166" height="2.167"/>
				</g>
				<g>
					<rect x="272.205" y="202.917" fill="#A9ABB2" width="2.166" height="2.167"/>
				</g>
				<g>
					<rect x="275.455" y="202.917" fill="#A9ABB2" width="2.166" height="2.167"/>
				</g>
				<g>
					<rect x="278.705" y="202.917" fill="#A9ABB2" width="2.166" height="2.167"/>
				</g>
				<g>
					<rect x="281.955" y="202.917" fill="#A9ABB2" width="2.168" height="2.167"/>
				</g>
			</g>
		</g>
	</g>
	<g>
		<polygon fill="#1191B6" points="146.589,5.055 146.589,5.055 146.589,5.055 		"/>
	</g>
	<g>
		<polygon fill="#34343B" points="42.628,209.959 42.628,209.959 42.628,209.959 		"/>
	</g>
	<g>
		<rect x="42.628" y="209.959" fill="#34343B" width="0" height="0"/>
	</g>
	<g>
		<g>
			<g>
				<circle fill="#ED5937" cx="43.893" cy="165.27" r="18.778"/>
			</g>
		</g>
	</g>
	<g>
		<g>
			<g>
				<g>
					<g>
						<rect x="83.79" y="71.768" fill="#FFFFFF" width="31.56" height="28.882"/>
					</g>
					<g>
						<g>
							<rect x="83.79" y="68.267" fill="#BBC3CA" width="31.56" height="3.501"/>
						</g>
						<g>
							<circle fill="#597387" cx="111.848" cy="69.142" r="0.438"/>
						</g>
						<g>
							<circle fill="#597387" cx="113.162" cy="69.142" r="0.438"/>
						</g>
						<g>
							<circle fill="#597387" cx="114.474" cy="69.142" r="0.438"/>
						</g>
						<g>
							<rect x="84.227" y="70.018" fill="#899AA8" width="2.626" height="1.312"/>
						</g>
						<g>
							<rect x="87.291" y="70.018" fill="#EDECEC" width="25.87" height="1.312"/>
						</g>
						<g>
							<rect x="113.599" y="70.018" fill="#899AA8" width="1.312" height="1.312"/>
						</g>
					</g>
				</g>
				<g>
					<rect x="88.612" y="77.894" fill="#1191B6" width="21.915" height="9.628"/>
				</g>
				<g>
					<rect x="88.624" y="88.688" fill="#C0C1C4" width="8.011" height="8.46"/>
				</g>
				<g>
					<rect x="97.829" y="88.688" fill="#ED5937" width="12.71" height="8.46"/>
				</g>
				<g>
					<rect x="92.585" y="74.248" fill="#202024" width="14.011" height="1.166"/>
				</g>
			</g>
		</g>
	</g>
	<g>
		<g>
			<path fill="#FFFFFF" d="M54.031,190.204c-0.434-0.792-1.021-1.488-1.719-2.049l-4.271,5.319L54.031,190.204z"/>
			<path fill="#202024" d="M52.312,188.155c-1.17-0.94-2.654-1.504-4.271-1.504c-1.81,0-3.453,0.706-4.674,1.854l4.674,4.969
				L52.312,188.155z"/>
			<path fill="#4C4C51" d="M48.041,193.475l-4.674-4.969c-1.322,1.245-2.15,3.011-2.15,4.969c0,3.77,3.056,6.825,6.824,6.825
				c3.77,0,6.824-3.056,6.824-6.825c0-1.185-0.303-2.3-0.834-3.271L48.041,193.475z"/>
		</g>
	</g>
	<g>
		<g>
			<path fill="#C0C1C4" d="M324.344,173.937c-0.588-2.159-1.816-4.1-3.516-5.561l-7.295,8.499L324.344,173.937z"/>
			<path fill="#4C4C51" d="M317.445,187.372c3.377-1.263,6.084-4.126,6.982-7.895c0.453-1.893,0.395-3.788-0.084-5.541
				l-10.811,2.938L317.445,187.372z"/>
			<path fill="#202024" d="M302.83,180.183c1.135,3.654,4.109,6.635,8.1,7.589c2.25,0.537,4.502,0.354,6.516-0.399l-3.912-10.497
				L302.83,180.183z"/>
			<path fill="#ED5937" d="M302.637,174.273c-0.484,2.025-0.381,4.054,0.193,5.909l10.703-3.308l7.295-8.499
				c-1.311-1.126-2.898-1.968-4.693-2.396C310.117,164.542,304.074,168.256,302.637,174.273z"/>
		</g>
		<circle fill="#ED5937" cx="311.786" cy="198.646" r="3.25"/>
		<circle fill="none" stroke="#4AA7BB" stroke-width="1.0834" stroke-miterlimit="10" cx="327.009" cy="195.587" r="5.749"/>
	</g>
	<g>
		<g>
			<circle fill="#202024" cx="33.258" cy="116.023" r="13.001"/>
		</g>
		<path fill="#FFFFFF" d="M38.904,114.518c0.014-0.138,0.021-0.277,0.021-0.418c0-2.209-1.791-4-4-4
			c-1.311,0-2.475,0.63-3.203,1.604c-0.371-0.164-0.782-0.257-1.214-0.257c-1.657,0-3.001,1.344-3.001,3.001
			c0,0.031,0.002,0.062,0.004,0.094c-1.296,0.333-2.254,1.508-2.254,2.906c0,1.657,1.344,3.001,3.001,3.001h9.979v-0.001
			c0.007,0,0.014,0.001,0.021,0.001c1.656,0,2.999-1.344,2.999-3.001C41.258,116.012,40.25,114.813,38.904,114.518z"/>
	</g>
	<g>
		<circle fill="#1191B6" cx="184.237" cy="53.969" r="23.878"/>
	</g>
	<g>
		<g>
			<polygon fill="#D6D6D8" points="170.695,44.488 170.695,63.448 184.238,53.969 			"/>
		</g>
		<g>
			<polygon fill="#FFFFFF" points="170.695,63.448 197.78,63.448 184.238,53.969 			"/>
		</g>
		<g>
			<polygon fill="#D6D6D8" points="184.238,53.969 197.78,63.448 197.78,44.488 			"/>
		</g>
		<g>
			<polygon fill="#93969D" points="197.78,44.488 170.695,44.488 184.238,56.507 			"/>
		</g>
		<g>
			<polygon fill="#FFFFFF" points="197.78,44.488 170.695,44.488 184.238,55.661 			"/>
		</g>
	</g>
	<polygon fill="#202024" points="140.499,130.276 138.991,138.603 130.817,141.624 	"/>
	<g>
		<g>
			<g>
				<path fill="#1191B6" d="M309.986,98.907c0,29.747-24.107,53.858-53.854,53.858c-29.743,0-53.854-24.111-53.854-53.858
					c0-29.745,24.111-53.856,53.854-53.856C285.879,45.051,309.986,69.162,309.986,98.907z"/>
			</g>
		</g>
		<g>
			<g>
				<g>
					<g>
						<rect x="252.498" y="124.731" fill="#202024" width="7.27" height="7.271"/>
					</g>
				</g>
				<g>
					<path fill="#ED5937" d="M256.133,65.77c-10.51,0-19.027,7.814-19.027,19.025c0,11.21,9.65,18.516,9.65,26.675
						c0.59,0,1.613,0,2.908,0c1.791,0,4.102,0,6.469,0c2.369,0,4.676,0,6.471,0c1.289,0,2.316,0,2.906,0
						c0-8.159,9.654-15.465,9.654-26.675C275.164,73.584,266.641,65.77,256.133,65.77z"/>
				</g>
				<g>
					<path fill="#43434A" d="M256.133,114.384h-9.377v13.078c0,1.596,1.307,2.901,2.908,2.901h6.469h6.471
						c1.6,0,2.906-1.306,2.906-2.901v-13.078H256.133z"/>
				</g>
				<g>
					<path fill="#202024" d="M262.604,111.47c-1.795,0-4.102,0-6.471,0c-2.367,0-4.678,0-6.469,0c-1.295,0-2.318,0-2.908,0v2.914
						h9.377h9.377v-2.914C264.92,111.47,263.893,111.47,262.604,111.47z"/>
				</g>
			</g>
		</g>
	</g>
</g>
</svg>
