<?xml version="1.0" encoding="utf-8"?>
<!-- Generator: Adobe Illustrator 15.0.0, SVG Export Plug-In . SVG Version: 6.00 Build 0)  -->
<!DOCTYPE svg PUBLIC "-//W3C//DTD SVG 1.1//EN" "http://www.w3.org/Graphics/SVG/1.1/DTD/svg11.dtd">
<svg version="1.1" id="Layer_1" xmlns="http://www.w3.org/2000/svg" xmlns:xlink="http://www.w3.org/1999/xlink" x="0px" y="0px"
	 width="392px" height="719px" viewBox="0 0 392 719" enable-background="new 0 0 392 719" xml:space="preserve">
<g>
	<g>
		<rect x="15.601" y="125.006" fill-rule="evenodd" clip-rule="evenodd" fill="#B3B3B3" width="372.686" height="2.441"/>
		
			<rect x="79.529" y="14.555" transform="matrix(-0.0116 -0.9999 0.9999 -0.0116 71.2249 101.0222)" fill-rule="evenodd" clip-rule="evenodd" fill="#B3B3B3" width="12.027" height="1.507"/>
		<rect x="32.882" y="24.912" fill-rule="evenodd" clip-rule="evenodd" fill="#B3B3B3" width="15.041" height="99.79"/>
		<rect x="123.142" y="24.912" fill-rule="evenodd" clip-rule="evenodd" fill="#B3B3B3" width="15.041" height="99.79"/>
		<rect x="32.882" y="24.912" fill-rule="evenodd" clip-rule="evenodd" fill="#B3B3B3" width="104.541" height="6.305"/>
		<rect x="58.388" y="21.427" fill-rule="evenodd" clip-rule="evenodd" fill="#B3B3B3" width="53.69" height="4.498"/>
		<path fill="#B3B3B3" d="M110.13,22.802h-3.211c0-9.699-9.574-17.591-21.342-17.591c-11.769,0-21.342,7.892-21.342,17.591h-3.212
			C61.023,11.332,72.038,2,85.577,2C99.116,2,110.13,11.332,110.13,22.802z"/>
		<circle fill-rule="evenodd" clip-rule="evenodd" fill="#B3B3B3" cx="85.577" cy="21.426" r="5.006"/>
		<circle fill-rule="evenodd" clip-rule="evenodd" fill="#B3B3B3" cx="65.811" cy="18.299" r="1.878"/>
		<circle fill-rule="evenodd" clip-rule="evenodd" fill="#B3B3B3" cx="70.332" cy="11.671" r="1.878"/>
		<circle fill-rule="evenodd" clip-rule="evenodd" fill="#B3B3B3" cx="100.643" cy="11.671" r="1.878"/>
		<circle fill-rule="evenodd" clip-rule="evenodd" fill="#B3B3B3" cx="76.663" cy="7.968" r="1.878"/>
		<circle fill-rule="evenodd" clip-rule="evenodd" fill="#B3B3B3" cx="93.877" cy="7.968" r="1.878"/>
		<circle fill-rule="evenodd" clip-rule="evenodd" fill="#B3B3B3" cx="85.233" cy="6.09" r="1.878"/>
		<circle fill-rule="evenodd" clip-rule="evenodd" fill="#B3B3B3" cx="105.486" cy="18.299" r="1.878"/>
		<rect x="20.682" y="69.273" fill-rule="evenodd" clip-rule="evenodd" fill="#B3B3B3" width="9.177" height="19.814"/>
		<circle fill-rule="evenodd" clip-rule="evenodd" fill="#F3F3F3" cx="25.026" cy="74.549" r="2.043"/>
		<circle fill-rule="evenodd" clip-rule="evenodd" fill="#F3F3F3" cx="25.026" cy="83.556" r="2.043"/>
		<rect x="84.684" y="30.205" fill-rule="evenodd" clip-rule="evenodd" fill="#B3B3B3" width="1.788" height="92.774"/>
		<g>
			<path fill-rule="evenodd" clip-rule="evenodd" fill="#03669D" d="M173.48,64.146c-0.87-10.209,17.73-10.257,16.847,0
				l-0.505-0.169l-0.169,0.505c-1.355-3.093-3.391-6.264-7.413-6.402c-4.266-0.145-6.531,2.841-8.086,6.402l-0.168-0.505
				L173.48,64.146z"/>
			<path fill-rule="evenodd" clip-rule="evenodd" fill="#03669D" d="M190.495,65.999l-0.168-0.506c3.398,0.743,1.297,7.751,0,9.098
				l-0.235-0.574l-0.438-0.438c-0.406-2.115,1.305-4.526,0.337-7.75L190.495,65.999z"/>
			<path fill-rule="evenodd" clip-rule="evenodd" fill="#03669D" d="M187.126,76.219l0.505,0.392c-1.04,0.9-4.9,1.708-6.064,0.336
				c1.004-1.354,3.965-0.75,5.728-1.347L187.126,76.219z"/>
			<path fill-rule="evenodd" clip-rule="evenodd" fill="#03669D" d="M173.312,65.999l0.505,0.169
				c-0.813,1.615-0.075,4.249,0.674,5.39c-3.368,2.593-3.982-6.423-1.011-6.065L173.312,65.999z"/>
			<path fill-rule="evenodd" clip-rule="evenodd" fill="#03669D" d="M180.893,60.439c3.146-0.471,5.682,0.722,7.076,2.358
				c4.667,5.481-0.728,15.015-8.423,12.804C172.717,73.64,172.011,61.767,180.893,60.439z"/>
			<path fill-rule="evenodd" clip-rule="evenodd" fill="#03669D" d="M182.24,94.806c-1.134-1.384-0.661-3.157-1.348-4.38
				c-1.101-1.96-3.506-2.312-4.38-4.379c-1.364,0.656,0.448,1.051,0.337,2.359c-1.232-0.453-2.871-0.499-4.043-1.012
				c-0.521-0.489-0.297-1.724-0.337-2.695c-3.57,6.204,11.97,1.859,7.413,9.098c-6.888,2.046-13.599-1.655-13.814-7.076
				c-0.423-10.706,12.746-8.794,23.923-8.761c2.804,3.262,5.175,6.954,9.434,8.761c0,1.909,0,3.818,0,5.727
				c-3.549-0.606-5.644-2.667-8.086-4.38c0,2.471,0,4.941,0,7.413c-2.921,0-5.84,0-8.761,0l0.169-0.504L182.24,94.806z"/>
			<path fill-rule="evenodd" clip-rule="evenodd" fill="#03669D" d="M181.062,94.976l0.168,0.504c-0.674,0-1.348,0-2.021,0
				l0.168-0.338l-0.168-0.336c0.305-0.593,1.24-0.557,1.347-1.347c0.456,0.331,0.673,0.898,1.011,1.347L181.062,94.976z"/>
			<path fill-rule="evenodd" clip-rule="evenodd" fill="#03669D" d="M216.271,78.297c0,1.235,0,2.47,0,3.706
				c-5.392,0-10.782,0-16.173,0c0-1.236,0-2.471,0-3.706C205.489,78.297,210.879,78.297,216.271,78.297z"/>
			<path fill-rule="evenodd" clip-rule="evenodd" fill="#03669D" d="M216.271,82.677c0,1.235,0,2.471,0,3.707
				c-5.392,0-10.782,0-16.173,0c0-1.235,0-2.471,0-3.707C205.489,82.677,210.879,82.677,216.271,82.677z"/>
			<path fill-rule="evenodd" clip-rule="evenodd" fill="#03669D" d="M216.271,87.393c0,1.125,0,2.247,0,3.37
				c-5.392,0-10.782,0-16.173,0c0-1.124,0-2.246,0-3.37C205.489,87.393,210.879,87.393,216.271,87.393z"/>
			<path fill-rule="evenodd" clip-rule="evenodd" fill="#03669D" d="M216.271,91.773c0,1.235,0,2.471,0,3.707
				c-5.392,0-10.782,0-16.173,0c0-1.235,0-2.471,0-3.707C205.489,91.773,210.879,91.773,216.271,91.773z"/>
			<path fill-rule="evenodd" clip-rule="evenodd" fill="#03669D" d="M219.977,96.49c0.723,1.525,0.159,4.333,0.336,6.402
				c-0.625,0.947-2.504,0.64-4.042,0.674c0.331,8.54,1.155,16.59,1.011,25.606c-1.573,0-3.145,0-4.717,0
				c-0.346-8.526-0.477-17.269-1.349-25.271c-14.038-0.785-29.537-0.112-44.138-0.336c-0.693,8.291-1.192,16.778-1.347,25.606
				c-2.394,0.018-2.855,0.178-5.054,0c0.54-7.18,0.687-17.144,1.348-25.271c-0.838-0.846-3.585,0.216-4.044-1.01
				c0.344-2.24-0.867-6.034,1.011-6.739C179.208,96.378,200.321,95.705,219.977,96.49z"/>
			<path fill-rule="evenodd" clip-rule="evenodd" fill="#03669D" d="M195.381,104.24c2.17,5.756-0.215,14.583-2.022,19.879
				c-0.967,2.837-1.966,5.228-4.38,5.391c-1.843,0.125-3.974-1.112-4.38-2.695c-0.71-2.763,1.482-6.095,2.358-9.434
				c0.931-3.544,1.732-6.735,1.011-10.107c-2.724-0.759-6.83-0.133-10.108-0.338c-0.694,3.724-0.349,6.933,0.674,10.782
				c1,3.767,4.931,10.669-0.337,11.792c-3.808,0.812-5.235-2.611-6.401-6.401c-1.611-5.235-3.088-11.367-2.022-17.857
				c0.29-0.272,0.2-0.923,0.674-1.011C178.759,104.24,187.07,104.24,195.381,104.24z"/>
			<path fill-rule="evenodd" clip-rule="evenodd" fill="#03669D" d="M187.294,107.273c0.449,1.011,0.343,2.578,0.337,4.042
				c-1.348,0-2.695,0-4.043,0c0.156,6.438-0.859,15.523,2.021,18.194c-2.021,0-4.042,0-6.064,0
				c3.963-3.244,0.138-11.209,1.348-17.857c-0.358-0.765-2.118-0.128-3.032-0.337c-0.133-1.593,0.108-2.812,0.336-4.042
				C181.229,107.273,184.262,107.273,187.294,107.273z"/>
			<path fill-rule="evenodd" clip-rule="evenodd" fill="#03669D" d="M187.126,76.219c1.201-0.4,2.186-1.237,2.965-2.203"/>
			<path fill-rule="evenodd" clip-rule="evenodd" fill="#03669D" d="M190.495,65.999c-0.459-0.575-0.39-1.368-0.673-2.022"/>
			<path fill-rule="evenodd" clip-rule="evenodd" fill="#03669D" d="M173.312,65.999c0.585-0.547,0.402-1.352,0.673-2.022"/>
			<path fill-rule="evenodd" clip-rule="evenodd" fill="#03669D" d="M182.746,94.976c-0.562,0.196-1.124,0.172-1.685,0"/>
			<path fill-rule="evenodd" clip-rule="evenodd" fill="#03669D" d="M173.312,95.142c2.021-0.024,4.059,0.425,6.064,0"/>
		</g>
		<g>
			<path fill-rule="evenodd" clip-rule="evenodd" fill="#B3B3B3" d="M308.439,27.832c4.822-0.526,12.021-0.237,18.441-0.237
				c6.064,0,12.842-0.792,17.258,0.71c2.891,0.981,5.824,3.991,6.857,6.619c0.994,2.532,0.709,6.044,0.709,9.22
				c0,17.575,0,32.183,0,49.65c0,7.08,0.855,14.259-0.709,18.914c-1.057,3.137-3.211,5.772-6.621,7.092
				c-4.469,1.729-13.574,0.945-20.332,0.945c-6.559,0-15.992,0.793-20.096-1.182c-2.234-1.075-4.783-3.769-5.674-5.91
				c-1.65-3.973-0.709-12.729-0.709-19.387c0-17.102,0-32.545,0-49.885c0-3.446-0.246-6.676,0.709-9.221
				C299.799,31.096,303.232,28.398,308.439,27.832z M326.406,33.505c-3.65-0.128-9.119-0.418-7.328,3.073
				c0.965,1.095,3.35,0.71,5.438,0.71c2.146,0,4.648,0.348,5.676-0.71C330.951,33.945,329.479,33.612,326.406,33.505z
				 M305.365,43.908c-0.025,17.64,0.014,35.283,0,53.433c12.846,0,25.691,0,38.537,0c0-18.049,0-36.094,0-54.142
				c-12.766,0-25.533,0-38.299,0C305.326,43.238,305.346,43.572,305.365,43.908z M319.314,102.54c-0.768,2.573-0.768,8.068,0,10.64
				c2.498,0.767,7.904,0.767,10.402,0c1.25-2.224,0.875-8.038,0.238-10.64C327.367,101.787,321.896,101.763,319.314,102.54z"/>
			<path fill-rule="evenodd" clip-rule="evenodd" fill="#B3B3B3" d="M314.824,45.562c1.092-0.307,3.449-0.18,3.781,2.129
				c0.309,2.146-2.354,5.432-3.311,7.092c-1.258,2.183-2.613,5.509-4.727,5.675c-1.572,0.122-3.174-0.982-3.311-2.6
				c-0.129-1.52,1.969-4.5,3.074-6.384C311.734,49.078,312.893,46.107,314.824,45.562z"/>
			<path fill-rule="evenodd" clip-rule="evenodd" fill="#B3B3B3" d="M324.752,45.562c1.869-0.598,3.975,0.487,4.02,2.365
				c0.049,1.981-3.02,6.123-4.02,7.803c-2.637,4.432-6.295,10.059-8.984,14.658c-1.359,2.325-2.678,6.327-4.963,6.619
				c-2.193,0.281-3.424-1.409-3.547-2.363c-0.238-1.851,2.754-5.453,4.018-7.566c3.781-6.318,6.672-11.776,10.404-17.968
				C322.506,47.738,323.498,45.963,324.752,45.562z"/>
			<path fill-rule="evenodd" clip-rule="evenodd" fill="#B3B3B3" d="M322.625,105.851c1.26,0,2.521,0,3.781,0
				c0.115,0.932,0.223,2.186,0.238,3.782c-0.922,0.498-2.721,0.12-4.02,0.237C322.625,108.529,322.625,107.19,322.625,105.851z"/>
		</g>
		<g>
			<path fill-rule="evenodd" clip-rule="evenodd" fill="#03669D" d="M257.148,59.205c11.52-2.697,12.926,15.008,2.162,15.134
				C251.314,74.431,248.104,61.324,257.148,59.205z"/>
			<path fill-rule="evenodd" clip-rule="evenodd" fill="#03669D" d="M221.325,70.941c1.385,1.188,1.899,3.215,2.471,4.941
				c1.733,5.236,3.461,10.808,5.25,16.059c6.078,0.202,12.965-0.403,18.529,0.31c0,0.72,0,1.44,0,2.162
				c-9.416,0.841-13.142,0.208-23.161,0.309c0.011-1.431-0.407-3.291,1.544-2.78c-1.125-3.477-2.224-7.004-3.396-10.5
				c-1.105-3.289-3.085-6.622-2.78-10.191C220.653,71.505,220.581,70.815,221.325,70.941z"/>
			<path fill-rule="evenodd" clip-rule="evenodd" fill="#03669D" d="M250.355,110.471c0.77,6.85,1.285,13.951,1.854,21
				c-1.318-0.125-3.184,0.298-4.016-0.308c-0.082-6.508-1.094-12.083-1.236-18.53c-2.904,4.357-0.84,19.107-6.792,19.456
				c-2.266,0.134-2.73-1.083-4.016-2.47c1.117-9.178,2.424-18.165,4.941-25.942c1.101-0.649,2.393-1.107,4.324-0.925
				c-1.955-2.426-6.912-1.544-11.428-1.544c-4.625,0-11.525-0.912-13.896,0.618c-2.625,1.692-2.1,10.316-2.471,14.207
				c-0.521,5.446-1.205,10.362-1.235,15.44c-1.339,0-2.676,0-4.015,0c1.095-9.919,1.198-20.831,3.088-29.956
				c-0.621-0.51-1.875-0.391-2.162-1.235c0.24-1.993-0.242-2.824,0.31-4.323c2.595-0.783,5.565-0.321,8.647-0.311
				c9.648,0.038,20.41-0.437,28.72,0.311c0.621,0.923,0.174,2.914,0.309,4.323c-0.172,1.063-2.037,0.434-2.162,1.544
				c1.072,1.914,5.484,0.486,8.029,0.927c0.717-4.289,1.672-9.418,0.928-14.206c3.035-1.871,9.48-3.839,8.338-8.03
				c-1.359-4.984-6.826,1.484-8.646,2.47c-0.965-6.05,5.859-9.996,10.498-5.867c4.338,3.86,5.555,24.055,0.926,29.956
				C265.387,111.928,260.121,110.19,250.355,110.471z"/>
			<path fill-rule="evenodd" clip-rule="evenodd" fill="#03669D" d="M263.016,79.28c6.814,0.992,0.498,6.332-4.014,8.337
				c-3.924,1.746-7.908,2.273-10.809,2.471c-3.75,0.257-9.491,0.439-9.265-2.471c0.229-2.952,5.254-1.477,10.191-1.851
				C254.01,85.394,261.238,82.591,263.016,79.28z"/>
			<path fill-rule="evenodd" clip-rule="evenodd" fill="#03669D" d="M276.914,112.323c1.037,6.272,2.289,12.329,3.088,18.839
				c-8.34,0-16.676,0-25.016,0c1.09-6.324,1.891-12.935,3.396-18.839C264.561,112.323,270.736,112.323,276.914,112.323z"/>
		</g>
		<g>
			<polygon fill="#6E6E6E" points="324.639,60.406 332.045,73.233 339.451,86.06 324.639,86.06 309.828,86.06 317.234,73.233 			"/>
			<g>
				<g>
					<path fill="#FFFFFF" d="M327.953,69.941l-1.275,1.288c-0.215,0.217-0.215,0.568,0.002,0.783l0.789,0.779
						c0.217,0.216,0.566,0.214,0.783-0.003l1.275-1.288c0.379,0.891,0.264,1.898-0.389,2.556c-0.637,0.641-1.604,0.781-2.48,0.445
						l-1.297,1.31c-0.158-0.24-0.232-0.353-0.299-0.454l-0.021-0.033l-0.016-0.021c-0.328-0.497-0.654-0.993-0.994-1.507
						l0.947-0.958c-0.344-0.874-0.213-1.842,0.422-2.483C326.053,69.696,327.057,69.569,327.953,69.941"/>
					<path fill="#FFFFFF" d="M321.984,79.22l2.564-2.59l-1.332-2.01l-2.838,2.866c-0.908-0.395-1.936-0.272-2.598,0.397
						c-0.652,0.657-0.77,1.664-0.389,2.557l1.275-1.289c0.215-0.217,0.566-0.218,0.783-0.003l0.785,0.779
						c0.219,0.214,0.221,0.566,0.006,0.783l-1.277,1.288c0.896,0.372,1.9,0.245,2.553-0.413
						C322.123,80.973,322.27,80.062,321.984,79.22"/>
				</g>
				<path fill-rule="evenodd" clip-rule="evenodd" fill="#FFFFFF" d="M326.482,79.06c-0.492-0.649-0.846-0.727-0.32,0.191
					C329.771,85.553,330.734,84.675,326.482,79.06 M326.947,78.737c3.605,6.286,4.557,5.387,0.281-0.248
					C326.643,77.713,326.496,77.951,326.947,78.737z M325.822,76.919c0.053-0.026,0.076-0.028,0.111-0.003
					c0.076,0.114,0.154,0.211,0.232,0.323l0.061-0.042c0.096-0.075,0.172-0.062,0.246,0.023c0.039,0.043,0.078,0.086,0.117,0.131
					c0.068,0.075,0.078,0.087,0,0.179c-0.008,0.01-0.018,0.022-0.027,0.033c0.338-0.003,0.67,0.163,0.861,0.468l2.834,4.521
					c0.293,0.465,0.15,1.086-0.316,1.378l0,0c-0.467,0.292-1.086,0.15-1.379-0.316l-2.832-4.519c-0.168-0.266-0.193-0.581-0.1-0.857
					c-0.107,0.062-0.156,0.052-0.213-0.072c-0.025-0.059-0.051-0.116-0.078-0.174c-0.033-0.078-0.057-0.151,0.021-0.199l0.074-0.051
					l-0.188-0.256c-0.037-0.057-0.049-0.125,0.016-0.173l0.025-0.018l-2.939-4.44c-0.244-0.398-0.336-0.311-0.58-0.773
					c-0.141-0.261-0.283-0.521-0.424-0.781c0.178-0.114,0.354-0.229,0.529-0.342c0.191,0.232,0.385,0.466,0.578,0.699
					c0.105,0.124,0.184,0.478,0.412,0.824c0.977,1.485,1.957,2.967,2.938,4.452L325.822,76.919z"/>
			</g>
		</g>
	</g>
	<g>
		<g>
			<path fill-rule="evenodd" clip-rule="evenodd" fill="#03669D" d="M306.131,260.867c1.867-0.139,4.652-0.121,6.779,0.102
				c2.219,0.234,4.4,0.393,5.854,1.027c1.465,0.643,2.922,2.299,3.391,3.801c0.326,1.051,0.211,2.6,0.205,3.699
				c-0.035,6.525,0.107,14.221,0,19.412c-0.029,1.412,0,2.764,0,4.006c0,1.611,0.133,3.326-0.309,4.52
				c-0.537,1.449-1.855,2.887-3.082,3.49c-2.135,1.053-6.707,1.336-9.859,1.336c-1.799,0-3.623-0.074-5.34-0.309
				c-1.699-0.229-3.393-0.393-4.623-0.924c-1.537-0.664-2.91-2.27-3.391-3.697c-0.623-1.85-0.309-4.928-0.309-7.807
				c0-6.895,0-13.184,0-20.131c0-3.553,0.84-5.896,3.289-7.191C300.33,261.359,303.664,261.049,306.131,260.867z M304.59,266.002
				c-1.465,0-4.15-0.328-5.033,0.205c-1.271,0.771-0.719,6.035-0.719,7.91c0,1.914-0.559,7.227,0.514,8.217
				c0.645,0.596,2.996,0.41,4.52,0.41c3.979,0,6.244,0,10.066,0c1.273,0,3.953,0.254,4.621-0.41c0.615-0.609,0.41-2.648,0.41-4.006
				c0-3.381-0.016-5.787,0-8.629c0.01-1.387,0.348-2.668-0.512-3.389c-0.953-0.799-7.283-0.314-8.424-0.309
				C308.387,266.012,306.756,266.002,304.59,266.002z M311.369,289.012c0.316-0.785,0.336-2.51-0.104-3.287
				c-0.527-0.939-2.635-1.127-3.801-0.721c-1.535,0.537-1.389,4.625,0.104,4.93C309.199,289.891,310.865,290.256,311.369,289.012z
				 M299.352,287.061c0.002,0.375,0.305,0.949,0.615,1.129c0.646,0.369,3.605,0.436,4.109,0.102c0.668-0.443,0.65-1.652,0.309-2.156
				c-0.346-0.508-1.221-0.467-2.156-0.41C300.729,285.812,299.346,285.564,299.352,287.061z M314.348,288.498
				c0.676,0.152,3.279-0.119,3.594-0.309c0.527-0.318,0.805-1.221,0.412-1.85c-0.426-0.68-3.416-0.84-4.109-0.615
				C312.707,286.223,313.045,288.199,314.348,288.498z M299.248,291.988c-0.023,1.543,1.928,1.311,3.391,1.645
				c0-0.857,0-1.711,0-2.568C301.049,290.742,299.273,290.506,299.248,291.988z M318.559,292.504
				c0.549-1.898-1.676-1.906-3.287-1.439c0.068,0.824-0.135,1.916,0.104,2.568C316.543,293.264,318.262,293.537,318.559,292.504z
				 M305.205,293.939c0.896-0.039,1.531,0.184,2.467,0.104c0-0.82,0-1.643,0-2.465c-0.711-0.18-1.791,0.012-2.467-0.205
				C305.205,292.229,305.205,293.086,305.205,293.939z M310.24,291.578c0,0.822,0,1.645,0,2.465c0.934,0.08,1.568-0.143,2.465-0.104
				c0-0.82,0-1.643,0-2.463C311.854,291.48,310.947,291.432,310.24,291.578z M299.762,296.303c0.053,1.289,1.533,1.209,2.877,1.439
				c0-0.857,0-1.713,0-2.568C301.078,294.781,299.709,295.012,299.762,296.303z M318.045,296.715
				c0.467-1.617-1.176-2.023-2.773-1.541c0,0.855,0,1.711,0,2.568C316.393,297.482,317.781,297.629,318.045,296.715z
				 M305.205,298.049c0.65,0.207,1.654,0.059,2.467,0.104c0-0.822,0-1.643,0-2.465c-0.924,0.066-1.623-0.092-2.467-0.104
				C305.205,296.406,305.205,297.229,305.205,298.049z M310.24,295.688c0,0.822,0,1.643,0,2.465c0.83-0.025,1.787,0.076,2.465-0.104
				c0-0.82,0-1.643,0-2.465C311.861,295.596,311.162,295.754,310.24,295.688z"/>
			<path fill-rule="evenodd" clip-rule="evenodd" fill="#03669D" d="M304.281,266.928c0.627-0.17,1.689,0.043,1.746,1.025
				c0.068,1.188-1.699,2.166-2.258,2.672c-0.635,0.572-1.719,2.082-2.775,2.055c-0.617-0.018-1.211-0.465-1.232-1.232
				c-0.023-0.918,1.244-1.713,1.953-2.363C302.668,268.209,303.432,267.158,304.281,266.928z"/>
			<path fill-rule="evenodd" clip-rule="evenodd" fill="#03669D" d="M310.24,266.928c0.955-0.223,1.551,0.16,1.643,0.924
				c0.139,1.16-1.617,2.217-2.361,2.875c-2.35,2.074-4.561,3.961-6.986,6.062c-0.609,0.525-0.924,0.982-1.643,0.924
				c-0.652-0.055-1.094-0.648-1.131-1.131c-0.08-1.062,1.84-2.205,2.363-2.67c2.461-2.191,4.143-3.729,6.676-5.959
				C309.26,267.551,309.67,267.059,310.24,266.928z"/>
		</g>
		<rect x="10.224" y="311.488" fill-rule="evenodd" clip-rule="evenodd" fill="#B3B3B3" width="375.509" height="2.459"/>
		
			<rect x="71.546" y="200.971" transform="matrix(-0.5811 -0.8139 0.8139 -0.5811 -41.4827 382.1083)" fill-rule="evenodd" clip-rule="evenodd" fill="#B3B3B3" width="12.118" height="1.519"/>
		<rect x="27.636" y="210.635" fill-rule="evenodd" clip-rule="evenodd" fill="#B3B3B3" width="15.155" height="100.546"/>
		<rect x="118.58" y="210.635" fill-rule="evenodd" clip-rule="evenodd" fill="#B3B3B3" width="15.155" height="100.546"/>
		<rect x="27.636" y="210.635" fill-rule="evenodd" clip-rule="evenodd" fill="#B3B3B3" width="105.333" height="6.353"/>
		<rect x="53.335" y="207.125" fill-rule="evenodd" clip-rule="evenodd" fill="#B3B3B3" width="54.097" height="4.531"/>
		<path fill="#B3B3B3" d="M105.469,208.509h-3.236c0-9.773-9.646-17.724-21.503-17.724c-11.857,0-21.504,7.951-21.504,17.724H55.99
			c0-11.557,11.098-20.96,24.74-20.96S105.469,196.953,105.469,208.509z"/>
		<path fill-rule="evenodd" clip-rule="evenodd" fill="#B3B3B3" d="M85.774,207.123c0,2.787-2.258,5.045-5.044,5.045
			c-2.785,0-5.044-2.259-5.044-5.045c0-2.784,2.259-5.042,5.044-5.042C83.516,202.081,85.774,204.339,85.774,207.123z"/>
		<circle fill-rule="evenodd" clip-rule="evenodd" fill="#B3B3B3" cx="60.814" cy="203.973" r="1.892"/>
		<circle fill-rule="evenodd" clip-rule="evenodd" fill="#B3B3B3" cx="65.37" cy="197.293" r="1.892"/>
		<circle fill-rule="evenodd" clip-rule="evenodd" fill="#B3B3B3" cx="95.91" cy="197.293" r="1.892"/>
		<circle fill-rule="evenodd" clip-rule="evenodd" fill="#B3B3B3" cx="71.749" cy="193.563" r="1.892"/>
		<circle fill-rule="evenodd" clip-rule="evenodd" fill="#B3B3B3" cx="89.093" cy="193.563" r="1.892"/>
		<circle fill-rule="evenodd" clip-rule="evenodd" fill="#B3B3B3" cx="80.383" cy="191.671" r="1.892"/>
		<circle fill-rule="evenodd" clip-rule="evenodd" fill="#B3B3B3" cx="100.79" cy="203.973" r="1.892"/>
		<rect x="15.343" y="255.332" fill-rule="evenodd" clip-rule="evenodd" fill="#B3B3B3" width="9.247" height="19.965"/>
		<circle fill-rule="evenodd" clip-rule="evenodd" fill="#F3F3F3" cx="19.72" cy="260.648" r="2.059"/>
		<circle fill-rule="evenodd" clip-rule="evenodd" fill="#F3F3F3" cx="19.72" cy="269.725" r="2.059"/>
		<rect x="79.83" y="215.968" fill-rule="evenodd" clip-rule="evenodd" fill="#B3B3B3" width="1.801" height="93.478"/>
		<g>
			<path fill-rule="evenodd" clip-rule="evenodd" fill="#03669D" d="M356.711,246.252c2.793-14.281-15.082-15.284-17.797-5.933
				C335.664,251.508,352.488,256.854,356.711,246.252z"/>
			<path fill-rule="evenodd" clip-rule="evenodd" fill="#03669D" d="M355.129,258.908c2.26-2.539,1.176-6.535,4.746-7.119
				c8.297-1.359,3.379,11.646,0.396,14.633c1.875,5.055,5.598,8.02,5.932,13.053c0.186,2.807-1.221,5.635-1.58,8.701
				c-0.738,6.246-0.346,12.736,0.789,19.379c0.602,3.523,0.988,7.113,2.77,8.305c2.734,1.832,7.605,0.248,8.305-2.766
				c0.715-3.08-1.678-9.287-1.979-14.635c-0.299-5.328,0.105-11.906,1.584-16.217c0.82-2.391,2.865-4.047,3.162-5.934
				c1.24-7.816-8.148-22.896-13.051-26.104C359.592,245.883,350.514,250.83,355.129,258.908z"/>
			<path fill-rule="evenodd" clip-rule="evenodd" fill="#03669D" d="M334.959,267.609c-13.002,5.412-17.992-16.398-4.746-17.797
				c7.879-0.834,12.092,5.719,9.887,12.654c1.018,0.387,2.385,1.611,0.791,2.373c0.592,0.727,1.65,0.986,1.977,1.977
				c-1.619,0.244-4.418,0.227-5.537,1.98C335.93,269.01,336.357,267.395,334.959,267.609z M332.584,252.975
				c-7.859-1.42-10.148,10.484-3.164,12.262C337.859,267.383,341.516,254.588,332.584,252.975z"/>
			<path fill-rule="evenodd" clip-rule="evenodd" fill="#03669D" d="M338.518,268.398c-4.531,7.566,8.553,6.15,13.447,3.957
				c3.549-1.592,8.52-6.26,10.68-11.076c0.461-1.027,1.914-4.861,1.58-6.328c-0.33-1.455-2.705-3.629-5.141-2.371
				c-1.523,0.785-2.904,6.705-3.955,8.305c-2.277,3.463-6.084,5.953-10.68,6.725C341.926,268.031,341.211,266.963,338.518,268.398z"
				/>
			<path fill-rule="evenodd" clip-rule="evenodd" fill="#03669D" d="M345.242,274.727c0.936,1.041,1.568,2.385,3.162,2.77
				c0.436-1.424,3.201-2.133,2.375-3.559C349.207,273.076,347.5,275.01,345.242,274.727z"/>
		</g>
		<g>
			<path fill-rule="evenodd" clip-rule="evenodd" fill="#03669D" d="M252.986,264.723v-11.576c0-1.904,1.559-3.459,3.463-3.459
				h1.266h4.705h5.654h5.656h4.705h1.266c1.906,0,3.463,1.555,3.463,3.459v30.863c0,1.904-1.557,3.463-3.463,3.463h-1.266h-4.705
				h-5.656h-5.654h-4.705h-1.266c-1.904,0-3.463-1.559-3.463-3.463v-14.188l-3.701-3.369v31.709c0,2.375,1.939,4.314,4.312,4.314
				h4.117h4.705h5.654h5.656h4.705h4.117c2.373,0,4.312-1.939,4.312-4.314v-47.281c0-2.371-1.939-4.314-4.312-4.314h-4.117h-4.705
				h-5.656h-5.654h-4.705h-4.117c-2.373,0-4.312,1.943-4.312,4.314v9.67C250.582,262.016,251.818,263.406,252.986,264.723z
				 M259.332,295.654c0,0.896-0.725,1.621-1.617,1.621c-0.896,0-1.623-0.725-1.623-1.621c0-0.895,0.727-1.617,1.623-1.617
				C258.607,294.037,259.332,294.76,259.332,295.654z M264.039,295.654c0,0.896-0.727,1.621-1.617,1.621h-0.002
				c-0.896-0.002-1.621-0.725-1.621-1.621c0-0.895,0.725-1.617,1.621-1.617h0.002C263.312,294.037,264.039,294.76,264.039,295.654z
				 M270.834,295.654c0,1.521-1.234,2.758-2.76,2.758c-1.521,0-2.758-1.236-2.758-2.758s1.236-2.758,2.758-2.758
				C269.6,292.896,270.834,294.133,270.834,295.654z M275.352,295.654c0,0.896-0.729,1.621-1.621,1.621s-1.617-0.725-1.617-1.621
				c0-0.895,0.725-1.617,1.617-1.617S275.352,294.76,275.352,295.654z M280.059,295.654c0,0.896-0.727,1.621-1.623,1.621
				c-0.895,0-1.619-0.725-1.619-1.621c0-0.895,0.725-1.617,1.619-1.617C279.332,294.037,280.059,294.76,280.059,295.654z"/>
			<path fill-rule="evenodd" clip-rule="evenodd" fill="#03669D" d="M238.161,252.578L238.161,252.578
				c0.021-0.021,0.049-0.049,0.077-0.078l0,0c0.037-0.037,0.07-0.068,0.101-0.098c0.418-0.369,0.953-0.561,1.479-0.564
				c0.523-0.004,1.036,0.178,1.42,0.559c0.027,0.029,0.057,0.061,0.078,0.084l0,0c5.503,6.248,10.169,11.498,13.974,15.781
				c8.217,9.248,12.371,13.928,12.34,13.959c-0.035,0.037-4.885-4.373-14.697-13.299c-3.977-3.615-8.769-7.977-14.707-13.344
				c-0.02-0.018-0.043-0.041-0.07-0.064v-0.004c-0.389-0.387-0.576-0.912-0.574-1.439
				C237.584,253.533,237.783,252.994,238.161,252.578z"/>
		</g>
		<g>
			<path fill-rule="evenodd" clip-rule="evenodd" fill="#03669D" d="M167.876,254.918c-9.729,0-17.616,8.041-17.616,17.963
				c0,9.918,7.888,17.961,17.616,17.961s17.615-8.043,17.615-17.961C185.491,262.959,177.605,254.918,167.876,254.918z
				 M167.876,288.531c-8.477,0-15.35-7.006-15.35-15.65s6.873-15.652,15.35-15.652c8.477,0,15.348,7.008,15.348,15.652
				S176.353,288.531,167.876,288.531z"/>
			<path fill-rule="evenodd" clip-rule="evenodd" fill="#03669D" d="M168.955,274.15l-0.051,0.002l-2.398-4.279
				c-0.086-0.15-0.275-0.203-0.424-0.121l-0.634,0.357c-0.149,0.084-0.204,0.275-0.12,0.422l2.385,4.252
				c-0.181,0.25-0.287,0.555-0.287,0.883c0,0.838,0.686,1.516,1.53,1.516c0.847,0,1.532-0.678,1.532-1.516
				C170.486,274.83,169.801,274.15,168.955,274.15z"/>
			<path fill-rule="evenodd" clip-rule="evenodd" fill="#03669D" d="M167.876,264.506c-5.327,0-9.695,4.189-10.106,9.516
				c-0.104,0.07-0.172,0.189-0.169,0.326l0,0c0.005,0.215,0.185,0.387,0.4,0.383l2.638-0.035c0.215-0.002,0.386-0.18,0.38-0.396l0,0
				c-0.004-0.211-0.183-0.383-0.397-0.381l-1.536,0.02c0.177-1.807,0.877-3.453,1.943-4.787l0.968,0.814
				c0.164,0.137,0.411,0.115,0.547-0.049c0.14-0.164,0.117-0.41-0.044-0.549l-0.956-0.805c1.52-1.594,3.613-2.615,5.941-2.719v1.682
				c0,0.211,0.176,0.387,0.391,0.387c0.215,0,0.39-0.176,0.39-0.387v-1.682c2.217,0.1,4.221,1.033,5.722,2.498l-1.018,1.051
				c-0.148,0.156-0.145,0.404,0.01,0.553c0.154,0.148,0.404,0.145,0.552-0.01l0.988-1.023c1.178,1.369,1.956,3.104,2.145,5.018
				l-1.621,0.021c-0.215,0.004-0.388,0.182-0.383,0.396l0,0c0.006,0.215,0.185,0.387,0.4,0.383l2.639-0.035
				c0.214-0.002,0.384-0.18,0.38-0.396l0,0c-0.003-0.092-0.039-0.178-0.096-0.244C177.588,268.711,173.216,264.506,167.876,264.506z
				"/>
		</g>
		<g>
			<path fill="#03669D" d="M167.02,209.426c2.652,0,5.189,0.53,7.507,1.489c2.41,0.999,4.575,2.456,6.381,4.266
				c1.806,1.805,3.265,3.969,4.264,6.38c0.96,2.316,1.49,4.853,1.49,7.506c0,2.655-0.53,5.191-1.49,7.51
				c-0.999,2.409-2.458,4.575-4.264,6.38c-1.807,1.807-3.972,3.268-6.381,4.266c-2.318,0.959-4.855,1.488-7.507,1.488
				c-2.655,0-5.192-0.529-7.51-1.488c-2.409-0.998-4.573-2.459-6.381-4.266c-1.806-1.805-3.265-3.971-4.263-6.38
				c-0.96-2.318-1.491-4.854-1.491-7.51c0-2.653,0.531-5.19,1.491-7.506c0.998-2.412,2.457-4.576,4.263-6.38
				c1.808-1.81,3.972-3.267,6.381-4.266C161.828,209.957,164.364,209.426,167.02,209.426L167.02,209.426z M173.779,212.736
				c-2.077-0.86-4.362-1.334-6.759-1.334c-2.399,0-4.684,0.475-6.761,1.334c-2.155,0.891-4.099,2.205-5.732,3.839
				c-1.632,1.634-2.946,3.577-3.84,5.733c-0.859,2.078-1.335,4.362-1.335,6.758c0,2.4,0.476,4.684,1.335,6.761
				c0.894,2.156,2.208,4.101,3.84,5.734c1.633,1.633,3.578,2.945,5.732,3.838c2.077,0.859,4.361,1.338,6.761,1.338
				c2.397,0,4.682-0.479,6.759-1.338c2.156-0.893,4.1-2.205,5.732-3.838c1.634-1.633,2.947-3.579,3.84-5.734
				c0.86-2.077,1.336-4.36,1.336-6.761c0-2.396-0.477-4.68-1.336-6.758c-0.893-2.156-2.206-4.099-3.84-5.733
				C177.878,214.941,175.935,213.627,173.779,212.736z"/>
			<polygon fill-rule="evenodd" clip-rule="evenodd" fill="#03669D" points="167.19,214.427 168.189,228.629 168.09,228.213 
				167.974,228.031 166.325,226.727 			"/>
			<polygon fill-rule="evenodd" clip-rule="evenodd" fill="#03669D" points="160.833,222.804 167.77,228.289 168.226,230.196 
				166.318,229.743 			"/>
			<circle fill-rule="evenodd" clip-rule="evenodd" fill="#03669D" cx="160.969" cy="218.588" r="1.973"/>
			<circle fill-rule="evenodd" clip-rule="evenodd" fill="#03669D" cx="173.069" cy="239.548" r="1.974"/>
			<circle fill-rule="evenodd" clip-rule="evenodd" fill="#03669D" cx="156.539" cy="223.018" r="1.974"/>
			<circle fill-rule="evenodd" clip-rule="evenodd" fill="#03669D" cx="177.498" cy="235.12" r="1.974"/>
			<circle fill-rule="evenodd" clip-rule="evenodd" fill="#03669D" cx="154.918" cy="229.067" r="1.396"/>
			<circle fill-rule="evenodd" clip-rule="evenodd" fill="#03669D" cx="179.12" cy="229.067" r="1.396"/>
			<circle fill-rule="evenodd" clip-rule="evenodd" fill="#03669D" cx="156.539" cy="235.12" r="1.975"/>
			<circle fill-rule="evenodd" clip-rule="evenodd" fill="#03669D" cx="177.498" cy="223.018" r="1.974"/>
			<path fill-rule="evenodd" clip-rule="evenodd" fill="#03669D" d="M161.956,237.838c0.943,0.548,1.267,1.752,0.722,2.697
				c-0.545,0.944-1.751,1.268-2.696,0.723c-0.944-0.545-1.266-1.751-0.721-2.697C159.803,237.617,161.011,237.294,161.956,237.838z"
				/>
			<circle fill-rule="evenodd" clip-rule="evenodd" fill="#03669D" cx="173.069" cy="218.588" r="1.973"/>
			<circle fill-rule="evenodd" clip-rule="evenodd" fill="#03669D" cx="167.02" cy="241.169" r="1.395"/>
			<circle fill-rule="evenodd" clip-rule="evenodd" fill="#03669D" cx="167.02" cy="216.969" r="1.397"/>
		</g>
		<path fill="#B3B3B3" d="M224.978,190.848c-10.503,0-19.016,8.514-19.016,19.015c0,10.503,8.513,19.016,19.016,19.016
			c10.501,0,19.015-8.512,19.015-19.016C243.993,199.362,235.479,190.848,224.978,190.848z M226.068,198.559
			c0.862-1.012,2.321-1.763,3.524-1.811c0.154,1.402-0.411,2.808-1.246,3.82c-0.836,1.011-2.205,1.798-3.55,1.694
			C224.616,200.887,225.292,199.455,226.068,198.559z M232.915,217.709c-0.998,1.458-2.031,2.913-3.663,2.941
			c-1.603,0.031-2.118-0.95-3.95-0.95s-2.404,0.922-3.923,0.981c-1.573,0.058-2.771-1.574-3.777-3.027
			c-2.058-2.972-3.627-8.398-1.517-12.062c1.046-1.821,2.918-2.97,4.951-3.001c1.547-0.029,3.006,1.042,3.949,1.042
			c0.946,0,2.72-1.287,4.584-1.097c0.779,0.032,2.971,0.313,4.377,2.371c-0.113,0.071-2.615,1.526-2.586,4.558
			c0.033,3.621,3.177,4.823,3.213,4.842C234.543,214.389,234.069,216.023,232.915,217.709z"/>
		<path fill="#B3B3B3" d="M322.223,189.495c-10.5,0-19.016,8.513-19.016,19.015c0,10.503,8.516,19.016,19.016,19.016
			c10.502,0,19.016-8.513,19.016-19.016C341.238,198.008,332.725,189.495,322.223,189.495z M315.08,198.656
			c1.68-0.687,3.045-0.96,4.184-0.982c0.008,0,0.018,0,0.025,0c0.67,0,1.275,0.079,1.811,0.205c1.119,0.285,2.732,1.252,2.732,1.252
			v0.005c-0.465,1.582-1.83,6.268-2.291,7.826c-1.201-0.796-2.492-1.526-4.316-1.542c-0.02,0-0.039,0-0.061,0
			c-1.176,0-2.574,0.308-4.299,1.014L315.08,198.656z M314.328,215.159c-1.154,0-2.527,0.274-4.225,0.96l2.246-7.796
			c0.258-0.105,0.508-0.199,0.75-0.286c0.82-0.29,1.988-0.618,3.27-0.723c0.146-0.012,0.291-0.02,0.436-0.02
			c1.279,0,2.443,0.448,3.283,0.878c0.359,0.193,0.697,0.402,1.033,0.612c-0.297,1.019-1.865,6.374-2.328,7.936
			C317.549,215.895,316.229,215.159,314.328,215.159z M329.412,218.094c-1.865,0.769-3.354,1.076-4.6,1.076
			c-1.967,0-4.592-1.62-4.59-1.616l2.244-7.785c0.682,0.546,2.26,1.582,4.859,1.582c1.193,0,2.605-0.22,4.246-0.809L329.412,218.094
			z M332.156,208.476c-0.008,0.002-0.012,0.003-0.014,0.003c0,0.006,0,0.011,0,0.014c-1.574,0.74-3.014,1.036-4.309,1.036
			c-1.959,0-3.586-0.676-4.834-1.511c-0.008-0.005-0.018-0.011-0.023-0.018l2.271-7.859c0.719,0.559,2.342,1.606,4.807,1.606
			c1.238,0,2.688-0.266,4.342-0.986L332.156,208.476z"/>
		<g>
			<circle fill="#B3B3B3" cx="270.314" cy="200.77" r="0.749"/>
			<path fill="#B3B3B3" d="M273.301,190.267c-10.5,0-19.016,8.513-19.016,19.014s8.516,19.015,19.016,19.015
				c10.502,0,19.016-8.514,19.016-19.015S283.803,190.267,273.301,190.267z M265.322,212.417c0,0.828-0.67,1.498-1.498,1.498
				s-1.496-0.669-1.496-1.498v-6.407c0-0.827,0.668-1.498,1.496-1.498s1.498,0.671,1.498,1.498V212.417z M280.297,205.758v1.016
				v8.722c0,0.871-0.707,1.581-1.58,1.581h-1.139c0.035,0.132,0.057,0.272,0.057,0.415v0.083v0.5v2.58
				c0,0.827-0.67,1.498-1.498,1.498c-0.826,0-1.498-0.671-1.498-1.498v-2.58v-0.5v-0.083c0-0.143,0.021-0.283,0.061-0.415h-2.781
				c0.039,0.132,0.061,0.272,0.061,0.415v0.083v0.5v2.58c0,0.827-0.672,1.498-1.498,1.498c-0.828,0-1.498-0.671-1.498-1.498v-2.58
				v-0.5v-0.083c0-0.143,0.021-0.283,0.061-0.415H267.9c-0.871,0-1.58-0.71-1.58-1.581v-8.722v-1.016v-1.246h0.109h13.76h0.107
				V205.758z M266.32,203.514c0-2.139,1.434-4.008,3.553-4.994l-0.281-0.422l-0.277-0.416l-0.623-0.934
				c-0.076-0.115-0.045-0.27,0.07-0.346c0.113-0.077,0.268-0.046,0.346,0.069l0.668,1.001l0.281,0.421l0.283,0.427
				c0.902-0.351,1.908-0.546,2.969-0.546c1.062,0,2.068,0.196,2.969,0.546l0.287-0.427l0.279-0.421l0.668-1.001
				c0.076-0.116,0.23-0.147,0.346-0.069c0.113,0.076,0.146,0.231,0.068,0.346l-0.621,0.934l-0.277,0.416l-0.281,0.422
				c2.117,0.986,3.551,2.855,3.551,4.994H266.32z M284.291,212.417c0,0.828-0.67,1.498-1.498,1.498
				c-0.826,0-1.496-0.669-1.496-1.498v-6.407c0-0.827,0.67-1.498,1.496-1.498c0.828,0,1.498,0.671,1.498,1.498V212.417z"/>
			<circle fill="#B3B3B3" cx="276.305" cy="200.77" r="0.749"/>
		</g>
	</g>
	<g>
		<rect x="10.309" y="493.898" fill-rule="evenodd" clip-rule="evenodd" fill="#B3B3B3" width="373.299" height="2.445"/>
		
			<rect x="68.968" y="385.568" transform="matrix(-0.9389 -0.3442 0.3442 -0.9389 12.4259 774.8544)" fill-rule="evenodd" clip-rule="evenodd" fill="#B3B3B3" width="12.047" height="1.512"/>
		<rect x="27.618" y="393.641" fill-rule="evenodd" clip-rule="evenodd" fill="#B3B3B3" width="15.065" height="99.953"/>
		<rect x="118.027" y="393.641" fill-rule="evenodd" clip-rule="evenodd" fill="#B3B3B3" width="15.065" height="99.953"/>
		<rect x="27.618" y="393.641" fill-rule="evenodd" clip-rule="evenodd" fill="#B3B3B3" width="104.713" height="6.316"/>
		<rect x="53.167" y="390.15" fill-rule="evenodd" clip-rule="evenodd" fill="#B3B3B3" width="53.778" height="4.504"/>
		<path fill="#B3B3B3" d="M104.993,391.527h-3.216c0-9.715-9.59-17.621-21.377-17.621c-11.788,0-21.377,7.906-21.377,17.621h-3.217
			c0-11.49,11.033-20.836,24.595-20.836C93.961,370.691,104.993,380.037,104.993,391.527z"/>
		<circle fill-rule="evenodd" clip-rule="evenodd" fill="#B3B3B3" cx="80.4" cy="390.148" r="5.014"/>
		<circle fill-rule="evenodd" clip-rule="evenodd" fill="#B3B3B3" cx="60.601" cy="387.018" r="1.881"/>
		<circle fill-rule="evenodd" clip-rule="evenodd" fill="#B3B3B3" cx="65.13" cy="380.377" r="1.881"/>
		<circle fill-rule="evenodd" clip-rule="evenodd" fill="#B3B3B3" cx="95.491" cy="380.377" r="1.881"/>
		<circle fill-rule="evenodd" clip-rule="evenodd" fill="#B3B3B3" cx="71.471" cy="376.668" r="1.881"/>
		<circle fill-rule="evenodd" clip-rule="evenodd" fill="#B3B3B3" cx="88.714" cy="376.668" r="1.881"/>
		<circle fill-rule="evenodd" clip-rule="evenodd" fill="#B3B3B3" cx="80.055" cy="374.787" r="1.881"/>
		<circle fill-rule="evenodd" clip-rule="evenodd" fill="#B3B3B3" cx="100.342" cy="387.018" r="1.881"/>
		<rect x="15.398" y="438.074" fill-rule="evenodd" clip-rule="evenodd" fill="#B3B3B3" width="9.192" height="19.848"/>
		<circle fill-rule="evenodd" clip-rule="evenodd" fill="#F3F3F3" cx="19.749" cy="443.359" r="2.047"/>
		<circle fill-rule="evenodd" clip-rule="evenodd" fill="#F3F3F3" cx="19.749" cy="452.381" r="2.047"/>
		<g>
			<path fill-rule="evenodd" clip-rule="evenodd" fill="#FDA704" d="M259.086,408.736c1.639,4.316-0.049,9.494,0.41,13.988
				c0.709,6.924,4.342,11.092,8.641,13.986c7.332,0.699,13.91-1.139,18.924,0.41c5.242,1.619,9.875,8.844,10.695,14.811
				c1.08,7.844-2.334,15.479-5.348,20.98c-0.842,1.078-2.562,1.277-3.703,2.057c0,6.633,0,13.324,0,20.98
				c0,6.836,1.369,15.627-5.348,15.633c-8.227,0.008-5.348-20.383-5.348-29.207c0-1.936,0.045-4.002,0-5.762
				c-0.035-1.375,0.738-3.678-0.824-4.525c-1.561,0.717-0.793,2.947-0.82,4.115c-0.244,9.908,0.508,22.834-0.412,32.498
				c-1.539,1.047-2.615,2.773-4.525,2.881c-5.955,0.334-5.76-6.576-5.76-12.752c0-17.859,0-39.553,0-55.127
				c-1.641-2.5-4.428-3.008-6.582-5.348c-6.164-6.695-8.488-18.902-4.938-29.619C255.432,407.836,257.859,407.541,259.086,408.736z
				 M274.719,442.469c1.074,1.043,4.395,1.291,4.938-0.412c-0.613-0.621-0.662-1.805-0.824-2.879c-1.098,0-2.193,0-3.291,0
				C275.439,440.449,275.125,441.504,274.719,442.469z M275.541,444.527c-0.74,5.566-1.717,10.898-2.057,16.865
				c0.971,1.635,2.484,2.727,3.291,4.525c7.047-3.094,2.449-14.072,2.057-21.391C277.734,444.527,276.639,444.527,275.541,444.527z
				 M289.117,464.684c1.783-4.762,3.279-12.641-0.412-16.455C288.979,453.578,288.158,460.02,289.117,464.684z"/>
			<path fill-rule="evenodd" clip-rule="evenodd" fill="#03669D" d="M274.307,415.729c14.721-3.828,16.375,18.514,2.879,18.514
				C266.33,434.242,264.383,418.312,274.307,415.729z"/>
			<path fill-rule="evenodd" clip-rule="evenodd" fill="#03669D" d="M347.533,426.836c-1.312-3.199-4.348-5.617-8.227-4.936
				c-2.746,0.48-3.342,3.035-5.348,4.113c-0.314-2.566-2.664-3.096-4.525-4.113C332.447,413.379,349.303,415.588,347.533,426.836z"
				/>
			<path fill-rule="evenodd" clip-rule="evenodd" fill="#03669D" d="M220.004,418.197c15.299-3.738,15.908,20.229,1.234,18.514
				C211.564,435.578,210.1,420.619,220.004,418.197z"/>
			<path fill-rule="evenodd" clip-rule="evenodd" fill="#03669D" d="M325.73,423.135c3.578-1.172,7.51,0.537,8.229,3.701
				c2.057,9.072-13.166,11.662-11.932,0.824C322.207,426.092,323.066,424.008,325.73,423.135z M329.844,425.604
				c-3.146-1.766-7.113,2.346-4.113,5.758C331.039,433.771,332.904,427.32,329.844,425.604z"/>
			<path fill-rule="evenodd" clip-rule="evenodd" fill="#03669D" d="M338.895,423.135c3.475-1.023,7.068,0.465,7.818,3.291
				c2.395,9.061-12.16,12.039-11.932,2.057C334.834,426.131,335.758,424.057,338.895,423.135z M337.66,429.717
				c0.951,3.254,6.729,2.854,6.582-1.234c-0.092-2.568-2.104-3.16-3.703-2.879C337.449,426.143,337.068,427.697,337.66,429.717z"/>
			<path fill-rule="evenodd" clip-rule="evenodd" fill="#03669D" d="M321.205,428.07c-0.83,8.285,11.256,9.535,13.164,2.881
				c1.873,6.543,14.123,5.59,13.164-2.881c1.5-0.125,2.678,0.066,3.703,0.412c0.643,4.189,0.707,11.043,0,15.221
				c-6.184,0.947-14.115,0.146-20.982,0.412c-1.238-2.682-1.896-6.609-5.348-6.582c-2.623,0.018-4.865,2.686-3.701,6.582
				c-2.48,0.285-4.223-0.166-3.701-2.879c-3.484,0.082-6.418,0.715-9.463,1.232c0-4.113,0-8.227,0-12.342
				c3.188,0.242,6.039,0.816,9.049,1.234C317.621,429.426,318.047,427.383,321.205,428.07z"/>
			<path fill-rule="evenodd" clip-rule="evenodd" fill="#03669D" d="M243.454,448.229c-1.09,1.107-1.725,2.664-3.703,2.881
				c-0.357,1.699-1.287,2.826-1.646,4.523c-2.411,1.758-3.706,6.176-6.582,9.051c-1.796,1.797-4.392,3.865-6.993,3.703
				c0.694-1.982,3.066-2.117,4.525-3.291c3.508-2.826,5.826-6.971,6.582-11.107c-3.517,0.713-11.229,2.244-15.221-0.412
				c-0.594,2.836-0.959,5.898-0.823,9.463c-2.413-2.643-4.453-4.977-3.702-10.697c0.399-3.045,2.545-5.119,2.468-6.994
				c-0.118-2.846-1.864-4.301-4.525-4.111c-4.997,0.352-6.883,10.234-6.17,16.043c1,8.146,7.054,14.373,13.576,16.455
				c0.51,4.914,1.177,10.344,0.822,16.045c-0.514,8.27-1.854,19.809-6.17,21.391c-3.3,1.211-6.783-0.855-7.406-3.701
				c-0.581-2.662,1.051-6.65,1.646-9.873c0.668-3.627,1.543-6.812,1.234-10.287c-4.661,8.922-12.21,17.131-23.861,17.691
				c0.26-1.994,2.906-1.258,4.114-1.646c6.675-2.146,12.256-6.424,16.044-12.34c2.681-4.186,4.615-7.828,3.291-14.811
				c-0.778-1.529-3.176-1.559-4.524-3.291c-5.171-6.641-2.86-33.354,6.582-35.379c1.94-0.416,3.125,0.326,4.525,0
				c2.328,1.648,4.223,3.73,3.703,8.227c4.544,4.889,13.703,1.221,17.689-1.645c1.465-2.59,0.342-5.23,1.646-7.816
				c2.899-2.031,5.441-0.104,5.757,1.645c0.436,2.402-2.712,3.461-3.291,6.172C242.691,445.766,243.879,446.197,243.454,448.229z"/>
			<path fill-rule="evenodd" clip-rule="evenodd" fill="#03669D" d="M331.902,446.994c2.314-2.07,6.377-2.398,11.105-2.057
				c-2.377,4.184-5.203,8.744-10.283,9.051c-6.695,0.402-10.402-6.385-11.109-13.576c1.211-1.68,3.674-2.604,5.762-1.234
				C328.951,441.715,329.281,445.5,331.902,446.994z"/>
			<path fill-rule="evenodd" clip-rule="evenodd" fill="#03669D" d="M217.536,443.703c-0.818,6.949-4.617,9.869-0.822,16.867
				c1.164,2.146,7.505,5.994,7.404,9.051c-0.248,7.641-9.868,0.314-12.752-4.113c-1.905-2.926-3.241-7.666-3.292-10.697
				C207.965,448.275,212.196,437.418,217.536,443.703z"/>
			<path fill-rule="evenodd" clip-rule="evenodd" fill="#03669D" d="M348.355,444.938c2.592,8.947,4.688,27.777-4.523,30.855
				c-1.365,7.801-0.895,16.188,0.822,24.27c0.842,3.975,2.191,8.803-0.822,10.697c-0.865,0.543-3.744,1.041-5.35,0.41
				c-4.85-1.902-6.488-19.904-6.172-27.973c0.414-10.467,4.422-17.617,2.059-27.975c1.662-2.311,4.344-2.936,6.17-4.938
				c1.35-1.477,2.135-3.73,3.703-5.348C345.613,444.938,346.984,444.938,348.355,444.938z"/>
		</g>
		<path fill-rule="evenodd" clip-rule="evenodd" d="M148.583,369.756c12.214,0,24.431,0,36.646,0c-0.075,4.496,0.171,7.623,0,11.477
			c3.334,0.861,8.265,0.125,12.215,0.369c0,16.041,0,32.082,0,48.121c-15.672,0.861-32.943,0.125-49.232,0.371
			C148.458,410.105,147.718,389.129,148.583,369.756z"/>
		<path fill-rule="evenodd" clip-rule="evenodd" d="M185.969,369.756c3.549,3.486,8.419,7.621,10.734,11.105
			c-3.578,0-7.156,0-10.734,0C185.969,377.16,185.969,373.457,185.969,369.756z"/>
		<path fill-rule="evenodd" clip-rule="evenodd" d="M174.124,393.076c-0.181,1.17,0.667,1.309,0.371,2.592
			c-1.047,0.457-2.285,0.457-3.332,0C170.749,393.404,171.893,392.697,174.124,393.076z"/>
		<g>
			<path fill="#FFFFFF" d="M161.609,422.314h-3.739l2.932-8.441h5.327l2.932,8.441h-3.734l-0.487-1.426h-2.744L161.609,422.314z
				 M162.776,418.896h1.383l-0.692-2.096L162.776,418.896z"/>
			<path fill="#FFFFFF" d="M169.929,413.873h5.117c1.081,0,1.91,0.275,2.489,0.822c0.579,0.547,0.868,1.225,0.868,2.033
				c0,0.789-0.274,1.461-0.824,2.014c-0.549,0.553-1.211,0.83-1.986,0.83c-0.645,0-1.289-0.246-1.93-0.736v3.479h-3.734V413.873z
				 M173.663,415.699v1.836c0.11,0.029,0.214,0.045,0.31,0.045c0.28,0,0.507-0.088,0.68-0.266s0.26-0.41,0.26-0.697
				c0-0.283-0.074-0.508-0.221-0.672s-0.358-0.246-0.631-0.246H173.663z"/>
			<path fill="#FFFFFF" d="M179.366,413.873h5.117c1.081,0,1.91,0.275,2.489,0.822c0.579,0.547,0.868,1.225,0.868,2.033
				c0,0.789-0.274,1.461-0.824,2.014c-0.549,0.553-1.211,0.83-1.986,0.83c-0.645,0-1.289-0.246-1.93-0.736v3.479h-3.734V413.873z
				 M183.1,415.699v1.836c0.11,0.029,0.214,0.045,0.31,0.045c0.28,0,0.507-0.088,0.68-0.266s0.26-0.41,0.26-0.697
				c0-0.283-0.074-0.508-0.221-0.672s-0.358-0.246-0.631-0.246H183.1z"/>
		</g>
		<g>
			<g>
				<path fill="#FFFFFF" d="M173.871,393.338l-1.86,2.527c0.657,0.379,1.507,0.242,2.005-0.365
					C174.548,394.85,174.477,393.902,173.871,393.338z"/>
				<path fill="#FFFFFF" d="M171.579,393.49c-0.535,0.648-0.462,1.596,0.144,2.16l1.86-2.525
					C172.926,392.744,172.075,392.885,171.579,393.49z"/>
			</g>
			<path fill="#FFFFFF" d="M172.797,380.863c-7.506,0-13.592,6.104-13.592,13.631c0,7.529,6.086,13.633,13.592,13.633
				c7.507,0,13.592-6.104,13.592-13.633C186.389,386.967,180.304,380.863,172.797,380.863z M184.161,394.494
				c0,1.605-0.332,3.131-0.928,4.516l-5.536-3.18c0.114-0.426,0.177-0.875,0.177-1.336c0-2.375-1.622-4.369-3.817-4.932v-6.393
				C179.739,383.799,184.161,388.629,184.161,394.494z M172.796,391.955c1.399,0,2.532,1.137,2.532,2.539
				c0,1.404-1.133,2.539-2.532,2.539s-2.532-1.135-2.532-2.539C170.264,393.092,171.397,391.955,172.796,391.955z M171.392,383.188
				v6.416c-2.12,0.611-3.672,2.568-3.672,4.891c0,0.436,0.054,0.857,0.156,1.26l-5.555,3.166c-0.572-1.361-0.889-2.855-0.889-4.426
				C161.432,388.678,165.779,383.883,171.392,383.188z M172.797,405.893c-3.758,0-7.089-1.83-9.158-4.65l5.551-3.164
				c0.919,0.932,2.195,1.508,3.606,1.508c1.383,0,2.635-0.555,3.551-1.455l5.549,3.191
				C179.824,404.096,176.519,405.893,172.797,405.893z"/>
		</g>
		<g>
			<path fill-rule="evenodd" clip-rule="evenodd" fill="#B3B3B3" d="M94.303,413.891c-4.861,2.076-8.876,4.996-13.762,7.049
				c4.308,8.221,8.866,16.193,13.09,24.5c-1.342-0.33-2.014-0.33-3.356,0c-3.995-7.641-8.34-14.93-12.082-22.824
				c-4.814,2.234-9.407,4.691-13.761,7.385c-4.512-7.01-7.978-15.068-12.418-22.152c9.698-5.852,20.11-10.99,30.207-16.445
				C86.425,398.721,90.498,406.174,94.303,413.891z"/>
			<path fill-rule="evenodd" clip-rule="evenodd" fill="#B3B3B3" d="M93.631,417.918c10.618-2.252,12.812,13.918,3.021,15.102
				c-5.128,0.623-9.062-2.758-9.062-7.717C87.59,420.799,89.677,418.756,93.631,417.918z"/>
			<path fill-rule="evenodd" clip-rule="evenodd" fill="#B3B3B3" d="M88.933,435.705c4.364-0.781,10.18-0.111,15.103-0.334
				c4.386,3.008,8.324,5.641,7.384,12.754c-0.402,3.043-2.744,6.225-5.035,8.725c-1.588,1.736-5.484,5.934-7.718,5.707
				c-1.155-0.117-2.61-1.25-2.686-2.686c-0.136-2.609,4.332-4.758,6.377-7.049c2.627-2.941,4.474-5.107,3.021-9.061
				c0.111,5.705-2.836,8.352-5.706,11.074C95.733,448.818,92.817,441.777,88.933,435.705z"/>
			<path fill-rule="evenodd" clip-rule="evenodd" fill="#B3B3B3" d="M84.569,436.377c1.811,3,3.652,5.971,5.034,9.398
				c-0.803,0.201-1.531,0.482-2.685,0.334c-0.622-0.721-0.226-2.457-0.335-3.691c-0.674,0.668-1.148,1.537-1.008,3.021
				c1.315,2.26,5.124,0.266,7.384,0.336c7.136,6.512-8.652,8.105-11.747,3.691C77.553,444.244,81.29,439.346,84.569,436.377z"/>
			<path fill-rule="evenodd" clip-rule="evenodd" fill="#B3B3B3" d="M95.31,448.795c1.537,1.934,2.611,4.324,3.692,6.713
				c-0.659,0.572-1.678,0.783-2.014,1.678c-1.676-1.121-1.805-3.787-3.356-5.035C93.802,450.643,95.529,450.693,95.31,448.795z"/>
			<path fill-rule="evenodd" clip-rule="evenodd" fill="#B3B3B3" d="M100.344,465.578c1.464-0.328,2.417-1.164,3.692-1.68
				c-1.16-2.24-1.576-3.447,0.671-4.699c0.81,12.336,0.208,20.625,0.335,33.227c-1.215,3.363-7.224,3.623-8.39-0.336
				c-1.125-3.812,0-15.918,0-21.479c0-1.303,0.05-2.562,0-3.691c-0.038-0.891,0.573-2.496-0.671-2.686
				c-1.281,0.619-0.65,2.498-0.671,3.355c-0.094,3.812-0.034,6.795,0,10.068c0.052,5.037,1.867,16.986-4.028,17.453
				c-5.847,0.465-4.698-6.531-4.698-13.09c0-8.947,0-20.443,0-29.199c2.592,0.131,4.54-0.383,6.376-1.006
				c1.123,1.674,1.999,3.594,3.021,5.369c0.649,0.816-0.826,1.66-0.335,3.357C96.191,463.24,100.261,462.414,100.344,465.578z"/>
			<path fill-rule="evenodd" clip-rule="evenodd" fill="#B3B3B3" d="M103.364,463.562c-0.733,0.496-1.806,0.656-2.349,1.342
				c-0.69-0.094-0.67-0.896-1.007-1.342C100.533,461.646,103.24,460.805,103.364,463.562z"/>
		</g>
		<g>
			<path fill="#FFFFFF" d="M72.873,423.938l-1.754,0.963l-0.801-4.715l2.499-1.373l3.551,3.203l-1.751,0.963l-0.596-0.545
				l-1.287,0.707L72.873,423.938z M72.539,422.031l0.648-0.355l-0.864-0.807L72.539,422.031z"/>
			<path fill="#FFFFFF" d="M74.599,417.834l2.4-1.318c0.507-0.279,0.966-0.365,1.379-0.258s0.723,0.35,0.931,0.729
				c0.204,0.371,0.248,0.756,0.133,1.158c-0.115,0.4-0.354,0.701-0.718,0.9c-0.303,0.166-0.668,0.217-1.095,0.152l0.896,1.633
				l-1.751,0.963L74.599,417.834z M76.821,417.727l0.474,0.861c0.059-0.016,0.111-0.035,0.156-0.059
				c0.131-0.072,0.215-0.172,0.251-0.301c0.035-0.129,0.016-0.258-0.058-0.393c-0.073-0.133-0.166-0.221-0.277-0.26
				c-0.112-0.039-0.231-0.023-0.359,0.047L76.821,417.727z"/>
			<path fill="#FFFFFF" d="M79.025,415.4l2.4-1.318c0.507-0.279,0.967-0.365,1.379-0.256c0.413,0.107,0.724,0.35,0.932,0.729
				c0.203,0.371,0.248,0.756,0.133,1.158c-0.115,0.4-0.354,0.701-0.718,0.9c-0.303,0.166-0.668,0.217-1.095,0.152l0.897,1.633
				l-1.751,0.961L79.025,415.4z M81.247,415.295l0.474,0.861c0.059-0.016,0.112-0.035,0.157-0.061
				c0.131-0.072,0.215-0.172,0.25-0.299c0.036-0.129,0.016-0.26-0.058-0.395c-0.073-0.133-0.165-0.219-0.277-0.258
				s-0.231-0.023-0.359,0.047L81.247,415.295z"/>
		</g>
		<g>
			<g>
				<path fill="#FFFFFF" d="M71.176,407.182l-0.221,1.666c0.406,0.008,0.769-0.275,0.846-0.688
					C71.884,407.717,71.606,407.291,71.176,407.182z"/>
				<path fill="#FFFFFF" d="M70.139,407.846c-0.082,0.441,0.196,0.867,0.625,0.975l0.222-1.664
					C70.58,407.146,70.217,407.432,70.139,407.846z"/>
			</g>
			<path fill="#FFFFFF" d="M67.457,401.607c-3.521,1.936-4.801,6.367-2.862,9.896c1.942,3.533,6.369,4.826,9.89,2.891
				c3.521-1.934,4.802-6.365,2.861-9.896C75.405,400.967,70.979,399.674,67.457,401.607z M76.301,405.072
				c0.413,0.752,0.651,1.555,0.728,2.357l-3.417-0.064c-0.056-0.23-0.142-0.455-0.26-0.672c-0.612-1.113-1.888-1.633-3.062-1.33
				l-1.648-2.998C71.469,401.195,74.789,402.322,76.301,405.072z M70.315,406.811c0.657-0.359,1.481-0.119,1.842,0.539
				s0.123,1.482-0.533,1.844c-0.656,0.361-1.48,0.119-1.842-0.539C69.421,407.996,69.66,407.172,70.315,406.811z M67.397,403.061
				l1.653,3.01c-0.837,0.832-1.061,2.15-0.462,3.24c0.112,0.205,0.247,0.389,0.398,0.551l-1.79,2.916
				c-0.618-0.49-1.152-1.109-1.558-1.846C64.141,408.203,64.943,404.832,67.397,403.061z M73.908,413.348
				c-1.763,0.969-3.798,0.969-5.494,0.18l1.789-2.916c0.672,0.201,1.418,0.143,2.08-0.221c0.649-0.357,1.094-0.939,1.291-1.598
				l3.425,0.066C76.741,410.695,75.654,412.389,73.908,413.348z"/>
		</g>
	</g>
	<g>
		<rect x="10.224" y="661.158" fill-rule="evenodd" clip-rule="evenodd" fill="#B3B3B3" width="374.579" height="2.453"/>
		
			<rect x="66.773" y="553.998" transform="matrix(-1 -0.009 0.009 -1 140.6119 1110.146)" fill-rule="evenodd" clip-rule="evenodd" fill="#B3B3B3" width="12.088" height="1.514"/>
		<rect x="27.592" y="560.557" fill-rule="evenodd" clip-rule="evenodd" fill="#B3B3B3" width="15.118" height="100.295"/>
		<rect x="118.312" y="560.557" fill-rule="evenodd" clip-rule="evenodd" fill="#B3B3B3" width="15.118" height="100.295"/>
		<rect x="27.592" y="560.557" fill-rule="evenodd" clip-rule="evenodd" fill="#B3B3B3" width="105.073" height="6.336"/>
		<rect x="53.229" y="557.053" fill-rule="evenodd" clip-rule="evenodd" fill="#B3B3B3" width="53.962" height="4.521"/>
		<path fill="#B3B3B3" d="M105.233,558.436h-3.228c0-9.75-9.622-17.682-21.45-17.682s-21.451,7.932-21.451,17.682h-3.228
			c0-11.529,11.071-20.908,24.679-20.908C94.163,537.527,105.233,546.906,105.233,558.436z"/>
		<circle fill-rule="evenodd" clip-rule="evenodd" fill="#B3B3B3" cx="80.555" cy="557.053" r="5.031"/>
		<circle fill-rule="evenodd" clip-rule="evenodd" fill="#B3B3B3" cx="60.688" cy="553.91" r="1.887"/>
		<circle fill-rule="evenodd" clip-rule="evenodd" fill="#B3B3B3" cx="65.233" cy="547.248" r="1.887"/>
		<circle fill-rule="evenodd" clip-rule="evenodd" fill="#B3B3B3" cx="95.698" cy="547.248" r="1.888"/>
		<circle fill-rule="evenodd" clip-rule="evenodd" fill="#B3B3B3" cx="71.596" cy="543.525" r="1.888"/>
		<circle fill-rule="evenodd" clip-rule="evenodd" fill="#B3B3B3" cx="88.898" cy="543.525" r="1.887"/>
		<circle fill-rule="evenodd" clip-rule="evenodd" fill="#B3B3B3" cx="80.209" cy="541.639" r="1.887"/>
		<circle fill-rule="evenodd" clip-rule="evenodd" fill="#B3B3B3" cx="100.565" cy="553.91" r="1.888"/>
		<rect x="15.331" y="605.143" fill-rule="evenodd" clip-rule="evenodd" fill="#B3B3B3" width="9.224" height="19.914"/>
		<circle fill-rule="evenodd" clip-rule="evenodd" fill="#F3F3F3" cx="19.696" cy="610.443" r="2.053"/>
		<circle fill-rule="evenodd" clip-rule="evenodd" fill="#F3F3F3" cx="19.696" cy="619.498" r="2.053"/>
		<rect x="79.657" y="565.875" fill-rule="evenodd" clip-rule="evenodd" fill="#B3B3B3" width="1.797" height="93.248"/>
		<g>
			<path fill-rule="evenodd" clip-rule="evenodd" d="M200.581,587.799c2.126,0.102,4.737-0.283,6.332,0.352c0,2.461,0,4.924,0,7.387
				c22.744,0,45.492,0,68.236,0c0.816-1.764,0.121-5.039,0.352-7.387c1.812-0.49,5.598-0.633,7.387,0c0,2.461,0,4.924,0,7.387
				c22.627,0,45.254,0,67.885,0c1.012-1.684-0.297-5.693,0.703-7.387c1.621-0.572,5.412-0.572,7.033,0
				c0.82,27.902,0.119,57.33,0.352,85.822c-2.578,0-5.158,0-7.738,0c0-1.525,0-3.049,0-4.574c-22.51,0-45.021,0-67.531,0
				c-1.352,0.408-0.436,3.084-0.703,4.574c-2.463,0-4.924,0-7.387,0c-0.143-1.5,0.34-3.623-0.352-4.574c-22.512,0-45.022,0-67.534,0
				c-1.35,0.408-0.435,3.084-0.702,4.574c-2.463,0-4.924,0-7.387,0c0-28.373,0-56.746,0-85.119
				C199.723,588.346,200.075,587.994,200.581,587.799z M202.34,599.756c1.563,0.156,2.618-0.195,2.462-1.758
				C203.853,595.449,200.161,598.059,202.34,599.756z M278.312,599.756c0.588,0,1.174,0,1.76,0c0.51-0.879,0.854-1.381,0.352-2.461
				C278.477,595.887,276.729,598.473,278.312,599.756z M353.936,599.756c1.562,0.156,2.617-0.195,2.463-1.758
				C355.73,595.633,352.141,597.682,353.936,599.756z M206.913,602.221c0.231,9.146-0.465,19.221,0.352,27.785
				c22.628-0.234,46.193,0.467,68.236-0.352c0-9.496,0-18.992,0-28.49c-22.746,0-45.49,0-68.236,0
				C206.854,601.223,206.882,601.719,206.913,602.221z M282.887,602.221c0.23,9.146-0.465,19.221,0.35,27.785
				c22.631,0,45.258,0,67.885,0c0-9.615,0-19.229,0-28.842c-22.627,0-45.254,0-67.885,0
				C282.828,601.223,282.855,601.719,282.887,602.221z M201.636,632.82c0.453,0.602,0.728,1.381,1.759,1.406
				c0.989-0.299,1.58-1,1.407-2.463C203.949,630.568,201.489,631.012,201.636,632.82z M277.609,632.82
				c0.453,0.602,0.729,1.381,1.76,1.406c0.664-0.51,1.559-0.787,1.406-2.111C280.154,630.668,277.518,630.801,277.609,632.82z
				 M354.99,634.227c0.99-0.299,1.58-1,1.408-2.463C354.6,629.15,351.879,633.932,354.99,634.227z M206.913,636.336
				c-0.242,10.381,0.548,18.562,0,27.787c22.862,0,45.724,0,68.587,0c0-9.613,0-19.229,0-28.842c-22.746,0-45.49,0-68.236,0
				C206.854,635.342,206.882,635.838,206.913,636.336z M282.887,636.336c0,9.264,0,18.525,0,27.787c22.744,0,45.49,0,68.234,0
				c0-9.613,0-19.229,0-28.842c-22.627,0-45.254,0-67.885,0C282.828,635.342,282.855,635.838,282.887,636.336z M203.043,665.178
				c-3.384,1.049,0.876,5.311,1.759,1.76C204.827,665.74,203.768,665.627,203.043,665.178z M277.609,666.938
				c0.217,1.867,3.299,1.77,3.166-0.354C280.203,664.932,277.848,664.941,277.609,666.938z M354.639,665.178
				c-1.391,0.279-1.537,3.309,0.352,3.166C357.213,668.312,356.492,665.027,354.639,665.178z"/>
			<path fill-rule="evenodd" clip-rule="evenodd" d="M310.32,608.199c0.586,5.875,0.586,14.172,0,20.047
				c-6.336-0.227-13.59,0.461-19.346-0.35c-0.576-5.637-0.592-13.711,0-19.346c0.26-0.328,0.641-0.533,1.057-0.703
				C298.744,608.094,304.188,607.436,310.32,608.199z"/>
			<path fill-rule="evenodd" clip-rule="evenodd" d="M333.887,608.199c0.812,5.871,0.125,13.242,0.354,19.697
				c-5.775,0.568-13.928,0.594-19.699,0c-0.578-5.637-0.59-13.711,0-19.346C319.529,607.172,328.318,607.836,333.887,608.199z"/>
			<path fill-rule="evenodd" clip-rule="evenodd" d="M229.072,642.668c0.778,6.102,0.2,14.049,0,19.346
				c-5.249,1.465-14.891,0.561-19.698,0.352c-0.811-5.637-0.125-12.773-0.351-18.994c0.196-0.506,0.549-0.857,1.054-1.055
				C216.299,642.543,223.434,641.855,229.072,642.668z"/>
			<path fill-rule="evenodd" clip-rule="evenodd" d="M251.23,642.668c-0.227,6.455,0.461,13.826-0.354,19.697
				c-5.668,0.578-13.673,0.578-19.343,0c-0.904-5.371-0.112-12.387-0.352-19.346C236.402,641.639,245.431,642.307,251.23,642.668z"
				/>
			<path fill-rule="evenodd" clip-rule="evenodd" d="M273.039,642.668c0.582,5.76,0.582,13.938,0,19.697
				c-5.672,0.578-13.676,0.578-19.348,0c-0.811-5.637-0.123-12.773-0.352-18.994c-0.016-0.602,0.262-0.91,0.703-1.055
				C260.266,642.543,267.4,641.855,273.039,642.668z"/>
			<path fill-rule="evenodd" clip-rule="evenodd" d="M304.693,642.668c0.584,5.76,0.584,13.938,0,19.697
				c-5.67,0.578-13.676,0.578-19.346,0c-0.811-5.637-0.125-12.773-0.352-18.994c-0.016-0.602,0.262-0.91,0.705-1.055
				C291.92,642.543,299.057,641.855,304.693,642.668z"/>
			<path fill-rule="evenodd" clip-rule="evenodd" d="M326.854,642.668c0.594,5.771,0.568,13.922,0,19.697
				c-6.416,0.557-13.141,0.459-19.346,0c-1.324-4.891-0.764-13.539-0.354-18.994c-0.014-0.602,0.262-0.91,0.705-1.055
				C314.08,642.543,321.215,641.855,326.854,642.668z"/>
			<path fill-rule="evenodd" clip-rule="evenodd" d="M349.012,642.668c0.584,5.645,0.584,13.701,0,19.346
				c-2.932,1.242-6.742,0.721-10.199,0.703c-3.273-0.018-6.58,0.254-9.498-0.352c-0.795-5.654-0.135-12.76-0.352-18.994
				c0.199-0.506,0.547-0.857,1.055-1.055C336.238,642.543,343.375,641.855,349.012,642.668z"/>
		</g>
		<g>
			<path fill-rule="evenodd" clip-rule="evenodd" fill="#03669D" d="M62.018,594.012c17.084,0.307,35.402-0.619,51.711,0.465
				c2.901,5.824,2.945,12.693,4.192,19.102c3.63,18.625,7.604,38.695,11.182,57.766c0.787,1.697,3.818,1.15,4.193,3.262
				c0.754,1.73,0.387,4.582,0.465,6.986c2.33,0,4.659,0,6.988,0c0-29.195,0-58.387,0-87.58c2.64,0,5.28,0,7.92,0
				c-0.01,31.244,0.007,66.438,0,99.229c12.112,1.086,26.243,0.154,39.132,0.465c-2.218,4.424-8.194,4.336-13.51,5.125
				c-9.697,1.436-22.004,2.021-33.542,2.328c0-3.57,0-7.143,0-10.713c-1.256-1.074-4.493-0.166-6.523-0.469
				c-0.749,2.979-0.339,7.115-2.794,8.387c-1.864,0-3.727,0-5.59,0c1.603-24.074-37.458-25.377-36.337,0c-3.572,0-7.143,0-10.715,0
				c0.886-24.385-37.071-25.422-36.337,0c-1.708,0-3.417,0-5.125,0c-3.306-3.982-1.863-12.004-1.863-20.031c0-4.193,0-8.387,0-12.58
				c0-3.838-0.89-8.105,1.397-10.713c7.838-0.982,14.916,2.77,22.827,3.262c1.428-19.863-0.51-44.461,0.933-62.893
				C60.881,594.738,61.348,594.271,62.018,594.012z M112.332,613.111c-0.675-3.641-1.829-11.293-3.727-12.578
				c-2.901-1.967-10.104-0.303-14.441-0.467c-9.546-0.361-17.908-0.311-26.554,0c-2.742,2.83-1.864,7.492-1.864,11.646
				c0,13.734,0,28.551,0,41.463c2.952,0,5.901,0,8.852,0c-1.401-9.725-0.704-22.184,7.919-23.293
				c5.347-0.689,8.858,2.883,8.852,9.783c-2.543-1.34-3.238-4.525-5.59-6.057c-2.264-0.092-4.453-0.105-5.59,0.932
				c-2.974,8.893,5.893,13.545,12.112,16.305c0.054,1.189,0.088,2.398,1.398,2.33c5.843,0.562,9.772-0.789,14.441-1.398
				c0.009,0.682-1.964,1.477,0,1.398c1.417-0.293,4.014,0.596,4.659-0.465c-1.201-0.256-3.027-1.111-1.862-2.33
				c3.53-1.412,4.028,3.973,8.851,2.795C116.981,640.551,114.868,626.789,112.332,613.111z"/>
			<path fill-rule="evenodd" clip-rule="evenodd" fill="#03669D" d="M86.243,607.055c16.457-2.973,17.161,23.123,0.466,20.963
				C75.572,626.578,73.91,609.281,86.243,607.055z"/>
			<path fill-rule="evenodd" clip-rule="evenodd" d="M185.938,617.303c1.564,4.312,0.932,10.641,0.932,16.771
				c0,5.691,0.946,12.207-1.397,15.84c-4.15,1.609-10.535,0.932-16.305,0.932c-5.952,0-12.15,0.945-15.84-1.398
				c-1.556-3.199-0.932-9.92-0.932-16.303c0-5.814-0.899-13.988,1.397-15.842c2.687-1.59,11.029-0.932,17.237-0.932
				C176.6,616.371,182.203,615.711,185.938,617.303z"/>
			<path fill-rule="evenodd" clip-rule="evenodd" fill="#03669D" d="M111.865,644.791c0,1.242,0,2.482,0,3.725
				c-6.085,4.93-17.392,3.953-24.224-0.465c-2.899-1.875-7.992-6.938-7.92-9.783c0.045-1.793,1.451-4.09,3.727-4.193
				c3.291-0.148,4.264,4.088,6.522,6.055c1.787,1.562,5.374,3.342,8.385,3.73C104.984,644.711,106.947,640.783,111.865,644.791z"/>
			<path fill-rule="evenodd" clip-rule="evenodd" fill="#03669D" d="M114.661,641.062c0.047,2.064-0.552,3.484-2.329,3.729
				c-0.355-1.201-1.131-1.977-2.329-2.33C110.47,640.656,113.181,639.154,114.661,641.062z"/>
			<path fill-rule="evenodd" clip-rule="evenodd" d="M185.938,655.971c1.555,8.682,1.505,23.453,0,32.143
				c-8.773,1.799-22.612,0.979-32.145,0.467c-2.355-3.803-1.397-10.975-1.397-17.236c0-6.301-1.119-13.01,1.863-16.305
				C162.106,654.826,178.585,653.166,185.938,655.971z"/>
			<path fill-rule="evenodd" clip-rule="evenodd" fill="#03669D" d="M57.36,682.525c11.461-2.039,21.302,6.633,18.634,19.1
				c-1.023,4.781-5.799,10.637-12.578,11.646c-10.076,1.5-19.294-5.695-18.634-16.771C45.249,688.652,49.781,683.873,57.36,682.525z
				 M60.621,703.955c7.59-0.162,7.778-13.354-0.933-12.111C51.194,693.053,54.054,704.092,60.621,703.955z"/>
			<path fill-rule="evenodd" clip-rule="evenodd" fill="#03669D" d="M104.412,682.525c9.337-1.662,18.78,4.35,19.1,14.441
				c0.456,14.354-17.729,22.992-27.951,11.18C88.226,699.67,92.186,684.697,104.412,682.525z M107.673,703.955
				c7.449-0.156,7.933-13.434-0.932-12.111C98.219,693.111,101.093,704.092,107.673,703.955z"/>
		</g>
		<g>
			<path fill="#B5B5B5" d="M181.266,633.834c0-1.777-1.698-3.383-4.668-4.426c0.06-0.311,0.108-0.619,0.141-0.918
				c0.323-2.652-0.258-4.551-1.632-5.35c-1.229-0.711-2.936-0.424-4.804,0.803c-0.283,0.188-0.36,0.566-0.177,0.852
				c0.188,0.283,0.568,0.361,0.851,0.174c1.456-0.959,2.708-1.23,3.517-0.768c0.908,0.531,1.286,2.037,1.033,4.139
				c-0.148,1.236-0.508,2.594-1.038,3.992c-0.22-0.434-0.458-0.869-0.7-1.297c-0.252-0.43-0.51-0.848-0.771-1.262
				c0.213,0.039,0.422,0.074,0.627,0.113c0.335,0.064,0.654-0.152,0.719-0.484c0.063-0.334-0.155-0.652-0.484-0.717
				c-0.592-0.115-1.193-0.209-1.811-0.277c-1.208-1.633-2.527-3.018-3.849-4.012c-2.128-1.607-4.061-2.053-5.44-1.256
				c-1.379,0.799-1.958,2.697-1.637,5.35c0.035,0.299,0.086,0.607,0.146,0.918c-0.297,0.104-0.593,0.217-0.864,0.336
				c-2.454,1.043-3.802,2.496-3.802,4.09c0,1.398,1.01,2.666,2.921,3.68c0.522,0.275,1.107,0.525,1.745,0.75
				c-0.583,3.105-0.05,5.375,1.491,6.268c0.447,0.26,0.952,0.385,1.507,0.385c1.15,0,2.495-0.553,3.933-1.637
				c0.238-0.184,0.479-0.379,0.725-0.586c1.669,1.438,3.302,2.219,4.667,2.217c0.546,0,1.048-0.121,1.494-0.379
				c1.534-0.893,2.072-3.16,1.491-6.26C179.509,637.25,181.266,635.656,181.266,633.834z M162.362,628.34
				c-0.259-2.102,0.119-3.607,1.033-4.139c0.913-0.525,2.404-0.1,4.088,1.176c0.998,0.746,1.988,1.734,2.933,2.896
				c-0.486-0.027-0.976-0.041-1.47-0.041c-2.326,0-4.556,0.285-6.476,0.811C162.425,628.803,162.389,628.57,162.362,628.34z
				 M157.847,633.834c0-1.055,1.113-2.135,3.056-2.965c0.212-0.088,0.436-0.176,0.665-0.258c0.501,1.934,1.369,4.01,2.535,6.027
				c0.11,0.197,0.318,0.307,0.527,0.307c0.106,0,0.206-0.025,0.308-0.084c0.293-0.168,0.395-0.543,0.224-0.836
				c-1.121-1.951-1.962-3.943-2.433-5.783c1.827-0.512,3.971-0.785,6.218-0.785c0.833,0,1.649,0.039,2.455,0.113
				c0.461,0.658,0.908,1.352,1.323,2.076c0.417,0.721,0.795,1.455,1.133,2.191c-0.338,0.727-0.71,1.463-1.133,2.188
				c-0.442,0.77-0.918,1.506-1.404,2.191c-0.082,0.066-0.14,0.148-0.176,0.244c-0.704,0.959-1.445,1.824-2.198,2.568
				c-0.494-0.484-0.986-1.031-1.473-1.627c0.487,0.025,0.978,0.039,1.473,0.039c0.336,0,0.606-0.275,0.606-0.615
				c0-0.336-0.27-0.613-0.606-0.613c-0.864,0-1.72-0.039-2.556-0.119C161.518,637.619,157.847,635.787,157.847,633.834z
				 M167.483,642.301c-1.684,1.271-3.175,1.699-4.088,1.168c-1.014-0.586-1.354-2.414-0.925-4.838
				c1.035,0.285,2.169,0.496,3.349,0.633c0.016,0.021,0.026,0.039,0.038,0.059c0.712,0.957,1.444,1.805,2.178,2.531
				C167.853,642.008,167.668,642.158,167.483,642.301z M174.494,643.469c-1.061,0.615-2.792-0.043-4.647-1.613
				c0.764-0.758,1.513-1.629,2.223-2.592c1.215-0.141,2.336-0.35,3.35-0.627C175.856,641.084,175.518,642.875,174.494,643.469z
				 M173.018,637.895c0.26-0.406,0.522-0.828,0.771-1.256c1.161-2.018,2.035-4.098,2.535-6.027c2.338,0.848,3.72,2.035,3.72,3.223
				C180.043,635.574,177.103,637.227,173.018,637.895z"/>
			<path fill="#B5B5B5" d="M168.946,636.721c1.586,0,2.877-1.293,2.877-2.887c0-1.59-1.291-2.881-2.877-2.881
				c-1.59,0-2.881,1.291-2.881,2.881C166.065,635.428,167.356,636.721,168.946,636.721z"/>
		</g>
		<g>
			<ellipse fill="#B5B5B5" cx="170.152" cy="664.34" rx="3.29" ry="3.295"/>
			<ellipse fill="#B5B5B5" cx="175.826" cy="679.157" rx="3.29" ry="3.296"/>
			<path fill="#B5B5B5" d="M175.705,673.803c0.503-0.004,0.907-0.418,0.904-0.922c-0.003-0.506-0.416-0.908-0.92-0.906l-3.968,0.033
				l-2.101-3.354c-0.063-0.102-0.142-0.182-0.229-0.248c-0.047-0.037-0.096-0.07-0.149-0.1l-1.839-1
				c0-0.002-0.003-0.002-0.004-0.002c-0.152-0.113-0.34-0.182-0.546-0.182h-4.474c-0.382,0-0.708,0.234-0.844,0.566l-2.268,3.688
				c-0.263,0.43-0.13,0.992,0.299,1.258c0.428,0.264,0.989,0.133,1.254-0.299l2.081-3.387h2.283l-2.25,4.164
				c-0.049,0.088-0.087,0.184-0.118,0.277c-0.074,0.146-0.115,0.312-0.115,0.49v4.115l-3.917,1.449
				c-0.579,0.215-0.873,0.859-0.66,1.439c0.214,0.576,0.854,0.873,1.431,0.66l4.563-1.689c0.082-0.029,0.155-0.068,0.223-0.113
				c0.351-0.189,0.589-0.559,0.589-0.988v-2.893l2.598,0.926l0.052,4.184c0.007,0.617,0.512,1.111,1.13,1.105
				c0.617-0.01,1.109-0.516,1.102-1.133l-0.062-4.875c0-0.084-0.013-0.168-0.031-0.246c-0.06-0.395-0.329-0.748-0.731-0.889
				l-1.677-0.598l1.721-3.182l1.423,2.271c0.203,0.322,0.571,0.475,0.926,0.414L175.705,673.803z"/>
		</g>
		<g>
			<path fill="#FFFFFF" d="M305.172,616.662c-1.738-1.387-3.725-0.664-4.496-0.291c-0.771-0.373-2.758-1.096-4.496,0.291
				c-2.207,1.764-0.475,6.664,1.424,8.633c0.766,0.795,2.623,0.061,3.072,0.08c0.508-0.033,2.379,0.756,3.18-0.268
				C305.184,623.398,307.381,618.426,305.172,616.662z M297.541,619.375c-0.553,0-1-0.449-1-1c0-0.553,0.447-1.002,1-1.002
				c0.551,0,0.998,0.449,0.998,1.002C298.539,618.926,298.092,619.375,297.541,619.375z"/>
			<path fill="#FFFFFF" d="M301.775,613.523c0.775-1.201,3.014-1.244,2.994-0.994c-0.736,0.119-2.08,0.434-3.654,2.104v-1.115
				h-0.883v2.262c0.172,0.066,0.322,0.131,0.443,0.189c0.119-0.059,0.27-0.123,0.439-0.188v-0.209
				c0.283-0.371,0.705-0.73,1.098-1.033c0.311,0.318,0.912,0.734,1.879,0.529c1.486-0.314,1.51-2.236,2.846-2.592
				C306.592,611.35,301.592,610.107,301.775,613.523z"/>
		</g>
		<g>
			<path fill="#FFFFFF" d="M262.014,655.705c1.328,0,2.578-0.525,3.518-1.475c0.939-0.953,1.457-2.217,1.457-3.562
				s-0.518-2.611-1.457-3.562c-0.939-0.949-2.189-1.475-3.518-1.475c-1.33,0-2.578,0.525-3.52,1.475
				c-1.939,1.965-1.939,5.16,0,7.125C259.436,655.18,260.684,655.705,262.014,655.705z M265.363,647.846
				c-0.002,0.732-0.133,1.434-0.373,2.084l-0.904-0.916l1.219-1.234C265.324,647.803,265.344,647.824,265.363,647.846z
				 M260.855,652.283l1.158-1.174l1.277,1.293c-0.42,0.371-0.889,0.686-1.396,0.93L260.855,652.283z M261.277,653.592
				c-0.646,0.229-1.344,0.355-2.068,0.357l1.211-1.225L261.277,653.592z M263.729,652.848l1.141,1.152
				c-0.436,0.383-0.936,0.672-1.475,0.854l-1.039-1.055C262.854,653.539,263.312,653.219,263.729,652.848z M262.449,650.668
				l1.199-1.213l1.076,1.09c-0.262,0.52-0.594,1-0.988,1.426L262.449,650.668z M264.869,647.334l-1.221,1.236l-0.904-0.918
				c0.641-0.242,1.332-0.375,2.055-0.377C264.822,647.297,264.846,647.316,264.869,647.334z M263.213,649.014l-1.199,1.213
				l-1.289-1.303c0.422-0.4,0.895-0.738,1.41-1.002L263.213,649.014z M260.291,648.48l-1.131-1.146
				c0.451-0.396,0.971-0.691,1.533-0.871l0.984,0.996C261.172,647.736,260.707,648.082,260.291,648.48z M261.576,650.668
				l-1.156,1.172l-1.039-1.053c0.242-0.516,0.551-0.99,0.918-1.414L261.576,650.668z M259.982,652.283l-1.211,1.225
				c0.002-0.734,0.127-1.441,0.354-2.094L259.982,652.283z M259.918,654.537c0.643-0.068,1.262-0.227,1.838-0.459l0.938,0.949
				c-0.223,0.035-0.449,0.055-0.68,0.055C261.268,655.082,260.553,654.891,259.918,654.537z M265.305,653.559l-1.133-1.146
				c0.395-0.422,0.734-0.895,1.01-1.406l0.986,0.998C265.99,652.572,265.699,653.1,265.305,653.559z M266.328,651.283l-0.861-0.871
				c0.223-0.535,0.377-1.102,0.455-1.695c0.295,0.6,0.449,1.262,0.449,1.951C266.371,650.875,266.355,651.08,266.328,651.283z
				 M263.938,646.709c-0.584,0.08-1.143,0.236-1.67,0.463l-0.861-0.871c0.199-0.029,0.402-0.045,0.607-0.045
				C262.693,646.256,263.348,646.412,263.938,646.709z M258.721,647.779l1.139,1.15c-0.365,0.422-0.682,0.889-0.939,1.391
				l-1.039-1.051C258.059,648.734,258.338,648.229,258.721,647.779z M257.711,649.98l0.934,0.947
				c-0.23,0.582-0.387,1.207-0.453,1.859C257.725,651.922,257.566,650.932,257.711,649.98z"/>
			<path fill="#FFFFFF" d="M266.408,655.117c1.176-1.188,1.822-2.768,1.822-4.449c0-1.68-0.646-3.26-1.822-4.449
				c-0.119-0.123-0.314-0.123-0.436,0c-0.121,0.119-0.121,0.32,0,0.439c1.057,1.072,1.639,2.496,1.639,4.01
				s-0.582,2.938-1.639,4.008s-2.463,1.66-3.959,1.66s-2.902-0.59-3.959-1.66c-0.121-0.121-0.316-0.121-0.438,0
				c-0.119,0.123-0.119,0.32,0,0.441c1.17,1.186,2.723,1.84,4.377,1.844v1.453h-2.17c-0.172,0-0.311,0.141-0.311,0.312
				c0,0.174,0.139,0.314,0.311,0.314h4.957c0.17,0,0.309-0.141,0.309-0.314c0-0.172-0.139-0.312-0.309-0.312h-2.17v-1.48
				C264.047,656.795,265.377,656.164,266.408,655.117z"/>
		</g>
		<g>
			<path fill="#FFFFFF" d="M214.584,646.607l2.65,4.379l2.352-0.047l-3.261-5.389c-0.272-0.449-0.886-0.58-1.366-0.289
				C214.479,645.551,214.312,646.158,214.584,646.607z"/>
			<path fill="#FFFFFF" d="M212.139,651.428v-0.002l-0.206,0.006c-0.529,0.01-0.949,0.473-0.938,1.037
				c0.012,0.562,0.45,1.01,0.979,0.998l6.629-0.141l1.425,2.354c-0.924,0.924-1.136,2.398-0.428,3.564
				c0.264,0.436,0.637,0.797,1.084,1.043c0.91,0.5,2.027,0.477,2.916-0.061c1.373-0.834,1.814-2.629,0.983-4.004
				c-0.265-0.438-0.641-0.797-1.086-1.043l0,0c-0.702-0.383-1.523-0.457-2.27-0.227l-1.426-2.363l2.726-0.059
				c0.198,0.771,0.707,1.441,1.418,1.832c0.445,0.246,0.953,0.371,1.463,0.357c0.777-0.016,1.504-0.334,2.041-0.896
				c0.539-0.561,0.828-1.301,0.811-2.078c-0.02-1.037-0.598-1.992-1.509-2.494c-0.446-0.244-0.952-0.369-1.462-0.357
				c-0.779,0.018-1.504,0.336-2.043,0.896c-0.381,0.4-0.637,0.887-0.746,1.416L212.139,651.428z M218.262,652.084
				c0.123-0.227,0.404-0.309,0.63-0.184c0.224,0.123,0.305,0.406,0.181,0.629c-0.123,0.225-0.404,0.307-0.628,0.182
				C218.22,652.59,218.137,652.307,218.262,652.084z M223.042,656.008c0.302,0.166,0.555,0.408,0.734,0.707
				c0.562,0.928,0.264,2.141-0.666,2.703c-0.601,0.365-1.355,0.379-1.972,0.043c-0.3-0.166-0.553-0.41-0.731-0.707
				c-0.562-0.928-0.264-2.143,0.664-2.705C221.673,655.686,222.428,655.672,223.042,656.008z M223.928,650.445
				c0.365-0.379,0.854-0.596,1.381-0.607c0.346-0.006,0.688,0.078,0.987,0.242c0.614,0.338,1.007,0.984,1.021,1.686
				c0.011,0.529-0.183,1.025-0.548,1.406c-0.363,0.381-0.854,0.596-1.38,0.607c-0.345,0.006-0.687-0.078-0.988-0.242
				c-0.614-0.338-1.006-0.986-1.022-1.688C223.371,651.322,223.566,650.826,223.928,650.445z"/>
		</g>
		<g>
			<path fill="#FFFFFF" d="M315.471,651.93l0.002-0.002c0.73,0.355,1.832-0.264,2.496-1.42c0.666-1.154,0.65-2.42-0.021-2.875
				l0.002-0.006l-3.602-2.082l0,0c-0.729-0.406-1.863,0.213-2.545,1.395c-0.68,1.182-0.646,2.479,0.068,2.906l0,0L315.471,651.93z
				 M312.236,647.254c0.445-0.771,1.191-1.18,1.664-0.902c0.477,0.273,0.5,1.121,0.055,1.895c-0.447,0.773-1.191,1.178-1.666,0.906
				C311.814,648.875,311.791,648.027,312.236,647.254z"/>
			<path fill="#FFFFFF" d="M320.514,650.115v-0.002l-1.447-0.838c-0.09,0.527-0.289,1.088-0.605,1.633
				c-0.271,0.475-0.598,0.879-0.949,1.201l1.389,0.805l0.002-0.002c0.475,0.232,1.193-0.172,1.625-0.924
				C320.961,651.236,320.951,650.412,320.514,650.115z"/>
			<path fill="#FFFFFF" d="M321.979,651.594l0.002-0.004l-0.602-0.346c-0.07,0.316-0.199,0.65-0.385,0.975
				c-0.201,0.346-0.443,0.643-0.703,0.869l0.619,0.359v-0.002c0.318,0.152,0.791-0.113,1.076-0.613
				C322.273,652.334,322.268,651.793,321.979,651.594z"/>
			<path fill="#FFFFFF" d="M317.818,654.596c0.16-0.209,0.258-0.473,0.258-0.76c0-0.688-0.557-1.246-1.242-1.246
				c-0.689,0-1.246,0.559-1.246,1.246c0,0.287,0.096,0.551,0.26,0.76l-1.91,5.373c-0.049,0.145,0.025,0.299,0.168,0.352l0.424,0.152
				c0.143,0.051,0.301-0.023,0.352-0.168l1.459-4.1v4.008c0,0.152,0.121,0.277,0.273,0.277h0.451c0.15,0,0.273-0.125,0.273-0.277
				v-3.977l1.447,4.068c0.049,0.145,0.207,0.219,0.35,0.168l0.426-0.152c0.143-0.053,0.217-0.207,0.166-0.352L317.818,654.596z"/>
		</g>
		<g>
			<path fill="#FFFFFF" d="M319.695,614.133c0,0.234,0.189,0.428,0.42,0.428h7.527c0.23,0,0.418-0.193,0.418-0.428
				s-0.188-0.426-0.418-0.426h-7.527C319.885,613.707,319.695,613.898,319.695,614.133z"/>
			<path fill="#FFFFFF" d="M319.695,616.092c0,0.234,0.189,0.428,0.42,0.428h7.527c0.23,0,0.418-0.193,0.418-0.428
				s-0.188-0.424-0.418-0.424h-7.527C319.885,615.668,319.695,615.857,319.695,616.092z"/>
			<path fill="#FFFFFF" d="M319.695,618.051c0,0.236,0.189,0.426,0.42,0.426h7.527c0.23,0,0.418-0.189,0.418-0.426
				c0-0.232-0.188-0.422-0.418-0.422h-7.527C319.885,617.629,319.695,617.818,319.695,618.051z"/>
			<path fill="#FFFFFF" d="M319.695,620.012c0,0.234,0.189,0.426,0.42,0.426h7.527c0.23,0,0.418-0.191,0.418-0.426
				s-0.188-0.424-0.418-0.424h-7.527C319.885,619.588,319.695,619.777,319.695,620.012z"/>
			<path fill="#FFFFFF" d="M329.225,626.168c0.027,0.006,0.057,0.01,0.086,0.01c0.232,0,0.422-0.189,0.422-0.422v-14.201
				c0-0.154-0.082-0.287-0.205-0.361c-0.006-0.002-0.012-0.006-0.016-0.01c-0.002,0-0.008,0-0.008-0.002
				c-0.012-0.004-0.02-0.012-0.029-0.014l0,0c-0.014-0.006-0.025-0.01-0.039-0.014c-0.002,0-0.004-0.002-0.008-0.002
				c-0.01-0.006-0.02-0.008-0.031-0.01c-0.027-0.004-0.057-0.008-0.086-0.008c-0.006,0-0.01,0-0.016,0h-10.828h-0.002
				c-0.004,0-0.008,0-0.014,0c-0.234,0-0.426,0.188-0.426,0.42v11.004c0,0.012,0,0.029,0,0.043c0,0.031,0.002,0.061,0.008,0.088
				c0.018,0.096,0.066,0.176,0.133,0.236l3.082,3.08c0.068,0.088,0.174,0.148,0.291,0.162c0.01,0,0.018,0,0.025,0
				c0.004,0,0.008,0,0.014,0l0,0c0.002,0,0.004,0,0.006,0s0.004,0,0.006,0H329.225z M322.006,625.318v-2.723
				c0-0.135-0.062-0.256-0.164-0.332c-0.07-0.055-0.158-0.088-0.252-0.088h-0.004h-0.002c-0.002,0-0.002,0-0.002,0h-2.707v-10.189
				h10.012v13.332H322.006z"/>
		</g>
		<path fill="#FFFFFF" d="M344.67,654.824c-0.457,0-0.871,0.188-1.172,0.486l-1.975-1.166c0.137-0.299,0.211-0.631,0.211-0.98
			c0-0.41-0.1-0.791-0.279-1.129l1.324-0.604c0.395,0.521,1.113,0.701,1.711,0.387c0.662-0.35,0.918-1.172,0.568-1.836
			c-0.348-0.662-1.168-0.918-1.832-0.57c-0.539,0.285-0.801,0.881-0.695,1.451l-1.447,0.658c-0.312-0.334-0.721-0.576-1.178-0.688
			l0.127-2.207c0.824-0.1,1.465-0.793,1.465-1.648c0-0.922-0.746-1.666-1.664-1.666s-1.662,0.744-1.662,1.666
			c0,0.775,0.529,1.42,1.244,1.607l-0.129,2.178c-0.488,0.01-0.941,0.168-1.314,0.428l-1.318-1.146
			c0.16-0.365,0.168-0.801-0.033-1.186c-0.35-0.664-1.168-0.92-1.832-0.57c-0.662,0.35-0.918,1.17-0.568,1.836
			c0.348,0.664,1.168,0.918,1.83,0.568c0.082-0.041,0.156-0.094,0.227-0.148l1.232,1.068c-0.352,0.422-0.566,0.959-0.566,1.551
			c0,0.205,0.029,0.406,0.078,0.598l-1.875,0.787c-0.303-0.418-0.793-0.693-1.346-0.693c-0.92,0-1.664,0.746-1.664,1.668
			c0,0.92,0.744,1.668,1.664,1.668c0.918,0,1.662-0.748,1.662-1.668c0-0.145-0.021-0.279-0.055-0.41l1.844-0.775
			c0.322,0.574,0.871,0.998,1.525,1.156l-0.096,1.318c-0.123,0.025-0.246,0.062-0.365,0.123c-0.662,0.35-0.916,1.17-0.568,1.834
			c0.348,0.666,1.168,0.92,1.832,0.57c0.662-0.348,0.916-1.17,0.568-1.834c-0.182-0.348-0.496-0.58-0.846-0.676l0.09-1.27
			c0.73-0.016,1.377-0.357,1.807-0.885l1.947,1.148c-0.088,0.205-0.141,0.43-0.141,0.668c0,0.92,0.744,1.668,1.664,1.668
			c0.918,0,1.664-0.748,1.664-1.668S345.588,654.824,344.67,654.824z M343.334,649.807c0.15-0.08,0.34-0.021,0.42,0.131
			c0.08,0.154,0.021,0.344-0.131,0.424s-0.342,0.021-0.422-0.131C343.119,650.076,343.18,649.887,343.334,649.807z M335.051,649.348
			c-0.152,0.08-0.342,0.021-0.424-0.133c-0.078-0.15-0.02-0.34,0.133-0.422c0.152-0.078,0.342-0.021,0.422,0.131
			C335.262,649.078,335.203,649.268,335.051,649.348z M333.385,655.299c-0.213,0-0.385-0.174-0.385-0.385
			c0-0.213,0.172-0.385,0.385-0.385c0.211,0,0.383,0.172,0.383,0.385C333.768,655.125,333.596,655.299,333.385,655.299z
			 M339.035,646.369c0-0.213,0.172-0.385,0.383-0.385c0.213,0,0.385,0.172,0.385,0.385s-0.172,0.385-0.385,0.385
			C339.207,646.754,339.035,646.582,339.035,646.369z M338.188,652.285c0-0.305,0.248-0.553,0.553-0.553s0.553,0.248,0.553,0.553
			s-0.248,0.555-0.553,0.555S338.188,652.59,338.188,652.285z M338.639,657.957c-0.152,0.084-0.34,0.021-0.42-0.131
			c-0.082-0.154-0.023-0.342,0.131-0.422c0.152-0.082,0.342-0.023,0.422,0.129C338.852,657.688,338.793,657.877,338.639,657.957z
			 M344.254,656.268c-0.211,0-0.385-0.172-0.385-0.385s0.174-0.385,0.385-0.385s0.385,0.172,0.385,0.385
			S344.465,656.268,344.254,656.268z"/>
		<path fill="#F3F3F3" d="M297.072,645.525c0,0,0,0-0.004,0.002c-0.014-0.217-0.197-0.389-0.42-0.389
			c-0.232,0-0.42,0.189-0.42,0.418v8.834c-0.695-0.643-1.758-1.053-2.949-1.053c-2.096,0-3.791,1.268-3.791,2.83
			c0,1.566,1.695,2.834,3.791,2.834c2.061,0,3.736-1.229,3.789-2.76c0-0.016,0.004-0.031,0.004-0.049v-5.578
			c0.893-0.025,3.232,0.203,3.441,3.42c0.012,0.223,0.186,0.418,0.418,0.418c0.236,0,0.424-0.186,0.424-0.418v-1.506
			C301.699,645.922,297.385,648.273,297.072,645.525z"/>
		<path fill="#FFFFFF" d="M248.352,648.441c-0.031-0.098-0.127-0.16-0.227-0.143l-1.619,0.246c-0.068-0.303-0.178-0.6-0.33-0.885
			c-0.708-1.484-2.223-2.441-3.861-2.441c-2.361,0-4.284,1.926-4.284,4.293c0,0.4,0.002,0.773,0.005,1.123
			c0.012,2.121,0.02,3.4-0.467,3.895c-0.186,0.186-0.451,0.273-0.844,0.273h-2.02c-0.113,0-0.206,0.09-0.206,0.205
			c0,1.359,0.479,2.633,1.346,3.58c0.983,1.078,2.387,1.645,4.06,1.645c1.998,0,3.57-0.566,4.68-1.68
			c1.906-1.914,1.937-4.914,1.935-6.279l1.449,0.348c0.098,0.025,0.199-0.025,0.238-0.119s0.006-0.201-0.082-0.256
			c-0.014-0.01-1.318-0.844-1.318-1.789c0-1.023,1.428-1.76,1.443-1.771C248.338,648.643,248.383,648.537,248.352,648.441z
			 M244.129,650.105c-0.635,0-1.156-0.52-1.156-1.162c0-0.639,0.521-1.158,1.156-1.158c0.642,0,1.158,0.52,1.158,1.158
			C245.288,649.586,244.771,650.105,244.129,650.105z"/>
	</g>
</g>
</svg>
