<?xml version="1.0" encoding="utf-8"?>
<!-- Generator: Adobe Illustrator 15.0.0, SVG Export Plug-In . SVG Version: 6.00 Build 0)  -->
<!DOCTYPE svg PUBLIC "-//W3C//DTD SVG 1.1//EN" "http://www.w3.org/Graphics/SVG/1.1/DTD/svg11.dtd">
<svg version="1.1" id="Layer_1" xmlns="http://www.w3.org/2000/svg" xmlns:xlink="http://www.w3.org/1999/xlink" x="0px" y="0px"
	 width="192px" height="445px" viewBox="0 0 192 445" enable-background="new 0 0 192 445" xml:space="preserve">
<g>
	<g>
		<g>
			<g>
				<rect x="117.173" y="79.146" fill="#202024" width="5.34" height="5.338"/>
			</g>
		</g>
		<g>
			<path fill="#FDA704" d="M119.844,35.834c-7.722,0-13.975,5.74-13.975,13.98c0,8.232,7.089,13.593,7.089,19.589
				c0.431,0,1.183,0,2.128,0c1.323,0,3.024,0,4.758,0c1.739,0,3.434,0,4.756,0c0.944,0,1.697,0,2.136,0
				c0-5.996,7.089-11.356,7.089-19.589C133.825,41.574,127.564,35.834,119.844,35.834z"/>
		</g>
		<g>
			<path fill="#43434A" d="M119.844,71.545h-6.886v9.604c0,1.173,0.955,2.137,2.128,2.137h4.758h4.756
				c1.172,0,2.136-0.964,2.136-2.137v-9.604H119.844z"/>
		</g>
		<g>
			<path fill="#202024" d="M124.6,69.403c-1.322,0-3.017,0-4.756,0c-1.733,0-3.435,0-4.758,0c-0.945,0-1.697,0-2.128,0v2.143h6.886
				h6.892v-2.143C126.297,69.403,125.544,69.403,124.6,69.403z"/>
		</g>
	</g>
	<g>
		<path fill="#F3F3F3" d="M110.229,45.994c0-0.256,0.09-0.474,0.271-0.654c0.182-0.18,0.4-0.27,0.656-0.27
			c0.266,0,0.487,0.088,0.666,0.265c0.178,0.177,0.268,0.396,0.268,0.658s-0.091,0.485-0.272,0.668s-0.402,0.274-0.661,0.274
			c-0.253,0-0.471-0.093-0.653-0.279C110.32,46.471,110.229,46.25,110.229,45.994z M110.314,52.27v-4.784h1.69v4.784H110.314z"/>
		<path fill="#F3F3F3" d="M118.398,44.929v7.341h-1.554v-0.777c-0.214,0.322-0.456,0.563-0.725,0.722
			c-0.268,0.16-0.566,0.239-0.895,0.239c-0.673,0-1.208-0.232-1.605-0.696c-0.398-0.464-0.598-1.089-0.598-1.875
			c0-0.761,0.198-1.376,0.595-1.845c0.396-0.469,0.913-0.704,1.552-0.704c0.403,0,0.732,0.073,0.987,0.218
			c0.254,0.146,0.48,0.389,0.68,0.729c-0.02-0.113-0.033-0.242-0.043-0.386s-0.014-0.299-0.014-0.467v-2.5H118.398z M116.902,49.883
			c0-0.373-0.099-0.666-0.296-0.881c-0.198-0.215-0.467-0.322-0.808-0.322c-0.342,0-0.609,0.107-0.806,0.322
			c-0.195,0.215-0.294,0.508-0.294,0.881c0,0.376,0.098,0.67,0.292,0.883c0.194,0.213,0.463,0.32,0.808,0.32
			c0.341,0,0.609-0.107,0.808-0.322C116.803,50.549,116.902,50.255,116.902,49.883z"/>
		<path fill="#F3F3F3" d="M124.558,50.214h-3.637c0.003,0.37,0.098,0.654,0.284,0.855c0.186,0.201,0.449,0.301,0.791,0.301
			c0.255,0,0.471-0.048,0.646-0.145c0.175-0.096,0.309-0.239,0.399-0.429l1.27,0.512c-0.151,0.366-0.42,0.649-0.805,0.848
			c-0.386,0.199-0.857,0.298-1.416,0.298c-0.834,0-1.503-0.231-2.006-0.694c-0.504-0.462-0.756-1.073-0.756-1.831
			c0-0.745,0.252-1.364,0.756-1.856c0.503-0.493,1.141-0.739,1.911-0.739c0.792,0,1.417,0.25,1.875,0.749s0.687,1.183,0.687,2.051
			V50.214z M122.896,49.262c-0.031-0.271-0.135-0.489-0.311-0.653c-0.175-0.165-0.391-0.247-0.646-0.247
			c-0.274,0-0.493,0.075-0.655,0.225c-0.163,0.15-0.271,0.375-0.325,0.675H122.896z"/>
		<path fill="#F3F3F3" d="M130.606,47.486v4.784h-1.549v-0.777c-0.221,0.332-0.47,0.575-0.746,0.729s-0.601,0.232-0.974,0.232
			c-0.638,0-1.147-0.233-1.529-0.698c-0.382-0.466-0.573-1.09-0.573-1.874c0-0.78,0.199-1.399,0.6-1.859
			c0.399-0.459,0.937-0.689,1.612-0.689c0.36,0,0.67,0.077,0.931,0.23c0.261,0.153,0.484,0.389,0.67,0.708v-0.786H130.606z
			 M129.124,49.874c0-0.373-0.1-0.668-0.299-0.886c-0.198-0.218-0.47-0.327-0.814-0.327c-0.344,0-0.615,0.108-0.812,0.325
			s-0.296,0.512-0.296,0.888c0,0.373,0.1,0.666,0.299,0.881s0.469,0.322,0.81,0.322c0.345,0,0.616-0.107,0.814-0.322
			C129.024,50.54,129.124,50.246,129.124,49.874z"/>
	</g>
	<path fill-rule="evenodd" clip-rule="evenodd" fill="#B3B3B3" d="M86.155,41.985c11.07-1.643,12.447,16.053,0.967,15.804
		C78.167,57.594,76.138,43.471,86.155,41.985z"/>
	<path fill-rule="evenodd" clip-rule="evenodd" fill="#B3B3B3" d="M100.023,90.364c0.144-0.287,0.284-0.577,0.645-0.645
		c-0.222-6.199-0.549-14.292-3.225-19.03c-0.752,6.989-0.108,15.374-0.322,22.9c-2.618,0.178-6.184-0.594-7.418,0.967
		c-0.746,5.812-0.113,13.005-0.322,19.353c1.148,1.861,4.841,1.179,7.74,1.29c1.953,6.888-4.485,10.1-7.74,7.096
		c-2.803-2.585-1.291-18.176-1.291-24.19c0-1.45,0.032-2.847,0-4.192c-0.027-1.193,0.561-3.071-0.645-3.548
		c-1.72,0.05-0.933,2.397-0.968,3.226c-0.36,8.477,0.529,19.453-0.322,27.737c-1.554,2.255-5.728,2.583-7.418,0.645
		c-1.688-1.936-0.968-7.638-0.968-12.256c0-12.737,0-28.319,0-39.347c-1.88,2.724-3.19,7.284-3.548,11.934
		c-0.241,3.13,0.758,6.641-0.968,9.031c-6.458,3.089-5.222-7.418-4.193-13.546c1.116-6.646,4.949-16.18,10.645-17.417
		c2.17-0.472,5.36,0,8.062,0c2.619,0,5.64-0.304,7.74,0.323c6.241,1.859,10.096,13.105,10.643,21.287
		c0.177,2.617-0.383,5.859,0.323,8.063l-0.483,0.376l0.16,0.592c-1.937,0.741-3.381,1.16-5.159,0l-0.42-0.42L100.023,90.364z
		 M88.413,65.852c0.235-0.301,0.585-0.489,0.968-0.646c-0.353-0.938-0.303-2.279-0.968-2.902c-0.312,0.797-1.239-0.445-2.258,0
		c-0.321,0.863-0.665,1.699-0.645,2.902c0.259,0.277,0.883,0.192,0.967,0.646l-0.484,0.376l0.162,0.593c-0.107,0-0.215,0-0.322,0
		c-0.482,4.892-1.118,9.632-1.936,14.19c1.625,0.954,1.824,3.335,3.87,3.871c0.275-1.485,2.514-2.143,2.904-4.193
		c0.28-1.487-0.616-4.577-0.969-7.095c-0.365-2.606-0.443-5.746-1.29-6.772l0.16-0.484L88.413,65.852z"/>
	<path fill-rule="evenodd" clip-rule="evenodd" fill="#FDA704" d="M108.033,93.75l0.376-0.482c0.378,0.052,0.272,0.588,0.323,0.967
		c2.396,0.184,5.546-0.386,7.418,0.322c1.134,2.49,0.645,6.123,0.645,9.677c0,3.345,0.255,6.978-0.323,9.675
		c-7.962,0.537-18.161,0.537-26.123,0c-0.578-2.814-0.323-6.401-0.323-9.999c0-3.291-0.487-6.98,0.646-9.354
		c1.841-1.167,6.902,0.883,7.739-1.289l0.375,0.482l0.593-0.16c0.345,1.371,5.78,0.307,8.062,0.645c0-0.214,0-0.43,0-0.645
		L108.033,93.75z"/>
	<path fill-rule="evenodd" clip-rule="evenodd" fill="#F4AF04" d="M98.786,93.75c0.387-1.148,0.732-2.441,1.785-3.161"/>
	<path fill-rule="evenodd" clip-rule="evenodd" fill="#F4AF04" d="M85.993,66.228c0.843,0.196,1.723,0.07,2.58,0.108"/>
	<path fill-rule="evenodd" clip-rule="evenodd" fill="#F4AF04" d="M108.033,93.75c-0.173-1.329-0.838-2.667-2.043-3.333"/>
	<path fill="#FFFFFF" d="M106.972,104.016c0.776-0.853,1.25-1.984,1.25-3.227c0-2.659-2.154-4.813-4.812-4.813
		c-2.657,0-4.812,2.154-4.812,4.813c0,1.243,0.475,2.375,1.25,3.227l-0.006,0.003c0,0,1.34,1.715,1.419,3.393
		c-0.134,0.116-0.218,0.281-0.218,0.463c0,0.218,0.118,0.407,0.299,0.527c-0.181,0.117-0.299,0.308-0.299,0.525
		c0,0.216,0.118,0.407,0.299,0.525c-0.181,0.119-0.299,0.31-0.299,0.526c0,0.361,0.328,0.656,0.732,0.656h3.272
		c0.403,0,0.73-0.294,0.73-0.656c0-0.216-0.118-0.407-0.299-0.526c0.181-0.118,0.299-0.309,0.299-0.525
		c0-0.217-0.118-0.408-0.299-0.525c0.181-0.121,0.299-0.309,0.299-0.527c0-0.183-0.084-0.347-0.217-0.464
		c0.078-1.676,1.417-3.392,1.417-3.392L106.972,104.016z M103.572,107.22h-0.325v-2.332c0-0.088,0.073-0.163,0.163-0.163
		c0.056,0,0.094,0.027,0.114,0.05c0.022,0.021,0.048,0.057,0.048,0.113V107.22z M106.419,103.549l-0.017,0.021
		c-0.061,0.078-1.401,1.818-1.559,3.65H104.3v-2.332c0-0.026-0.005-0.054-0.008-0.083l1.165-3.617
		c0.029-0.099-0.031-0.198-0.128-0.223c-0.097-0.027-0.196,0.033-0.221,0.13l-0.839,2.604v-1.481c0-0.083-0.068-0.15-0.153-0.15
		c-0.086,0-0.153,0.068-0.153,0.15v1.976c-0.153-0.123-0.342-0.197-0.554-0.197c-0.21,0-0.401,0.074-0.552,0.197v-1.976
		c0-0.083-0.068-0.15-0.153-0.15s-0.154,0.068-0.154,0.15v1.481l-0.839-2.604c-0.026-0.097-0.124-0.157-0.22-0.13
		c-0.099,0.025-0.156,0.124-0.13,0.223l1.165,3.617c-0.003,0.029-0.008,0.057-0.008,0.083v2.332h-0.543
		c-0.157-1.832-1.498-3.572-1.56-3.65l-0.011-0.023l-0.018-0.021c-0.685-0.755-1.061-1.726-1.061-2.737
		c0-2.252,1.83-4.084,4.082-4.084c2.253,0,4.084,1.832,4.084,4.084c0,1.011-0.375,1.981-1.062,2.737L106.419,103.549z"/>
	<path fill="#FFFFFF" d="M103.644,101.925h-0.47c-0.154,0-0.28,0.126-0.28,0.282c0,0.157,0.126,0.283,0.28,0.283h0.47
		c0.157,0,0.284-0.125,0.284-0.283C103.928,102.051,103.801,101.925,103.644,101.925z"/>
	<path fill="#FFFFFF" d="M104.853,100.98h-2.883c-0.069,0-0.126,0.056-0.126,0.123s0.057,0.121,0.126,0.121h2.883
		c0.068,0,0.124-0.054,0.124-0.121S104.921,100.98,104.853,100.98z"/>
	
		<rect x="102.257" y="20.769" transform="matrix(0.9754 -0.2206 0.2206 0.9754 -2.0799 24.363)" fill-rule="evenodd" clip-rule="evenodd" fill="#B3B3B3" width="11.565" height="1.449"/>
	<rect x="50.033" y="27.044" fill-rule="evenodd" clip-rule="evenodd" fill="#B3B3B3" width="14.463" height="95.956"/>
	<rect x="136.825" y="27.044" fill-rule="evenodd" clip-rule="evenodd" fill="#B3B3B3" width="14.463" height="95.956"/>
	<rect x="50.033" y="27.044" fill-rule="evenodd" clip-rule="evenodd" fill="#B3B3B3" width="100.524" height="6.062"/>
	<rect x="74.558" y="23.694" fill-rule="evenodd" clip-rule="evenodd" fill="#B3B3B3" width="51.628" height="4.324"/>
	<path fill="#B3B3B3" d="M124.313,25.016h-3.088c0-9.328-9.206-16.916-20.521-16.916c-11.317,0-20.523,7.588-20.523,16.916h-3.088
		c0-11.03,10.592-20.004,23.611-20.004C113.721,5.012,124.313,13.986,124.313,25.016z"/>
	<circle fill-rule="evenodd" clip-rule="evenodd" fill="#B3B3B3" cx="100.703" cy="23.692" r="4.813"/>
	<circle fill-rule="evenodd" clip-rule="evenodd" fill="#B3B3B3" cx="81.696" cy="20.686" r="1.806"/>
	<circle fill-rule="evenodd" clip-rule="evenodd" fill="#B3B3B3" cx="86.044" cy="14.312" r="1.806"/>
	<circle fill-rule="evenodd" clip-rule="evenodd" fill="#B3B3B3" cx="115.19" cy="14.312" r="1.806"/>
	<circle fill-rule="evenodd" clip-rule="evenodd" fill="#B3B3B3" cx="92.131" cy="10.014" r="1.806"/>
	<circle fill-rule="evenodd" clip-rule="evenodd" fill="#B3B3B3" cx="108.685" cy="10.014" r="1.805"/>
	<circle fill-rule="evenodd" clip-rule="evenodd" fill="#B3B3B3" cx="100.372" cy="8.209" r="1.806"/>
	<circle fill-rule="evenodd" clip-rule="evenodd" fill="#B3B3B3" cx="119.847" cy="20.686" r="1.806"/>
	<rect x="12.038" y="122.938" fill-rule="evenodd" clip-rule="evenodd" fill="#B3B3B3" width="166.168" height="2.696"/>
	<rect x="38.301" y="69.701" fill-rule="evenodd" clip-rule="evenodd" fill="#B3B3B3" width="8.825" height="19.053"/>
	<circle fill-rule="evenodd" clip-rule="evenodd" fill="#F3F3F3" cx="42.478" cy="74.774" r="1.965"/>
	<circle fill-rule="evenodd" clip-rule="evenodd" fill="#F3F3F3" cx="42.478" cy="83.436" r="1.965"/>
	
		<rect x="54.463" y="168.305" transform="matrix(-0.7288 0.6847 -0.6847 -0.7288 219.8661 250.9782)" fill-rule="evenodd" clip-rule="evenodd" fill="#B3B3B3" width="11.541" height="1.445"/>
	<rect x="11.038" y="176.773" fill-rule="evenodd" clip-rule="evenodd" fill="#B3B3B3" width="7.215" height="95.75"/>
	<rect x="90.428" y="176.773" fill-rule="evenodd" clip-rule="evenodd" fill="#B3B3B3" width="14.432" height="95.75"/>
	<rect x="10.351" y="176.773" fill-rule="evenodd" clip-rule="evenodd" fill="#B3B3B3" width="93.78" height="6.049"/>
	<rect x="28.295" y="173.43" fill-rule="evenodd" clip-rule="evenodd" fill="#B3B3B3" width="51.516" height="4.314"/>
	<path fill="#B3B3B3" d="M77.943,174.749h-3.082c0-9.307-9.187-16.879-20.478-16.879s-20.479,7.573-20.479,16.879h-3.082
		c0-11.006,10.57-19.96,23.561-19.96C67.375,154.789,77.943,163.743,77.943,174.749z"/>
	<circle fill-rule="evenodd" clip-rule="evenodd" fill="#B3B3B3" cx="54.383" cy="173.428" r="4.803"/>
	<circle fill-rule="evenodd" clip-rule="evenodd" fill="#B3B3B3" cx="35.417" cy="170.428" r="1.802"/>
	<circle fill-rule="evenodd" clip-rule="evenodd" fill="#B3B3B3" cx="39.756" cy="164.068" r="1.802"/>
	<circle fill-rule="evenodd" clip-rule="evenodd" fill="#B3B3B3" cx="68.84" cy="164.068" r="1.801"/>
	<circle fill-rule="evenodd" clip-rule="evenodd" fill="#B3B3B3" cx="45.831" cy="159.78" r="1.802"/>
	<circle fill-rule="evenodd" clip-rule="evenodd" fill="#B3B3B3" cx="62.348" cy="159.78" r="1.802"/>
	<circle fill-rule="evenodd" clip-rule="evenodd" fill="#B3B3B3" cx="54.053" cy="157.978" r="1.802"/>
	<circle fill-rule="evenodd" clip-rule="evenodd" fill="#B3B3B3" cx="73.487" cy="170.428" r="1.802"/>
	<rect x="11.14" y="272.494" fill-rule="evenodd" clip-rule="evenodd" fill="#B3B3B3" width="167.065" height="2.697"/>
	<rect x="53.257" y="182.822" fill-rule="evenodd" clip-rule="evenodd" fill="#B3B3B3" width="1.716" height="89.02"/>
	<g>
		<path fill-rule="evenodd" clip-rule="evenodd" fill="#03669D" d="M143.568,199.861c3.991-0.576,8.88,1.959,9.096,7.471
			c0.436,10.943-17.527,11.547-16.243-0.648C136.803,203.036,139.23,200.486,143.568,199.861z"/>
		<path fill-rule="evenodd" clip-rule="evenodd" fill="#03669D" d="M159.163,221.304c-9.152,5.682-17.468,12.205-26.642,17.867
			c-0.431-1.407-0.546-3.133-0.649-4.873c6.06-6.033,16.135-15.478,23.067-21.769c0.556-0.502,3.405-1.309,4.224,0l-0.487,0.163
			l0.163,0.487c-1.17-0.193-1.833,0.118-1.95,0.976l-0.324-0.164l-0.325,0.164c-2.522,2.303,1.082,5.76,3.249,6.498L159,220.816
			L159.163,221.304z"/>
		<path fill-rule="evenodd" clip-rule="evenodd" fill="#03669D" d="M163.549,218.542l0.163-0.487c0.943,1.072-0.057,2.962-0.326,3.9
			c-0.639-0.554-2.009-0.375-2.6-0.976l0.163-0.487l-0.487,0.162c0-0.108,0-0.217,0-0.324l0.487-0.162l-0.163-0.488
			c1.353,0.158,1.997-0.387,2.274-1.301L163.549,218.542z"/>
		<path fill-rule="evenodd" clip-rule="evenodd" fill="#03669D" d="M146.816,218.054c1.317,0.369-0.595,1.242-0.649,1.299
			c-3.048,3.395-7.758,7.357-11.046,10.722c-0.746-0.661-0.117-2.696-0.325-3.897c-3.998,3.737-4.017,9.703-2.274,15.592
			c0.688,2.324,2.134,4.541,1.625,6.176c-0.335,1.074-2.447,2.375-4.225,1.623c-2.761-1.166-4.873-11.924-4.223-17.219
			c0.488-3.973,2.317-7.711,4.548-10.07C133.591,218.741,138.473,217.247,146.816,218.054z"/>
		<path fill-rule="evenodd" clip-rule="evenodd" fill="#03669D" d="M166.636,227.802c0.742,0.555,0.119,2.479,0.324,3.573
			c-2.999,2.829-7.078,5.061-11.373,7.472c-9.602,5.393-19.796,10.967-30.213,16.895c-2.529,1.439-4.294,3.354-6.175,3.248
			c-2.458-0.137-4.704-3.438-4.223-5.848c0.377-1.887,3.751-3.322,5.523-4.549c2.279-1.574,4.156-2.768,5.849-4.225
			c1.428,2.508,1.45,5.977,4.548,6.174c5.26,0.34,3.903-6.58,1.624-10.071c7.17-5.192,18.148-12.743,25.992-17.869
			c0.563-0.369,2.925-1.408,3.898,0l-0.488,0.162l0.164,0.487c-1.021-0.154-1.327,0.406-1.625,0.976l-0.326-0.163l-0.323-0.163
			c-2.688,2.397,0.707,7.915,3.573,6.822l0.488,0.164l0.162-0.488c0.325,0,0.65,0,0.975,0c0.334-0.75,1.118-1.047,0.974-2.275
			l0.488,0.163L166.636,227.802z"/>
		<path fill-rule="evenodd" clip-rule="evenodd" fill="#03669D" d="M157.538,238.522c1.724-1.201,3.61-2.237,5.523-3.249
			c1.093,3.66-1.036,14.815-3.573,15.596c-1.805,0.553-3.3-0.328-3.9-1.625C154.314,246.48,158.522,242.123,157.538,238.522z"/>
		<path fill-rule="evenodd" clip-rule="evenodd" fill="#03669D" d="M125.05,240.472c1.129,0.278,0.482,2.334,1.299,2.922
			c-3.185,2.449-6.32,4.945-10.072,6.826C117.954,245.721,122.314,243.91,125.05,240.472z"/>
		<path fill-rule="evenodd" clip-rule="evenodd" fill="#03669D" d="M145.842,279.459c-0.845-8.643-0.028-18.008-0.325-27.939
			c-0.03-1,0.607-2.594-0.649-3.25c-2.229-0.037-1.291,3.039-1.3,4.223c-0.065,8.334,0.451,17.973-0.326,26.967
			c-1.659,2.117-4.817,2.795-6.821,1.299c-4.229-3.154-0.169-23.104-1.625-29.238c6.168-3.797,12.786-7.143,18.845-11.047
			c0.377-0.053,0.578,0.071,0.649,0.324c0,5.579,0,12.411,0,20.795c0,6.225,1.284,16.996-1.626,19.166
			C150.49,282.381,147.492,281.441,145.842,279.459z"/>
		<path fill-rule="evenodd" clip-rule="evenodd" fill="#03669D" d="M158.675,212.693c2.685,0.64,4.432,3.258,4.874,5.849"/>
		<path fill-rule="evenodd" clip-rule="evenodd" fill="#03669D" d="M160.95,220.492c-0.545,0.332-1.33,0.537-1.949,0.324"/>
		<path fill-rule="evenodd" clip-rule="evenodd" fill="#03669D" d="M160.95,220.167c-2.566-0.8-4.946-3.272-4.386-6.176"/>
		<path fill-rule="evenodd" clip-rule="evenodd" fill="#03669D" d="M161.923,222.765c2.622,0.555,3.906,3.233,4.55,5.522"/>
		<path fill-rule="evenodd" clip-rule="evenodd" fill="#03669D" d="M163.875,230.888c-2.463-1.22-4.585-3.898-3.738-6.823"/>
	</g>
	
		<rect x="21.068" y="314.339" transform="matrix(-0.4359 0.9 -0.9 -0.4359 322.4353 428.0837)" fill-rule="evenodd" clip-rule="evenodd" fill="#B3B3B3" width="11.986" height="1.501"/>
	<rect x="60.711" y="323.896" fill-rule="evenodd" clip-rule="evenodd" fill="#B3B3B3" width="14.989" height="99.445"/>
	<rect x="11.098" y="323.896" fill-rule="evenodd" clip-rule="evenodd" fill="#B3B3B3" width="63.846" height="6.283"/>
	<rect x="11.098" y="320.424" fill-rule="evenodd" clip-rule="evenodd" fill="#B3B3B3" width="38.586" height="4.482"/>
	<path fill="#B3B3B3" d="M47.746,321.795h-3.2c0-9.666-9.542-17.531-21.269-17.531c-3.935,0-7.778,0.895-11.114,2.586l-1.448-2.854
		c3.782-1.918,8.127-2.932,12.562-2.932C36.768,301.064,47.746,310.363,47.746,321.795z"/>
	<path fill-rule="evenodd" clip-rule="evenodd" fill="#B3B3B3" d="M28.265,320.422c0,2.758-2.234,4.99-4.988,4.99
		c-2.755,0-4.988-2.232-4.988-4.99c0-2.752,2.233-4.986,4.988-4.986C26.031,315.436,28.265,317.67,28.265,320.422z"/>
	<circle fill-rule="evenodd" clip-rule="evenodd" fill="#B3B3B3" cx="38.29" cy="310.701" r="1.872"/>
	<circle fill-rule="evenodd" clip-rule="evenodd" fill="#B3B3B3" cx="14.393" cy="306.248" r="1.871"/>
	<circle fill-rule="evenodd" clip-rule="evenodd" fill="#B3B3B3" cx="31.548" cy="306.248" r="1.872"/>
	<circle fill-rule="evenodd" clip-rule="evenodd" fill="#B3B3B3" cx="22.934" cy="304.377" r="1.872"/>
	<path fill-rule="evenodd" clip-rule="evenodd" fill="#B3B3B3" d="M44.988,317.309c0,1.031-0.838,1.869-1.871,1.869
		c-1.034,0-1.871-0.838-1.871-1.869c0-1.035,0.837-1.873,1.871-1.873C44.15,315.436,44.988,316.273,44.988,317.309z"/>
	<rect x="11.14" y="423.342" fill-rule="evenodd" clip-rule="evenodd" fill="#B3B3B3" width="167.065" height="2.695"/>
	<rect x="22.107" y="330.18" fill-rule="evenodd" clip-rule="evenodd" fill="#B3B3B3" width="1.783" height="92.453"/>
	
		<rect x="85.143" y="334.713" fill-rule="evenodd" clip-rule="evenodd" fill="none" stroke="#B3B3B3" stroke-width="2.5391" stroke-linecap="round" stroke-linejoin="round" stroke-miterlimit="10" width="92.232" height="24.551"/>
	<g>
		<path fill-rule="evenodd" clip-rule="evenodd" fill="#C41412" d="M149.499,341.807c9.935-1.012,11.88,13.588,7.754,21.4
			c-1.964,0-3.928,0-5.893,0c-5.499-4.832,1.885-11.484,1.24-16.75C152.343,344.365,151.144,343.182,149.499,341.807z"/>
		<path fill-rule="evenodd" clip-rule="evenodd" fill="#03669D" d="M135.23,347.697c1.438,0.734,2.094,2.25,1.862,4.654
			c2.037,1.271,4.301,2.314,4.031,5.893c-3.587,1.654-7.608-0.398-10.854-1.861c-2.283-1.027-5.281-2.154-4.653-4.961
			c2.275-1.762,7.775-0.902,9.925,0.309C136.166,350.139,135.436,349.242,135.23,347.697z"/>
		<path fill-rule="evenodd" clip-rule="evenodd" fill="#03669D" d="M139.573,359.795c1.377,12.857-17.635,11.393-15.197-0.621
			c0.288-1.42,1.384-2.201,2.171-3.721C130.55,357.238,134.464,359.113,139.573,359.795z"/>
		<path fill-rule="evenodd" clip-rule="evenodd" fill="#03669D" d="M151.669,364.447c1.861,0,3.722,0,5.583,0
			c0.55,3.689,1.115,7.361,1.241,11.477c-2.688,0-5.376,0-8.064,0C150.801,372.057,151.21,368.227,151.669,364.447z"/>
		<path fill-rule="evenodd" clip-rule="evenodd" fill="#03669D" d="M122.514,380.887c-0.783,0.975-1.283,2.232-1.551,3.721
			c-1.534-0.645-3.744-1.176-5.584-0.619c1.288-5.746,4.171-9.891,8.375-12.719c5.272,0,10.546,0,15.818,0
			c3.104,3.914,5.985,8.33,10.546,11.168c0.022,2.045-0.146,4.281,0.311,5.893c-3.99-1.076-6.396-3.734-9.306-5.893
			c0,10.512,0,23.994,0,35.668c0,6.174,1.595,14.197-4.652,13.648c-5.399-0.475-3.722-9.66-3.722-17.371
			c0-4.043,0.109-7.518,0-11.475c-0.027-0.996,0.531-2.781-0.62-3.102c-1.627-0.066-0.886,1.967-0.931,2.791
			c-0.188,3.418,0,7.189,0,11.166c0,7.223,2.121,18.348-4.652,17.99c-4.494-0.238-4.032-5.059-4.032-11.477
			c0-3.195-0.225-6.533,0-8.994c0.137-1.496,0.638-2.705,0.62-4.033c-0.024-1.832-1.097-4.531-0.62-6.203
			c0.68-2.379,3.727-2.859,4.342-5.893c0.969-4.777-1.467-7.674-4.342-9.926C122.514,383.781,122.514,382.334,122.514,380.887z"/>
		<path fill-rule="evenodd" clip-rule="evenodd" fill="#03669D" d="M158.494,377.164c-0.349,15.242-1.524,31.188-2.172,45.904
			c-0.117,2.666-0.174,5.426,0.311,7.756c-1.367,0.553-2.702,0.756-4.032,0c0.101-16.309-1.692-35.885-2.171-53.66
			C153.118,377.164,155.805,377.164,158.494,377.164z"/>
		<path fill-rule="evenodd" clip-rule="evenodd" fill="#03669D" d="M125.304,397.635c-1.219,1.742-3.239,1.42-3.721,3.412
			c-0.534,2.217,1.811,5.352,1.241,8.064c-0.812,3.865-6.216,4.293-9.305,2.172c-6.072-4.168-8.483-22.148-0.621-26.055
			c6.771-3.361,16.723,3.088,12.717,11.477C125.525,396.895,125.461,397.41,125.304,397.635z M117.242,387.09
			c-0.551,2.707,2.691,3.922,4.342,2.48C122.002,386.877,118.828,385.895,117.242,387.09z M111.347,393.293
			c3.395,0.631,4.439-3.264,2.793-4.963C111.298,388.01,109.87,391.213,111.347,393.293z M111.968,402.287
			c1.695-0.504,1.882-5.172-0.31-5.271C109.266,397.449,109.941,401.971,111.968,402.287z M114.759,405.701
			c-3.057-0.104-1.635,4.355,1.861,4.031C118.044,408.01,115.993,405.742,114.759,405.701z"/>
	</g>
	<g>
		<rect x="66.63" y="405.342" fill-rule="evenodd" clip-rule="evenodd" fill="#FFFFFF" width="35.77" height="23.725"/>
		<rect x="74.912" y="387.398" fill-rule="evenodd" clip-rule="evenodd" fill="#FFFFFF" width="16.229" height="13.447"/>
		<g>
			<path fill-rule="evenodd" clip-rule="evenodd" fill="#03669D" d="M55.699,348.178c12.165-1.473,11.771,16.961,0.332,16.232
				C46.8,363.822,45.555,349.408,55.699,348.178z"/>
			<path fill-rule="evenodd" clip-rule="evenodd" fill="#03669D" d="M66.63,373.686c-0.162,9.553,0.359,19.793-0.332,28.816
				c-7.155-0.689-5.961,5.213-5.961,13.58c0,6.887-0.654,12.906,1.654,15.238c-2.587,0.27-3.121-1.516-4.305-2.65
				c-0.449-9.025,0.595-19.029,0-28.486c-0.057-0.883,0.623-2.873-0.994-2.982c-1.251,0.541-0.638,2.371-0.662,3.314
				c-0.234,8.459,0.175,18.637,0,27.492c-0.858,2.984-5.447,4.592-7.95,2.318c-2.012-1.826-1.325-7.977-1.325-12.918
				c0-13.871,0-30.482,0-42.398c-1.799,0.773-2.982,3.949-3.312,6.625c-0.774,6.264,2.095,14.244,0.994,18.881
				c-6.392,4.324-7.45-11.326-6.956-18.219c0.438-6.127,2.966-10.445,5.3-12.588c3.226-2.961,7.76-2.98,14.243-2.98
				c9.882,0,13.689,0.949,18.88,6.957c1.896,2.191,3.904,5.586,5.3,8.279c1.658,3.199,3.625,8.215-0.33,8.613
				c-3.636,0.365-5.245-6.643-6.626-8.943C71.99,377.869,69.75,375.664,66.63,373.686z"/>
			<path fill-rule="evenodd" clip-rule="evenodd" fill="#03669D" d="M76.898,387.928c0.942,1.531-1.465,1-1.656,2.318
				c0.148,2.721-0.34,6.082,0.332,8.281c4.277,0.352,11.5,0.945,15.236-0.332c0.734-2.135,0.139-5.602,0.331-8.281
				c-0.925-2.055-6.02,0.059-7.287-1.654c0.426-2.453,5.646-1.098,7.618-0.994c2.836,2.262,3.113,12.094-0.331,13.58
				c-0.973,0.42-2.208,0.24-3.312,0.332c-0.62,0.051-2.264-0.623-2.65,0.662c-0.394,2.15,2.57,1.266,3.644,1.324
				c4.266,0.234,9.963-0.174,14.243,0c3.129,0.688,2.319,8.535,2.319,12.918c0,5.021,1.114,13.393-1.988,14.906
				c-2.183,1.064-6.792,0.332-10.601,0.332c-8.467,0-12.436,0-21.198,0c-3.954,0-8.048,0.562-9.606-0.994
				c-2.042-2.043-0.993-9.408-0.993-11.924c0-4.926,0-8.68,0-12.92c0.76-0.453,1.065-1.363,1.656-1.986
				c0.995-0.441,2.534-0.336,3.976-0.332c0.938,0.055-0.276-2.041,0.662-1.986c1.104,0,2.207,0,3.312,0
				c1.197-0.314,0.463,1.305,0.663,1.986c1.493-0.057,3.602,0.074,5.631,0c1.648-0.061,4.439,0.77,4.306-1.324
				c-1.332-1.551-3.913-0.119-5.962-0.994c-1.725-0.736-3.541-6.668-2.318-10.932C73.378,388.33,75.679,385.928,76.898,387.928z
				 M95.448,411.115c1.986,0,3.975,0,5.962,0c0-1.326,0-2.65,0-3.977c-1.987,0-3.976,0-5.962,0
				C95.448,408.465,95.448,409.789,95.448,411.115z M74.248,419.395c1.761,9.176,15.288,8.037,17.556,0.994
				c2.559-7.943-3.847-13.102-10.269-11.924C76.692,409.354,73.092,413.365,74.248,419.395z"/>
			<path fill-rule="evenodd" clip-rule="evenodd" fill="#03669D" d="M81.535,411.445c3.483-0.873,6.341,0.613,7.288,2.98
				c4.306,10.76-14.565,11.92-11.593,0.664C77.483,414.131,79.313,412.002,81.535,411.445z"/>
		</g>
	</g>
</g>
</svg>
