<?xml version="1.0" encoding="utf-8"?>
<!-- Generator: Adobe Illustrator 15.0.0, SVG Export Plug-In . SVG Version: 6.00 Build 0)  -->
<!DOCTYPE svg PUBLIC "-//W3C//DTD SVG 1.1//EN" "http://www.w3.org/Graphics/SVG/1.1/DTD/svg11.dtd">
<svg version="1.1" id="Layer_1" xmlns="http://www.w3.org/2000/svg" xmlns:xlink="http://www.w3.org/1999/xlink" x="0px" y="0px"
	 width="455.783px" height="85.034px" viewBox="0 0 455.783 85.034" enable-background="new 0 0 455.783 85.034"
	 xml:space="preserve">
<g>
	<g>
		<defs>
			<polygon id="SVGID_1_" points="314.165,48.281 366.711,48.281 347.139,28.377 366.711,8.141 314.165,8.141 			"/>
		</defs>
		<clipPath id="SVGID_2_">
			<use xlink:href="#SVGID_1_"  overflow="visible"/>
		</clipPath>
		
			<linearGradient id="SVGID_3_" gradientUnits="userSpaceOnUse" x1="-166.0918" y1="348.5" x2="-165.3936" y2="348.5" gradientTransform="matrix(-75.2354 0 0 -75.2354 -12129.2344 26247.7988)">
			<stop  offset="0" style="stop-color:#BC1622"/>
			<stop  offset="0.2852" style="stop-color:#B91622"/>
			<stop  offset="0.5025" style="stop-color:#AF1622"/>
			<stop  offset="0.6974" style="stop-color:#9F1622"/>
			<stop  offset="0.878" style="stop-color:#881621"/>
			<stop  offset="1" style="stop-color:#741621"/>
		</linearGradient>
		<rect x="314.165" y="8.141" clip-path="url(#SVGID_2_)" fill="url(#SVGID_3_)" width="52.547" height="40.141"/>
	</g>
	<rect x="3.29" y="2.867" fill="#E41922" width="329.848" height="40.14"/>
	<g>
		<path fill="#FFFFFF" d="M23.206,12.631h20.69v12.415H27.343v8.276h-4.138V12.631z M39.758,20.907V16.77H27.343v4.138H39.758z"/>
		<path fill="#FFFFFF" d="M47.24,12.631h20.69v20.691h-4.138v-8.276H51.377v8.276H47.24V12.631z M63.792,20.907V16.77H51.377v4.138
			H63.792z"/>
		<path fill="#FFFFFF" d="M91.965,33.322h-4.138v-8.276H75.413v8.276h-4.138V12.631h20.69v8.276h-4.138v4.139h4.138V33.322z
			 M87.761,20.907V16.77H75.413v4.138H87.761z"/>
		<path fill="#FFFFFF" d="M95.309,12.631H116v20.691h-4.138v-8.276H99.447v8.276h-4.138V12.631z M111.862,20.907V16.77H99.447v4.138
			H111.862z"/>
		<path fill="#FFFFFF" d="M130.964,12.631h20.69v12.415h-16.553v8.276h-4.138V12.631z M147.517,20.907V16.77h-12.415v4.138H147.517z
			"/>
		<path fill="#FFFFFF" d="M175.689,16.77h-16.553v4.138h12.415v4.139h-12.415v4.138h16.553v4.139h-20.69V12.631h20.69V16.77z"/>
		<path fill="#FFFFFF" d="M199.724,33.322h-4.138v-8.276h-12.415v8.276h-4.138V12.631h20.69v8.276h-4.138v4.139h4.138V33.322z
			 M195.52,20.907V16.77h-12.349v4.138H195.52z"/>
		<path fill="#FFFFFF" d="M207.206,16.77v4.138h16.553v12.415h-20.69v-4.139h16.553v-4.138h-16.553V12.631h20.69v4.139H207.206z"/>
		<path fill="#FFFFFF" d="M247.793,12.631v20.691h-20.69V12.631H247.793z M243.656,29.184V16.77h-12.415v12.414H243.656z"/>
		<path fill="#FFFFFF" d="M251.137,12.631h20.69v20.691h-4.138V16.77h-12.415v16.553h-4.138V12.631z"/>
		<path fill="#FFFFFF" d="M275.172,12.631h20.69v20.691h-4.138v-8.276H279.31v8.276h-4.138V12.631z M291.725,20.907V16.77H279.31
			v4.138H291.725z"/>
		<path fill="#FFFFFF" d="M303.344,16.77v4.138h16.553v12.415h-20.69v-4.139h16.553v-4.138h-16.553V12.631h20.69v4.139H303.344z"/>
	</g>
	<g>
		<path d="M33.681,53.768l-1.974,9.285c2.808-0.223,4.865-3.864,4.865-6.839c0-2.058-1.001-3.781-3.447-3.781
			c-4.504,0-7.201,2.53-7.201,6.756c0,1.418,0.362,1.641,0.39,1.891c-1.918,0-2.975-0.695-2.975-2.697
			c0-3.697,5.115-7.229,9.758-7.229c4.56,0,6.562,2.614,6.562,5.478c0,3.53-3.03,7.45-8.034,7.45h-0.14l-1.695,7.924h-4.004
			l3.781-17.682L33.681,53.768z"/>
		<path d="M44.721,69.836c2.196,0,3.531-1.223,4.921-2.808h0.945c-1.585,2.558-3.948,5.144-7.646,5.144
			c-2.613,0-4.337-1.279-4.337-4.421c0-3.197,1.807-9.897,7.506-9.897c2.475,0,3.059,1.279,3.059,2.669
			c0,3.197-3.059,5.672-6.395,5.866c-0.027,0.39-0.056,0.778-0.056,1.112C42.719,69.392,43.387,69.836,44.721,69.836z
			 M46.333,59.327c-1.418,0-2.78,2.975-3.336,5.728c2.141-0.14,4.031-2.28,4.031-4.588C47.029,59.772,46.862,59.327,46.333,59.327z"
			/>
		<path d="M55.398,58.104l-0.361,1.724c0.974-0.834,2.029-1.724,3.364-1.724c1.251,0,1.918,1.028,1.918,2.085
			c0,0.973-0.639,2.029-2.001,2.029c-1.558,0-0.779-1.835-1.613-1.835s-1.334,0.417-2.029,1.057l-2.224,10.564h-4.004l2.947-13.9
			H55.398z"/>
		<path d="M71.609,67.028c-1.446,1.668-2.975,2.725-4.254,3.476c-1.168,1.223-2.947,1.668-4.365,1.668
			c-2.835,0-4.059-1.863-4.059-3.559c0-1.279,0.723-2.225,1.474-2.586c1.557-2.752,2.558-5.505,3.419-8.229l4.115-0.556
			c0.334,7.201,0.611,8.285,0.611,10.12c0,0.389-0.027,0.723-0.111,1.057c0.751-0.445,1.474-0.945,2.002-1.391H71.609z
			 M61.156,68.391c-0.278,0-0.612-0.083-0.751-0.361c0,1.307,0.473,1.946,1.695,1.946c1.224,0,2.419-0.64,2.419-2.586
			c0-1.445-0.25-2.308-0.528-6.589c-0.556,1.808-1.334,3.476-2.252,5.255c0.361,0.167,0.64,0.5,0.64,0.973
			C62.378,67.695,61.878,68.391,61.156,68.391z"/>
		<path d="M81.09,62.302c0.111,0.056,0.223,0.056,0.306,0.056c1.279,0,3.086-0.834,4.281-1.668l0.25,0.751
			c-1.056,1.14-2.891,1.974-4.921,2.308c-0.444,5.143-3.225,8.368-6.645,8.368c-2.585,0-4.448-1.224-4.448-4.393
			c0-3.197,1.891-9.87,7.618-9.87C79.922,57.854,81.09,59.383,81.09,62.302z M78.7,63.831c-0.584-0.139-0.751-0.611-0.751-1.167
			c0-0.779,0.361-1.279,0.861-1.502c-0.055-1.168-0.333-1.612-1.056-1.612c-1.975,0-3.698,5.088-3.698,7.812
			c0,1.835,0.361,2.252,1.418,2.252C76.836,69.614,78.254,67.111,78.7,63.831z"/>
		<path d="M89.377,60.522c-1.001,0-1.751,1.168-2.168,2.559l-1.891,8.924h-4.004l2.947-13.9h4.003l-0.306,1.445
			c1.168-1.335,2.392-1.557,3.253-1.557c1.779,0,3.086,0.917,3.086,3.142c0,2.252-1.334,5.615-1.334,7.173
			c0,0.694,0.277,1.167,1.111,1.167c1.224,0,1.724-1.001,2.336-2.446h1.167c-1.557,4.56-3.697,5.144-5.171,5.144
			c-2.419,0-3.28-1.557-3.28-3.142c0-1.891,1.251-5.311,1.251-7.09C90.378,61.023,90.044,60.522,89.377,60.522z"/>
		<path d="M109.62,58.104l-2.002,9.452c-0.083,0.361-0.111,0.64-0.111,0.89c0,0.778,0.361,1.195,1.141,1.195
			c1.084,0,1.835-1.223,2.252-2.613h1.167c-1.584,4.532-4.087,5.144-5.588,5.144c-1.557,0-2.558-0.89-2.725-2.558
			c-0.861,1.278-2.168,2.558-4.143,2.558c-1.891,0-3.697-1.168-3.697-4.477c0-3.753,2.308-9.73,7.145-9.73
			c1.585,0,2.252,0.612,2.252,1.418v0.194l0.307-1.473H109.62z M100.028,67.307c0,2.141,0.89,2.168,1.391,2.168
			c0.806,0,1.974-0.834,2.308-2.446l1.334-6.283c0-0.333-0.25-1.057-1.14-1.057C101.557,59.688,100.028,64.693,100.028,67.307z"/>
		<path d="M118.879,57.242c0.333,7.201,0.611,8.285,0.611,10.12c0,3.614-3.28,4.81-5.561,4.81c-2.835,0-4.059-1.863-4.059-3.559
			c0-1.279,0.723-2.225,1.474-2.586c1.557-2.752,2.558-5.505,3.42-8.229L118.879,57.242z M112.095,68.391
			c-0.277,0-0.611-0.083-0.75-0.361c0,1.307,0.473,1.946,1.695,1.946c1.224,0,2.419-0.64,2.419-2.586
			c0-1.445-0.25-2.308-0.528-6.589c-0.556,1.808-1.334,3.476-2.252,5.255c0.361,0.167,0.64,0.5,0.64,0.973
			C113.319,67.695,112.819,68.391,112.095,68.391z"/>
		<path d="M133.394,60.467c0-0.694-0.25-1.14-0.778-1.14c-1.751,0-3.559,5.088-3.559,8.174c0,1.891,0.668,2.335,2.002,2.335
			c2.196,0,3.531-1.223,4.921-2.808h0.945c-1.585,2.558-3.948,5.144-7.646,5.144c-2.613,0-4.337-1.279-4.337-4.421
			c0-3.225,1.835-9.897,7.479-9.897c2.475,0,3.086,1.279,3.086,2.559c0,1.361-0.667,2.029-1.474,2.029
			c-0.306,0-0.64-0.111-0.973-0.334C133.284,61.496,133.394,60.939,133.394,60.467z"/>
		<path d="M146.629,62.302c0.111,0.056,0.223,0.056,0.306,0.056c1.279,0,3.086-0.834,4.281-1.668l0.25,0.751
			c-1.056,1.14-2.891,1.974-4.921,2.308c-0.444,5.143-3.225,8.368-6.645,8.368c-2.585,0-4.448-1.224-4.448-4.393
			c0-3.197,1.891-9.87,7.618-9.87C145.461,57.854,146.629,59.383,146.629,62.302z M144.239,63.831
			c-0.584-0.139-0.751-0.611-0.751-1.167c0-0.779,0.361-1.279,0.861-1.502c-0.055-1.168-0.333-1.612-1.056-1.612
			c-1.975,0-3.698,5.088-3.698,7.812c0,1.835,0.361,2.252,1.418,2.252C142.375,69.614,143.793,67.111,144.239,63.831z"/>
		<path d="M154.916,60.522c-1.001,0-1.751,1.168-2.168,2.559l-1.891,8.924h-4.004l2.947-13.9h4.003l-0.306,1.445
			c1.168-1.335,2.392-1.557,3.253-1.557c1.779,0,3.086,0.917,3.086,3.142c0,2.252-1.334,5.615-1.334,7.173
			c0,0.694,0.277,1.167,1.111,1.167c0.473,0,0.751-0.056,0.918-0.166c-0.25,2.001-1.585,2.863-3.059,2.863
			c-2.141,0-2.808-1.557-2.808-3.142c0-1.891,1.251-5.311,1.251-7.09C155.917,61.023,155.583,60.522,154.916,60.522z"/>
		<path d="M172.907,72.005h-4.004l4.031-18.877c-2.419,1.001-3.893,3.086-3.893,6.061c0,1.418,0.362,1.641,0.39,1.891
			c-1.918,0-2.975-0.695-2.975-2.697c0-3.697,5.115-7.229,9.758-7.229c0.39,0,0.751,0.028,1.112,0.056L172.907,72.005z"/>
		<path d="M191.091,52.544l-3.197,15.013c-0.084,0.361-0.111,0.64-0.111,0.89c0,0.778,0.361,1.028,1.14,1.028
			c1.084,0,1.835-1.056,2.252-2.446h1.168c-1.585,4.532-4.087,4.977-5.588,4.977c-1.502,0-2.503-0.834-2.725-2.391
			c-0.834,1.278-2.141,2.558-4.115,2.558c-1.891,0-3.697-1.168-3.697-4.477c0-3.753,2.308-9.73,7.145-9.73
			c1.585,0,2.252,0.612,2.252,1.418v0.111l1.362-6.395L191.091,52.544z M184.001,67.028l1.362-6.366
			c-0.056-0.334-0.306-0.974-1.14-0.974c-2.363,0-3.893,5.005-3.893,7.618c0,2.141,0.89,2.168,1.391,2.168
			c0.778,0,1.918-0.778,2.279-2.308V67.028z"/>
		<path d="M196.792,69.836c2.196,0,3.531-1.223,4.921-2.808h0.945c-1.585,2.558-3.948,5.144-7.646,5.144
			c-2.613,0-4.337-1.279-4.337-4.421c0-3.197,1.807-9.897,7.506-9.897c2.475,0,3.059,1.279,3.059,2.669
			c0,3.197-3.059,5.672-6.395,5.866c-0.027,0.39-0.056,0.778-0.056,1.112C194.791,69.392,195.458,69.836,196.792,69.836z
			 M198.405,59.327c-1.418,0-2.78,2.975-3.336,5.728c2.141-0.14,4.031-2.28,4.031-4.588C199.1,59.772,198.933,59.327,198.405,59.327
			z"/>
		<path d="M214.92,58.104l-2.002,9.452c-0.083,0.361-0.111,0.64-0.111,0.89c0,0.778,0.361,1.195,1.141,1.195
			c1.084,0,1.835-1.223,2.252-2.613h1.167c-1.584,4.532-4.087,5.144-5.588,5.144c-1.557,0-2.558-0.89-2.725-2.558
			c-0.861,1.278-2.168,2.558-4.143,2.558c-1.891,0-3.697-1.168-3.697-4.477c0-3.753,2.308-9.73,7.145-9.73
			c1.585,0,2.252,0.612,2.252,1.418v0.194l0.307-1.473H214.92z M205.329,67.307c0,2.141,0.89,2.168,1.391,2.168
			c0.806,0,1.974-0.834,2.308-2.446l1.334-6.283c0-0.333-0.25-1.057-1.14-1.057C206.858,59.688,205.329,64.693,205.329,67.307z"/>
		<path d="M224.181,57.242c0.334,7.201,0.611,8.285,0.611,10.12c0,3.614-3.28,4.81-5.561,4.81c-2.835,0-4.059-1.863-4.059-3.559
			c0-1.279,0.723-2.225,1.474-2.586c1.557-2.752,2.558-5.505,3.419-8.229L224.181,57.242z M217.398,68.391
			c-0.278,0-0.612-0.083-0.751-0.361c0,1.307,0.473,1.946,1.695,1.946c1.224,0,2.419-0.64,2.419-2.586
			c0-1.445-0.25-2.308-0.528-6.589c-0.556,1.808-1.334,3.476-2.252,5.255c0.361,0.167,0.64,0.5,0.64,0.973
			C218.621,67.695,218.121,68.391,217.398,68.391z"/>
	</g>
</g>
</svg>
