<?xml version="1.0" encoding="utf-8"?>
<!-- Generator: Adobe Illustrator 15.0.0, SVG Export Plug-In . SVG Version: 6.00 Build 0)  -->
<!DOCTYPE svg PUBLIC "-//W3C//DTD SVG 1.1//EN" "http://www.w3.org/Graphics/SVG/1.1/DTD/svg11.dtd">
<svg version="1.1" id="Layer_1" xmlns="http://www.w3.org/2000/svg" xmlns:xlink="http://www.w3.org/1999/xlink" x="0px" y="0px"
	 width="455.783px" height="85.034px" viewBox="0 0 455.783 85.034" enable-background="new 0 0 455.783 85.034"
	 xml:space="preserve">
<g>
	<g>
		<defs>
			<polygon id="SVGID_1_" points="88.555,57.987 36.008,57.987 55.58,38.083 36.008,17.847 88.555,17.847 			"/>
		</defs>
		<linearGradient id="SVGID_2_" gradientUnits="userSpaceOnUse" x1="36.0083" y1="37.917" x2="88.5552" y2="37.917">
			<stop  offset="0.1104" style="stop-color:#1191B6"/>
			<stop  offset="1" style="stop-color:#086079"/>
		</linearGradient>
		<use xlink:href="#SVGID_1_"  overflow="visible" fill="url(#SVGID_2_)"/>
		<clipPath id="SVGID_3_">
			<use xlink:href="#SVGID_1_"  overflow="visible"/>
		</clipPath>
		
			<linearGradient id="SVGID_4_" gradientUnits="userSpaceOnUse" x1="-166.7256" y1="348.373" x2="-166.0273" y2="348.373" gradientTransform="matrix(75.2349 0 0 -75.2349 12579.6406 26247.709)">
			<stop  offset="0.1104" style="stop-color:#1191B6"/>
			<stop  offset="1" style="stop-color:#086079"/>
		</linearGradient>
		<rect x="36.008" y="17.847" clip-path="url(#SVGID_3_)" fill="url(#SVGID_4_)" width="52.547" height="40.141"/>
	</g>
	<polygon fill="#261622" points="88.555,57.987 69.645,45.713 69.645,5.573 88.555,17.847 	"/>
	<g>
		<defs>
			<polygon id="SVGID_5_" points="368.52,57.987 421.067,57.987 401.495,38.083 421.067,17.847 368.52,17.847 			"/>
		</defs>
		<linearGradient id="SVGID_6_" gradientUnits="userSpaceOnUse" x1="368.52" y1="37.917" x2="421.0669" y2="37.917">
			<stop  offset="0.1104" style="stop-color:#1191B6"/>
			<stop  offset="1" style="stop-color:#086079"/>
		</linearGradient>
		<use xlink:href="#SVGID_5_"  overflow="visible" fill="url(#SVGID_6_)"/>
		<clipPath id="SVGID_7_">
			<use xlink:href="#SVGID_5_"  overflow="visible"/>
		</clipPath>
		
			<linearGradient id="SVGID_8_" gradientUnits="userSpaceOnUse" x1="-166.8145" y1="348.3711" x2="-166.1162" y2="348.3711" gradientTransform="matrix(-75.2354 0 0 -75.2354 -12129.2344 26247.7988)">
			<stop  offset="0.1104" style="stop-color:#1191B6"/>
			<stop  offset="1" style="stop-color:#086079"/>
		</linearGradient>
		<rect x="368.52" y="17.847" clip-path="url(#SVGID_7_)" fill="url(#SVGID_8_)" width="52.547" height="40.141"/>
	</g>
	<polygon fill="#261622" points="368.52,57.987 387.428,45.713 387.428,5.573 368.52,17.847 	"/>
	<rect x="69.645" y="5.573" fill="#1191B6" width="317.848" height="40.14"/>
	<g>
		<path fill="#FFFFFF" d="M102.431,20.063H84.937v4.374h13.12v4.374h-13.12v4.374h17.494v4.374H80.563V15.69h21.867V20.063z"/>
		<path fill="#FFFFFF" d="M110.338,20.063v4.374h17.494v13.121h-21.867v-4.374h17.494v-4.374h-17.494V15.69h21.867v4.374H110.338z"
			/>
		<path fill="#FFFFFF" d="M153.233,15.69v4.374h-8.747v17.494h-4.374V20.063h-8.747V15.69H153.233z"/>
		<path fill="#FFFFFF" d="M178.634,15.69v21.868h-21.867V15.69H178.634z M174.261,33.184V20.063h-13.12v13.121H174.261z"/>
		<path fill="#FFFFFF" d="M211.943,15.69h4.373v21.868h-4.373v-8.747h-13.121v8.747h-4.373V15.69h4.373v8.747h13.121V15.69z"/>
		<path fill="#FFFFFF" d="M219.851,15.69h21.867v21.868h-4.373v-8.747h-13.121v8.747h-4.373V15.69z M237.344,24.437v-4.374h-13.121
			v4.374H237.344z"/>
		<path fill="#FFFFFF" d="M267.12,20.063h-17.494v13.121h17.494v4.374h-21.867V15.69h21.867V20.063z"/>
		<path fill="#FFFFFF" d="M292.52,20.063h-17.494v4.374h13.121v4.374h-13.121v4.374h17.494v4.374h-21.867V15.69h21.867V20.063z"/>
		<path fill="#FFFFFF" d="M296.053,15.69h30.615v21.868h-4.373V20.063h-8.748v17.494h-4.373V20.063h-8.748v17.494h-4.373V15.69z"/>
		<path fill="#FFFFFF" d="M352.069,15.69v21.868h-21.867V15.69H352.069z M347.696,33.184V20.063h-13.121v13.121H347.696z"/>
		<path fill="#FFFFFF" d="M359.977,20.063v4.374h17.494v13.121h-21.867v-4.374h17.494v-4.374h-17.494V15.69h21.867v4.374H359.977z"
			/>
	</g>
</g>
<g>
	<path d="M170,67.035c-1.061,2.681-3.881,3.721-5.701,3.721c-2.961,0-4.381-1.32-4.381-4.921c0-3.621,1.741-10.402,6.981-10.402
		c1.881,0,3.341,0.74,3.341,2.681c0,1.06-0.38,1.84-1.4,1.84c-0.32,0-0.76-0.08-1.14-0.52c0.48-0.24,0.92-1.081,0.92-1.841
		c0-0.64-0.32-1.221-1.22-1.221c-2.201,0-4.161,5.262-4.161,9.343c0,1.84,0.48,3.12,2.4,3.12c1.561,0,2.981-0.76,3.901-2L170,67.035
		z"/>
	<path d="M173.918,60.434l-0.26,1.24c0.7-0.601,1.46-1.24,2.42-1.24c0.9,0,1.38,0.74,1.38,1.5c0,0.7-0.46,1.461-1.44,1.461
		c-1.121,0-0.561-1.32-1.161-1.32s-0.96,0.3-1.46,0.76l-1.601,7.602h-2.88l2.12-10.002H173.918z"/>
	<path d="M181.538,68.875c1.581,0,2.541-0.88,3.541-2.021h0.68c-1.141,1.841-2.841,3.701-5.501,3.701
		c-1.88,0-3.121-0.92-3.121-3.181c0-2.301,1.3-7.122,5.401-7.122c1.78,0,2.2,0.921,2.2,1.921c0,2.301-2.2,4.081-4.601,4.221
		c-0.02,0.28-0.04,0.561-0.04,0.801C180.098,68.555,180.578,68.875,181.538,68.875z M182.698,61.313c-1.02,0-2,2.141-2.4,4.121
		c1.541-0.101,2.901-1.641,2.901-3.301C183.199,61.634,183.079,61.313,182.698,61.313z"/>
	<path d="M194.879,60.434l-1.44,6.801c-0.06,0.261-0.08,0.461-0.08,0.641c0,0.561,0.26,0.86,0.82,0.86c0.78,0,1.32-0.88,1.62-1.881
		h0.84c-1.141,3.261-2.941,3.701-4.021,3.701c-1.12,0-1.84-0.641-1.96-1.841c-0.62,0.921-1.561,1.841-2.98,1.841
		c-1.36,0-2.661-0.84-2.661-3.221c0-2.7,1.66-7.002,5.141-7.002c1.14,0,1.62,0.44,1.62,1.021v0.14l0.22-1.06H194.879z
		 M187.978,67.055c0,1.54,0.64,1.561,1,1.561c0.58,0,1.42-0.601,1.66-1.761l0.96-4.521c0-0.24-0.18-0.761-0.82-0.761
		C189.078,61.573,187.978,65.175,187.978,67.055z"/>
	<path d="M205.979,62.174c-0.72,0-1.26,0.84-1.561,1.841l-1.36,6.421h-2.88l1.46-6.901c0.04-0.16,0.06-0.32,0.06-0.5
		c0-0.44-0.16-0.881-0.6-0.881c-0.78,0-1.32,0.86-1.62,1.861l-1.36,6.421h-2.88l2.12-10.002h2.881l-0.22,1.04
		c0.84-0.96,1.74-1.141,2.44-1.141c1.061,0,1.84,0.48,2.061,1.721c0.96-1.48,2.041-1.7,2.781-1.7c1.28,0,2.22,0.66,2.22,2.261
		c0,1.62-0.96,4.04-0.96,5.161c0,0.5,0.2,0.84,0.8,0.84c0.88,0,1.24-0.721,1.68-1.761h0.84c-1.121,3.281-2.661,3.701-3.721,3.701
		c-1.74,0-2.36-1.12-2.36-2.261c0-1.36,0.9-3.82,0.9-5.101C206.699,62.534,206.459,62.174,205.979,62.174z"/>
	<path d="M225.16,59.813c0.24,5.181,0.44,5.961,0.44,7.281c0,2.601-1.88,3.461-3.521,3.461c-2.38,0-2.781-1.44-2.781-2.661
		c0-1.18,0.74-1.9,1.44-1.9c0.68,0,1.04,0.261,1.04,0.841c0,0.479-0.44,0.9-0.96,0.9c-0.2,0-0.44-0.061-0.54-0.261
		c0,0.94,0.4,1.501,1.16,1.501c0.88,0,1.26-0.46,1.26-1.86c0-1.121-0.22-1.741-0.44-5.441c-0.98,1.48-2.121,2.38-3.361,2.761
		c-0.28,3.74-2.261,6.081-4.741,6.081c-1.86,0-3.201-0.88-3.201-3.161c0-2.3,1.3-7.102,5.421-7.102c1.7,0,2.541,1.081,2.561,3.142
		c1.02-0.061,2.121-1.221,3.261-3.182L225.16,59.813z M217.218,64.574c-0.32-0.12-0.48-0.4-0.48-0.9c0-0.54,0.22-0.88,0.56-1.04
		c-0.04-0.84-0.26-1.16-0.76-1.16c-1.42,0-2.601,3.661-2.601,5.621c0,1.32,0.26,1.62,1.02,1.62
		C215.938,68.715,216.918,66.915,217.218,64.574z"/>
	<path d="M239.938,60.434l-1.439,6.801c-0.061,0.261-0.08,0.461-0.08,0.641c0,0.561,0.26,0.86,0.82,0.86
		c0.779,0,1.319-0.88,1.62-1.881h0.84c-1.141,3.261-2.94,3.701-4.021,3.701c-1.12,0-1.841-0.641-1.961-1.841
		c-0.62,0.921-1.561,1.841-2.98,1.841c-1.36,0-2.66-0.84-2.66-3.221c0-2.7,1.66-7.002,5.141-7.002c1.141,0,1.62,0.44,1.62,1.021
		v0.14l0.221-1.06H239.938z M233.037,67.055c0,1.54,0.641,1.561,1.001,1.561c0.58,0,1.42-0.601,1.66-1.761l0.96-4.521
		c0-0.24-0.18-0.761-0.82-0.761C234.137,61.573,233.037,65.175,233.037,67.055z"/>
	<path d="M245.458,59.693l-0.32,1.5c0.58-0.5,1.34-0.86,2.34-0.86c1.36,0,2.441,0.78,2.441,3.161c0,2.7-1.041,7.062-4.922,7.062
		c-1,0-1.479-0.34-1.7-0.721l-1.04,4.882l-3.021,0.72l3.341-15.743H245.458z M247.177,63.434c0-1.54-0.64-1.66-1-1.66
		c-0.44,0-1,0.34-1.38,0.98l-1.181,5.602c0.08,0.22,0.3,0.46,0.76,0.46C246.477,68.815,247.177,65.314,247.177,63.434z"/>
	<path d="M255.017,59.693l-0.32,1.5c0.58-0.5,1.34-0.86,2.341-0.86c1.36,0,2.44,0.78,2.44,3.161c0,2.7-1.04,7.062-4.921,7.062
		c-1.001,0-1.48-0.34-1.701-0.721l-1.04,4.882l-3.021,0.72l3.341-15.743H255.017z M256.737,63.434c0-1.54-0.64-1.66-1-1.66
		c-0.44,0-1,0.34-1.38,0.98l-1.181,5.602c0.08,0.22,0.3,0.46,0.761,0.46C256.037,68.815,256.737,65.314,256.737,63.434z"/>
	<path d="M266.017,59.813c0.24,5.181,0.439,5.961,0.439,7.281c0,2.601-2.36,3.461-4,3.461c-2.041,0-2.921-1.341-2.921-2.561
		c0-0.92,0.52-1.601,1.06-1.86c1.121-1.98,1.841-3.961,2.461-5.922L266.017,59.813z M261.136,67.835c-0.2,0-0.44-0.06-0.541-0.26
		c0,0.94,0.341,1.4,1.221,1.4s1.74-0.46,1.74-1.86c0-1.041-0.18-1.661-0.38-4.741c-0.4,1.3-0.96,2.5-1.62,3.78
		c0.26,0.12,0.46,0.36,0.46,0.7C262.016,67.335,261.656,67.835,261.136,67.835z"/>
	<path d="M268.976,70.436c-0.88,0-1.601-0.72-1.601-1.601c0-0.88,0.721-1.58,1.601-1.58s1.58,0.7,1.58,1.58
		C270.556,69.716,269.856,70.436,268.976,70.436z M268.656,65.814l1.421-9.382h2.88l-2.601,9.382H268.656z"/>
	<path d="M274.316,70.436c-0.88,0-1.601-0.72-1.601-1.601c0-0.88,0.721-1.58,1.601-1.58s1.58,0.7,1.58,1.58
		C275.896,69.716,275.196,70.436,274.316,70.436z M273.996,65.814l1.42-9.382h2.881l-2.601,9.382H273.996z"/>
	<path d="M279.656,70.436c-0.881,0-1.601-0.72-1.601-1.601c0-0.88,0.72-1.58,1.601-1.58c0.88,0,1.58,0.7,1.58,1.58
		C281.236,69.716,280.536,70.436,279.656,70.436z M279.335,65.814l1.42-9.382h2.881l-2.601,9.382H279.335z"/>
</g>
</svg>
