<?xml version="1.0" encoding="utf-8"?>
<!-- Generator: Adobe Illustrator 15.0.0, SVG Export Plug-In . SVG Version: 6.00 Build 0)  -->
<!DOCTYPE svg PUBLIC "-//W3C//DTD SVG 1.1//EN" "http://www.w3.org/Graphics/SVG/1.1/DTD/svg11.dtd">
<svg version="1.1" id="Layer_1" xmlns="http://www.w3.org/2000/svg" xmlns:xlink="http://www.w3.org/1999/xlink" x="0px" y="0px"
	 width="382.994px" height="106.803px" viewBox="0 0 382.994 106.803" enable-background="new 0 0 382.994 106.803"
	 xml:space="preserve">
<g>
	<g>
		<defs>
			<polygon id="SVGID_1_" points="320.519,103.679 373.066,103.679 353.494,83.774 373.066,63.538 320.519,63.538 			"/>
		</defs>
		<linearGradient id="SVGID_2_" gradientUnits="userSpaceOnUse" x1="320.519" y1="83.6084" x2="373.0659" y2="83.6084">
			<stop  offset="0.1104" style="stop-color:#1191B6"/>
			<stop  offset="1" style="stop-color:#086079"/>
		</linearGradient>
		<use xlink:href="#SVGID_1_"  overflow="visible" fill="url(#SVGID_2_)"/>
		<clipPath id="SVGID_3_">
			<use xlink:href="#SVGID_1_"  overflow="visible"/>
		</clipPath>
		
			<linearGradient id="SVGID_4_" gradientUnits="userSpaceOnUse" x1="-166.1763" y1="369.8213" x2="-165.478" y2="369.8213" gradientTransform="matrix(-75.2354 0 0 -75.2354 -12129.2344 27907.332)">
			<stop  offset="0.1104" style="stop-color:#1191B6"/>
			<stop  offset="1" style="stop-color:#086079"/>
		</linearGradient>
		<rect x="320.519" y="63.538" clip-path="url(#SVGID_3_)" fill="url(#SVGID_4_)" width="52.547" height="40.141"/>
	</g>
	<rect x="4.644" y="58.265" fill="#1191B6" width="334.848" height="40.14"/>
	<g>
		<path fill="#FFFFFF" d="M24.56,68.028h20.69v12.415H28.698v8.276H24.56V68.028z M41.113,76.305v-4.138H28.698v4.138H41.113z"/>
		<path fill="#FFFFFF" d="M48.594,68.028h20.69V88.72h-4.138v-8.276H52.732v8.276h-4.138V68.028z M65.147,76.305v-4.138H52.732
			v4.138H65.147z"/>
		<path fill="#FFFFFF" d="M93.32,88.72h-4.138v-8.276H76.767v8.276h-4.138V68.028h20.69v8.276h-4.138v4.139h4.138V88.72z
			 M89.116,76.305v-4.138H76.767v4.138H89.116z"/>
		<path fill="#FFFFFF" d="M96.664,68.028h20.69V88.72h-4.138v-8.276h-12.415v8.276h-4.138V68.028z M113.216,76.305v-4.138h-12.415
			v4.138H113.216z"/>
		<path fill="#FFFFFF" d="M153.009,72.167h-16.553v4.138h12.415v4.139h-12.415v4.138h16.553v4.139h-20.69V68.028h20.69V72.167z"/>
		<path fill="#FFFFFF" d="M156.353,68.028h28.967V88.72h-4.138V72.167h-8.276V88.72h-4.139V72.167h-8.276V88.72h-4.138V68.028z"/>
		<path fill="#FFFFFF" d="M188.665,68.028h20.69v12.415h-16.553v8.276h-4.138V68.028z M205.217,76.305v-4.138h-12.415v4.138H205.217
			z"/>
		<path fill="#FFFFFF" d="M233.389,88.72h-4.138v-8.276h-12.415v8.276h-4.138V68.028h20.69v8.276h-4.138v4.139h4.138V88.72z
			 M229.185,76.305v-4.138h-12.349v4.138H229.185z"/>
		<path fill="#FFFFFF" d="M257.424,72.167h-16.553v4.138h12.415v4.139h-12.415v4.138h16.553v4.139h-20.69V68.028h20.69V72.167z"/>
		<path fill="#FFFFFF" d="M264.906,72.167v4.138h16.553V88.72h-20.69v-4.139h16.553v-4.138h-16.553V68.028h20.69v4.139H264.906z"/>
		<path fill="#FFFFFF" d="M284.803,68.028h20.69V88.72h-4.138v-8.276h-12.415v8.276h-4.138V68.028z M301.356,76.305v-4.138h-12.415
			v4.138H301.356z"/>
		<path fill="#FFFFFF" d="M312.975,72.167v4.138h16.553V88.72h-20.69v-4.139h16.553v-4.138h-16.553V68.028h20.69v4.139H312.975z"/>
	</g>
	<path fill="#1191B6" d="M284.872,46.696V36.101c0-0.908-0.244-3.703-3.796-3.703c-0.051,0-0.095,0.005-0.145,0.007
		c-0.424-1.399-1.562-2.985-4.579-2.985c-4.521,0-4.83,3.558-4.83,4.715v12.562h-1.364v-2.729c0,0-0.482-0.077-1.31-0.211
		c-0.412-6.77-0.919-18.443-1.2-37.441h-3.71c-0.268,18.12-0.74,29.574-1.142,36.469c-5.872-0.945-13.657-2.203-17.086-2.771V29.734
		l-1.746-0.403v-3.917c0-1.419-0.546-5.785-8.513-5.785s-8.514,4.366-8.514,5.785v3.446c-2.529,0-5.595,0-7.312,0.001
		c-1.781-0.003-3.273,0.347-4.311,1.435c-1.015,1.1-1.252,2.538-1.256,4.131v4.225c-3.556,0.775-6.221,3.938-6.221,7.727
		c0,3.209,1.914,5.966,4.659,7.207l-1.878,4.68h1.858l1.837-4.11c0.467,0.085,0.944,0.137,1.437,0.137
		c0.456,0,0.899-0.048,1.334-0.121l1.83,4.095h1.857l-1.859-4.635c2.255-0.985,3.956-2.99,4.532-5.434v10.068h51.514v-0.082
		c0.791,0.096,1.393,0.081,1.393,0.081s0.86,0.022,1.882-0.153v0.154h10.04V46.696H284.872z M217.223,32.092
		c0.273-0.304,0.909-0.61,2.402-0.612h7.312v12.318c-2.014,0.477-3.394,0.802-3.477,0.821c-0.734-3.229-3.438-5.703-6.783-6.095
		v-4.098C216.674,33.073,216.929,32.382,217.223,32.092z M243.964,37.812l0.244,1.948c-0.18-0.032-0.265-0.048-0.244-0.048V37.812z"
		/>
	<path fill="#1191B6" d="M308.65,38.162l-3.76,0.976l-0.949-28.533c0,0-0.604-0.749-2.421-0.749c-1.815,0-2.421,0.749-2.421,0.749
		L298.092,40.9l-10.392,2.693v15.13h51.791V41.848L308.65,38.162z"/>
	<path fill="#1191B6" d="M169.622,38.162l-3.76,0.976l-0.949-3.533c0,0-0.604-0.749-2.421-0.749c-1.815,0-2.421,0.749-2.421,0.749
		l-1.007,5.296l-10.392,2.693v15.13h51.791V41.848L169.622,38.162z"/>
	<rect x="106.403" y="15.065" fill="#1191B6" width="29.333" height="43.199"/>
	<rect x="84.737" y="46.79" fill="#1191B6" width="16" height="11.475"/>
	<rect x="80.272" y="44.066" fill="#1191B6" width="24.465" height="3.724"/>
</g>
</svg>
