<?xml version="1.0" encoding="utf-8"?>
<!-- Generator: Adobe Illustrator 15.0.0, SVG Export Plug-In . SVG Version: 6.00 Build 0)  -->
<!DOCTYPE svg PUBLIC "-//W3C//DTD SVG 1.1//EN" "http://www.w3.org/Graphics/SVG/1.1/DTD/svg11.dtd">
<svg version="1.1" id="Layer_1" xmlns="http://www.w3.org/2000/svg" xmlns:xlink="http://www.w3.org/1999/xlink" x="0px" y="0px"
	 width="371.084px" height="124.596px" viewBox="0 0 371.084 124.596" enable-background="new 0 0 371.084 124.596"
	 xml:space="preserve">
<g>
	<g>
		<defs>
			<circle id="SVGID_1_" cx="60.501" cy="61.866" r="53.229"/>
		</defs>
		<clipPath id="SVGID_2_">
			<use xlink:href="#SVGID_1_"  overflow="visible"/>
		</clipPath>
		<circle clip-path="url(#SVGID_2_)" fill="#1191B6" cx="60.501" cy="61.866" r="53.229"/>
		<path clip-path="url(#SVGID_2_)" d="M73.506,32.126v-2.322c0-2.53-1.968-4.586-4.386-4.586h-0.918
			c-0.1-0.112-0.367-0.19-0.685-0.19H63.18c-0.316,0-0.584,0.078-0.684,0.19h-12.38c-2.419,0-4.384,2.056-4.384,4.586v41.659
			c0,2.528,1.965,4.587,4.384,4.587H69.12c2.418,0,4.386-2.059,4.386-4.587V37.992c0.079-0.063,0.134-0.205,0.134-0.368v-2.447
			c0-0.164-0.055-0.309-0.134-0.371v-1.079c0.116-0.007,0.209-0.094,0.209-0.198v-1.205C73.715,32.22,73.622,32.135,73.506,32.126z"
			/>
		<rect x="47.268" y="33.84" clip-path="url(#SVGID_2_)" fill="#FFFFFF" width="24.701" height="35.324"/>
		<path clip-path="url(#SVGID_2_)" fill="#F5F5F5" d="M61.666,29.778c0,0.187-0.15,0.337-0.334,0.337h-3.467
			c-0.186,0-0.337-0.15-0.337-0.337l0,0c0-0.185,0.151-0.334,0.337-0.334h3.467C61.516,29.444,61.666,29.594,61.666,29.778
			L61.666,29.778z"/>
		<path clip-path="url(#SVGID_2_)" fill="#E45224" d="M68.559,52.681c0,1.637-1.327,2.964-2.963,2.964H53.621
			c-1.638,0-2.965-1.327-2.965-2.964V40.706c0-1.637,1.327-2.963,2.965-2.963h11.975c1.636,0,2.963,1.326,2.963,2.963V52.681z"/>
		<path clip-path="url(#SVGID_2_)" fill="none" d="M68.559,52.681c0,1.637-1.327,2.964-2.963,2.964H53.621
			c-1.638,0-2.965-1.327-2.965-2.964V40.706c0-1.637,1.327-2.963,2.965-2.963h11.975c1.636,0,2.963,1.326,2.963,2.963V52.681z"/>
		<path clip-path="url(#SVGID_2_)" fill="none" d="M68.559,52.681c0,1.637-1.327,2.964-2.963,2.964H53.621
			c-1.638,0-2.965-1.327-2.965-2.964V40.706c0-1.637,1.327-2.963,2.965-2.963h11.975c1.636,0,2.963,1.326,2.963,2.963V52.681z"/>
		<path clip-path="url(#SVGID_2_)" fill="none" d="M68.559,52.681c0,1.637-1.327,2.964-2.963,2.964H53.621
			c-1.638,0-2.965-1.327-2.965-2.964V40.706c0-1.637,1.327-2.963,2.965-2.963h11.975c1.636,0,2.963,1.326,2.963,2.963V52.681z"/>
		<g clip-path="url(#SVGID_2_)">
			<defs>
				<path id="SVGID_3_" d="M68.559,52.681c0,1.637-1.327,2.964-2.963,2.964H53.621c-1.638,0-2.965-1.327-2.965-2.964V40.706
					c0-1.637,1.327-2.963,2.965-2.963h11.975c1.636,0,2.963,1.326,2.963,2.963V52.681z"/>
			</defs>
			<clipPath id="SVGID_4_">
				<use xlink:href="#SVGID_3_"  overflow="visible"/>
			</clipPath>
			<path opacity="0.2" clip-path="url(#SVGID_4_)" d="M72.143,51.413c-0.011-0.012-0.021-0.021-0.033-0.03
				c-0.01-0.013-0.021-0.023-0.031-0.033c-0.01-0.012-0.021-0.022-0.032-0.032c-0.01-0.012-0.021-0.022-0.032-0.032
				c-0.01-0.011-0.021-0.021-0.031-0.031c-0.011-0.012-0.021-0.022-0.032-0.032c-0.01-0.011-0.021-0.022-0.033-0.031
				c-0.009-0.013-0.02-0.023-0.031-0.033c-0.01-0.011-0.021-0.021-0.031-0.031s-0.021-0.022-0.032-0.032
				c-0.01-0.012-0.021-0.022-0.032-0.031c-0.01-0.013-0.021-0.022-0.032-0.033c-0.01-0.011-0.021-0.021-0.031-0.031
				c-0.011-0.011-0.021-0.022-0.033-0.032c-0.009-0.012-0.02-0.021-0.031-0.032c-0.01-0.011-0.021-0.021-0.031-0.032
				c-0.011-0.011-0.021-0.021-0.032-0.031c-0.01-0.012-0.021-0.022-0.032-0.031c-0.01-0.012-0.021-0.022-0.032-0.033
				c-0.01-0.011-0.021-0.022-0.032-0.031c-0.01-0.011-0.02-0.022-0.031-0.032c-0.011-0.012-0.02-0.022-0.032-0.032
				c-0.01-0.011-0.021-0.022-0.032-0.032c-0.01-0.011-0.021-0.022-0.032-0.031c-0.01-0.012-0.02-0.021-0.031-0.033
				c-0.01-0.011-0.021-0.021-0.032-0.03c-0.009-0.012-0.021-0.023-0.031-0.032c-0.011-0.013-0.021-0.022-0.033-0.032
				c-0.01-0.012-0.021-0.021-0.031-0.033c-0.01-0.01-0.021-0.021-0.031-0.03c-0.011-0.012-0.021-0.022-0.033-0.032
				c-0.01-0.012-0.021-0.022-0.032-0.032c-0.01-0.012-0.02-0.023-0.03-0.032c-0.012-0.011-0.021-0.022-0.032-0.031
				c-0.011-0.012-0.021-0.022-0.033-0.031c-0.01-0.013-0.021-0.023-0.032-0.033c-0.009-0.012-0.02-0.022-0.031-0.032
				c-0.01-0.012-0.021-0.022-0.032-0.031c-0.01-0.012-0.02-0.022-0.032-0.033c-0.009-0.011-0.021-0.021-0.031-0.031
				c-0.011-0.011-0.021-0.022-0.031-0.031c-0.011-0.013-0.021-0.022-0.033-0.033c-0.009-0.011-0.021-0.021-0.032-0.031
				c-0.009-0.012-0.021-0.022-0.031-0.032c-0.011-0.012-0.021-0.022-0.032-0.032c-0.01-0.011-0.02-0.021-0.031-0.031
				c-0.01-0.012-0.021-0.023-0.032-0.032c-0.011-0.011-0.021-0.022-0.033-0.032c-0.009-0.012-0.02-0.022-0.031-0.032
				c-0.01-0.011-0.021-0.021-0.031-0.031c-0.011-0.012-0.021-0.022-0.032-0.032c-0.01-0.012-0.021-0.022-0.033-0.031
				c-0.009-0.013-0.02-0.022-0.03-0.033s-0.021-0.021-0.032-0.031c-0.011-0.011-0.021-0.022-0.033-0.031
				c-0.009-0.013-0.02-0.022-0.031-0.033c-0.01-0.011-0.021-0.022-0.032-0.031c-0.01-0.012-0.021-0.022-0.032-0.032
				c-0.01-0.012-0.02-0.022-0.032-0.032c-0.009-0.011-0.021-0.021-0.03-0.032c-0.012-0.011-0.021-0.022-0.032-0.031
				c-0.012-0.013-0.021-0.022-0.033-0.032c-0.009-0.012-0.021-0.022-0.032-0.032c-0.009-0.011-0.02-0.022-0.03-0.032
				c-0.011-0.011-0.021-0.022-0.033-0.031c-0.01-0.012-0.021-0.022-0.031-0.032c-0.01-0.012-0.021-0.021-0.032-0.032
				c-0.01-0.011-0.021-0.022-0.031-0.031c-0.011-0.013-0.021-0.023-0.033-0.032c-0.01-0.012-0.021-0.022-0.031-0.033
				c-0.01-0.01-0.021-0.021-0.032-0.03c-0.01-0.012-0.021-0.023-0.032-0.032c-0.01-0.013-0.02-0.022-0.032-0.033
				c-0.01-0.011-0.021-0.022-0.031-0.031c-0.011-0.011-0.021-0.022-0.032-0.031c-0.01-0.013-0.021-0.022-0.032-0.031
				c-0.01-0.013-0.021-0.023-0.031-0.033c-0.012-0.012-0.021-0.022-0.032-0.032c-0.01-0.011-0.021-0.021-0.032-0.031
				c-0.01-0.012-0.021-0.022-0.031-0.033c-0.011-0.011-0.021-0.021-0.032-0.031c-0.012-0.011-0.021-0.022-0.033-0.031
				c-0.009-0.013-0.019-0.022-0.031-0.033c-0.01-0.011-0.021-0.021-0.031-0.031c-0.011-0.011-0.021-0.022-0.032-0.032
				c-0.01-0.012-0.021-0.022-0.032-0.031c-0.01-0.013-0.021-0.022-0.032-0.033c-0.009-0.011-0.021-0.022-0.031-0.031
				c-0.011-0.011-0.021-0.022-0.033-0.032c-0.009-0.012-0.02-0.022-0.031-0.032c-0.01-0.011-0.021-0.022-0.031-0.032
				c-0.011-0.011-0.021-0.021-0.032-0.031c-0.011-0.012-0.021-0.022-0.033-0.031c-0.009-0.013-0.021-0.023-0.03-0.033
				c-0.011-0.011-0.021-0.021-0.032-0.032s-0.021-0.021-0.032-0.03c-0.011-0.013-0.02-0.023-0.032-0.033
				c-0.01-0.012-0.021-0.022-0.032-0.032c-0.01-0.011-0.021-0.021-0.032-0.031c-0.01-0.012-0.021-0.022-0.031-0.032
				c-0.01-0.012-0.021-0.021-0.032-0.032c-0.01-0.011-0.021-0.022-0.031-0.031c-0.011-0.013-0.021-0.022-0.033-0.032
				c-0.009-0.012-0.02-0.022-0.031-0.032c-0.01-0.011-0.021-0.022-0.031-0.032c-0.011-0.012-0.021-0.022-0.033-0.031
				c-0.01-0.012-0.021-0.022-0.032-0.032c-0.009-0.012-0.02-0.022-0.031-0.032c-0.011-0.011-0.021-0.022-0.031-0.031
				c-0.011-0.013-0.021-0.022-0.033-0.033c-0.01-0.011-0.021-0.021-0.031-0.031c-0.01-0.012-0.021-0.022-0.032-0.032
				c-0.01-0.012-0.021-0.022-0.032-0.031c-0.01-0.013-0.02-0.022-0.032-0.033c-0.009-0.011-0.021-0.022-0.031-0.031
				c-0.011-0.011-0.021-0.022-0.033-0.031c-0.009-0.013-0.019-0.022-0.031-0.033c-0.009-0.011-0.021-0.021-0.032-0.031
				c-0.01-0.012-0.021-0.023-0.031-0.032c-0.01-0.012-0.021-0.021-0.033-0.031c-0.009-0.012-0.02-0.022-0.03-0.033
				c-0.01-0.011-0.021-0.022-0.032-0.031c-0.011-0.013-0.021-0.022-0.033-0.032c-0.009-0.012-0.019-0.021-0.03-0.032
				c-0.011-0.011-0.021-0.022-0.032-0.031c-0.011-0.011-0.021-0.022-0.033-0.032c-0.01-0.012-0.02-0.022-0.031-0.031
				c-0.01-0.013-0.021-0.022-0.031-0.033c-0.01-0.011-0.021-0.022-0.032-0.031c-0.011-0.012-0.021-0.022-0.033-0.032
				c-0.01-0.012-0.021-0.022-0.031-0.032c-0.01-0.011-0.021-0.022-0.031-0.032c-0.011-0.011-0.021-0.022-0.033-0.031
				c-0.01-0.012-0.02-0.022-0.032-0.033c-0.009-0.011-0.021-0.021-0.032-0.031c-0.01-0.011-0.02-0.022-0.03-0.032
				c-0.011-0.012-0.021-0.021-0.033-0.031c-0.009-0.012-0.021-0.022-0.031-0.032c-0.01-0.012-0.021-0.022-0.032-0.032
				c-0.01-0.011-0.021-0.022-0.032-0.032c-0.01-0.011-0.02-0.021-0.031-0.031c-0.011-0.012-0.021-0.021-0.032-0.032
				c-0.01-0.011-0.021-0.022-0.032-0.031c-0.01-0.013-0.021-0.023-0.032-0.032c-0.01-0.012-0.021-0.021-0.031-0.032
				c-0.01-0.011-0.021-0.022-0.032-0.031c-0.01-0.013-0.021-0.023-0.032-0.032c-0.01-0.013-0.02-0.022-0.032-0.033
				c-0.009-0.011-0.021-0.021-0.031-0.031c-0.011-0.011-0.021-0.022-0.033-0.031c-0.009-0.013-0.02-0.022-0.031-0.033
				c-0.01-0.011-0.021-0.021-0.031-0.031c-0.011-0.011-0.021-0.022-0.032-0.032c-0.011-0.012-0.021-0.022-0.033-0.032
				c-0.009-0.011-0.021-0.021-0.031-0.032c-0.01-0.011-0.021-0.022-0.031-0.031c-0.011-0.011-0.021-0.022-0.032-0.031
				c-0.01-0.013-0.02-0.022-0.032-0.033c-0.01-0.011-0.021-0.022-0.032-0.032c-0.01-0.011-0.021-0.022-0.031-0.031
				c-0.011-0.012-0.021-0.021-0.032-0.031c-0.01-0.013-0.021-0.022-0.032-0.033c-0.009-0.011-0.021-0.022-0.031-0.031
				c-0.011-0.013-0.021-0.022-0.033-0.032c-0.009-0.012-0.019-0.021-0.031-0.033c-0.01-0.01-0.021-0.021-0.031-0.03
				c-0.011-0.012-0.021-0.022-0.033-0.032c-0.01-0.012-0.021-0.022-0.032-0.032c-0.01-0.012-0.021-0.021-0.031-0.032
				s-0.021-0.022-0.031-0.031c-0.011-0.012-0.021-0.022-0.033-0.031c-0.01-0.013-0.019-0.023-0.031-0.033
				c-0.01-0.012-0.021-0.022-0.032-0.032c-0.01-0.011-0.021-0.022-0.032-0.031c-0.01-0.012-0.02-0.022-0.032-0.032
				c-0.009-0.012-0.021-0.021-0.032-0.032c-0.01-0.011-0.02-0.022-0.03-0.031c-0.011-0.013-0.021-0.022-0.033-0.032
				c-0.009-0.012-0.021-0.022-0.032-0.032c-0.009-0.012-0.021-0.022-0.031-0.032c-0.011-0.012-0.021-0.022-0.032-0.031
				c-0.01-0.012-0.02-0.022-0.031-0.032c-0.01-0.012-0.021-0.023-0.032-0.032c-0.011-0.011-0.021-0.022-0.033-0.032
				c-0.009-0.012-0.02-0.022-0.03-0.032c-0.011-0.011-0.021-0.021-0.032-0.031c-0.011-0.012-0.021-0.022-0.032-0.031
				c-0.01-0.013-0.021-0.023-0.032-0.032c-0.01-0.013-0.021-0.022-0.032-0.033c-0.009-0.011-0.021-0.021-0.031-0.031
				c-0.011-0.011-0.021-0.022-0.033-0.031c-0.009-0.013-0.02-0.022-0.031-0.033c-0.01-0.011-0.021-0.021-0.031-0.031
				c-0.012-0.012-0.021-0.022-0.032-0.032c-0.011-0.012-0.021-0.021-0.033-0.031c-0.009-0.012-0.021-0.022-0.03-0.033
				c-0.011-0.011-0.021-0.022-0.032-0.031c-0.011-0.013-0.021-0.022-0.033-0.032c-0.009-0.012-0.02-0.022-0.032-0.032
				c-0.051-0.06-0.125-0.097-0.208-0.097h-0.71c0-0.001,0-0.001,0-0.001c-0.011-0.012-0.021-0.023-0.032-0.032
				c-0.01-0.012-0.021-0.022-0.032-0.032c-0.01-0.012-0.021-0.021-0.032-0.032c-0.009-0.012-0.021-0.021-0.031-0.031
				c-0.011-0.012-0.021-0.022-0.032-0.032c-0.009-0.013-0.021-0.022-0.032-0.031c-0.009-0.013-0.021-0.022-0.031-0.032
				c-0.011-0.013-0.021-0.022-0.032-0.032c-0.01-0.012-0.021-0.022-0.032-0.031c-0.009-0.014-0.021-0.022-0.032-0.033
				c-0.009-0.012-0.02-0.021-0.031-0.031c-0.011-0.012-0.021-0.023-0.032-0.032c-0.01-0.013-0.021-0.022-0.032-0.031
				c-0.01-0.014-0.021-0.022-0.032-0.033c-0.01-0.011-0.02-0.022-0.032-0.031c-0.01-0.013-0.02-0.022-0.032-0.032
				c-0.008-0.012-0.02-0.022-0.031-0.032c-0.01-0.012-0.021-0.023-0.031-0.032c-0.011-0.011-0.021-0.021-0.033-0.031
				c-0.009-0.012-0.021-0.022-0.031-0.031c-0.009-0.013-0.021-0.023-0.031-0.033c-0.011-0.012-0.021-0.022-0.033-0.032
				c-0.009-0.012-0.02-0.021-0.032-0.031c-0.009-0.012-0.02-0.022-0.031-0.032c-0.01-0.012-0.021-0.022-0.031-0.031
				c-0.01-0.012-0.021-0.023-0.033-0.032c-0.009-0.013-0.02-0.022-0.031-0.033c-0.009-0.011-0.021-0.021-0.032-0.031
				c-0.01-0.012-0.021-0.022-0.032-0.031c-0.01-0.013-0.02-0.022-0.032-0.032c-0.009-0.012-0.02-0.022-0.031-0.032
				c-0.01-0.012-0.021-0.022-0.032-0.032c-0.01-0.013-0.02-0.022-0.032-0.031c-0.009-0.013-0.021-0.022-0.032-0.033
				c-0.01-0.011-0.02-0.021-0.03-0.031c-0.011-0.012-0.021-0.022-0.033-0.031c-0.009-0.013-0.021-0.023-0.031-0.032
				c-0.01-0.013-0.021-0.022-0.032-0.033s-0.021-0.021-0.032-0.031c-0.009-0.012-0.021-0.022-0.032-0.031
				c-0.009-0.013-0.021-0.022-0.032-0.033c-0.01-0.011-0.02-0.022-0.032-0.031c-0.009-0.012-0.02-0.023-0.031-0.032
				c-0.009-0.012-0.021-0.021-0.032-0.032c-0.009-0.011-0.021-0.021-0.031-0.031c-0.011-0.012-0.021-0.023-0.033-0.032
				c-0.009-0.013-0.019-0.022-0.031-0.032c-0.009-0.012-0.021-0.021-0.032-0.031c-0.01-0.013-0.02-0.022-0.032-0.032
				c-0.01-0.013-0.02-0.022-0.031-0.031c-0.009-0.014-0.021-0.023-0.031-0.033c-0.011-0.012-0.021-0.022-0.032-0.031
				c-0.011-0.012-0.021-0.023-0.033-0.032c-0.009-0.013-0.021-0.022-0.031-0.031c-0.01-0.013-0.021-0.023-0.031-0.033
				c-0.01-0.011-0.021-0.022-0.033-0.031c-0.009-0.013-0.02-0.022-0.032-0.032c-0.009-0.013-0.021-0.022-0.03-0.032
				c-0.011-0.012-0.021-0.023-0.032-0.032c-0.01-0.011-0.021-0.021-0.033-0.031c-0.009-0.013-0.021-0.022-0.031-0.032
				c-0.01-0.012-0.021-0.022-0.031-0.032c-0.011-0.012-0.021-0.022-0.033-0.032c-0.009-0.012-0.02-0.021-0.032-0.031
				c-0.009-0.012-0.021-0.022-0.031-0.032c-0.011-0.012-0.021-0.022-0.032-0.032c-0.009-0.011-0.02-0.022-0.032-0.031
				c-0.009-0.013-0.021-0.022-0.031-0.033s-0.021-0.021-0.032-0.031c-0.01-0.011-0.021-0.022-0.032-0.031
				c-0.01-0.013-0.021-0.023-0.031-0.032c-0.01-0.013-0.021-0.022-0.032-0.033c-0.01-0.011-0.021-0.021-0.033-0.031
				c-0.009-0.012-0.02-0.022-0.03-0.031c-0.011-0.013-0.021-0.022-0.032-0.033c-0.01-0.011-0.021-0.022-0.032-0.031
				c-0.01-0.012-0.021-0.022-0.032-0.032c-0.01-0.012-0.021-0.022-0.032-0.032c-0.009-0.012-0.021-0.021-0.031-0.032
				c-0.01-0.012-0.021-0.021-0.033-0.031c-0.009-0.012-0.02-0.022-0.031-0.031c-0.009-0.013-0.021-0.022-0.032-0.033
				c-0.01-0.012-0.02-0.022-0.032-0.031c-0.009-0.012-0.02-0.022-0.032-0.032c-0.009-0.012-0.021-0.021-0.031-0.032
				c-0.009-0.012-0.021-0.021-0.031-0.031c-0.011-0.012-0.021-0.023-0.033-0.032c-0.009-0.013-0.019-0.022-0.031-0.032
				c-0.01-0.012-0.021-0.021-0.032-0.032c-0.01-0.011-0.021-0.022-0.033-0.031c-0.009-0.013-0.019-0.022-0.031-0.032
				c-0.008-0.012-0.02-0.022-0.031-0.032c-0.01-0.012-0.021-0.022-0.031-0.032c-0.011-0.011-0.021-0.022-0.033-0.031
				c-0.009-0.013-0.021-0.022-0.032-0.032c-0.009-0.012-0.02-0.022-0.03-0.032c-0.011-0.012-0.021-0.022-0.033-0.032
				c-0.009-0.012-0.02-0.021-0.032-0.031c-0.009-0.013-0.02-0.022-0.031-0.032c-0.01-0.012-0.021-0.022-0.032-0.032
				c-0.009-0.011-0.02-0.022-0.032-0.031c-0.009-0.013-0.02-0.022-0.032-0.033c-0.01-0.011-0.02-0.022-0.031-0.031
				c-0.01-0.012-0.021-0.022-0.032-0.032c-0.009-0.012-0.021-0.021-0.032-0.031c-0.009-0.012-0.02-0.022-0.032-0.032
				c-0.01-0.012-0.02-0.023-0.031-0.032c-0.01-0.013-0.02-0.022-0.032-0.032c-0.009-0.012-0.021-0.021-0.032-0.032
				c-0.01-0.011-0.02-0.021-0.031-0.031c-0.01-0.012-0.021-0.022-0.032-0.031c-0.009-0.013-0.021-0.023-0.031-0.033
				c-0.01-0.012-0.021-0.021-0.032-0.032c-0.011-0.011-0.021-0.021-0.033-0.03c-0.009-0.013-0.021-0.023-0.03-0.032
				c-0.01-0.013-0.021-0.022-0.032-0.033c-0.01-0.011-0.021-0.022-0.033-0.031c-0.009-0.012-0.02-0.022-0.031-0.031
				c-0.01-0.013-0.021-0.022-0.032-0.033c-0.01-0.012-0.021-0.022-0.031-0.031c-0.011-0.012-0.021-0.023-0.033-0.032
				c-0.009-0.013-0.021-0.022-0.031-0.031c-0.009-0.013-0.021-0.022-0.032-0.033c-0.01-0.012-0.02-0.022-0.032-0.031
				c-0.009-0.013-0.02-0.022-0.032-0.032c-0.033-0.043-0.084-0.073-0.142-0.08c-0.02-0.003-0.041-0.002-0.062,0.001l-0.44,0.077
				c-0.057,0.009-0.106,0.04-0.14,0.087c-0.032,0.047-0.045,0.104-0.036,0.16l0.156,0.906c-0.006-0.006-0.013-0.012-0.021-0.017
				c-0.009-0.014-0.019-0.023-0.031-0.033c-0.009-0.012-0.021-0.022-0.031-0.031c-0.011-0.013-0.021-0.022-0.032-0.032
				c-0.01-0.013-0.021-0.022-0.033-0.032c-0.009-0.012-0.02-0.023-0.03-0.032c-0.011-0.012-0.021-0.022-0.032-0.031
				c-0.01-0.012-0.021-0.022-0.033-0.031c-0.009-0.013-0.019-0.023-0.031-0.033c-0.009-0.012-0.021-0.022-0.031-0.032
				c-0.011-0.012-0.021-0.022-0.031-0.031c-0.011-0.012-0.021-0.022-0.033-0.032c-0.009-0.012-0.021-0.022-0.032-0.031
				c-0.009-0.012-0.021-0.023-0.031-0.032c-0.011-0.013-0.021-0.022-0.032-0.033c-0.01-0.011-0.021-0.022-0.032-0.031
				c-0.009-0.012-0.021-0.022-0.032-0.031c-0.01-0.013-0.02-0.023-0.032-0.032c-0.009-0.012-0.02-0.022-0.031-0.032
				c-0.01-0.012-0.021-0.023-0.032-0.032c-0.01-0.012-0.021-0.022-0.032-0.031c-0.01-0.013-0.02-0.023-0.031-0.033
				c-0.01-0.011-0.021-0.022-0.032-0.031c-0.009-0.012-0.021-0.022-0.032-0.032c-0.01-0.012-0.021-0.022-0.032-0.032
				c-0.01-0.012-0.02-0.022-0.031-0.032c-0.01-0.011-0.021-0.022-0.032-0.031c-0.01-0.013-0.02-0.022-0.031-0.032
				c-0.011-0.012-0.021-0.021-0.033-0.032c-0.009-0.012-0.021-0.022-0.031-0.031c-0.01-0.012-0.021-0.023-0.031-0.032
				c-0.011-0.013-0.021-0.022-0.033-0.032c-0.009-0.012-0.02-0.021-0.032-0.031c-0.009-0.012-0.02-0.023-0.031-0.032
				c-0.01-0.013-0.021-0.022-0.031-0.032c-0.036-0.043-0.085-0.07-0.141-0.078l-0.443-0.055c-0.021-0.002-0.042-0.002-0.062,0.001
				c-0.093,0.016-0.165,0.092-0.178,0.186l-0.484,3.896h-3.581c-0.154,0-0.28,0.129-0.28,0.287v0.769
				c0,0.091,0.041,0.17,0.103,0.223c0.011,0.013,0.021,0.023,0.033,0.032c0.01,0.012,0.021,0.021,0.031,0.032
				c0.01,0.011,0.021,0.022,0.031,0.031c0.011,0.013,0.021,0.023,0.033,0.032c0.01,0.013,0.02,0.022,0.032,0.033
				c0.009,0.011,0.02,0.021,0.031,0.031c0.011,0.011,0.021,0.022,0.031,0.031c0.011,0.013,0.021,0.022,0.033,0.033
				c0.009,0.011,0.021,0.021,0.032,0.031c0.009,0.012,0.02,0.022,0.03,0.032c0.012,0.012,0.021,0.022,0.033,0.031
				c0.009,0.012,0.02,0.022,0.032,0.033c0.009,0.011,0.021,0.022,0.031,0.031c0.011,0.011,0.021,0.022,0.032,0.031
				c0.01,0.013,0.021,0.022,0.031,0.033c0.01,0.011,0.021,0.022,0.032,0.032c0.011,0.011,0.021,0.022,0.032,0.031
				c0.01,0.012,0.021,0.021,0.032,0.031c0.01,0.012,0.021,0.022,0.031,0.032c0.01,0.012,0.021,0.023,0.032,0.032
				c0.011,0.013,0.021,0.022,0.032,0.032c0.01,0.012,0.02,0.021,0.032,0.032c0.01,0.011,0.021,0.022,0.031,0.031
				c0.005,0.005,0.01,0.01,0.015,0.016l0.954,4.355h0.024l0.008,0.032h0.025l0.007,0.031h0.025l0.006,0.032h0.025l0.008,0.032h0.024
				l0.007,0.032h0.025l0.007,0.032h0.025l0.006,0.031h0.026l0.006,0.032h0.025l0.007,0.031h0.025l0.007,0.033h0.024l0.008,0.031
				h0.025l0.006,0.031h0.025l0.007,0.033h0.025l0.008,0.031h0.024l0.007,0.032h0.025l0.006,0.032h0.025l0.007,0.032h0.024
				l0.009,0.031h0.023l0.008,0.032h0.024l0.007,0.032h0.025l0.008,0.032h0.024l0.008,0.03h0.023l0.007,0.033h0.025l0.007,0.032
				h0.024l0.008,0.031h0.025l0.007,0.031h0.024l0.007,0.033h0.025l0.007,0.031h0.025l0.007,0.032h0.025l0.006,0.032h0.025
				l0.008,0.031h0.025l0.006,0.032h0.025l0.007,0.033h0.024l0.007,0.031h0.025l0.008,0.031h0.024l0.007,0.032h0.025l0.007,0.032
				h0.023l0.009,0.032h0.024l0.007,0.031h0.025l0.007,0.033h0.025l0.008,0.031h0.022l0.009,0.032h0.024l0.007,0.031h0.025
				l0.007,0.033h0.024l0.008,0.031h0.024l0.007,0.032h0.025l0.007,0.031h0.024l0.008,0.032h0.025l0.007,0.032h0.024l0.007,0.032
				h0.025l0.007,0.031h0.024l0.009,0.032h0.024l0.006,0.031h0.025l0.007,0.033h0.025l0.007,0.031h0.025l0.007,0.032h0.025
				l0.006,0.032h0.025l0.006,0.032h0.025l0.008,0.031h0.025l0.007,0.031h0.024l0.007,0.033h0.024l0.008,0.032h0.025l0.007,0.031
				h0.024l0.007,0.032h0.025l0.008,0.032h0.025l0.006,0.031h0.024l0.008,0.031h0.024l0.007,0.033h0.025l0.007,0.032h0.025
				l0.007,0.031h0.024l0.008,0.033h0.024l0.008,0.03h0.025l0.006,0.032h0.025l0.007,0.033h0.024l0.007,0.031h0.025l0.008,0.031
				h0.025l0.006,0.032h0.025l0.006,0.032h0.025l0.008,0.032h0.025l0.006,0.031h0.025l0.007,0.033h0.025l0.006,0.031h0.024
				l0.008,0.032h0.025l0.007,0.032h0.025l0.007,0.032h0.024l0.008,0.031h0.024l0.007,0.032h0.025l0.007,0.032h0.025l0.007,0.031
				h0.025l0.007,0.032h0.025l0.006,0.033h0.025l0.007,0.03h0.025l0.008,0.032h0.024l0.006,0.032h0.025l0.007,0.032h0.025
				l0.008,0.031h0.024l0.007,0.032h0.024l0.007,0.032h0.025l0.008,0.032h0.023l0.008,0.031h0.025l0.007,0.031h0.025l0.006,0.033
				h0.024l0.008,0.031h0.025l0.007,0.032h0.024l0.008,0.032h0.024l0.008,0.032h0.025l0.006,0.031h0.025l0.007,0.032h0.024
				l0.008,0.032h0.024l0.007,0.032h0.025l0.007,0.031h0.025l0.007,0.033h0.024l0.009,0.031h0.023l0.007,0.031h0.025l0.007,0.033
				h0.024l0.009,0.032h0.024l0.007,0.03h0.024l0.007,0.032h0.025l0.006,0.033h0.025l0.008,0.031h0.024l0.008,0.031h0.024
				l0.007,0.033h0.025l0.007,0.031h0.025l0.007,0.032h0.024l0.007,0.032h0.025l0.007,0.032h0.025l0.007,0.031h0.024l0.007,0.032
				h0.025l0.007,0.032h0.024l0.008,0.031h0.025l0.007,0.032h0.025l0.006,0.032h0.024l0.007,0.031h0.026l0.007,0.032h0.025
				l0.007,0.033h0.024l0.007,0.031h0.024l0.008,0.031h0.025l0.007,0.032h0.025l0.006,0.032h0.025l0.008,0.032h0.024l0.007,0.031
				h0.025l0.007,0.032h0.025l0.006,0.032h0.024l0.008,0.032h0.025l0.007,0.031h0.025l0.007,0.032h0.024l0.008,0.032h0.025
				l0.006,0.031h0.025l0.007,0.033h0.024l0.007,0.031h0.025l0.008,0.032h0.025l0.006,0.032h0.024l0.007,0.032h0.025l0.008,0.031
				h0.024l0.007,0.032h0.025l0.007,0.032h0.024l0.008,0.032h0.025l0.007,0.03h0.024l0.008,0.033h0.024l0.007,0.032h0.024
				l0.008,0.031h0.025l0.007,0.031h0.024l0.007,0.033h0.025l0.007,0.031h0.025l0.007,0.032h0.024l0.007,0.032h0.025l0.008,0.031
				h0.025l0.006,0.032h0.025l0.007,0.033h0.024l0.007,0.031h0.025l0.008,0.031h0.024l0.007,0.032h0.025l0.007,0.032h0.024
				l0.008,0.032h0.024l0.007,0.031h0.025l0.007,0.033h0.024l0.008,0.031h0.023l0.008,0.031h0.025l0.007,0.032h0.025l0.006,0.033
				h0.025l0.008,0.031h0.024l0.007,0.031h0.025l0.007,0.032h0.025l0.006,0.032h0.026l0.007,0.032h0.024l0.007,0.031h0.025
				l0.007,0.032h0.024l0.008,0.032h0.025l0.006,0.031H61.8l0.007,0.033h0.025l0.007,0.031h0.025l0.007,0.032h0.025l0.006,0.032
				h0.024l0.007,0.032h0.025l0.008,0.031h0.025l0.007,0.031h0.024l0.007,0.033h0.025l0.007,0.032h0.025l0.007,0.031h0.024
				l0.007,0.032h8.42l1.153-5.04h0.265c0.156,0,0.281-0.13,0.281-0.288v-0.77C72.245,51.546,72.204,51.467,72.143,51.413z"/>
		</g>
		<path clip-path="url(#SVGID_2_)" fill="#F3F3F3" d="M65.571,44.955H61.58l-0.671-3.9c-0.017-0.093-0.093-0.165-0.187-0.177
			c-0.02-0.003-0.041-0.002-0.062,0.001l-0.44,0.077c-0.057,0.009-0.106,0.04-0.14,0.087c-0.032,0.047-0.045,0.104-0.036,0.16
			l0.646,3.752H58.67l0.471-3.788c0.008-0.057-0.008-0.114-0.042-0.158c-0.036-0.046-0.087-0.074-0.144-0.082l-0.443-0.055
			c-0.021-0.002-0.042-0.002-0.062,0.001c-0.093,0.016-0.165,0.092-0.178,0.186l-0.484,3.896h-3.581c-0.154,0-0.28,0.129-0.28,0.287
			v0.769c0,0.159,0.126,0.288,0.28,0.288h0.422l1.104,5.041h8.421l1.152-5.041h0.266c0.155,0,0.28-0.129,0.28-0.288v-0.769
			C65.852,45.084,65.727,44.955,65.571,44.955z M56.734,50.287c0,0.087-0.091,0.156-0.2,0.156h-0.32
			c-0.11,0-0.199-0.069-0.199-0.156v-1.521h0.72V50.287z M56.734,48.249h-0.72v-1.006c0-0.086,0.089-0.156,0.199-0.156h0.32
			c0.109,0,0.2,0.07,0.2,0.156V48.249z M58.171,50.287c0,0.087-0.09,0.156-0.199,0.156h-0.32c-0.108,0-0.199-0.069-0.199-0.156
			v-1.521h0.719V50.287z M58.171,48.249h-0.719v-1.006c0-0.086,0.091-0.156,0.199-0.156h0.32c0.109,0,0.199,0.07,0.199,0.156V48.249
			z M59.609,50.287c0,0.087-0.089,0.156-0.2,0.156h-0.318c-0.11,0-0.2-0.069-0.2-0.156v-1.521h0.719V50.287z M59.609,48.249h-0.719
			v-1.006c0-0.086,0.09-0.156,0.2-0.156h0.318c0.111,0,0.2,0.07,0.2,0.156V48.249z M61.047,50.287c0,0.087-0.088,0.156-0.199,0.156
			h-0.32c-0.109,0-0.199-0.069-0.199-0.156v-1.521h0.719V50.287z M61.047,48.249h-0.719v-1.006c0-0.086,0.09-0.156,0.199-0.156h0.32
			c0.111,0,0.199,0.07,0.199,0.156V48.249z M62.485,50.287c0,0.087-0.089,0.156-0.199,0.156h-0.319
			c-0.111,0-0.199-0.069-0.199-0.156v-1.521h0.718V50.287z M62.485,48.249h-0.718v-1.006c0-0.086,0.088-0.156,0.199-0.156h0.319
			c0.11,0,0.199,0.07,0.199,0.156V48.249z M63.924,50.287c0,0.087-0.09,0.156-0.199,0.156h-0.32c-0.11,0-0.199-0.069-0.199-0.156
			v-1.521h0.719V50.287z M63.924,48.249h-0.719v-1.006c0-0.086,0.089-0.156,0.199-0.156h0.32c0.109,0,0.199,0.07,0.199,0.156V48.249
			z"/>
		<g clip-path="url(#SVGID_2_)">
			<g>
				<path fill="#F2C69F" d="M93.251,88.956c-0.53-1.8-1.397-3.488-2.001-5.264c-0.271-0.797-0.273-1.603-0.269-2.439
					c0.01-1.158-0.299-2.155-0.39-3.296c-0.213-2.689-2.32-12.924-2.439-13.261c-1.569-4.409-2.886-7.733-5.587-7.007
					c-0.382,0.103-0.65,0.475-0.835,0.979c-1.158-1.511-1.232-2.758-3.197-2.122c-1.721,0.557-1.242,2.533-1.591,3.134
					c-0.389-0.259-1.544-2.229-2.69-1.962c-1.061,0.248-2.109,0.47-2.512,2.004c-0.045,0.167-0.525,2.942-0.698,2.614
					c-0.32-0.609-0.609-1.236-0.91-1.856c-0.8-1.655-1.562-3.336-2.418-4.965c-0.788-1.5-1.693-2.964-2.201-4.587
					c-0.517-1.65-0.985-3.623-2.037-5.026c-0.703-0.938-1.44-1.15-2.479-0.618c-0.918,0.47-0.923,1.578-0.815,2.505
					c0.221,1.892,1.346,3.735,1.916,5.55c0.532,1.688,1.056,3.379,1.658,5.044c0.535,1.477,1.215,2.897,1.757,4.374
					c0.521,1.419,0.924,2.861,1.38,4.301c0.27,0.844,0.56,1.699,0.712,2.573c0.142,0.811-0.155,2.902-1.365,2.673
					c-0.724-0.137-1.557-0.371-2.227-0.67c-0.688-0.308-1.347-0.665-2.02-1.009c-0.655-0.332-1.351-0.646-2.067-0.725
					c-0.796-0.085-1.66,0.174-2.43,0.323c-1.185,0.23-3.136,0.958-2.479,2.68c0.273,0.714,0.841,0.492,1.403,0.487
					c0.732-0.007,1.482,0.162,2.196,0.364c1.052,0.299,2.101,0.691,3.133,1.068c0.48,0.175,0.973,0.353,1.43,0.601
					c0.331,0.179,0.596,0.483,0.885,0.731c0.869,0.751,1.809,1.599,2.824,2.102c1.051,0.523,2.108,1.039,3.166,1.546
					c0.847,0.405,1.73,0.705,2.584,1.089c0.647,0.977,1.276,1.962,1.858,2.969c1.759,3.045,2.743,6.565,3.863,9.877
					c0.955,2.817,1.866,5.647,2.832,8.461c0.159,0.465,0.393,2.647,0.953,2.496c0.859-0.233,2.158-0.841,3.019-1.073
					c4.682-1.271,8.69-3.487,13.374-4.759c-0.966-1.85-2.018-3.652-3.031-5.476C94.729,91.988,93.708,90.504,93.251,88.956z"/>
				<path fill="#F3DECB" d="M63.57,46.345c0.344,0.966,0.616,1.792-0.999,2.325c-1.54,0.547-1.899-0.207-2.243-1.173
					c-0.342-0.965,0.104-2.006,0.999-2.324S63.227,45.38,63.57,46.345z"/>
			</g>
			<g>
				<defs>
					<path id="SVGID_5_" d="M93.251,88.956c-0.53-1.8-1.397-3.488-2.001-5.264c-0.271-0.797-0.273-1.603-0.269-2.439
						c0.01-1.158-0.299-2.155-0.39-3.296c-0.213-2.689-2.32-12.924-2.439-13.261c-1.569-4.409-2.886-7.733-5.587-7.007
						c-0.382,0.103-0.65,0.475-0.835,0.979c-1.158-1.511-1.232-2.758-3.197-2.122c-1.721,0.557-1.242,2.533-1.591,3.134
						c-0.389-0.259-1.544-2.229-2.69-1.962c-1.061,0.248-2.109,0.47-2.512,2.004c-0.045,0.167-0.525,2.942-0.698,2.614
						c-0.32-0.609-0.609-1.236-0.91-1.856c-0.8-1.655-1.562-3.336-2.418-4.965c-0.788-1.5-1.693-2.964-2.201-4.587
						c-0.517-1.65-0.985-3.623-2.037-5.026c-0.703-0.938-1.44-1.15-2.479-0.618c-0.918,0.47-0.923,1.578-0.815,2.505
						c0.221,1.892,1.346,3.735,1.916,5.55c0.532,1.688,1.056,3.379,1.658,5.044c0.535,1.477,1.215,2.897,1.757,4.374
						c0.521,1.419,0.924,2.861,1.38,4.301c0.27,0.844,0.56,1.699,0.712,2.573c0.142,0.811-0.155,2.902-1.365,2.673
						c-0.724-0.137-1.557-0.371-2.227-0.67c-0.688-0.308-1.347-0.665-2.02-1.009c-0.655-0.332-1.351-0.646-2.067-0.725
						c-0.796-0.085-1.66,0.174-2.43,0.323c-1.185,0.23-3.136,0.958-2.479,2.68c0.273,0.714,0.841,0.492,1.403,0.487
						c0.732-0.007,1.482,0.162,2.196,0.364c1.052,0.299,2.101,0.691,3.133,1.068c0.48,0.175,0.973,0.353,1.43,0.601
						c0.331,0.179,0.596,0.483,0.885,0.731c0.869,0.751,1.809,1.599,2.824,2.102c1.051,0.523,2.108,1.039,3.166,1.546
						c0.847,0.405,1.73,0.705,2.584,1.089c0.647,0.977,1.276,1.962,1.858,2.969c1.759,3.045,2.743,6.565,3.863,9.877
						c0.955,2.817,1.866,5.647,2.832,8.461c0.159,0.465,0.393,2.647,0.953,2.496c0.859-0.233,2.158-0.841,3.019-1.073
						c4.682-1.271,8.69-3.487,13.374-4.759c-0.966-1.85-2.018-3.652-3.031-5.476C94.729,91.988,93.708,90.504,93.251,88.956z"/>
				</defs>
				<clipPath id="SVGID_6_">
					<use xlink:href="#SVGID_5_"  overflow="visible"/>
				</clipPath>
				<path clip-path="url(#SVGID_6_)" fill="#F3DECB" d="M58.423,73.111c0.071-0.474-0.72-0.881-1.629-0.897
					c-0.907-0.017-1.651,0.356-1.661,0.835c-0.008,0.479,0.721,0.882,1.629,0.899C57.67,73.965,58.225,74.419,58.423,73.111z"/>
			</g>
		</g>
		<path clip-path="url(#SVGID_2_)" fill="#FDB152" d="M115.209,125.845l-12.369-21.959c0.37-2.029-3.573-7.341-4.35-8.312
			c-0.825-1.032-5.348,3.008-7.719,4.072s-7.546,0.697-9.237,1.74c-1.691,1.044-1.477,2.292-1.059,3.469c0,0-0.04,3.106,0.866,5.654
			c0.438,1.228,0.93,1.717,2.149,1.625c2.822,10.409,7.209,23.461,7.209,23.461L115.209,125.845z"/>
		<rect x="18.541" y="6.54" clip-path="url(#SVGID_2_)" fill="none" width="88.92" height="102.635"/>
	</g>
	<g>
		<defs>
			<circle id="SVGID_7_" cx="185.311" cy="61.026" r="52.872"/>
		</defs>
		<clipPath id="SVGID_8_">
			<use xlink:href="#SVGID_7_"  overflow="visible"/>
		</clipPath>
		<circle clip-path="url(#SVGID_8_)" fill="#1191B6" cx="185.311" cy="61.026" r="52.872"/>
		<rect x="143.633" y="6.072" clip-path="url(#SVGID_8_)" fill="none" width="88.322" height="101.944"/>
		<g clip-path="url(#SVGID_8_)">
			<path d="M173.67,40.698h-4.889c-0.239,0-0.451,0.137-0.616,0.348h-0.411c-1.698,0-3.12,1.722-3.448,4.003
				c-0.271,0.197-0.464,0.544-0.464,0.957v5.955c0,0.374,0.162,0.689,0.392,0.897v22.442c0,2.762,1.58,5.01,3.521,5.01h48.255
				c1.943,0,3.522-2.248,3.522-5.01V46.06c0-2.766-1.579-5.014-3.522-5.014h-39.156c-0.053-0.211-0.117-0.348-0.188-0.348h-1.488
				c-0.073,0-0.137,0.137-0.188,0.348h-0.701C174.122,40.835,173.907,40.698,173.67,40.698z"/>
			<rect x="168.612" y="45.134" fill="#FFFFFF" width="46.602" height="31.954"/>
			<g>
				<g>
					<path fill="#F2C69F" d="M164.167,51.57c0,0-0.45,0.263-1.042,0.77c-0.592,0.508-2.149,1.969-2.729,2.319
						c-0.58,0.35-1.438,0.954-1.69,1.074c-1.232,0.785-1.293,1.655-1.57,2.548c-0.278,0.895-0.604,2.102-0.736,2.656
						c-0.134,0.557-0.979,4.554-1.317,5.809c-0.337,1.257-0.604,2.15-1.956,3.962c-1.352,1.811-5.651,7.776-6.086,8.284
						s-4.807,6.014-5.313,6.666c-0.508,0.651-3.937,4.492-4.613,5.023c4.782-0.024,14.998,0,14.998,0s1.305-1.956,1.788-2.801
						c0.482-0.846,2.366-4.687,3.381-5.918c1.014-1.232,1.449-2.222,1.885-2.657c0.434-0.435,0.845-1.037,1.086-1.135
						c0.241-0.097,3.019-6.303,3.019-6.303s1.088-1.04,1.595-2.042c0.508-1.003,1.196-2.596,1.365-3.394
						c0.168-0.797,0.482-2.343,0.471-2.729c-0.013-0.386-0.048-0.929-0.037-1.05c0.013-0.121,0.109-0.736,0.085-0.966
						c-0.023-0.23,0-0.701,0.073-0.966c0.071-0.267,0.302-2.198,0.749-2.693c0.446-0.496,2.039-2.439,2.475-3.599
						c0.436-1.16,0.737-2.971,0.664-3.347c-0.132-1.544-2.09-1.907-2.717-1.279c-0.629,0.629-0.858,0.979-0.967,1.075
						s-0.592,0.869-0.712,1.086c-0.121,0.218-0.821,1.354-0.979,1.522c-0.157,0.17-0.544,0.459-0.676,0.869
						c-0.133,0.411-0.398,1.208-0.458,1.354C164.14,55.855,164.167,51.57,164.167,51.57z"/>
					<path fill="#F3DECB" d="M169.799,51.975c-0.126,0.265-0.577,0.715-0.797,0.715s-1.675-0.461-1.79-0.657
						c-0.115-0.197,0.115-0.936,0.115-0.936s0.289-0.717,0.623-0.994c0.394-0.312,2.115-0.173,2.022,1.074
						C169.938,51.42,169.927,51.709,169.799,51.975z"/>
				</g>
			</g>
			<path fill="#81B941" d="M146.401,110.501l6.733-16.301c1.276-0.674,2.494-5.142,2.691-5.987c0.21-0.899-3.968-1.642-5.579-2.486
				c-1.612-0.845-3.646-3.85-4.952-4.329c-1.307-0.479-1.9,0.179-2.365,0.918c0,0-1.728,1.32-2.737,2.922
				c-0.486,0.771-0.542,1.254,0.035,1.886c-4.506,6.054-9.79,14.112-9.79,14.112L146.401,110.501z"/>
			<g>
				<path fill="#D91F20" d="M184.758,60.033h-0.622v2.266c0.18,0.023,0.395,0.023,0.705,0.023c0.823,0,1.551-0.321,1.551-1.168
					C186.392,60.355,185.664,60.033,184.758,60.033z"/>
				<path fill="#D91F20" d="M206.21,50.53h-27.75c-1.869,0-3.384,1.515-3.384,3.384v10.829c0,1.869,1.515,3.384,3.384,3.384h27.75
					c1.868,0,3.384-1.515,3.384-3.384V53.914C209.594,52.045,208.078,50.53,206.21,50.53z"/>
				<path fill="#D91F20" d="M186.201,57.743c0-0.609-0.466-0.931-1.288-0.931c-0.406,0-0.633,0.023-0.777,0.048v1.872h0.599
					C185.7,58.732,186.201,58.339,186.201,57.743z"/>
			</g>
			<g>
				<path fill="#DDB089" d="M218.328,106.769c-0.001-0.004-0.002-0.009-0.003-0.014C218.326,106.76,218.327,106.765,218.328,106.769
					z"/>
				<path fill="#DDB089" d="M218.325,106.755c-0.002-0.015-0.005-0.028-0.008-0.042C218.32,106.729,218.323,106.74,218.325,106.755z
					"/>
				<path fill="#DDB089" d="M218.265,106.448c-0.002-0.013-0.006-0.025-0.008-0.037
					C218.259,106.423,218.263,106.436,218.265,106.448z"/>
				<path fill="#DDB089" d="M218.334,106.802c0-0.004-0.001-0.008-0.002-0.01C218.333,106.794,218.334,106.798,218.334,106.802z"/>
				<path fill="#DDB089" d="M218.317,106.713c-0.005-0.022-0.01-0.046-0.015-0.069C218.308,106.666,218.312,106.689,218.317,106.713
					z"/>
				<path fill="#DDB089" d="M218.283,106.544c-0.005-0.025-0.01-0.049-0.015-0.073C218.273,106.495,218.278,106.52,218.283,106.544z
					"/>
				<path fill="#DDB089" d="M218.269,106.471c-0.001-0.007-0.003-0.015-0.004-0.022
					C218.266,106.456,218.268,106.464,218.269,106.471z"/>
				<path fill="#DDB089" d="M218.341,106.827c-0.003-0.009-0.004-0.018-0.007-0.025C218.337,106.81,218.338,106.818,218.341,106.827
					z"/>
				<path fill="#DDB089" d="M218.297,106.613c-0.004-0.023-0.009-0.047-0.014-0.069
					C218.288,106.566,218.293,106.589,218.297,106.613z"/>
				<path fill="#DDB089" d="M218.303,106.644c-0.002-0.01-0.004-0.021-0.006-0.03C218.3,106.623,218.301,106.634,218.303,106.644z"
					/>
				<path fill="#DDB089" d="M218.332,106.792c-0.001-0.008-0.003-0.015-0.004-0.023
					C218.329,106.777,218.331,106.784,218.332,106.792z"/>
				<path fill="#DDB089" d="M218.385,107.05c-0.002-0.006-0.003-0.011-0.004-0.015C218.383,107.041,218.383,107.047,218.385,107.05z
					"/>
				<path fill="#DDB089" d="M218.381,107.035c-0.001-0.006-0.002-0.012-0.004-0.02C218.378,107.023,218.38,107.029,218.381,107.035z
					"/>
				<path fill="#DDB089" d="M218.377,107.016c-0.002-0.007-0.002-0.015-0.004-0.023C218.375,107.002,218.376,107.01,218.377,107.016
					z"/>
				<path fill="#DDB089" d="M218.385,107.053c0,0,0-0.002,0-0.003C218.385,107.051,218.385,107.051,218.385,107.053z"/>
				<path fill="#DDB089" d="M218.355,106.906c-0.005-0.024-0.01-0.05-0.015-0.079C218.345,106.854,218.351,106.879,218.355,106.906z
					"/>
				<path fill="#DDB089" d="M218.373,106.992c-0.001-0.002-0.001-0.004-0.001-0.006C218.372,106.988,218.372,106.99,218.373,106.992
					z"/>
				<path fill="#DDB089" d="M218.359,106.925c0-0.007-0.003-0.013-0.004-0.019C218.356,106.912,218.359,106.918,218.359,106.925z"/>
				<path fill="#DDB089" d="M218.365,106.954c-0.002-0.01-0.004-0.019-0.006-0.029C218.361,106.935,218.363,106.943,218.365,106.954
					z"/>
				<path fill="#DDB089" d="M218.166,105.952c-0.001-0.003-0.002-0.006-0.002-0.009
					C218.164,105.946,218.165,105.949,218.166,105.952z"/>
				<path fill="#DDB089" d="M218.168,105.967c-0.001-0.005-0.002-0.01-0.002-0.015C218.166,105.957,218.167,105.962,218.168,105.967
					z"/>
				<path fill="#DDB089" d="M218.174,105.994c-0.002-0.01-0.004-0.02-0.006-0.027C218.17,105.975,218.172,105.984,218.174,105.994z"
					/>
				<path fill="#DDB089" d="M218.18,106.027c-0.002-0.012-0.004-0.024-0.006-0.033C218.176,106.003,218.178,106.016,218.18,106.027z
					"/>
				<path fill="#DDB089" d="M218.188,106.065c-0.004-0.014-0.007-0.025-0.009-0.038
					C218.182,106.039,218.185,106.052,218.188,106.065z"/>
				<path fill="#DDB089" d="M218.189,106.071c-0.001-0.002-0.001-0.004-0.001-0.006
					C218.188,106.067,218.188,106.069,218.189,106.071z"/>
				<path fill="#DDB089" d="M218.154,105.898C218.154,105.897,218.154,105.897,218.154,105.898L218.154,105.898z"/>
				<path fill="#DDB089" d="M218.154,105.899L218.154,105.899L218.154,105.899z"/>
				<path fill="#DDB089" d="M218.199,106.122c-0.003-0.018-0.007-0.034-0.01-0.051C218.192,106.088,218.196,106.104,218.199,106.122
					z"/>
				<path fill="#DDB089" d="M218.16,105.926c-0.003-0.013-0.005-0.022-0.006-0.026C218.155,105.903,218.157,105.912,218.16,105.926z
					"/>
				<path fill="#DDB089" d="M218.164,105.943c-0.002-0.007-0.002-0.013-0.004-0.018
					C218.162,105.931,218.162,105.937,218.164,105.943z"/>
				<path fill="#DDB089" d="M218.222,106.233c-0.003-0.015-0.006-0.028-0.008-0.04C218.216,106.207,218.219,106.22,218.222,106.233z
					"/>
				<path fill="#DDB089" d="M218.23,106.278c-0.001-0.004-0.002-0.007-0.002-0.01C218.229,106.271,218.229,106.274,218.23,106.278z"
					/>
				<path fill="#DDB089" d="M218.229,106.269c-0.003-0.013-0.005-0.024-0.007-0.035
					C218.224,106.244,218.226,106.256,218.229,106.269z"/>
				<path fill="#DDB089" d="M218.2,106.127c-0.001-0.001-0.001-0.003-0.001-0.005C218.199,106.124,218.199,106.126,218.2,106.127z"
					/>
				<path fill="#DDB089" d="M218.245,106.352c-0.001-0.004-0.002-0.008-0.002-0.011
					C218.243,106.345,218.244,106.348,218.245,106.352z"/>
				<path fill="#DDB089" d="M218.243,106.341c-0.004-0.021-0.01-0.042-0.013-0.062C218.233,106.298,218.239,106.319,218.243,106.341
					z"/>
				<path fill="#DDB089" d="M218.207,106.164c0-0.002-0.001-0.004-0.001-0.006C218.206,106.16,218.207,106.162,218.207,106.164z"/>
				<path fill="#DDB089" d="M218.257,106.411c-0.004-0.021-0.009-0.04-0.012-0.06C218.248,106.371,218.253,106.391,218.257,106.411z
					"/>
				<path fill="#DDB089" d="M218.206,106.158c-0.002-0.011-0.004-0.021-0.006-0.031
					C218.202,106.138,218.204,106.147,218.206,106.158z"/>
				<path fill="#DDB089" d="M218.214,106.193c-0.003-0.01-0.005-0.02-0.007-0.029C218.209,106.174,218.211,106.184,218.214,106.193z
					"/>
				<g>
					<g>
						<path fill="#F2C69F" d="M215.217,92.975c-0.003-1.375-0.266-2.742-0.326-4.116c-0.026-0.617,0.137-1.185,0.313-1.771
							c0.246-0.813,0.232-1.578,0.404-2.399c0.401-1.938,1.025-9.575,1.01-9.837c-0.197-3.426-0.441-6.036-2.491-6.081
							c-0.289-0.006-0.555,0.199-0.79,0.518c-0.503-1.301-0.299-2.195-1.812-2.152c-1.326,0.039-1.396,1.528-1.765,1.88
							c-0.219-0.262-0.628-1.887-1.489-1.935c-0.798-0.044-1.582-0.104-2.181,0.894c-0.065,0.107-0.975,1.964-1.029,1.697
							c-0.101-0.495-0.174-0.997-0.258-1.495c-0.223-1.33-0.413-2.669-0.681-3.991c-0.246-1.219-0.583-2.436-0.605-3.682
							c-0.024-1.268,0.051-2.753-0.4-3.957c-0.303-0.805-0.777-1.104-1.618-0.945c-0.743,0.142-0.975,0.922-1.089,1.596
							c-0.235,1.377,0.178,2.905,0.207,4.301c0.025,1.296,0.047,2.596,0.13,3.89c0.072,1.15,0.258,2.291,0.335,3.441
							c0.075,1.105,0.062,2.204,0.088,3.311c0.015,0.649,0.044,1.311-0.028,1.958c-0.068,0.6-0.707,2.011-1.512,1.601
							c-0.479-0.245-1.02-0.582-1.429-0.93c-0.421-0.358-0.811-0.744-1.215-1.125c-0.392-0.369-0.816-0.733-1.306-0.936
							c-0.542-0.224-1.204-0.22-1.776-0.271c-0.881-0.083-2.403,0.028-2.295,1.374c0.045,0.561,0.49,0.521,0.887,0.633
							c0.517,0.146,1.011,0.419,1.471,0.708c0.678,0.427,1.336,0.919,1.985,1.396c0.303,0.222,0.612,0.447,0.882,0.716
							c0.196,0.194,0.32,0.464,0.472,0.697c0.458,0.708,0.944,1.497,1.556,2.062c0.633,0.584,1.271,1.164,1.911,1.738
							c0.513,0.46,1.073,0.853,1.595,1.298c0.255,0.82,0.495,1.644,0.697,2.473c0.611,2.504,0.58,5.184,0.688,7.746
							c0.093,2.179,0.151,4.359,0.253,6.538c0.017,0.358-0.268,1.945,0.157,1.952c0.654,0.012,1.691-0.147,2.346-0.135
							c3.557,0.068,6.834-0.667,10.392-0.599c-0.299-1.5-0.669-2.985-1.006-4.477C215.632,95.413,215.219,94.158,215.217,92.975z"/>
						<path fill="#F3DECB" d="M203.092,56.877c0.042,0.75,0.064,1.389-1.182,1.432c-1.196,0.069-1.294-0.536-1.337-1.286
							c-0.044-0.751,0.485-1.391,1.18-1.432C202.449,55.552,203.048,56.128,203.092,56.877z"/>
					</g>
					<g>
						<defs>
							<path id="SVGID_9_" d="M215.217,92.975c-0.003-1.375-0.266-2.742-0.326-4.116c-0.026-0.617,0.137-1.185,0.313-1.771
								c0.246-0.813,0.232-1.578,0.404-2.399c0.401-1.938,1.025-9.575,1.01-9.837c-0.197-3.426-0.441-6.036-2.491-6.081
								c-0.289-0.006-0.555,0.199-0.79,0.518c-0.503-1.301-0.299-2.195-1.812-2.152c-1.326,0.039-1.396,1.528-1.765,1.88
								c-0.219-0.262-0.628-1.887-1.489-1.935c-0.798-0.044-1.582-0.104-2.181,0.894c-0.065,0.107-0.975,1.964-1.029,1.697
								c-0.101-0.495-0.174-0.997-0.258-1.495c-0.223-1.33-0.413-2.669-0.681-3.991c-0.246-1.219-0.583-2.436-0.605-3.682
								c-0.024-1.268,0.051-2.753-0.4-3.957c-0.303-0.805-0.777-1.104-1.618-0.945c-0.743,0.142-0.975,0.922-1.089,1.596
								c-0.235,1.377,0.178,2.905,0.207,4.301c0.025,1.296,0.047,2.596,0.13,3.89c0.072,1.15,0.258,2.291,0.335,3.441
								c0.075,1.105,0.062,2.204,0.088,3.311c0.015,0.649,0.044,1.311-0.028,1.958c-0.068,0.6-0.707,2.011-1.512,1.601
								c-0.479-0.245-1.02-0.582-1.429-0.93c-0.421-0.358-0.811-0.744-1.215-1.125c-0.392-0.369-0.816-0.733-1.306-0.936
								c-0.542-0.224-1.204-0.22-1.776-0.271c-0.881-0.083-2.403,0.028-2.295,1.374c0.045,0.561,0.49,0.521,0.887,0.633
								c0.517,0.146,1.011,0.419,1.471,0.708c0.678,0.427,1.336,0.919,1.985,1.396c0.303,0.222,0.612,0.447,0.882,0.716
								c0.196,0.194,0.32,0.464,0.472,0.697c0.458,0.708,0.944,1.497,1.556,2.062c0.633,0.584,1.271,1.164,1.911,1.738
								c0.513,0.46,1.073,0.853,1.595,1.298c0.255,0.82,0.495,1.644,0.697,2.473c0.611,2.504,0.58,5.184,0.688,7.746
								c0.093,2.179,0.151,4.359,0.253,6.538c0.017,0.358-0.268,1.945,0.157,1.952c0.654,0.012,1.691-0.147,2.346-0.135
								c3.557,0.068,6.834-0.667,10.392-0.599c-0.299-1.5-0.669-2.985-1.006-4.477C215.632,95.413,215.219,94.158,215.217,92.975z"
								/>
						</defs>
						<clipPath id="SVGID_10_">
							<use xlink:href="#SVGID_9_"  overflow="visible"/>
						</clipPath>
						<path clip-path="url(#SVGID_10_)" fill="#F3DECB" d="M193.962,74.659c0.148-0.318-0.325-0.769-0.961-0.967
							c-0.637-0.2-1.236-0.089-1.341,0.245c-0.104,0.336,0.325,0.77,0.961,0.969C193.258,75.104,193.555,75.538,193.962,74.659z"/>
					</g>
				</g>
				<path fill="#81B941" d="M223.084,123.456l-4.189-18.001c0.679-1.352-1.004-5.902-1.352-6.744
					c-0.368-0.896-4.383,1.016-6.271,1.278c-1.889,0.261-5.454-1.062-6.859-0.675c-1.406,0.387-1.511,1.31-1.459,2.224
					c0,0-0.667,2.178-0.553,4.157c0.055,0.953,0.301,1.399,1.178,1.587c-0.154,7.905,0.247,17.995,0.247,17.995L223.084,123.456z"/>
			</g>
		</g>
	</g>
	<g>
		<circle fill="#1191B6" cx="308.605" cy="61.241" r="52.872"/>
		<g>
			<polygon fill="#808080" points="270.63,84.465 271.803,85.855 347.248,85.855 348.789,84.465 			"/>
			<path fill="#808080" d="M341.811,31.474c0-0.84-2.077-1.969-4.753-1.969l-54.949,0.007c-2.676,0-4.82,1.122-4.82,1.962H341.811z"
				/>
			<path fill="#666666" d="M341.861,31.132c-0.044-0.05-0.09-0.098-0.137-0.145c-0.512-0.498-1.303-0.82-2.189-0.82h-59.944
				c-0.886,0-1.677,0.322-2.188,0.82c-0.048,0.047-0.095,0.095-0.137,0.145c-0.292,0.338-0.463,0.741-0.463,1.174v36.358
				c0,0.432,0.171,0.835,0.463,1.174c0.042,0.05,0.089,0.096,0.137,0.144c0.512,0.497,1.303,0.82,2.188,0.82h59.944
				c0.887,0,1.678-0.323,2.189-0.82c0.047-0.048,0.093-0.094,0.137-0.144c0.291-0.339,0.463-0.742,0.463-1.174V32.306
				C342.324,31.873,342.152,31.47,341.861,31.132z"/>
			<path fill="#B1B1B1" d="M341.861,31.329c-0.044-0.049-0.09-0.097-0.137-0.143c-0.512-0.497-1.303-0.818-2.189-0.818h-59.944
				c-0.886,0-1.677,0.321-2.188,0.818c-0.048,0.046-0.095,0.094-0.137,0.143c-0.292,0.337-0.463,0.738-0.463,1.17v36.23
				c0,0.431,0.171,0.833,0.463,1.17c0.042,0.05,0.089,0.097,0.137,0.144c0.512,0.497,1.303,0.817,2.188,0.817h59.944
				c0.887,0,1.678-0.32,2.189-0.817c0.047-0.047,0.093-0.094,0.137-0.144c0.291-0.337,0.463-0.739,0.463-1.17v-36.23
				C342.324,32.067,342.152,31.666,341.861,31.329z"/>
			<path fill="#CACACA" d="M279.591,70.582c-0.621,0-1.249-0.247-1.677-0.664c-0.043-0.04-0.084-0.083-0.122-0.126
				c-0.272-0.316-0.417-0.684-0.417-1.062v-36.23c0-0.379,0.145-0.746,0.417-1.062c0.038-0.043,0.079-0.085,0.122-0.126
				c0.428-0.416,1.056-0.664,1.677-0.664h59.944c0.622,0,1.248,0.248,1.678,0.664c0.041,0.041,0.083,0.083,0.121,0.126
				c0.273,0.316,0.418,0.684,0.418,1.062v36.23c0,0.379-0.145,0.746-0.418,1.062c-0.039,0.044-0.08,0.087-0.121,0.127
				c-0.43,0.417-1.057,0.664-1.678,0.664H279.591z"/>
			<path fill="#FFFFFF" d="M282.303,68.776c-0.565,0-1.136-0.227-1.525-0.604c-0.039-0.037-0.075-0.075-0.11-0.116
				c-0.249-0.286-0.38-0.62-0.38-0.965V34.139c0-0.345,0.131-0.68,0.38-0.966c0.035-0.04,0.071-0.079,0.11-0.115
				c0.39-0.379,0.96-0.605,1.525-0.605h54.521c0.566,0,1.136,0.227,1.526,0.605c0.037,0.036,0.075,0.075,0.109,0.115
				c0.248,0.286,0.38,0.621,0.38,0.966v32.952c0,0.345-0.132,0.679-0.38,0.965c-0.034,0.041-0.073,0.079-0.11,0.117
				c-0.39,0.377-0.961,0.604-1.525,0.604H282.303z"/>
			<path fill="#CACACA" d="M342.444,71.615c-0.305-0.587-1.087-1.063-1.751-1.063h-62.448c-0.663,0-1.432,0.477-1.715,1.063
				l-5.919,12.221c-0.284,0.587,0.142,1.062,0.952,1.062h76.275c0.811,0,1.221-0.475,0.918-1.062L342.444,71.615z"/>
			<g>
				<polygon fill="#666666" points="341.153,79.16 277.369,79.16 280.288,71.509 338.651,71.509 				"/>
				<polygon fill="#B1B1B1" points="326.434,77.81 292.415,77.81 292.23,78.655 326.573,78.655 				"/>
				<polygon fill="#B1B1B1" points="285.024,77.81 290.722,77.81 290.521,78.655 284.77,78.655 				"/>
				<polygon fill="#B1B1B1" points="282.6,76.515 288.215,76.515 287.987,77.36 282.317,77.36 				"/>
				<polygon fill="#B1B1B1" points="291.055,76.515 296.67,76.515 296.524,77.36 290.855,77.36 				"/>
				<polygon fill="#B1B1B1" points="299.511,76.515 305.125,76.515 305.062,77.36 299.391,77.36 				"/>
				<polygon fill="#B1B1B1" points="307.965,76.515 313.58,76.515 313.599,77.36 307.93,77.36 				"/>
				<polygon fill="#B1B1B1" points="316.42,76.515 322.036,76.515 322.136,77.36 316.466,77.36 				"/>
				<polygon fill="#B1B1B1" points="324.876,76.515 330.491,76.515 330.673,77.36 325.004,77.36 				"/>
				<polygon fill="#B1B1B1" points="287.205,75.165 292.734,75.165 292.547,76.01 286.964,76.01 				"/>
				<polygon fill="#B1B1B1" points="295.53,75.165 301.059,75.165 300.953,76.01 295.37,76.01 				"/>
				<polygon fill="#B1B1B1" points="303.854,75.165 309.384,75.165 309.36,76.01 303.777,76.01 				"/>
				<polygon fill="#B1B1B1" points="312.179,75.165 317.707,75.165 317.766,76.01 312.184,76.01 				"/>
				<polygon fill="#B1B1B1" points="320.505,75.165 326.032,75.165 326.173,76.01 320.59,76.01 				"/>
				<polygon fill="#B1B1B1" points="328.829,75.165 334.356,75.165 334.579,76.01 328.996,76.01 				"/>
				<polygon fill="#B1B1B1" points="280.291,75.165 285.819,75.165 285.566,76.01 279.982,76.01 				"/>
				<polygon fill="#B1B1B1" points="331.833,76.46 337.445,76.46 337.694,77.305 332.028,77.305 				"/>
				<polygon fill="#B1B1B1" points="283.486,73.813 288.929,73.813 288.701,74.66 283.204,74.66 				"/>
				<polygon fill="#B1B1B1" points="291.681,73.813 297.122,73.813 296.977,74.66 291.48,74.66 				"/>
				<polygon fill="#B1B1B1" points="299.875,73.813 305.316,73.813 305.252,74.66 299.756,74.66 				"/>
				<polygon fill="#B1B1B1" points="308.068,73.813 313.511,73.813 313.527,74.66 308.032,74.66 				"/>
				<polygon fill="#B1B1B1" points="316.263,73.813 321.705,73.813 321.804,74.66 316.309,74.66 				"/>
				<polygon fill="#B1B1B1" points="324.457,73.813 329.898,73.813 330.079,74.66 324.584,74.66 				"/>
				<polygon fill="#B1B1B1" points="287.962,72.465 293.316,72.465 293.131,73.31 287.722,73.31 				"/>
				<polygon fill="#B1B1B1" points="296.025,72.465 301.38,72.465 301.275,73.31 295.865,73.31 				"/>
				<polygon fill="#B1B1B1" points="304.088,72.465 309.443,72.465 309.421,73.31 304.011,73.31 				"/>
				<polygon fill="#B1B1B1" points="312.152,72.465 317.507,72.465 317.566,73.31 312.156,73.31 				"/>
				<polygon fill="#B1B1B1" points="320.216,72.465 325.57,72.465 325.711,73.31 320.301,73.31 				"/>
				<polygon fill="#B1B1B1" points="328.278,72.465 333.634,72.465 333.856,73.31 328.446,73.31 				"/>
				<polygon fill="#B1B1B1" points="281.266,72.465 286.62,72.465 286.366,73.31 280.956,73.31 				"/>
				<polygon fill="#B1B1B1" points="331.199,73.759 336.638,73.759 336.886,74.604 331.394,74.604 				"/>
				<polygon fill="#B1B1B1" points="279.312,77.81 283.635,77.81 283.368,78.655 279.003,78.655 				"/>
				<polygon fill="#B1B1B1" points="333.573,77.81 339.271,77.81 339.533,78.655 333.781,78.655 				"/>
				<polygon fill="#B1B1B1" points="327.859,77.81 332.184,77.81 332.379,78.655 328.015,78.655 				"/>
			</g>
			<path fill="#666666" d="M319.064,82.879c0.202,0.588-0.235,1.062-0.974,1.062h-17.798c-0.738,0-1.24-0.475-1.12-1.062
				l0.352-1.699c0.12-0.587,0.756-1.062,1.419-1.062h15.972c0.664,0,1.365,0.476,1.566,1.062L319.064,82.879z"/>
			<ellipse cx="309.69" cy="85.386" rx="0.38" ry="0.336"/>
			<ellipse cx="308.609" cy="85.386" rx="0.381" ry="0.336"/>
			<rect x="304.326" y="85.103" width="2.881" height="0.496"/>
			<rect x="275.265" y="85.103" width="23.457" height="0.496"/>
			<ellipse cx="308.609" cy="31.65" rx="0.381" ry="0.336"/>
			<polygon opacity="0.5" points="321.232,44.064 322.812,45.528 310.17,56.714 302.27,52.52 295.949,58.112 289.627,56.714 
				284.887,62.308 289.627,58.112 295.949,60.909 302.27,56.714 310.17,60.909 325.974,48.324 328.234,49.723 330.062,41.73 			"/>
			<polygon fill="#F53A00" points="321.232,43.065 322.812,44.527 310.17,55.715 302.27,51.52 295.949,57.112 289.627,55.715 
				284.887,61.308 289.627,57.112 295.949,59.91 302.27,55.715 310.17,59.91 325.974,47.324 328.234,48.723 330.062,40.73 			"/>
		</g>
	</g>
	<g>
		<path fill="#FFFFFF" d="M184.92,57.049v4.52h-1.464v-0.734c-0.209,0.313-0.443,0.543-0.705,0.688
			c-0.261,0.147-0.567,0.22-0.918,0.22c-0.603,0-1.085-0.22-1.445-0.66c-0.362-0.439-0.542-1.03-0.542-1.769
			c0-0.737,0.188-1.322,0.565-1.757c0.378-0.434,0.886-0.651,1.523-0.651c0.341,0,0.634,0.073,0.88,0.218s0.457,0.367,0.633,0.669
			v-0.743H184.92z M183.519,59.304c0-0.352-0.093-0.63-0.282-0.837c-0.188-0.205-0.444-0.309-0.769-0.309
			c-0.325,0-0.582,0.103-0.768,0.307c-0.188,0.205-0.278,0.484-0.278,0.839c0,0.352,0.092,0.63,0.28,0.832
			c0.188,0.203,0.443,0.305,0.766,0.305c0.324,0,0.581-0.102,0.769-0.305C183.426,59.934,183.519,59.655,183.519,59.304z"/>
		<path fill="#FFFFFF" d="M186.086,63.564v-6.516h1.469v0.761c0.202-0.305,0.43-0.531,0.683-0.681
			c0.255-0.148,0.536-0.224,0.848-0.224c0.634,0,1.141,0.218,1.516,0.651c0.376,0.435,0.564,1.022,0.564,1.766
			c0,0.722-0.188,1.306-0.562,1.751c-0.374,0.446-0.863,0.669-1.464,0.669c-0.383,0-0.694-0.07-0.934-0.21
			c-0.24-0.141-0.454-0.372-0.643-0.694c0.016,0.09,0.026,0.199,0.033,0.326c0.008,0.13,0.013,0.287,0.013,0.476v1.925H186.086z
			 M187.501,59.322c0,0.352,0.091,0.629,0.275,0.832c0.183,0.203,0.436,0.304,0.757,0.304c0.322,0,0.577-0.101,0.763-0.304
			c0.188-0.203,0.281-0.48,0.281-0.832s-0.093-0.63-0.279-0.833c-0.184-0.202-0.438-0.304-0.765-0.304
			c-0.321,0-0.574,0.102-0.757,0.304C187.592,58.692,187.501,58.971,187.501,59.322z"/>
		<path fill="#FFFFFF" d="M192.09,63.564v-6.516h1.469v0.761c0.202-0.305,0.43-0.531,0.683-0.681
			c0.255-0.148,0.536-0.224,0.847-0.224c0.635,0,1.141,0.218,1.517,0.651c0.376,0.435,0.563,1.022,0.563,1.766
			c0,0.722-0.188,1.306-0.562,1.751c-0.374,0.446-0.863,0.669-1.465,0.669c-0.382,0-0.693-0.07-0.933-0.21
			c-0.241-0.141-0.454-0.372-0.643-0.694c0.015,0.09,0.026,0.199,0.032,0.326c0.009,0.13,0.013,0.287,0.013,0.476v1.925H192.09z
			 M193.505,59.322c0,0.352,0.09,0.629,0.275,0.832c0.183,0.203,0.435,0.304,0.757,0.304s0.576-0.101,0.763-0.304
			s0.28-0.48,0.28-0.832s-0.092-0.63-0.278-0.833c-0.184-0.202-0.438-0.304-0.765-0.304c-0.322,0-0.574,0.102-0.757,0.304
			C193.595,58.692,193.505,58.971,193.505,59.322z"/>
	</g>
	<g>
		<path fill="#B5B5B5" d="M97.487,16.945h-1.594c-0.659,0-1.194-0.534-1.194-1.195c0-0.659,0.535-1.194,1.194-1.194h1.594
			c0.659,0,1.195,0.535,1.195,1.194C98.683,16.411,98.146,16.945,97.487,16.945z"/>
		<path fill="#B5B5B5" d="M140.065,16.945h-3.041c-0.66,0-1.195-0.534-1.195-1.195c0-0.659,0.535-1.194,1.195-1.194h3.041
			c0.659,0,1.195,0.535,1.195,1.194C141.261,16.411,140.725,16.945,140.065,16.945z M133.982,16.945h-3.041
			c-0.659,0-1.194-0.534-1.194-1.195c0-0.659,0.535-1.194,1.194-1.194h3.041c0.66,0,1.195,0.535,1.195,1.194
			C135.178,16.411,134.643,16.945,133.982,16.945z M127.9,16.945h-3.042c-0.659,0-1.194-0.534-1.194-1.195
			c0-0.659,0.535-1.194,1.194-1.194h3.042c0.659,0,1.195,0.535,1.195,1.194C129.096,16.411,128.56,16.945,127.9,16.945z
			 M121.817,16.945h-3.041c-0.66,0-1.194-0.534-1.194-1.195c0-0.659,0.534-1.194,1.194-1.194h3.041c0.66,0,1.194,0.535,1.194,1.194
			C123.012,16.411,122.478,16.945,121.817,16.945z M115.735,16.945h-3.041c-0.66,0-1.196-0.534-1.196-1.195
			c0-0.659,0.536-1.194,1.196-1.194h3.041c0.66,0,1.194,0.535,1.194,1.194C116.93,16.411,116.396,16.945,115.735,16.945z
			 M109.652,16.945h-3.041c-0.66,0-1.195-0.534-1.195-1.195c0-0.659,0.535-1.194,1.195-1.194h3.041c0.659,0,1.195,0.535,1.195,1.194
			C110.848,16.411,110.312,16.945,109.652,16.945z M103.57,16.945h-3.042c-0.659,0-1.194-0.534-1.194-1.195
			c0-0.659,0.535-1.194,1.194-1.194h3.042c0.659,0,1.194,0.535,1.194,1.194C104.765,16.411,104.229,16.945,103.57,16.945z"/>
		<path fill="#B5B5B5" d="M144.699,16.945h-1.593c-0.66,0-1.195-0.534-1.195-1.195c0-0.659,0.535-1.194,1.195-1.194h1.593
			c0.66,0,1.196,0.535,1.196,1.194C145.896,16.411,145.359,16.945,144.699,16.945z"/>
		<g>
			<polygon fill="#B5B5B5" points="142.957,21.675 153.274,15.718 142.957,9.76 			"/>
		</g>
	</g>
	<g>
		<path fill="#B5B5B5" d="M222.038,16.945h-1.593c-0.66,0-1.195-0.534-1.195-1.195c0-0.659,0.535-1.194,1.195-1.194h1.593
			c0.66,0,1.195,0.535,1.195,1.194C223.233,16.411,222.698,16.945,222.038,16.945z"/>
		<path fill="#B5B5B5" d="M264.617,16.945h-3.041c-0.66,0-1.196-0.534-1.196-1.195c0-0.659,0.536-1.194,1.196-1.194h3.041
			c0.659,0,1.194,0.535,1.194,1.194C265.812,16.411,265.276,16.945,264.617,16.945z M258.533,16.945h-3.041
			c-0.659,0-1.194-0.534-1.194-1.195c0-0.659,0.535-1.194,1.194-1.194h3.041c0.66,0,1.196,0.535,1.196,1.194
			C259.729,16.411,259.193,16.945,258.533,16.945z M252.451,16.945h-3.041c-0.659,0-1.195-0.534-1.195-1.195
			c0-0.659,0.536-1.194,1.195-1.194h3.041c0.66,0,1.195,0.535,1.195,1.194C253.646,16.411,253.111,16.945,252.451,16.945z
			 M246.368,16.945h-3.041c-0.66,0-1.194-0.534-1.194-1.195c0-0.659,0.534-1.194,1.194-1.194h3.041c0.66,0,1.196,0.535,1.196,1.194
			C247.564,16.411,247.028,16.945,246.368,16.945z M240.286,16.945h-3.041c-0.66,0-1.194-0.534-1.194-1.195
			c0-0.659,0.534-1.194,1.194-1.194h3.041c0.66,0,1.194,0.535,1.194,1.194C241.48,16.411,240.946,16.945,240.286,16.945z
			 M234.204,16.945h-3.042c-0.659,0-1.195-0.534-1.195-1.195c0-0.659,0.536-1.194,1.195-1.194h3.042
			c0.659,0,1.194,0.535,1.194,1.194C235.398,16.411,234.863,16.945,234.204,16.945z M228.121,16.945h-3.041
			c-0.66,0-1.195-0.534-1.195-1.195c0-0.659,0.535-1.194,1.195-1.194h3.041c0.659,0,1.194,0.535,1.194,1.194
			C229.315,16.411,228.78,16.945,228.121,16.945z"/>
		<path fill="#B5B5B5" d="M269.251,16.945h-1.594c-0.659,0-1.195-0.534-1.195-1.195c0-0.659,0.536-1.194,1.195-1.194h1.594
			c0.659,0,1.195,0.535,1.195,1.194C270.446,16.411,269.91,16.945,269.251,16.945z"/>
		<g>
			<polygon fill="#B5B5B5" points="267.508,21.675 277.825,15.718 267.508,9.76 			"/>
		</g>
	</g>
</g>
</svg>
